<?xml version="1.0" encoding="UTF-8" standalone="no"?>
<svg xmlns:dc="http://purl.org/dc/elements/1.1/" xmlns:cc="http://creativecommons.org/ns#" xmlns:rdf="http://www.w3.org/1999/02/22-rdf-syntax-ns#" xmlns:svg="http://www.w3.org/2000/svg" xmlns="http://www.w3.org/2000/svg" xmlns:sodipodi="http://sodipodi.sourceforge.net/DTD/sodipodi-0.dtd" xmlns:inkscape="http://www.inkscape.org/namespaces/inkscape" version="1.1" id="svg2" width="620.61969" height="649.0141" viewBox="0 0 620.61969 649.0141" sodipodi:docname="deathknight-blood.svg" inkscape:version="1.0.2 (e86c870879, 2021-01-15)">
  <metadata id="metadata8">
    <rdf:RDF>
      <cc:Work rdf:about="">
        <dc:format>image/svg+xml</dc:format>
        <dc:type rdf:resource="http://purl.org/dc/dcmitype/StillImage" />
        <dc:title></dc:title>
      </cc:Work>
    </rdf:RDF>
  </metadata>
  <defs id="defs6" />
  <sodipodi:namedview pagecolor="#ffffff" bordercolor="#666666" borderopacity="1" objecttolerance="10" gridtolerance="10" guidetolerance="10" inkscape:pageopacity="0" inkscape:pageshadow="2" inkscape:window-width="1463" inkscape:window-height="886" id="namedview4" showgrid="false" inkscape:zoom="1.2079861" inkscape:cx="310.30984" inkscape:cy="324.50705" inkscape:window-x="0" inkscape:window-y="25" inkscape:window-maximized="0" inkscape:current-layer="g10" />
  <g inkscape:groupmode="layer" inkscape:label="Image" id="g10">
    <path style="fill:#000000;stroke-width:1.35211" d="M 234.59154,638.92317 C 218.45371,635.84339 208.08537,632.77819 193.3521,626.73153 139.54501,604.64867 101.99985,565.45979 84.647124,513.26747 77.852758,492.83186 75.387453,477.1414 75.2774,453.63381 c -0.107966,-23.06204 1.31575,-35.1673 6.679009,-56.78873 9.867681,-39.78055 21.900671,-64.33028 75.566441,-154.17081 58.6699,-98.21781 80.0617,-139.82052 88.57414,-172.258674 1.92273,-7.326905 2.73219,-6.33161 7.53033,9.259199 9.47657,30.792505 30.98882,71.227875 95.36636,179.254785 35.29959,59.23349 49.31091,86.21716 58.62429,112.90141 31.82062,91.17098 9.42329,177.83682 -59.44897,230.03617 -19.56882,14.83151 -45.74339,27.14445 -71.47853,33.62465 -19.14136,4.81986 -30.13015,5.71553 -42.09893,3.43136 z M 485.37019,324.67341 c -19.80526,-6.33896 -38.06132,-21.07888 -45.81686,-36.9925 -6.63471,-13.61379 -8.68457,-23.96159 -7.83832,-39.56823 1.23955,-22.85963 6.07534,-34.66126 32.28998,-78.80282 18.73895,-31.5536 27.49752,-47.88461 32.32695,-60.27609 2.97426,-7.63141 3.96188,-9.087043 4.71497,-6.94926 5.75769,16.34436 10.88858,25.99543 42.25951,79.48908 8.19546,13.9749 16.69836,30.39965 18.89926,36.50705 9.71842,26.96818 8.96224,48.9087 -2.45861,71.33652 -4.68279,9.19588 -20.75016,24.42332 -31.13234,29.50489 -17.15274,8.39542 -29.74928,10.07072 -43.24454,5.75136 z M 370.47886,155.66115 c -23.52941,-7.7434 -36.50493,-28.86438 -32.46113,-52.8388 1.90564,-11.297858 5.52034,-19.052997 21.33778,-45.779012 6.73909,-11.386729 13.93693,-24.568743 15.9952,-29.293361 l 3.74229,-8.590218 6.2361,12.391952 c 3.42985,6.815574 10.68397,19.917212 16.12026,29.114754 12.71728,21.516115 17.33829,31.498088 19.17093,41.411705 3.94491,21.34003 -6.33516,41.73521 -25.60104,50.79125 -6.75729,3.1763 -19.10387,4.58086 -24.54039,2.79173 z" id="path14" />
  </g>
</svg>
