<?xml version="1.0" encoding="UTF-8" standalone="no"?>
<svg xmlns:dc="http://purl.org/dc/elements/1.1/" xmlns:cc="http://creativecommons.org/ns#" xmlns:rdf="http://www.w3.org/1999/02/22-rdf-syntax-ns#" xmlns:svg="http://www.w3.org/2000/svg" xmlns="http://www.w3.org/2000/svg" xmlns:sodipodi="http://sodipodi.sourceforge.net/DTD/sodipodi-0.dtd" xmlns:inkscape="http://www.inkscape.org/namespaces/inkscape" version="1.1" id="svg2" width="658.47888" height="649.0141" viewBox="0 0 658.47888 649.0141" sodipodi:docname="deathknight-frost.svg" inkscape:version="1.0.2 (e86c870879, 2021-01-15)">
  <metadata id="metadata8">
    <rdf:RDF>
      <cc:Work rdf:about="">
        <dc:format>image/svg+xml</dc:format>
        <dc:type rdf:resource="http://purl.org/dc/dcmitype/StillImage" />
        <dc:title></dc:title>
      </cc:Work>
    </rdf:RDF>
  </metadata>
  <defs id="defs6" />
  <sodipodi:namedview pagecolor="#ffffff" bordercolor="#666666" borderopacity="1" objecttolerance="10" gridtolerance="10" guidetolerance="10" inkscape:pageopacity="0" inkscape:pageshadow="2" inkscape:window-width="814" inkscape:window-height="480" id="namedview4" showgrid="false" inkscape:zoom="0.60399304" inkscape:cx="422.23914" inkscape:cy="239.48617" inkscape:window-x="0" inkscape:window-y="25" inkscape:window-maximized="0" inkscape:current-layer="g10" />
  <g inkscape:groupmode="layer" inkscape:label="Image" id="g10">
    <path style="fill:#000000;stroke-width:1.35211" d="M 9.4647888,630.67765 V 612.34122 L 25.437165,591.09915 C 57.0653,549.03611 75.296166,518.50486 90.054513,482.88441 c 1.285359,-3.10232 1.502827,-2.96576 7.116098,4.46897 7.016909,9.29383 11.760149,12.00565 14.483849,8.28077 1.0104,-1.3818 3.74632,-8.65779 6.07984,-16.16887 2.33351,-7.51108 5.45873,-16.09164 6.94492,-19.06793 2.6862,-5.37943 12.8241,-16.90438 14.86991,-16.90438 0.58882,0 1.07154,3.49859 1.07269,7.77465 0.004,14.72924 6.21025,21.01016 15.70691,15.89587 5.98278,-3.22194 7.27691,-7.09227 7.27691,-21.76297 0,-21.49919 5.37245,-41.30314 16.08837,-59.3049 l 4.86937,-8.18012 0.74657,13.6219 c 0.63655,11.61466 1.29247,14.55344 4.45136,19.94366 4.47388,7.63413 7.9026,8.21844 11.30975,1.9274 2.12884,-3.93073 2.3397,-8.10347 1.99862,-39.5493 -0.44137,-40.6915 0.97686,-52.6112 7.65002,-64.29547 4.56157,-7.98701 4.57447,-7.97532 6.91491,6.27104 3.66174,22.28926 16.51014,36.50891 26.14222,28.9323 4.34918,-3.42107 4.78357,-9.05299 1.63162,-21.15415 -3.98935,-15.31615 -1.79925,-40.38725 4.62872,-52.9871 3.58965,-7.0363 12.36699,-14.63355 18.95663,-16.40796 3.01679,-0.81233 5.48508,-1.93292 5.48508,-2.4902 0,-1.87416 -17.46139,-12.51453 -31.4365,-19.15632 -23.3563,-11.1003 -59.39,-22.00073 -87.21714,-26.38378 -3.16373,-0.49831 -5.43415,-1.42068 -5.04539,-2.04969 0.38874,-0.62902 5.41104,-2.95486 11.16067,-5.16855 29.19057,-11.23881 70.63517,-13.62003 107.00401,-6.14798 15.58848,3.20269 39.25627,11.22232 41.7643,14.1515 1.22661,1.43256 2.99739,2.60467 3.93508,2.60467 3.17138,0 8.64861,13.28567 9.45815,22.94178 1.95407,23.30806 -4.39468,44.28448 -33.77498,111.59343 -13.78925,31.59058 -46.8467,108.40576 -48.31924,112.27886 -1.67841,4.41453 -3.59706,5.62294 29.09075,-18.32209 14.87324,-10.89518 41.03662,-30.04986 58.14085,-42.56592 17.10423,-12.51608 36.00272,-26.55606 41.99665,-31.19999 15.2758,-11.83527 52.52887,-29.38848 70.05194,-33.00765 11.21438,-2.3162 18.80367,-0.90574 23.19268,4.3103 10.98209,13.05147 23.69906,47.67451 29.19742,79.49241 3.41616,19.76867 1.3622,77.84049 -2.84515,80.44077 -0.48477,0.29961 -2.28628,-3.83474 -4.00336,-9.18746 -11.00722,-34.31326 -31.6469,-71.70564 -48.91111,-88.61101 -6.7156,-6.57603 -20.85923,-15.093 -25.06404,-15.093 -0.99673,0 -1.81221,-0.54265 -1.81221,-1.20589 0,-2.50144 -12.95294,-15.485 -17.23234,-17.27305 -5.05935,-2.11393 -7.91001,-1.1707 -14.20428,4.69993 l -3.71831,3.46804 v 19.85161 c 0,30.77492 -4.41403,50.26081 -15.79076,69.70905 -3.87711,6.62783 -5.82113,8.59216 -9.67326,9.77442 -5.74942,1.76455 -6.36269,1.39803 -4.25389,-2.54228 1.37995,-2.57847 1.11826,-3.47071 -1.90434,-6.49333 -2.95835,-2.95835 -4.98455,-3.58778 -13.00894,-4.0412 -11.85513,-0.66988 -18.6042,0.99581 -30.24028,7.46331 -40.98788,22.78165 -68.99639,68.65592 -72.07796,118.05418 l -0.80132,12.84507 -10.58128,7.19515 c -12.17836,8.28111 -28.80729,22.20569 -42.48851,35.5786 l -9.49658,9.28259 H 87.5175 9.4647888 Z M 280.96856,329.36016 c 4.11583,-2.15021 10.09056,-8.22655 12.08425,-12.28973 0.72977,-1.48732 1.41298,-5.41224 1.51822,-8.72202 0.10519,-3.3098 0.79938,-6.62585 1.54254,-7.36901 1.70661,-1.70661 1.68267,-9.22774 -0.0534,-16.75369 -2.12532,-9.21369 -6.63695,-17.59349 -13.47768,-25.0331 l -6.34171,-6.89687 -1.8744,9.40143 c -1.61117,8.08102 -1.99647,23.45983 -1.16713,46.58453 0.0933,2.60281 -0.26396,7.9011 -0.79402,11.77395 -1.51991,11.1053 0.63481,13.44653 8.56327,9.30451 z m -15.95447,95.27735 c 0,-0.82684 1.75438,-4.98459 3.89861,-9.23944 2.14424,-4.25484 10.28295,-22.03468 18.08604,-39.51074 40.19357,-90.01901 56.40935,-133.15176 54.51418,-145.00357 -1.38183,-8.64147 -7.55367,-19.83011 -13.83483,-25.08051 -7.87706,-6.5844 -7.68346,-9.427 1.22332,-17.96234 8.45515,-8.10257 22.936,-15.57744 34.11363,-17.60914 8.44258,-1.53456 29.52065,-1.24748 31.19163,0.42482 0.53112,0.53156 0.89043,4.18226 0.79846,8.11268 -0.52472,22.42503 14.25972,36.31261 36.65859,34.43477 l 9.38414,-0.78673 -1.12155,3.6505 c -0.61685,2.00778 -1.13149,6.69276 -1.14365,10.41107 -0.0462,14.15654 11.64575,22.20076 33.9649,23.3682 14.96266,0.78264 15.35299,1.14463 19.67863,18.25021 5.06687,20.03674 1.58143,40.99146 -9.49517,57.08582 -4.48473,6.51633 -8.01911,7.30856 -13.22342,2.96406 -7.14731,-5.96647 -13.01265,-8.13189 -23.75198,-8.76897 l -10.38241,-0.61588 -14.28443,7.56032 c -17.31245,9.16297 -63.70426,38.51458 -115.71131,73.20933 -21.19437,14.13911 -38.99155,25.91029 -39.5493,26.15818 -0.55774,0.24789 -1.01408,-0.22581 -1.01408,-1.05264 z m 298.49254,-85.22215 c -6.53938,-5.14387 -7.35882,-20.19807 -1.69557,-31.1496 1.75461,-3.39302 1.82125,-4.51575 0.38233,-6.44105 -3.00764,-4.02428 -18.96248,-18.49151 -27.6232,-25.04762 -8.51593,-6.44652 -29.90526,-19.87568 -31.65703,-19.87568 -0.53811,0 -1.36566,-2.06429 -1.83898,-4.58731 -0.80368,-4.28399 -0.29956,-5.12567 7.62417,-12.72907 11.23245,-10.77835 18.39341,-16.37664 22.15584,-17.32094 2.24162,-0.56262 6.51079,1.35076 15.66297,7.01984 14.34146,8.88346 28.07397,15.44847 32.31472,15.44847 2.62075,0 2.43378,-0.50637 -1.99849,-5.41234 -2.68935,-2.9768 -4.88557,-6.17117 -4.88049,-7.0986 0.005,-0.92744 2.03542,-3.06568 4.51184,-4.75166 4.30653,-2.93193 4.72436,-2.97275 9.59531,-0.93754 7.57858,3.16653 17.59998,13.24327 21.17448,21.29139 2.82158,6.35293 3.15354,9.25434 3.35898,29.35946 0.25588,25.04046 -0.98386,30.31179 -8.64497,36.75819 -2.78176,2.34069 -4.75071,5.69122 -5.80503,9.87835 -3.53677,14.04576 -22.86532,23.28201 -32.63688,15.59571 z M 469.67619,235.33169 c -11.27642,-2.68983 -18.65077,-13.77771 -18.71106,-28.13344 -0.0292,-6.96154 -0.39552,-8.32458 -2.06372,-7.67978 -19.18393,7.41512 -35.7354,1.10482 -39.33909,-14.99812 -1.37322,-6.13619 -1.28191,-8.73469 0.57071,-16.24207 2.47127,-10.01423 14.22739,-38.47546 15.89258,-38.47546 1.94538,0 2.91689,-11.82643 1.35923,-16.54621 -1.69957,-5.14973 -8.92983,-12.53008 -17.00341,-17.356386 l -5.39324,-3.224015 7.42141,-1.812369 c 4.08177,-0.996803 13.81012,-2.133542 21.61857,-2.526087 13.70765,-0.689109 14.45361,-0.578801 21.63381,3.199075 6.47705,3.407917 8.00345,5.03872 11.8296,12.638692 3.60382,7.15835 4.79188,11.88355 6.61346,26.30336 3.42484,27.1113 3.60159,31.89562 1.413,38.24806 l -1.98557,5.76316 4.92391,-0.88818 c 2.70815,-0.48851 9.25147,-1.97854 14.5407,-3.31118 12.82906,-3.23232 36.07477,-4.72891 43.24941,-2.78446 11.59969,3.14373 19.21473,11.04748 22.86583,23.73271 1.92684,6.69453 3.6624,32.46516 2.27956,33.84802 -0.3841,0.38408 -3.91307,-2.342 -7.84218,-6.05799 -8.01623,-7.58142 -11.86771,-9.45155 -19.46519,-9.45155 -7.60835,0 -11.88803,2.04621 -19.667,9.40325 -7.94849,7.51735 -17.48851,12.7294 -28.59436,15.6221 -8.40292,2.18869 -9.76861,2.25033 -16.14696,0.72887 z m -83.25586,-80.82085 c -13.98747,-17.31382 -48.96241,-46.24775 -55.98446,-46.3146 -1.57295,-0.015 -4.42753,1.20587 -6.3435,2.71298 -8.33621,6.55726 -22.89354,8.91855 -28.92748,4.69222 -6.5795,-4.60846 -7.26316,-19.062006 -1.32219,-27.953082 1.65136,-2.471385 5.87816,-6.014553 9.39288,-7.873708 3.51472,-1.859155 6.39216,-4.119674 6.39432,-5.023375 0.005,-2.383481 7.92174,-11.031774 12.05342,-13.16835 1.94447,-1.005527 6.56965,-2.246032 10.27815,-2.756676 3.70852,-0.510645 9.79571,-2.029211 13.52709,-3.374591 21.25485,-7.663617 41.50107,-2.975508 53.84181,12.467331 l 4.03217,5.045748 -2.45,5.433125 c -1.3475,2.988219 -3.11816,5.430008 -3.93478,5.426199 -0.81664,-0.0038 -3.9186,-1.505948 -6.89325,-3.338084 -6.88908,-4.243098 -7.67639,-4.222224 -6.0105,0.159358 1.8975,4.990805 8.19097,12.846195 20.53552,25.632025 9.41598,9.75258 10.43942,11.30904 9.33528,14.19719 -0.68206,1.78407 -2.59157,4.46066 -4.24337,5.94799 -3.68891,3.32158 -7.0222,9.81561 -10.06333,19.60563 -1.27054,4.09014 -2.84371,8.65352 -3.49594,10.14085 -0.65222,1.48732 -1.36934,3.87291 -1.59359,5.30129 -0.31208,1.98781 -2.2189,0.35518 -8.12825,-6.95947 z m 102.49194,-5.60203 c -0.2818,-0.46886 -0.60634,-8.51005 -0.72122,-17.86931 l -0.20886,-17.01684 5.13567,-6.81787 c 2.82462,-3.74983 22.78074,-29.389841 44.34693,-56.9778 L 576.67606,0.06706367 613.6612,0.03353184 650.64633,0 646.20948,5.0704227 C 643.76922,7.8591551 634.33059,18.35493 625.23476,28.394367 616.13892,38.433804 601.18797,55.829993 592.01041,67.052563 541.6266,128.66331 525.60125,147.41245 522.8438,147.97527 c -5.13183,1.04747 -33.3957,1.82507 -33.93153,0.93354 z" id="path14" />
  </g>
</svg>
