<?xml version="1.0" encoding="UTF-8" standalone="no"?>
<svg xmlns:dc="http://purl.org/dc/elements/1.1/" xmlns:cc="http://creativecommons.org/ns#" xmlns:rdf="http://www.w3.org/1999/02/22-rdf-syntax-ns#" xmlns:svg="http://www.w3.org/2000/svg" xmlns="http://www.w3.org/2000/svg" xmlns:sodipodi="http://sodipodi.sourceforge.net/DTD/sodipodi-0.dtd" xmlns:inkscape="http://www.inkscape.org/namespaces/inkscape" version="1.1" id="svg2" width="680.11267" height="649.0141" viewBox="0 0 680.11267 649.0141" sodipodi:docname="deathknight-unholy.svg" inkscape:version="1.0.2 (e86c870879, 2021-01-15)">
  <metadata id="metadata8">
    <rdf:RDF>
      <cc:Work rdf:about="">
        <dc:format>image/svg+xml</dc:format>
        <dc:type rdf:resource="http://purl.org/dc/dcmitype/StillImage" />
        <dc:title></dc:title>
      </cc:Work>
    </rdf:RDF>
  </metadata>
  <defs id="defs6" />
  <sodipodi:namedview pagecolor="#ffffff" bordercolor="#666666" borderopacity="1" objecttolerance="10" gridtolerance="10" guidetolerance="10" inkscape:pageopacity="0" inkscape:pageshadow="2" inkscape:window-width="812" inkscape:window-height="480" id="namedview4" showgrid="false" inkscape:zoom="0.60399304" inkscape:cx="527.94964" inkscape:cy="395.02452" inkscape:window-x="0" inkscape:window-y="25" inkscape:window-maximized="0" inkscape:current-layer="g10" />
  <g inkscape:groupmode="layer" inkscape:label="Image" id="g10">
    <path style="fill:#000000;stroke-width:1.35211" d="m 63.870556,630.02068 c -18.837308,-9.60806 -28.40776,-38.86893 -19.934818,-60.94907 0.623174,-1.62397 -1.047513,-3.25544 -6.464076,-6.31236 -8.678901,-4.89807 -13.671748,-10.47367 -18.41293,-20.56205 -3.044024,-6.47714 -3.489209,-9.18113 -3.450471,-20.95775 0.06873,-20.89448 5.884673,-30.94395 22.679493,-39.18828 21.230309,-10.42164 37.351181,-6.88627 43.635695,9.56949 1.694999,4.4383 2.8852,5.87097 4.395774,5.29131 2.034037,-0.78054 33.256117,-18.88802 90.782157,-52.6498 28.72751,-16.86006 29.06843,-17.0154 31.18463,-14.20991 1.17678,1.56009 2.8221,5.38838 3.6563,8.50731 2.06273,7.7123 12.50278,23.16906 26.53566,39.28669 6.41458,7.36754 11.66287,13.83108 11.66287,14.36344 0,0.53235 -5.93239,4.31824 -13.1831,8.4131 -7.2507,4.09486 -25.04788,14.29659 -39.54929,22.67051 -14.50141,8.37392 -39.14366,22.52167 -54.76056,31.43943 -15.61691,8.91777 -28.62265,16.41316 -28.90166,16.65643 -0.279,0.24328 0.48156,2.91367 1.69015,5.93422 5.33766,13.34014 0.969,28.6712 -11.61337,40.75511 -10.089229,9.68954 -17.138897,13.49224 -26.41403,14.24811 -6.177636,0.50344 -8.959334,0.0296 -13.538424,-2.30593 z m 515.845004,0.83894 c -10.26966,-3.66489 -23.95355,-16.44078 -28.83234,-26.91917 -3.87245,-8.31704 -4.28958,-18.59593 -1.08016,-26.61706 1.20858,-3.02055 1.96914,-5.69094 1.69014,-5.93422 -0.27901,-0.24327 -13.28475,-7.73866 -28.90166,-16.65643 -15.6169,-8.91776 -40.25915,-23.06551 -54.76056,-31.43943 -14.50141,-8.37392 -32.29859,-18.57565 -39.54929,-22.67051 -7.25071,-4.09486 -13.1831,-7.88075 -13.1831,-8.4131 0,-0.53236 5.24829,-6.9959 11.66288,-14.36344 14.03287,-16.11763 24.47292,-31.57439 26.53565,-39.28669 0.8342,-3.11893 2.47952,-6.94722 3.6563,-8.50731 2.1162,-2.80549 2.45712,-2.65015 31.18463,14.20991 57.52604,33.76178 88.74812,51.86926 90.78216,52.6498 1.51058,0.57966 2.70077,-0.85301 4.39577,-5.29131 6.28451,-16.45576 22.40538,-19.99113 43.63569,-9.56949 16.79482,8.24433 22.61077,18.2938 22.6795,39.18828 0.0388,11.77662 -0.40645,14.48061 -3.45047,20.95775 -4.74118,10.08838 -9.73404,15.66398 -18.41294,20.56205 -5.41656,3.05692 -7.08724,4.68839 -6.46407,6.31236 6.361,16.57651 2.53443,39.03048 -8.85697,51.97179 -9.35981,10.63332 -20.81486,14.06872 -32.73116,9.81622 z M 316.48724,501.60374 c -19.80268,-4.18001 -37.77415,-14.23795 -52.82527,-29.56421 -15.19334,-15.4711 -20.59127,-23.48418 -51.10939,-75.87051 -14.65699,-25.1597 -24.84431,-35.15493 -35.83052,-35.15493 -4.61951,0 -4.98789,-0.3282 -6.44587,-5.74273 -9.90051,-36.76766 -12.63402,-83.46255 -5.79815,-99.046 2.10724,-4.80379 2.38988,-10.85045 2.52801,-54.08451 0.15829,-49.53904 0.6373,-55.99703 6.26819,-84.50704 9.25414,-46.855041 29.24112,-78.278053 62.15332,-97.715844 C 247.38699,12.854771 261.58437,7.6341757 280.05013,3.5095512 294.85943,0.20165395 297.88001,0 332.61972,0 c 34.7397,0 37.76028,0.20165395 52.56958,3.5095512 18.46576,4.1246245 32.66314,9.3452198 44.62257,16.4084148 32.8427,19.396745 52.91872,50.959748 62.15332,97.715844 5.63089,28.51001 6.1099,34.968 6.26819,84.50704 0.13814,43.23406 0.42077,49.28072 2.52801,54.08451 6.79984,15.50129 4.05016,62.47219 -5.79814,99.046 -1.45799,5.41453 -1.82637,5.74273 -6.44588,5.74273 -10.98621,0 -21.17353,9.99523 -35.83052,35.15493 -21.73578,37.31086 -28.81557,48.85157 -35.24988,57.46055 -16.87259,22.57517 -36.95413,38.35953 -56.92247,44.7418 -12.22612,3.90771 -33.44702,5.4657 -44.02726,3.23237 z m -0.62177,-166.19624 7.96551,-9.38126 h 8.78874 8.78873 l 7.96551,9.38126 c 4.38103,5.15967 9.05237,9.38124 10.38074,9.38124 2.98934,0 8.01994,-6.17422 8.01994,-9.84315 0,-1.62898 -5.53137,-8.3389 -13.80616,-16.7478 -13.36977,-13.58644 -13.79363,-14.20336 -13.40989,-19.51826 0.47493,-6.57766 -2.57429,-10.67952 -7.93887,-10.67952 -5.36459,0 -8.41381,4.10186 -7.93888,10.67952 0.38374,5.3149 -0.0402,5.93182 -13.40989,19.51826 -8.27479,8.4089 -13.80616,15.11882 -13.80616,16.7478 0,3.66893 5.0306,9.84315 8.01994,9.84315 1.32837,0 5.99971,-4.22157 10.38074,-9.38124 z m -50.17533,-48.16408 c 12.64225,-4.26408 23.80689,-8.39669 24.81029,-9.18356 2.879,-2.25772 1.4464,-53.38286 -1.73849,-62.04129 -4.48958,-12.20539 -14.00989,-16.69166 -32.95833,-15.53099 -15.07442,0.92336 -26.5785,6.34922 -32.53801,15.34643 -6.0541,9.14003 -8.84083,23.26346 -8.90344,45.12374 -0.0483,16.82321 0.21258,18.78327 3.32798,25.01409 1.85915,3.71831 4.90141,7.55124 6.76056,8.51762 5.65719,2.94057 16.88894,0.96708 41.23944,-7.24604 z m 177.73326,5.55192 c 5.52226,-4.99757 7.51087,-13.68785 7.44012,-32.51364 -0.0796,-21.18221 -2.93462,-35.45719 -8.88969,-44.44769 -5.95951,-8.99721 -17.46359,-14.42307 -32.53801,-15.34643 -18.94844,-1.16067 -28.46875,3.3256 -32.95833,15.53099 -3.18493,8.65855 -4.61734,59.78085 -1.73849,62.04618 1.0034,0.78957 12.16804,4.83118 24.81029,8.98135 12.64226,4.15018 23.89859,7.87267 25.01409,8.27218 4.19336,1.50188 16.18526,-0.10236 18.86002,-2.52294 z M 109.52113,315.69278 C 92.788732,305.7877 78.715755,298.09066 78.247844,298.58825 c -0.467909,0.49759 -1.567185,3.14792 -2.442835,5.88963 -5.034311,15.76269 -23.154115,19.51069 -44.292151,9.16163 -14.504311,-7.10123 -22.0480694,-20.18973 -22.0480694,-38.25367 0,-11.95776 2.5608034,-21.17141 8.2870744,-29.8165 3.896613,-5.88281 6.227102,-7.83741 17.603309,-14.76401 3.553522,-2.16363 3.565207,-2.22385 1.549511,-7.98565 -3.041407,-8.69377 -1.73663,-26.97584 2.601523,-36.45162 8.846771,-19.32388 26.169539,-27.60831 42.29661,-20.2279 8.72034,3.99079 19.919364,14.10775 25.011204,22.5946 4.11793,6.86358 4.72989,9.02684 4.73239,16.72902 0.002,5.77517 -0.81854,10.44371 -2.36331,13.44819 -1.30141,2.53115 -2.3662,4.75725 -2.3662,4.94687 0,0.18962 6.84507,4.15113 15.21127,8.80337 8.3662,4.65223 16.27605,9.36552 17.57746,10.47395 2.97241,2.53169 3.00164,6.56095 0.0963,13.26211 -3.38446,7.80604 -2.98303,39.41117 0.76804,60.46849 1.56973,8.81194 2.85404,16.26546 2.85404,16.56338 0,1.828 -6.6167,-1.64398 -33.80281,-17.73736 z m 412.39436,17.73736 c 0,-0.29792 1.28432,-7.75144 2.85404,-16.56338 3.75107,-21.05732 4.1525,-52.66245 0.76804,-60.46849 -2.90541,-6.70116 -2.87618,-10.73042 0.0963,-13.26211 1.30141,-1.10843 9.21127,-5.82172 17.57746,-10.47395 8.3662,-4.65224 15.21127,-8.61375 15.21127,-8.80337 0,-0.18962 -1.06479,-2.41572 -2.3662,-4.94687 -1.54477,-3.00448 -2.36519,-7.67302 -2.36331,-13.44819 0.003,-7.70218 0.61446,-9.86544 4.73239,-16.72902 5.09184,-8.48685 16.29086,-18.60381 25.01121,-22.5946 16.12706,-7.38041 33.44983,0.90402 42.29661,20.2279 4.33814,9.47578 5.64293,27.75785 2.60152,36.45162 -2.01569,5.7618 -2.00401,5.82202 1.5495,7.98565 11.37622,6.9266 13.70671,8.8812 17.60332,14.76401 5.72627,8.64509 8.28707,17.85874 8.28707,29.8165 0,18.06394 -7.54376,31.15244 -22.04806,38.25367 -21.51402,10.53314 -38.95412,6.69266 -44.62468,-9.82676 -1.07083,-3.11954 -2.53963,-5.5504 -3.26399,-5.40191 -0.72434,0.14849 -14.88074,8.21046 -31.45864,17.9155 -27.51063,16.10523 -32.46382,18.71486 -32.46382,17.1038 z" id="path14" />
  </g>
</svg>
