<?xml version="1.0" encoding="UTF-8" standalone="no"?>
<svg xmlns:dc="http://purl.org/dc/elements/1.1/" xmlns:cc="http://creativecommons.org/ns#" xmlns:rdf="http://www.w3.org/1999/02/22-rdf-syntax-ns#" xmlns:svg="http://www.w3.org/2000/svg" xmlns="http://www.w3.org/2000/svg" xmlns:sodipodi="http://sodipodi.sourceforge.net/DTD/sodipodi-0.dtd" xmlns:inkscape="http://www.inkscape.org/namespaces/inkscape" version="1.1" id="svg2" width="661.18311" height="649.0141" viewBox="0 0 661.18311 649.0141" sodipodi:docname="demonhunter-havoc.svg" inkscape:version="1.0.2 (e86c870879, 2021-01-15)">
  <metadata id="metadata8">
    <rdf:RDF>
      <cc:Work rdf:about="">
        <dc:format>image/svg+xml</dc:format>
        <dc:type rdf:resource="http://purl.org/dc/dcmitype/StillImage" />
        <dc:title></dc:title>
      </cc:Work>
    </rdf:RDF>
  </metadata>
  <defs id="defs6" />
  <sodipodi:namedview pagecolor="#ffffff" bordercolor="#666666" borderopacity="1" objecttolerance="10" gridtolerance="10" guidetolerance="10" inkscape:pageopacity="0" inkscape:pageshadow="2" inkscape:window-width="1920" inkscape:window-height="1025" id="namedview4" showgrid="false" inkscape:zoom="1.2079861" inkscape:cx="330.59155" inkscape:cy="324.50705" inkscape:window-x="0" inkscape:window-y="25" inkscape:window-maximized="1" inkscape:current-layer="g10" />
  <g inkscape:groupmode="layer" inkscape:label="Image" id="g10">
    <path style="fill:#000000;stroke-width:1.35211" d="m 442.75325,646.10929 c -4.01287,-12.64342 0.11047,-53.68883 7.49536,-74.61178 3.80903,-10.7918 3.9044,-11.65215 2.64307,-23.84378 -4.96147,-47.9561 17.77446,-83.44507 60.23509,-94.02205 9.91848,-2.4707 33.32516,-4.7788 37.47014,-3.69485 2.9409,0.76905 2.97416,-0.13992 0.48323,-13.20443 -6.49856,-34.08375 -2.71337,-76.1813 10.20521,-113.49853 8.70605,-25.14874 9.30136,-23.92881 -9.20008,-18.85302 -43.78575,12.01246 -114.26834,-38.04937 -133.65812,-94.93366 -20.12264,-59.03425 0.47608,-149.573753 43.91174,-193.009408 40.47952,-40.479525 114.64339,34.093354 95.74365,96.271678 l -3.22956,10.62495 -3.13841,-11.97706 C 532.82233,39.25924 490.44665,22.77344 474.67151,81.384587 458.22876,142.47617 474.32218,214.1788 509.07043,234.64563 c 15.41591,9.08001 46.13909,9.71576 57.81093,1.19628 12.24506,-8.93789 14.77045,-10.32905 20.03131,-11.03468 11.03608,-1.48025 15.42243,2.74394 20.71737,19.9515 2.79007,9.06717 3.44874,10.09179 6.36088,9.89503 1.78669,-0.12075 8.20886,-0.65591 14.27149,-1.18932 6.06263,-0.53341 13.21193,-0.55918 15.88733,-0.0573 l 4.86436,0.91262 V 451.66691 649.0141 H 546.34465 443.6752 Z m -234.12387,-4.19378 c -1.3033,-2.4169 -4.78943,-9.26197 -7.74694,-15.21127 l -5.37731,-10.8169 -0.51106,-31.58864 c -1.14289,-70.64239 15.98873,-130.90463 53.03321,-186.54977 11.53589,-17.32826 11.19457,-17.55592 -5.47622,-3.65263 -50.33081,41.97548 -89.66027,106.5801 -107.85687,177.17132 -1.15019,4.46197 -3.65831,14.46823 -5.57361,22.23613 -3.41882,13.86574 -14.90942,39.69443 -21.08615,47.39767 l -2.71043,3.38029 0.52332,-27.04226 c 0.4037,-20.86079 1.02407,-28.27854 2.71397,-32.4507 1.20486,-2.97465 4.66022,-14.06081 7.67858,-24.63592 27.78416,-97.34439 67.83021,-157.83187 139.98549,-211.44085 43.48636,-32.30893 53.11757,-41.65377 61.58985,-59.75863 6.88201,-14.70653 6.77345,-16.74415 -1.36663,-25.6507 -39.43212,-43.14502 -131.52541,-0.26775 -253.575339,118.0609 -9.667606,9.37285 -20.315494,18.60951 -23.661973,20.5259 -5.260978,3.01276 -13.388933,10.85802 -30.1635061,29.1144 -5.3435684,5.8156 -5.3596703,5.72092 -1.6048632,-9.43744 3.7590443,-15.17548 4.6016303,-16.62158 28.9788763,-49.73542 24.37152,-33.10606 31.971529,-44.11267 41.098893,-59.52094 11.450757,-19.33051 21.065878,-27.34782 69.505012,-57.95493 27.68994,-17.49638 31.63339,-40.46995 11.13692,-64.88109 -9.98731,-11.89481 -10.01464,-11.69812 1.04867,-7.54937 20.10247,7.53844 26.99809,12.97277 33.00026,26.00694 5.35672,11.63253 7.25497,12.3345 23.35458,8.63629 27.20673,-6.24958 44.90222,-6.63279 90.96299,-1.96977 17.11645,1.7328 22.10105,-6.81231 18.1117,-31.04882 -1.26997,-7.71553 -1.44746,-7.67738 6.2883,-1.35211 10.11229,8.26848 16.25146,17.09415 19.36245,27.83554 5.42322,18.72481 15.83497,32.81054 23.4485,31.72276 7.63532,-1.09088 10.63007,-26.55602 6.40185,-54.43657 -1.84074,-12.13764 -1.81119,-12.13645 6.29382,0.25359 13.05228,19.95287 15.17093,27.30643 16.32155,56.64987 1.0745,27.40205 1.14202,27.55129 12.0583,26.64487 9.73213,-0.80808 18.14122,3.13823 23.5424,11.04825 4.85463,7.10958 5.12372,6.77513 -5.44453,6.76735 -14.60868,-0.0108 -21.39314,6.72834 -24.77438,24.60875 -3.72329,19.68906 4.95386,107.52287 12.05625,122.03876 l 2.33991,4.78233 10.33161,0.39224 c 12.90699,0.49004 14.88509,3.76053 6.87593,11.36828 -10.56875,10.03908 -18.46506,26.74835 -20.07737,42.4854 -1.27196,12.41507 -2.91552,14.03577 -14.23388,14.03577 h -9.06611 l -3.47847,-7.35289 c -1.91316,-4.0441 -3.47847,-7.72402 -3.47847,-8.17763 0,-0.4536 -2.11095,-4.12467 -4.691,-8.15793 -18.37941,-28.73166 -50.23316,-16.42486 -64.45134,24.90102 -1.39231,4.04682 -4.28236,10.14501 -6.42233,13.55151 -2.13998,3.40651 -4.25568,7.10634 -4.70158,8.22183 -0.44589,1.1155 -0.64066,-7.09859 -0.4328,-18.25352 0.36387,-19.52791 0.53956,-20.64355 4.72739,-30.01845 4.602,-10.30205 6.96875,-19.1314 10.43786,-38.9393 2.55689,-14.59931 9.71211,-31.8363 24.13473,-58.14084 19.33002,-35.2548 19.73564,-47.10052 1.60728,-46.93762 -38.03445,0.34177 -102.3161,87.81914 -126.98422,172.8059 -7.51045,25.8751 -8.07522,30.62912 -8.65934,72.89229 -0.95533,69.12004 -0.648,65.8347 -5.34373,57.12676 z m -35.55895,-46.59677 c -5.40585,-2.93558 -7.27348,-3.22986 -16.74393,-2.63819 l -10.65942,0.66596 0.80252,-7.65916 c 4.23976,-40.46404 34.39141,-109.75756 55.66826,-127.93495 l 7.68408,-6.56472 -4.66549,9.33574 c -10.53612,21.08298 -15.18817,45.05856 -20.56972,106.0118 -2.39206,27.09331 -3.14573,32.52318 -4.47898,32.26919 -0.52405,-0.0998 -3.69085,-1.66839 -7.03732,-3.48567 z m 53.14069,-30.81168 c 2.24931,-28.30515 35.45279,-113.10898 61.55926,-157.22635 18.51677,-31.29152 31.19172,-44.716 48.73142,-51.61315 l 7.26236,-2.85579 -3.61356,5.7913 c -13.26017,21.25156 -24.44056,54.08012 -30.51096,89.58821 -4.05563,23.72283 -3.08243,21.86765 -11.93855,22.75812 -13.96512,1.4042 -46.6866,46.86032 -65.88728,91.52949 -5.44547,12.66856 -6.47795,13.04233 -5.60269,2.02817 z M 98.704227,542.32124 c 0,-38.54531 -19.837246,-98.7605 -39.456462,-119.76858 -5.217697,-5.58705 -8.764965,-10.15828 -7.882817,-10.15828 0.882148,0 12.350702,-10.51187 25.485676,-23.35971 78.894286,-77.16963 149.612296,-119.99833 198.980366,-120.50775 13.43653,-0.13865 19.9907,1.40276 25.50481,5.99822 l 3.19495,2.66267 -5.75406,9.68552 c -8.51647,14.33534 -21.58205,26.55571 -54.72035,51.1805 -67.25625,49.97753 -113.81632,114.68586 -141.29468,196.36872 -2.866955,8.52238 -4.057433,10.83991 -4.057433,7.89869 z" id="path14" />
  </g>
</svg>
