<?xml version="1.0" encoding="UTF-8" standalone="no"?>
<svg xmlns:dc="http://purl.org/dc/elements/1.1/" xmlns:cc="http://creativecommons.org/ns#" xmlns:rdf="http://www.w3.org/1999/02/22-rdf-syntax-ns#" xmlns:svg="http://www.w3.org/2000/svg" xmlns="http://www.w3.org/2000/svg" xmlns:sodipodi="http://sodipodi.sourceforge.net/DTD/sodipodi-0.dtd" xmlns:inkscape="http://www.inkscape.org/namespaces/inkscape" version="1.1" id="svg2" width="646.30988" height="649.0141" viewBox="0 0 646.30988 649.0141" sodipodi:docname="demonhunter-vegance.svg" inkscape:version="1.0.2 (e86c870879, 2021-01-15)">
  <metadata id="metadata8">
    <rdf:RDF>
      <cc:Work rdf:about="">
        <dc:format>image/svg+xml</dc:format>
        <dc:type rdf:resource="http://purl.org/dc/dcmitype/StillImage" />
        <dc:title></dc:title>
      </cc:Work>
    </rdf:RDF>
  </metadata>
  <defs id="defs6" />
  <sodipodi:namedview pagecolor="#ffffff" bordercolor="#666666" borderopacity="1" objecttolerance="10" gridtolerance="10" guidetolerance="10" inkscape:pageopacity="0" inkscape:pageshadow="2" inkscape:window-width="1920" inkscape:window-height="1025" id="namedview4" showgrid="false" inkscape:zoom="1.2079861" inkscape:cx="323.15494" inkscape:cy="324.50705" inkscape:window-x="0" inkscape:window-y="25" inkscape:window-maximized="1" inkscape:current-layer="g10" />
  <g inkscape:groupmode="layer" inkscape:label="Image" id="g10">
    <path style="fill:#000000;stroke-width:1.35211" d="m 353.4083,646.6479 c -0.4182,-1.30141 -1.25898,-3.88732 -1.8684,-5.74648 -4.59002,-14.00269 -8.0524,-37.47245 -8.07855,-54.76056 -0.0385,-25.49955 5.54992,-43.86682 17.9928,-59.13548 l 6.31994,-7.7552 -3.28671,-11.34176 c -5.6971,-19.65948 -7.57327,-46.07196 -4.72653,-66.5393 7.89653,-56.77388 59.51662,-92.26825 132.40818,-91.04484 l 19.60563,0.32905 18.92958,-6.9677 c 10.41127,-3.83224 22.84849,-8.95458 27.63825,-11.383 8.15867,-4.13644 9.20747,-5.22657 16.60609,-17.26037 4.34358,-7.06479 8.57382,-15.0963 9.40056,-17.84781 1.46906,-4.88926 1.36653,-5.13551 -4.52091,-10.85745 -6.34533,-6.16694 -14.64511,-20.99174 -14.64511,-26.15859 0,-1.67841 -0.53439,-3.25446 -1.18751,-3.50235 -2.89459,-1.09861 -8.14967,-11.27792 -10.15863,-19.6777 -1.20589,-5.04206 -2.64493,-15.82428 -3.19785,-23.96051 l -1.00531,-14.79314 -7.43662,-4.56572 c -7.2483,-4.4501 -7.73561,-4.55062 -19.24378,-3.96952 -7.76744,0.39221 -12.95558,1.34867 -15.1637,2.79548 -4.8708,3.19147 -5.71467,2.79721 -6.65947,-3.11129 -0.53604,-3.3522 -2.09081,-6.28723 -4.21613,-7.95901 -5.43998,-4.27909 -19.65127,-7.50732 -29.22643,-6.63908 -9.50427,0.86183 -6.49481,-1.08277 -45.16674,29.18499 -14.59486,11.42312 -28.3668,21.68258 -30.60432,22.79879 -5.77732,2.8821 -20.18883,1.82839 -25.14149,-1.83826 -10.71397,-7.93196 -33.68767,-37.49142 -41.89035,-53.89883 -8.51548,-17.03313 -10.52473,-25.48061 -10.45206,-43.94367 0.074,-18.78211 2.37384,-27.281031 11.5925,-42.837993 13.01576,-21.964749 55.43203,-53.667142 73.16938,-54.687611 3.52323,-0.202698 6.51912,-0.09447 6.65753,0.240503 0.13842,0.334976 -3.86972,4.563977 -8.90695,9.39778 -11.00257,10.558242 -22.39117,27.227578 -27.3307,40.003593 -2.93418,7.589168 -3.62365,11.638679 -3.66363,21.517538 -0.0552,13.64414 2.28495,21.32959 9.83701,32.30614 l 4.3769,6.3616 6.31199,-0.92998 c 3.47159,-0.5115 6.76849,-1.60611 7.32642,-2.43248 1.18849,-1.76025 3.10076,-8.85126 4.33277,-16.06659 1.84345,-10.79645 11.80426,-17.33791 33.86406,-22.239198 8.05727,-1.790179 10.29976,-2.963233 15.07952,-7.888151 4.93079,-5.080528 6.57784,-5.905605 13.52113,-6.773307 4.59106,-0.573743 13.00915,-0.310771 20.07541,0.627136 10.87571,1.443535 12.67198,2.094268 16.90141,6.122895 6.86894,6.542799 9.95658,7.865662 14.02852,6.010361 1.8514,-0.843551 4.09497,-3.293206 4.98573,-5.44368 0.89076,-2.150475 2.15136,-4.23863 2.80135,-4.640347 0.65,-0.401715 10.04773,6.521882 20.88388,15.385771 l 19.70208,16.11616 14.20285,0.91824 c 13.28891,0.85915 14.76827,0.69203 22.98996,-2.59716 9.64149,-3.85721 26.10483,-7.40079 34.38374,-7.40079 h 5.2895 V 378.59156 649.0141 H 495.50688 c -133.41676,0 -141.38084,-0.13264 -142.09858,-2.3662 z M 247.43663,490.51178 c -31.67196,-16.13875 -48.3412,-28.14413 -52.84324,-38.05831 -2.35333,-5.18237 -3.4948,-13.01684 -1.89653,-13.01684 0.38328,0 3.88187,2.09672 7.77465,4.65938 8.74268,5.75539 23.96734,10.89944 37.9362,12.81773 21.846,3.00004 55.86739,1.03549 84.2591,-4.86552 6.17029,-1.28245 11.5339,-2.01652 11.91916,-1.63126 0.82044,0.82044 6.0803,29.94937 7.14703,39.57995 l 0.73287,6.6166 -3.90899,-0.86744 c -8.7314,-1.93759 -38.11703,-2.50532 -49.88081,-0.96369 -27.31529,3.57963 -25.45561,3.77221 -41.23944,-4.2706 z m 9.75545,-88.13379 c -7.49622,-8.53772 -12.5513,-16.94123 -27.53578,-45.77519 -29.58524,-56.92957 -51.34773,-83.31103 -91.06475,-110.39276 -26.60161,-18.13875 -53.586815,-30.75252 -93.237317,-43.58213 -15.509115,-5.01826 -20.831449,-7.25429 -18.929578,-7.95272 7.256331,-2.66483 34.778954,-5.37941 54.540769,-5.37941 35.683546,0 64.584066,5.13678 99.011446,17.59831 27.08533,9.80397 65.30806,30.11393 69.38513,36.86837 1.15155,1.90777 0.5545,4.04414 -2.8635,10.24606 l -4.3184,7.83572 2.79835,4.62718 c 5.24288,8.66936 19.77063,26.2386 29.71743,35.93901 9.02546,8.80189 24.50319,20.74451 26.88505,20.74451 0.52997,0 1.64857,-4.7155 2.48578,-10.47888 2.20901,-15.20714 8.99641,-28.26321 20.6866,-39.79216 5.11337,-5.04283 10.57462,-9.85253 12.13612,-10.68822 2.68302,-1.43592 2.79006,-1.27012 1.947,3.01568 -0.49065,2.49431 -1.25013,11.27871 -1.68773,19.52085 -1.27844,24.07873 3.95427,37.59649 20.55469,53.09946 l 9.63208,8.99529 -3.21988,5.40343 c -5.48481,9.20428 -10.75198,21.08911 -15.88844,35.85062 -2.71232,7.79489 -5.40385,14.64617 -5.98116,15.22507 -0.57731,0.5789 -5.38513,-0.79236 -10.68402,-3.04724 -11.69637,-4.97726 -23.10401,-7.67776 -37.47745,-8.87193 l -10.81691,-0.89869 -10.44335,8.24886 c -5.74385,4.53686 -10.70054,8.24885 -11.01486,8.24885 -0.31433,0 -2.39212,-2.07358 -4.61732,-4.60794 z" id="path16" />
  </g>
</svg>
