<?xml version="1.0" encoding="UTF-8" standalone="no"?>
<svg xmlns:dc="http://purl.org/dc/elements/1.1/" xmlns:cc="http://creativecommons.org/ns#" xmlns:rdf="http://www.w3.org/1999/02/22-rdf-syntax-ns#" xmlns:svg="http://www.w3.org/2000/svg" xmlns="http://www.w3.org/2000/svg" xmlns:sodipodi="http://sodipodi.sourceforge.net/DTD/sodipodi-0.dtd" xmlns:inkscape="http://www.inkscape.org/namespaces/inkscape" version="1.1" id="svg2" width="626.0282" height="649.0141" viewBox="0 0 626.0282 649.0141" sodipodi:docname="druid-guardian.svg" inkscape:version="1.0.2 (e86c870879, 2021-01-15)">
  <metadata id="metadata8">
    <rdf:RDF>
      <cc:Work rdf:about="">
        <dc:format>image/svg+xml</dc:format>
        <dc:type rdf:resource="http://purl.org/dc/dcmitype/StillImage" />
        <dc:title></dc:title>
      </cc:Work>
    </rdf:RDF>
  </metadata>
  <defs id="defs6" />
  <sodipodi:namedview pagecolor="#ffffff" bordercolor="#666666" borderopacity="1" objecttolerance="10" gridtolerance="10" guidetolerance="10" inkscape:pageopacity="0" inkscape:pageshadow="2" inkscape:window-width="1920" inkscape:window-height="1025" id="namedview4" showgrid="false" inkscape:zoom="1.2079861" inkscape:cx="313.0141" inkscape:cy="324.50705" inkscape:window-x="0" inkscape:window-y="25" inkscape:window-maximized="1" inkscape:current-layer="g10" />
  <g inkscape:groupmode="layer" inkscape:label="Image" id="g10">
    <path style="fill:#000000;stroke-width:1.35211" d="M 255.01413,638.20615 C 226.21459,634.57443 193.06088,624.53213 167.30652,611.63942 89.891725,572.8853 49.98437,509.19039 61.553206,442.84978 65.301722,421.35419 74.539108,398.44823 87.076249,379.56023 l 4.905044,-7.38977 19.248797,-0.67759 c 21.76397,-0.76612 32.06079,-3.28886 46.9671,-11.50702 10.62293,-5.85663 24.98779,-19.91003 30.76564,-30.09857 8.90561,-15.70396 15.20619,-41.17445 15.20619,-61.4719 v -8.57204 l 5.07043,-0.72972 c 2.78873,-0.40133 14.50141,-0.7126 26.02817,-0.6917 33.02097,0.0599 60.7142,-5.0278 82.2673,-15.11389 11.71684,-5.48306 25.5848,-14.68892 31.15128,-20.6789 l 3.22138,-3.46647 12.06109,10.23283 c 6.6336,5.62806 15.10978,13.0545 18.83597,16.50319 l 6.7749,6.27034 -1.5947,10.14085 c -2.16942,13.79567 -1.09264,26.28453 3.04558,35.32359 1.85092,4.04292 9.46244,15.54623 16.91449,25.56289 15.23525,20.47844 20.18837,27.9836 32.54311,49.3107 7.92104,13.67352 8.56116,15.36863 7.93566,21.01473 -1.09723,9.90419 -16.57985,42.88318 -29.15734,62.10697 -4.71402,7.20505 -4.85579,7.80504 -5.292,22.39685 -0.25542,8.54442 0.80417,28.52559 2.46346,46.45442 l 2.91165,31.46094 -4.75923,10.0216 c -17.36044,36.55614 -50.82044,61.16285 -95.53023,70.25356 -12.01499,2.44297 -50.87818,3.65053 -64.04586,1.99003 z m 257.97024,-86.76356 c -16.37236,-3.58215 -28.92801,-27.84155 -28.92801,-55.89328 0,-34.99625 18.09475,-60.67475 47.05247,-66.77282 3.94083,-0.82988 12.15491,-1.53538 18.25352,-1.56776 28.88864,-0.15341 33.55159,-4.51628 42.92924,-40.16647 1.62524,-6.17852 3.66127,-11.15493 4.56389,-11.15493 5.46196,0 10.85377,26.61924 9.85948,48.67606 -1.45597,32.29835 -15.35697,63.11301 -42.22188,93.59413 -9.59489,10.88645 -32.0707,30.56481 -36.85585,32.26863 -5.28649,1.88232 -9.39325,2.1672 -14.65286,1.01644 z m -4.51755,-181.86753 c -7.28941,-2.67084 -17.21823,-12.37628 -21.37734,-20.89637 -5.3748,-11.01051 -8.84749,-30.90294 -8.94055,-51.21389 -0.10209,-22.28877 1.75591,-29.3925 11.20835,-42.8523 10.53572,-15.00232 19.45157,-21.25432 39.18337,-27.47624 12.34654,-3.89316 19.0855,-8.90562 27.98436,-20.81484 3.79015,-5.0723 7.4361,-9.30486 8.10214,-9.40569 1.64769,-0.24945 4.46965,15.54228 4.55805,25.50681 0.0396,4.46197 1.2528,16.02254 2.69604,25.69014 6.71027,44.94933 4.30149,65.20273 -10.98461,92.35981 -13.77964,24.48073 -34.16352,35.79535 -52.42981,29.10257 z M 62.189107,325.85109 C 57.723806,321.38578 47.64717,305.19784 43.295571,295.49895 27.112148,259.42915 26.169834,225.11235 40.451949,191.94116 52.460064,164.0515 76.988926,137.15614 111.5493,113.98448 c 12.14576,-8.14335 37.28753,-22.387096 38.09333,-21.581285 0.38814,0.388125 -2.93429,5.487358 -7.38316,11.331625 -12.17437,15.99293 -26.00094,37.61423 -28.85175,45.11696 -3.57855,9.41796 -3.22476,15.78356 1.35424,24.36634 5.60659,10.50887 7.82736,17.85489 10.97516,36.30444 5.62627,32.9761 4.94269,53.25788 -2.34212,69.4906 -7.27376,16.2081 -21.98779,31.04995 -41.525711,41.88645 -14.460717,8.02048 -16.178887,8.45276 -19.680182,4.95148 z M 441.99163,215.76714 c -6.23236,-2.376 -14.00634,-7.35191 -20.52239,-13.13582 -7.38734,-6.55731 -8.77609,-15.27607 -6.61301,-41.51718 5.51834,-66.945253 16.3522,-90.160672 47.08507,-100.896651 20.643,-7.211262 29.22265,-12.149355 38.23888,-22.008739 4.59628,-5.02608 11.51913,-13.660158 15.38413,-19.18684 3.865,-5.526683 7.70701,-10.265944 8.53783,-10.531691 2.18483,-0.6988495 3.17824,5.724994 4.55847,29.477307 0.90531,15.579246 2.38739,26.144368 5.69024,40.563382 3.91225,17.07946 4.46608,21.844672 4.46608,38.426842 v 18.92958 l -6.31671,12.84507 c -14.79821,30.09225 -35.59418,54.99214 -53.15189,63.64098 -8.2153,4.04682 -10.89612,4.68 -20.94801,4.94776 -7.23728,0.19277 -13.34374,-0.38554 -16.40869,-1.554 z M 249.16205,206.53522 C 228.44314,175.76225 227.49991,146.04682 246.06114,108.84507 261.17506,78.55269 291.8305,46.058458 328.32279,21.649163 340.93542,13.212708 355.20449,5.9087008 356.51435,7.2185543 357.17563,7.8798354 341.52369,126.316 339.83593,133.422 c -0.45785,1.92767 -3.33951,4.22171 -8.35198,6.64886 -10.29922,4.98712 -25.72525,20.68627 -44.43181,45.21847 -16.36214,21.45772 -24.44972,29.69659 -29.15126,29.69659 -2.23192,0 -4.574,-2.26486 -8.73883,-8.4507 z" id="path14" />
  </g>
</svg>
