<?xml version="1.0" encoding="UTF-8" standalone="no"?>
<svg xmlns:dc="http://purl.org/dc/elements/1.1/" xmlns:cc="http://creativecommons.org/ns#" xmlns:rdf="http://www.w3.org/1999/02/22-rdf-syntax-ns#" xmlns:svg="http://www.w3.org/2000/svg" xmlns="http://www.w3.org/2000/svg" xmlns:sodipodi="http://sodipodi.sourceforge.net/DTD/sodipodi-0.dtd" xmlns:inkscape="http://www.inkscape.org/namespaces/inkscape" version="1.1" id="svg2" width="582.76056" height="649.0141" viewBox="0 0 582.76056 649.0141" sodipodi:docname="druid-restoration.svg" inkscape:version="1.0.2 (e86c870879, 2021-01-15)">
  <metadata id="metadata8">
    <rdf:RDF>
      <cc:Work rdf:about="">
        <dc:format>image/svg+xml</dc:format>
        <dc:type rdf:resource="http://purl.org/dc/dcmitype/StillImage" />
        <dc:title></dc:title>
      </cc:Work>
    </rdf:RDF>
  </metadata>
  <defs id="defs6" />
  <sodipodi:namedview pagecolor="#ffffff" bordercolor="#666666" borderopacity="1" objecttolerance="10" gridtolerance="10" guidetolerance="10" inkscape:pageopacity="0" inkscape:pageshadow="2" inkscape:window-width="1920" inkscape:window-height="1025" id="namedview4" showgrid="false" inkscape:zoom="1.2079861" inkscape:cx="291.38028" inkscape:cy="324.50705" inkscape:window-x="0" inkscape:window-y="25" inkscape:window-maximized="1" inkscape:current-layer="g10" />
  <g inkscape:groupmode="layer" inkscape:label="Image" id="g10">
    <path style="fill:#000000;stroke-width:1.35211" d="m 160.22535,597.54236 c -19.25143,-1.55673 -40.43343,-5.55709 -61.377511,-11.59155 -25.567632,-7.36661 -59.636572,-20.62275 -59.636572,-23.20445 0,-0.6153 2.281691,-2.2034 5.070423,-3.52912 14.924061,-7.09462 30.263824,-21.51422 39.59363,-37.21862 11.432098,-19.24307 17.11527,-39.07726 25.59397,-89.32255 3.07451,-18.21972 7.054,-38.97293 8.8433,-46.11826 11.05743,-44.15613 31.87812,-70.3876 67.24822,-84.72432 5.01055,-2.03095 9.11759,-4.05602 9.12676,-4.50013 0.0199,-0.96332 -25.82841,-2.55798 -41.60324,-2.56664 -8.80424,-0.005 -11.3672,-0.44871 -11.99198,-2.07688 -0.49963,-1.30203 3.15518,-7.26812 9.84524,-16.07131 59.20503,-77.90543 123.86042,-113.3976 195.92167,-107.54991 17.94513,1.45622 30.50235,3.92698 48.97086,9.63549 7.62206,2.35595 14.21722,3.92462 14.6559,3.48594 2.08433,-2.08435 2.03684,-24.61977 -0.10141,-48.12884 -1.92013,-21.11072 -2.07509,-27.91046 -0.82722,-36.300568 1.70316,-11.451229 7.37215,-25.536137 11.07572,-27.51823 3.65879,-1.958124 16.24131,-1.532856 23.02378,0.778167 11.22121,3.823447 25.34719,18.063291 33.1042,33.371031 5.0718,10.00871 4.50046,12.30766 -4.10519,16.51801 -4.03929,1.97623 -9.16997,5.67266 -11.40155,8.21429 -5.86338,6.67803 -6.41384,13.19392 -2.74659,32.51216 2.06062,10.85484 3.06473,21.16473 3.05599,31.37802 l -0.0135,15.21127 4.83027,0.0285 c 13.02426,0.0769 34.24783,11.94802 47.05899,26.3218 16.68657,18.72138 34.16614,58.6162 34.16614,77.97863 0,7.81911 -3.39192,6.79188 -17.1324,-5.18844 -13.24587,-11.54905 -27.10359,-22.0701 -29.06948,-22.0701 -0.79854,0 -0.94003,9.84934 -0.37391,26.02817 1.57936,45.1363 -2.26732,83.90435 -10.92204,110.07567 -8.38747,25.36316 -14.15149,34.99884 -43.71689,73.0813 -23.31883,30.0364 -36.44492,49.04631 -49.44382,71.60715 -11.16379,19.37584 -13.73493,21.22185 -16.45802,11.81652 -2.01835,-6.97121 -4.25811,-27.37666 -5.44799,-49.63418 l -0.91933,-17.19683 -14.32849,13.91649 c -15.80682,15.35234 -24.68576,22.47743 -42.35406,33.9879 -20.58946,13.41353 -50.67656,26.27647 -77.62923,33.18834 -18.42987,4.72624 -56.12813,7.27281 -79.58462,5.37605 z" id="path14" />
  </g>
</svg>
