<?xml version="1.0" encoding="UTF-8" standalone="no"?>
<svg xmlns:dc="http://purl.org/dc/elements/1.1/" xmlns:cc="http://creativecommons.org/ns#" xmlns:rdf="http://www.w3.org/1999/02/22-rdf-syntax-ns#" xmlns:svg="http://www.w3.org/2000/svg" xmlns="http://www.w3.org/2000/svg" xmlns:sodipodi="http://sodipodi.sourceforge.net/DTD/sodipodi-0.dtd" xmlns:inkscape="http://www.inkscape.org/namespaces/inkscape" version="1.1" id="svg2" width="758.53522" height="649.0141" viewBox="0 0 758.53522 649.0141" sodipodi:docname="druid-feral.svg" inkscape:version="1.0.2 (e86c870879, 2021-01-15)">
  <metadata id="metadata8">
    <rdf:RDF>
      <cc:Work rdf:about="">
        <dc:format>image/svg+xml</dc:format>
        <dc:type rdf:resource="http://purl.org/dc/dcmitype/StillImage" />
        <dc:title></dc:title>
      </cc:Work>
    </rdf:RDF>
  </metadata>
  <defs id="defs6" />
  <sodipodi:namedview pagecolor="#ffffff" bordercolor="#666666" borderopacity="1" objecttolerance="10" gridtolerance="10" guidetolerance="10" inkscape:pageopacity="0" inkscape:pageshadow="2" inkscape:window-width="1920" inkscape:window-height="1025" id="namedview4" showgrid="false" inkscape:zoom="1.2079861" inkscape:cx="379.26761" inkscape:cy="324.50705" inkscape:window-x="0" inkscape:window-y="25" inkscape:window-maximized="1" inkscape:current-layer="g10" />
  <g inkscape:groupmode="layer" inkscape:label="Image" id="g10">
    <path style="fill:#000000;stroke-width:1.35211" d="M 420.79833,613.36001 C 416.09298,606.44897 408.836,588.34004 402.17852,566.89654 378.22898,489.75594 382.47313,422.9461 414.26956,376.56339 l 5.56143,-8.11268 0.78642,20.28169 c 0.88229,22.75433 2.70605,30.66236 10.75792,46.64789 6.84315,13.58583 16.75426,27.39436 26.82056,37.36742 4.55565,4.51345 8.28299,8.88867 8.28299,9.72273 0,0.83405 -1.67324,2.39285 -3.71831,3.46399 -9.98446,5.22954 -18.09908,19.33595 -23.03128,40.03741 -4.13646,17.3616 -5.41631,26.37027 -8.32626,58.60783 -2.38519,26.424 -3.7724,33.35812 -6.66717,33.3266 -0.46669,-0.005 -2.23858,-2.0509 -3.93753,-4.54626 z M 250.84249,599.32396 c -13.51099,-18.33365 -33.34256,-66.45902 -39.69913,-96.33803 -8.95251,-42.08121 -6.96539,-89.23563 5.30368,-125.85634 10.61011,-31.66904 29.96169,-66.42203 45.07373,-80.94666 6.43984,-6.18954 7.64157,-4.61928 6.15488,8.04243 -2.76991,23.59054 -0.81183,41.85692 7.01278,65.42055 3.94397,11.87715 16.5021,38.98551 25.65037,55.36964 5.19103,9.29688 4.62381,11.17958 -4.31958,14.33738 -9.41219,3.32334 -13.80228,6.15746 -20.06874,12.95576 -9.95648,10.8015 -17.34641,30.2143 -20.37041,53.51159 -1.64894,12.70373 -1.6238,41.91088 0.0481,55.98255 2.35251,19.79905 3.16735,43.94366 1.483,43.94366 -0.84463,0 -3.66558,-2.89014 -6.26878,-6.42253 z M 489.98221,461.97838 c -9.0304,-4.33501 -24.74423,-19.24841 -31.36011,-29.76265 -11.61466,-18.45856 -15.78202,-34.55404 -15.63453,-60.38474 0.11493,-20.12135 2.79989,-35.59934 9.79157,-56.44491 2.18355,-6.51024 3.80087,-12.01489 3.59403,-12.23259 -0.20683,-0.21769 -5.63989,2.31277 -12.07347,5.62326 -26.06445,13.41179 -45.6954,35.16689 -61.12482,67.73871 -8.31416,17.55135 -13.5423,34.54587 -18.89094,61.40655 -2.57363,12.92471 -5.01597,24.04417 -5.42742,24.70991 -1.41114,2.28327 -23.21408,-16.4172 -35.41182,-30.37287 -27.89119,-31.91085 -40.98111,-66.95054 -38.99059,-104.37172 1.54024,-28.95549 11.7306,-57.57446 30.57191,-85.85916 8.03586,-12.06349 7.94962,-11.3438 1.23738,-10.3258 -15.16685,2.30029 -38.08916,18.41778 -58.85708,41.38451 -18.76447,20.75117 -44.93785,56.55341 -43.29128,59.21761 0.41528,0.67195 -1.30094,2.20216 -3.81381,3.40047 -3.6127,1.72277 -4.86124,1.82648 -5.9658,0.49557 -2.54482,-3.06632 -4.73712,-26.89789 -4.74501,-51.5808 -0.0122,-39.47503 5.21879,-65.69187 18.61654,-93.29578 8.48071,-17.47317 16.50505,-28.54586 28.97057,-39.97621 l 9.04783,-8.29646 -8.11268,0.96783 c -20.03143,2.38972 -51.69401,12.85982 -65.80315,21.7596 -6.80706,4.29377 -11.71288,5.40921 -12.68207,2.88355 -1.17983,-3.07457 4.37039,-18.21733 10.52612,-28.71859 13.659,-23.30139 38.23731,-42.148259 66.64636,-51.105027 22.81566,-7.193294 30.47575,-8.228701 62.2901,-8.419684 L 338.9688,80.239594 386.49699,40.119798 434.02519,0 H 568.5619 703.0986 v 140.28851 140.28851 l -28.01614,23.65515 -28.01613,23.65516 -1.60704,9.60494 c -4.42141,26.426 -13.3283,50.56996 -25.26178,68.47722 -23.82529,35.75198 -62.32048,56.84533 -107.07074,58.66916 -15.17886,0.61863 -16.67163,0.44704 -23.14456,-2.66027 z M 148.97142,438.62305 c -2.36706,-2.87164 -6.22251,-9.79576 -8.56769,-15.38689 -26.18742,-62.43382 -32.11702,-118.02844 -17.46668,-163.7638 9.75851,-30.46404 35.87145,-60.57927 65.95355,-76.0621 5.66472,-2.91554 6.29697,-2.81764 5.26375,0.8151 -4.88855,17.18795 -8.84748,50.23516 -9.7917,81.73643 -0.83827,27.96634 -1.1381,30.7379 -3.53952,32.71892 -13.5408,11.17033 -20.96309,45.84321 -23.90811,111.6855 -0.66526,14.87324 -1.75637,28.4903 -2.42471,30.26014 -1.21218,3.21001 -1.22569,3.20512 -5.51889,-2.0033 z" id="path14" />
  </g>
</svg>
