<?xml version="1.0" encoding="UTF-8" standalone="no"?>
<svg xmlns:dc="http://purl.org/dc/elements/1.1/" xmlns:cc="http://creativecommons.org/ns#" xmlns:rdf="http://www.w3.org/1999/02/22-rdf-syntax-ns#" xmlns:svg="http://www.w3.org/2000/svg" xmlns="http://www.w3.org/2000/svg" xmlns:sodipodi="http://sodipodi.sourceforge.net/DTD/sodipodi-0.dtd" xmlns:inkscape="http://www.inkscape.org/namespaces/inkscape" version="1.1" id="svg2" width="578.70422" height="649.0141" viewBox="0 0 578.70422 649.0141" sodipodi:docname="hunter-marksmanship.svg" inkscape:version="1.0.2 (e86c870879, 2021-01-15)">
  <metadata id="metadata8">
    <rdf:RDF>
      <cc:Work rdf:about="">
        <dc:format>image/svg+xml</dc:format>
        <dc:type rdf:resource="http://purl.org/dc/dcmitype/StillImage" />
        <dc:title></dc:title>
      </cc:Work>
    </rdf:RDF>
  </metadata>
  <defs id="defs6" />
  <sodipodi:namedview pagecolor="#ffffff" bordercolor="#666666" borderopacity="1" objecttolerance="10" gridtolerance="10" guidetolerance="10" inkscape:pageopacity="0" inkscape:pageshadow="2" inkscape:window-width="1920" inkscape:window-height="1025" id="namedview4" showgrid="false" inkscape:zoom="1.2079861" inkscape:cx="289.35211" inkscape:cy="324.50705" inkscape:window-x="0" inkscape:window-y="25" inkscape:window-maximized="1" inkscape:current-layer="g10" />
  <g inkscape:groupmode="layer" inkscape:label="Image" id="g10">
    <path style="fill:#000000;stroke-width:1.35211" d="m 33.802817,647.55601 c 0,-0.80195 18.652694,-30.46393 41.450432,-65.9155 22.797737,-35.45157 57.175201,-88.90902 76.394371,-118.79432 23.44474,-36.45599 34.94393,-55.52742 34.94393,-57.95462 0,-5.82976 -10.93113,-76.90605 -11.998,-78.01331 -0.53475,-0.555 -4.5948,-1.69102 -9.02234,-2.5245 -10.31257,-1.94135 -31.04524,-0.73169 -49.93365,2.9134 -14.75044,2.84653 -18.300665,2.77822 -18.266578,-0.35148 0.01038,-0.95292 6.625008,-9.94666 14.699188,-19.9861 C 208.74871,186.71934 312.0199,98.808981 419.83098,44.945903 c 22.5338,-11.258022 65.8742,-29.24482 74.25646,-30.817342 4.12503,-0.773859 4.85882,-0.535676 4.9548,1.608285 0.0619,1.384172 0.32987,4.037802 0.5953,5.896957 0.26543,1.859155 0.90518,15.549296 1.42165,30.422536 4.25167,122.437791 -35.36153,271.079741 -111.88529,419.831001 -15.98668,31.07579 -19.49988,36.91481 -21.75786,36.16215 -0.78772,-0.26258 -3.43729,-8.4702 -5.88794,-18.23916 -7.446,-29.68179 -18.09444,-53.10202 -24.12365,-53.05763 -1.51611,0.0108 -11.88333,2.44711 -23.03826,5.41322 -11.15493,2.96611 -27.58309,7.29101 -36.50704,9.61089 -8.92394,2.31987 -17.22748,5.20786 -18.45232,6.41776 -2.07639,2.05107 -28.44907,41.06134 -99.52316,147.2139 L 130.68766,649.0141 H 82.245238 c -33.740802,0 -48.442421,-0.44251 -48.442421,-1.45809 z M 315.71831,405.10566 c 10.41126,-1.82062 23.49295,-4.05732 29.07042,-4.97044 5.57746,-0.91313 10.87761,-2.33118 11.7781,-3.15124 2.39776,-2.18358 13.08981,-22.26447 20.95196,-39.35017 29.48924,-64.08479 48.67688,-138.31287 57.14573,-221.07043 2.9204,-28.53818 3.00154,-29.74648 1.99747,-29.74648 -0.48374,0 -7.20663,3.42864 -14.93977,7.61919 -81.33943,44.07745 -152.98145,100.42306 -201.32095,158.33656 -5.75936,6.90006 -12.02412,14.82221 -13.92166,17.60478 l -3.45008,5.0592 7.57164,32.11267 c 4.1644,17.66198 7.91938,32.06198 8.34439,32 0.42501,-0.0619 6.95248,-8.42817 14.50549,-18.59155 28.74789,-38.68334 64.34871,-78.11887 86.95314,-96.31925 11.54542,-9.29602 33.10371,-21.5399 37.92614,-21.5399 8.72646,0 2.55009,39.90978 -11.70504,75.63422 -11.16883,27.9899 -34.47025,74.43677 -50.75907,101.17832 -2.83909,4.66099 -5.162,8.77962 -5.162,9.15254 0,0.3729 1.36902,0.3797 3.04226,0.0151 1.67324,-0.36458 11.56056,-2.1525 21.97183,-3.97312 z" id="path14" />
  </g>
</svg>
