<?xml version="1.0" encoding="UTF-8" standalone="no"?>
<svg xmlns:dc="http://purl.org/dc/elements/1.1/" xmlns:cc="http://creativecommons.org/ns#" xmlns:rdf="http://www.w3.org/1999/02/22-rdf-syntax-ns#" xmlns:svg="http://www.w3.org/2000/svg" xmlns="http://www.w3.org/2000/svg" xmlns:sodipodi="http://sodipodi.sourceforge.net/DTD/sodipodi-0.dtd" xmlns:inkscape="http://www.inkscape.org/namespaces/inkscape" version="1.1" id="svg2" width="713.91547" height="649.0141" viewBox="0 0 713.91547 649.0141" sodipodi:docname="hunter-survival.svg" inkscape:version="1.0.2 (e86c870879, 2021-01-15)">
  <metadata id="metadata8">
    <rdf:RDF>
      <cc:Work rdf:about="">
        <dc:format>image/svg+xml</dc:format>
        <dc:type rdf:resource="http://purl.org/dc/dcmitype/StillImage" />
        <dc:title></dc:title>
      </cc:Work>
    </rdf:RDF>
  </metadata>
  <defs id="defs6" />
  <sodipodi:namedview pagecolor="#ffffff" bordercolor="#666666" borderopacity="1" objecttolerance="10" gridtolerance="10" guidetolerance="10" inkscape:pageopacity="0" inkscape:pageshadow="2" inkscape:window-width="1920" inkscape:window-height="1025" id="namedview4" showgrid="false" inkscape:zoom="1.2079861" inkscape:cx="356.95773" inkscape:cy="324.50705" inkscape:window-x="0" inkscape:window-y="25" inkscape:window-maximized="1" inkscape:current-layer="g10" />
  <g inkscape:groupmode="layer" inkscape:label="Image" id="g10">
    <path style="fill:#000000;stroke-width:1.35211" d="m 538.81688,589.37225 c -5.20563,-1.43497 -28.32676,-5.35346 -51.38028,-8.70779 C 396.26712,567.3992 360.72702,560.63333 324.50703,549.64712 263.45189,531.12794 216.18627,523.22838 180.33336,525.55119 l -12.25148,0.79373 -0.92621,-11.10617 c -1.23198,-14.77236 -3.90642,-27.02406 -8.8651,-40.61116 -14.33345,-39.27458 -54.66538,-73.08691 -100.745941,-84.46046 -6.649043,-1.64111 -12.310317,-3.64728 -12.580607,-4.45815 -0.27029,-0.81087 3.040259,-2.49654 7.356777,-3.74593 33.50738,-9.6985 67.411901,-40.78511 87.351561,-80.0915 l 7.03186,-13.86167 27.04225,0.32473 c 22.38981,0.26887 28.32168,-0.0738 34.47888,-1.99145 17.26489,-5.37726 34.04822,-19.08078 53.67816,-43.82801 14.76264,-18.61106 23.61895,-33.26431 43.29058,-71.6266 18.693,-36.45387 24.02803,-43.38251 38.91857,-50.54384 7.93991,-3.81854 8.73179,-3.91961 37.1831,-4.7456 l 29.07042,-0.84396 67.60564,44.81934 c 37.18309,24.65064 69.87565,47.01042 72.65012,49.68841 7.11438,6.867 9.78667,15.61455 8.5247,27.90505 -0.54172,5.27595 -1.07838,10.91799 -1.19256,12.53789 -0.21122,2.99624 1.58666,4.16531 115.71073,75.24123 l 19.91835,12.40505 0.0253,89.74302 c 0.0241,85.25798 -0.0929,89.65283 -2.34088,87.93811 -1.30141,-0.99271 -5.40845,-4.32147 -9.12676,-7.39726 -23.45896,-19.40524 -74.11531,-54.93589 -103.6391,-72.69304 -32.20616,-19.37047 -72.21996,-37.63259 -86.84967,-39.63783 -5.78833,-0.79337 -5.96971,-0.6975 -10.1351,5.35668 -6.96724,10.12655 -14.76666,27.56694 -17.1809,38.41852 -2.79244,12.55143 -2.0291,38.98291 1.45506,50.38448 3.7118,12.14639 13.80119,31.23337 22.93446,43.38703 10.61012,14.11893 30.84767,33.7985 49.07722,47.72408 7.62254,5.82288 13.85916,10.82609 13.85916,11.11825 0,0.92402 -3.10744,0.36231 -12.84507,-2.32191 z" id="path14" />
  </g>
</svg>
