<?xml version="1.0" encoding="UTF-8" standalone="no"?>
<svg xmlns:dc="http://purl.org/dc/elements/1.1/" xmlns:cc="http://creativecommons.org/ns#" xmlns:rdf="http://www.w3.org/1999/02/22-rdf-syntax-ns#" xmlns:svg="http://www.w3.org/2000/svg" xmlns="http://www.w3.org/2000/svg" xmlns:sodipodi="http://sodipodi.sourceforge.net/DTD/sodipodi-0.dtd" xmlns:inkscape="http://www.inkscape.org/namespaces/inkscape" version="1.1" id="svg2" width="657.12677" height="649.0141" viewBox="0 0 657.12677 649.0141" sodipodi:docname="hunter-beastmastery.svg" inkscape:version="1.0.2 (e86c870879, 2021-01-15)">
  <metadata id="metadata8">
    <rdf:RDF>
      <cc:Work rdf:about="">
        <dc:format>image/svg+xml</dc:format>
        <dc:type rdf:resource="http://purl.org/dc/dcmitype/StillImage" />
        <dc:title></dc:title>
      </cc:Work>
    </rdf:RDF>
  </metadata>
  <defs id="defs6" />
  <sodipodi:namedview pagecolor="#ffffff" bordercolor="#666666" borderopacity="1" objecttolerance="10" gridtolerance="10" guidetolerance="10" inkscape:pageopacity="0" inkscape:pageshadow="2" inkscape:window-width="1920" inkscape:window-height="1025" id="namedview4" showgrid="false" inkscape:zoom="1.2079861" inkscape:cx="328.56339" inkscape:cy="324.50705" inkscape:window-x="0" inkscape:window-y="25" inkscape:window-maximized="1" inkscape:current-layer="g10" />
  <g inkscape:groupmode="layer" inkscape:label="Image" id="g10">
    <path style="fill:#000000;stroke-width:1.35211" d="m 531.12747,591.15809 c -15.02551,-30.80755 -33.78583,-56.24601 -46.89082,-63.58261 l -5.58876,-3.12878 v 3.92656 c 0,16.63847 -19.25561,56.62694 -26.01796,54.03198 -1.32872,-0.50987 -2.74084,-3.82496 -3.69967,-8.68535 -6.43521,-32.62033 -19.69363,-61.19727 -32.51526,-70.08265 l -5.05735,-3.50474 -76.89009,-0.26344 c -76.26193,-0.26126 -76.98228,-0.23821 -88.17455,2.8217 -13.51798,3.69576 -22.45266,8.02764 -33.31536,16.15265 -18.82796,14.08282 -31.75906,18.05832 -61.54103,18.92002 l -22.30986,0.6455 -5.79966,-3.93876 c -3.18981,-2.16632 -11.34127,-9.98438 -18.11436,-17.37347 -6.773087,-7.3891 -15.231428,-16.54021 -18.796316,-20.3358 l -6.481613,-6.90108 -15.237346,-0.96418 C 43.949221,487.58275 42.738594,487.23765 35.244356,480.4997 15.193076,462.47187 11.327964,438.95881 24.170549,413.13318 c 7.024814,-14.12645 12.68595,-19.45783 43.435086,-40.90499 13.757746,-9.59586 46.219305,-32.24422 72.136795,-50.32969 l 47.12271,-32.88266 -0.91003,-15.04312 c -0.50051,-8.27373 -1.46974,-20.21497 -2.15386,-26.53609 -0.68411,-6.32113 -1.24884,-16.71972 -1.25495,-23.10799 -0.009,-10.25851 0.47121,-12.58018 4.11852,-19.8791 5.45706,-10.92055 18.05443,-21.25874 42.33614,-34.74372 l 9.28264,-5.15516 -0.78789,-5.74829 C 233.81007,131.9127 208.40815,92.776978 172.20529,58.212038 160.23637,46.784641 157.94224,43.969766 159.09364,42.124241 c 5.5825,-8.948006 60.78325,-11.103031 95.7812,-3.739276 29.2729,6.159177 62.5086,19.271533 90.51644,35.711114 l 6.68705,3.925054 13.59464,-9.12378 c 29.84954,-20.032938 63.5508,-36.054695 92.57072,-44.008618 16.33351,-4.476767 40.47507,-7.820402 46.01137,-6.372629 2.05561,0.537553 5.33822,-1.701777 13.04483,-8.8988982 L 527.5979,0 h 60.70811 60.70808 v 262.46537 262.46537 l -3.71831,-2.42959 c -2.04507,-1.33628 -9.19436,-6.4588 -15.88732,-11.3834 -6.69296,-4.92458 -12.89771,-9.39351 -13.78833,-9.93094 -0.89062,-0.53744 0.76859,4.1185 3.68714,10.34653 2.91855,6.22802 7.56377,17.9569 10.32272,26.06418 4.24189,12.46501 5.10464,16.98272 5.58884,29.26523 0.31492,7.98859 0.19316,16.03641 -0.27058,17.88404 -0.79244,3.15735 -1.48018,2.64986 -11.43802,-8.4402 -14.8191,-16.50406 -34.26114,-34.80654 -47.64461,-44.85202 -11.70617,-8.78653 -29.67538,-18.32363 -37.35839,-19.82786 l -4.36601,-0.85479 3.28958,8.09572 c 8.18802,20.15085 12.09575,55.46923 8.26869,74.73319 -2.77018,13.94399 -3.41879,16.21732 -4.6075,16.14881 -0.50763,-0.0292 -4.99166,-8.39544 -9.96452,-18.59155 z M 87.457007,455.99663 c 13.054563,-12.94477 19.359893,-22.17931 19.359893,-28.35376 0,-6.81965 -5.9845,-8.97592 -24.578003,-8.85571 -28.015595,0.18113 -35.849104,6.83477 -27.48333,23.34384 3.242248,6.39826 18.742541,24.34788 21.025482,24.34788 0.607637,0 5.861818,-4.71702 11.675958,-10.48225 z M 302.68592,255.44628 c 42.98,-9.69418 52.00681,-14.09588 58.01862,-28.29135 3.44857,-8.14299 7.68591,-24.17293 6.66082,-25.19804 -0.93868,-0.93866 -17.48228,3.34475 -32.03452,8.2943 -12.4432,4.2322 -20.4461,8.90914 -27.26113,15.93156 -5.56333,5.73265 -25.93606,33.42289 -24.59044,33.42289 0.4212,0 9.06418,-1.8717 19.20665,-4.15936 z m 275.49813,-132.4437 c 0.88519,-43.775937 0.0599,-58.457384 -3.75682,-66.834237 -4.82948,-10.599568 -19.82373,3.027768 -55.72892,50.648557 -19.21527,25.48507 -37.34619,50.59483 -37.34619,51.72125 0,0.38324 3.6897,-0.79353 8.19935,-2.61505 24.24751,-9.79402 50.66439,-9.39366 70.28725,1.06522 4.26381,2.27257 9.45782,5.91208 11.54228,8.08778 2.08445,2.1757 4.26812,3.47761 4.85259,2.89314 0.58447,-0.58447 1.46217,-20.81946 1.95046,-44.96666 z M 264.8127,138.79933 c 5.33744,-5.50685 14.76264,-10.38275 21.92774,-11.34379 2.92374,-0.39215 5.3159,-1.10062 5.3159,-1.57438 0,-2.92585 -22.98366,-26.107208 -34.47887,-34.775449 -11.49242,-8.666127 -32.26977,-19.39933 -34.06944,-17.599656 -0.32509,0.325099 2.10975,4.15022 5.41079,8.500265 12.01138,15.828417 26.44686,44.1242 28.69526,56.2472 0.51723,2.78874 1.36178,5.07043 1.87679,5.07043 0.51502,0 2.90984,-2.03608 5.32183,-4.52462 z" id="path14" />
  </g>
</svg>
