<?xml version="1.0" encoding="UTF-8" standalone="no"?>
<svg xmlns:dc="http://purl.org/dc/elements/1.1/" xmlns:cc="http://creativecommons.org/ns#" xmlns:rdf="http://www.w3.org/1999/02/22-rdf-syntax-ns#" xmlns:svg="http://www.w3.org/2000/svg" xmlns="http://www.w3.org/2000/svg" xmlns:sodipodi="http://sodipodi.sourceforge.net/DTD/sodipodi-0.dtd" xmlns:inkscape="http://www.inkscape.org/namespaces/inkscape" version="1.1" id="svg2" width="639.54932" height="649.0141" viewBox="0 0 639.54932 649.0141" sodipodi:docname="mage-fire.svg" inkscape:version="1.0.2 (e86c870879, 2021-01-15)">
  <metadata id="metadata8">
    <rdf:RDF>
      <cc:Work rdf:about="">
        <dc:format>image/svg+xml</dc:format>
        <dc:type rdf:resource="http://purl.org/dc/dcmitype/StillImage" />
        <dc:title></dc:title>
      </cc:Work>
    </rdf:RDF>
  </metadata>
  <defs id="defs6" />
  <sodipodi:namedview pagecolor="#ffffff" bordercolor="#666666" borderopacity="1" objecttolerance="10" gridtolerance="10" guidetolerance="10" inkscape:pageopacity="0" inkscape:pageshadow="2" inkscape:window-width="1920" inkscape:window-height="1025" id="namedview4" showgrid="false" inkscape:zoom="1.2079861" inkscape:cx="319.77466" inkscape:cy="324.50705" inkscape:window-x="0" inkscape:window-y="25" inkscape:window-maximized="1" inkscape:current-layer="g10" />
  <g inkscape:groupmode="layer" inkscape:label="Image" id="g10">
    <path style="fill:#000000;stroke-width:1.35211" d="M 181.23599,638.00777 C 160.0832,636.10371 141.29249,630.48138 120.33803,619.7866 86.406384,602.46849 60.971675,575.53789 42.588859,537.4648 29.965091,511.3194 23.218765,489.29915 17.734133,456.33804 c -4.06143,-24.40807 -5.565923,-43.23071 -5.557578,-69.53061 0.0072,-22.67432 1.355322,-33.90601 4.069701,-33.90601 0.685248,0 3.723976,3.35444 6.752727,7.4543 6.789504,9.19062 12.436506,12.97789 26.353132,17.67422 8.719345,2.94246 14.106044,3.77698 27.7787,4.30356 l 16.961798,0.65328 6.406187,-7.12523 c 17.97244,-19.98968 30.60943,-45.63754 30.63255,-62.1714 0.0132,-9.49685 -2.2038,-15.29344 -9.383,-24.532 -3.65284,-4.70066 -6.44611,-8.74208 -6.20727,-8.98091 0.23884,-0.23884 12.13268,5.71522 26.43076,13.23122 14.29807,7.516 26.24203,13.41995 26.54212,13.11984 0.30009,-0.30008 -0.96755,-6.87341 -2.81697,-14.60737 -10.39926,-43.48793 -11.42457,-74.30811 -3.11464,-93.62503 2.50303,-5.81846 3.05158,-6.34534 4.51818,-4.33966 0.91808,1.25556 2.08815,6.04454 2.60012,10.64218 1.21388,10.9007 4.46269,18.11994 12.96003,28.79869 13.52752,17.00028 48.09257,42.35107 52.17633,38.26731 0.85332,-0.85332 4.96596,4.16423 11.69671,14.27033 5.70936,8.57252 10.96869,15.58638 11.68737,15.58638 0.71869,0 4.63437,-4.71549 8.7015,-10.47887 28.15123,-39.89203 38.65094,-73.98842 29.68473,-96.39718 -1.2019,-3.00382 -1.87657,-5.77017 -1.49929,-6.14745 0.37728,-0.3773 12.03183,1.56523 25.89899,4.31671 29.72219,5.89738 27.48021,6.76374 31.84863,-12.30729 5.50988,-24.05429 7.06815,-35.50001 7.78463,-57.17929 0.83218,-25.180177 -0.64217,-37.442018 -6.40454,-53.264634 -5.02771,-13.80534 -9.53732,-19.97163 -24.04626,-32.880027 -6.68695,-5.949295 -11.9696,-11.018804 -11.7392,-11.265575 0.2304,-0.24677 7.75009,3.288989 16.71044,7.857243 18.62058,9.49334 31.24728,20.195165 44.38024,37.61468 17.05869,22.626591 37.32766,60.859713 52.4717,98.976753 10.45773,26.32176 9.28039,24.48042 14.53094,22.72593 5.64082,-1.8849 12.59171,-7.06053 15.56874,-11.59248 1.40747,-2.1426 2.60752,-7.34226 3.01444,-13.06112 l 0.67605,-9.50137 4.42758,8.33227 c 7.71717,14.52302 10.06832,26.42936 10.0901,51.09677 0.0193,21.84565 -1.99552,39.814 -7.00082,62.43474 l -2.44603,11.05445 16.73835,20.7202 c 10.1078,12.51233 17.84144,20.89585 19.52302,21.16362 5.42442,0.86374 21.35805,-5.20495 31.53201,-12.00971 15.78137,-10.55523 27.08854,-25.20518 34.71247,-44.97468 7.15123,-18.54376 9.44337,-32.48832 10.32503,-62.81395 0.43831,-15.07619 1.01128,-27.19689 1.27325,-26.93492 1.09106,1.09105 11.40871,51.77423 14.22873,69.89546 2.61247,16.78748 3.05885,25.04761 3.10537,57.46479 0.0491,34.17448 -0.24523,39.33699 -3.02362,53.04358 -5.86555,28.93645 -14.27855,49.49223 -27.3579,66.8445 l -6.79498,9.01483 0.36189,33.57672 0.3619,33.57672 5.40845,-0.40197 c 14.45203,-1.07409 38.72641,-10.81285 46.95998,-18.8401 2.90547,-2.83266 5.95933,-7.6724 7.20198,-11.41365 1.18661,-3.57257 2.63311,-6.78953 3.21445,-7.14881 1.67579,-1.03569 4.14662,16.90669 4.12473,29.95231 -0.0464,27.6394 -10.94142,50.91463 -34.1545,72.96479 -24.89875,23.65137 -64.67734,43.19402 -110.5472,54.31025 -24.36358,5.90434 -24.93958,5.96343 -27.75961,2.84732 -1.45423,-1.60689 -1.91888,-3.13534 -1.16563,-3.83425 0.6889,-0.6392 9.90983,-5.12322 20.49094,-9.96452 23.18013,-10.60583 47.66725,-24.38379 60.53626,-34.06143 9.26628,-6.96835 20.95775,-17.96459 20.95775,-19.71152 0,-0.48433 -3.49859,-0.30335 -7.77465,0.40217 -15.41082,2.54265 -67.14132,-1.32792 -70.56819,-5.28005 -0.54581,-0.62947 -8.16722,-13.00297 -16.93649,-27.49669 l -15.9441,-26.3522 2.5413,-4.45681 c 1.39771,-2.45124 13.09014,-19.97863 25.98319,-38.94971 l 23.44191,-34.49291 -14.9012,-24.61358 C 474.2974,382.95118 471.5986,379.2899 468.9351,379.41651 c -1.72274,0.0819 -15.10547,0.57988 -29.73938,1.10665 -31.11148,1.11989 -26.63392,3.80034 -35.50423,-21.25425 -7.16718,-20.24406 -13.22463,-41.6663 -17.0937,-60.452 -3.26473,-15.85143 -4.06402,-40.23275 -1.51817,-46.30986 1.85626,-4.43105 1.64881,-4.47541 -5.01973,-1.07338 -13.35883,6.81518 -24.6242,30.98448 -30.46298,65.35687 -1.2371,7.28268 -1.92623,14.27987 -1.53141,15.5493 1.22838,3.94951 -1.18955,6.17429 -5.49913,5.05985 -2.12417,-0.5493 -6.99628,-1.29387 -10.82691,-1.65461 -6.55705,-0.6175 -7.29535,-0.35723 -12.61207,4.44611 -3.10602,2.80611 -7.10409,7.97683 -8.8846,11.4905 -3.89242,7.68131 -8.72165,24.53445 -8.72165,30.43696 0,3.38026 -0.76615,4.56594 -3.71831,5.7544 -17.33031,6.97674 -46.37063,8.45773 -60.10362,3.06515 -8.47611,-3.32833 -20.2756,-13.08591 -23.60126,-19.51702 l -2.12768,-4.11449 -2.48265,3.27624 c -3.61081,4.76505 -10.22344,22.22058 -12.14248,32.05279 -2.29129,11.73951 -0.99203,21.86722 3.92242,30.57513 l 4.04044,7.15929 -18.36964,12.56533 -18.36966,12.56535 -6.87589,-2.45734 c -3.78174,-1.35155 -22.08717,-8.37101 -40.67872,-15.59881 -29.993911,-11.66068 -33.955175,-12.89033 -35.154932,-10.91277 -2.445247,4.03049 -1.643892,42.87457 1.133848,54.96107 4.971877,21.63361 16.904954,46.70619 32.628944,68.55667 16.38568,22.76998 59.95589,63.02759 78.24324,72.29449 3.6479,1.84854 6.10225,3.84245 5.45411,4.43093 -2.03116,1.84416 -10.21523,2.301 -22.08331,1.23271 z" id="path14" />
  </g>
</svg>
