<?xml version="1.0" encoding="UTF-8" standalone="no"?>
<svg xmlns:dc="http://purl.org/dc/elements/1.1/" xmlns:cc="http://creativecommons.org/ns#" xmlns:rdf="http://www.w3.org/1999/02/22-rdf-syntax-ns#" xmlns:svg="http://www.w3.org/2000/svg" xmlns="http://www.w3.org/2000/svg" xmlns:sodipodi="http://sodipodi.sourceforge.net/DTD/sodipodi-0.dtd" xmlns:inkscape="http://www.inkscape.org/namespaces/inkscape" version="1.1" id="svg2" width="649.0141" height="649.0141" viewBox="0 0 649.0141 649.0141" sodipodi:docname="mage-arcane.svg" inkscape:version="1.0.2 (e86c870879, 2021-01-15)">
  <metadata id="metadata8">
    <rdf:RDF>
      <cc:Work rdf:about="">
        <dc:format>image/svg+xml</dc:format>
        <dc:type rdf:resource="http://purl.org/dc/dcmitype/StillImage" />
        <dc:title></dc:title>
      </cc:Work>
    </rdf:RDF>
  </metadata>
  <defs id="defs6" />
  <sodipodi:namedview pagecolor="#ffffff" bordercolor="#666666" borderopacity="1" objecttolerance="10" gridtolerance="10" guidetolerance="10" inkscape:pageopacity="0" inkscape:pageshadow="2" inkscape:window-width="1920" inkscape:window-height="1025" id="namedview4" showgrid="false" inkscape:zoom="1.2079861" inkscape:cx="324.50705" inkscape:cy="324.50705" inkscape:window-x="0" inkscape:window-y="25" inkscape:window-maximized="1" inkscape:current-layer="g10" />
  <g inkscape:groupmode="layer" inkscape:label="Image" id="g10">
    <path style="fill:#000000;stroke-width:1.35211" d="m 40.563381,633.6354 c 0,-0.80206 21.435,-43.19571 55.604758,-109.97382 8.831471,-17.25938 16.057211,-31.93882 16.057211,-32.62099 0,-0.68216 -5.62816,-2.31959 -12.507038,-3.63871 -6.878873,-1.31911 -13.549839,-2.76889 -14.824367,-3.22174 -1.970667,-0.70021 0.911647,-7.37049 19.267605,-44.58938 11.87171,-24.07131 21.58493,-44.60122 21.58493,-45.62204 0,-1.02082 -0.87058,-1.85603 -1.93462,-1.85603 -2.74215,0 -44.754576,-21.74925 -59.44923,-30.77605 -17.282167,-10.61629 -31.113965,-21.20349 -36.855154,-28.20986 -2.696974,-3.2913 -4.665521,-6.19557 -4.374547,-6.45394 0.290974,-0.25836 2.458038,-1.45037 4.815696,-2.64891 8.202044,-4.16957 14.834109,-14.31236 36.11844,-55.23797 16.544941,-31.8127 28.352993,-49.17944 43.957395,-64.6505 7.14429,-7.08326 14.81498,-14.19875 17.04597,-15.81221 l 4.05633,-2.93358 -34.02593,-0.075 -34.025935,-0.0752 -5.692549,-6.42253 C 40.426622,161.94332 26.728495,137.85863 22.507102,121.01409 19.234435,107.95523 18.484492,98.368191 20.528202,95.716435 21.508114,94.444978 33.870423,88.874092 48.000001,83.336689 155.57512,41.17783 260.4334,17.358555 352.90142,14.076255 c 63.95255,-2.2701 124.93771,9.159657 170.43205,31.942144 21.08024,10.556489 49.76841,30.830096 49.89835,35.262607 0.0891,3.039124 -10.12457,4.270371 -21.00527,2.532171 -4.70311,-0.751326 -20.06129,-1.939297 -34.12929,-2.639936 -62.08939,-3.092285 -115.35278,5.448334 -137.4759,22.043839 -2.62441,1.96868 -2.58528,2.0528 1.35212,2.90775 2.23008,0.48424 12.71357,3.2913 23.29665,6.23792 63.81545,17.76799 110.00115,48.36381 131.44173,87.07387 12.84466,23.1905 35.2678,43.14664 52.50009,46.72406 10.04505,2.08533 19.45217,0.007 28.21724,-6.23501 7.64715,-5.44562 8.01819,-5.22976 12.7722,7.43007 6.34107,16.88621 6.3076,30.75471 -0.11534,47.81543 -8.6041,22.85418 -36.85125,51.70892 -71.6229,73.16349 -15.58341,9.61517 -40.54398,22.79154 -52.56687,27.74938 -10.31222,4.25241 -13.44692,7.10096 -36.5481,33.21174 l -8.37385,9.46479 36.57688,0.67606 36.57687,0.67606 -54.25545,42.59155 c -29.84051,23.42535 -79.89538,62.76126 -111.23304,87.41314 -34.00906,26.75333 -57.48678,44.34 -58.24075,43.62694 -1.41218,-1.33552 22.69672,-51.51368 48.01847,-99.94149 8.74896,-16.7324 16.10674,-31.26005 16.35061,-32.28368 0.32359,-1.35824 -4.64537,-3.09784 -18.38876,-6.4378 -10.3577,-2.51716 -19.04182,-4.7863 -19.29806,-5.04253 -0.25622,-0.25624 7.80017,-11.35359 17.90308,-24.66079 l 18.36892,-24.19492 -53.83148,-0.82157 c -29.60731,-0.45186 -59.91598,-1.23978 -67.3526,-1.75092 l -13.52113,-0.92936 -10.14084,14.51797 c -5.57747,7.98489 -10.31286,14.91704 -10.52312,15.40477 -0.21024,0.48773 10.13343,2.55019 22.98592,4.58324 12.85251,2.03305 24.43143,4.10291 25.73095,4.59969 1.91362,0.73152 0.8855,2.0457 -5.40845,6.91328 -4.27417,3.30554 -30.28389,23.41601 -57.79939,44.68992 -67.16141,51.92662 -159.147098,123.09341 -161.239438,124.74652 -0.929577,0.73442 -1.690141,0.95887 -1.690141,0.49875 z M 200.27887,337.69015 c -8.48374,-16.83851 -16.2955,-38.88786 -19.99965,-56.45071 -3.44526,-16.33525 -3.17579,-44.48925 0.55324,-57.80281 1.51013,-5.39155 2.3422,-9.80282 1.84903,-9.80282 -3.69192,0 -25.44265,19.80972 -37.40398,34.06607 -10.87206,12.95808 -17.80927,23.20849 -23.34299,34.49153 l -3.57565,7.29061 4.02942,7.70969 c 7.8127,14.94847 27.55663,32.64634 47.70259,42.7592 7.05592,3.54193 33.28519,12.882 36.30304,12.92726 0.85186,0.0122 -1.89991,-6.82182 -6.11505,-15.18802 z m 251.88524,1.6425 c 22.13823,-5.37656 37.61741,-10.8122 52.17393,-18.32133 11.77116,-6.07227 26.61523,-16.80409 27.90996,-20.17809 0.41918,-1.09237 -1.35658,-3.71535 -4.21347,-6.22373 -3.47321,-3.04952 -7.75152,-10.08403 -14.42275,-23.71422 -15.17563,-31.0058 -26.82401,-46.58457 -44.42867,-59.41974 -9.66743,-7.04832 -17.56616,-11.82486 -18.31533,-11.07571 -0.32757,0.32759 0.6175,3.10645 2.10019,6.17526 9.12239,18.88117 9.0249,55.0714 -0.22662,84.12914 -3.51759,11.04826 -12.99421,32.99285 -19.43884,45.01366 -4.79398,8.94194 -4.84014,9.16527 -1.76066,8.5189 1.73931,-0.36507 11.01934,-2.57193 20.62226,-4.90414 z m -114.81199,-3.33859 c 26.93855,-5.65582 48.82725,-25.81627 55.58518,-51.19638 4.26183,-16.00573 1.18864,-43.0538 -6.64253,-58.46299 l -3.28387,-6.46161 -3.43671,5.44408 c -5.17245,8.19372 -14.86802,16.00633 -24.31193,19.59041 -7.10096,2.69491 -10.81298,3.19159 -23.31859,3.12013 -12.58885,-0.0719 -16.53262,-0.65831 -25.67716,-3.81786 -19.54582,-6.75333 -31.96355,-16.26373 -39.67974,-30.3896 l -3.96037,-7.25019 -5.36566,7.25019 c -7.45888,10.07863 -13.12493,20.58141 -16.67651,30.91216 -4.19024,12.18843 -4.25583,32.43621 -0.14168,43.72973 12.69677,34.85303 56.041,56.1124 96.90957,47.53193 z" id="path14" />
  </g>
</svg>
