<?xml version="1.0" encoding="UTF-8" standalone="no"?>
<svg xmlns:dc="http://purl.org/dc/elements/1.1/" xmlns:cc="http://creativecommons.org/ns#" xmlns:rdf="http://www.w3.org/1999/02/22-rdf-syntax-ns#" xmlns:svg="http://www.w3.org/2000/svg" xmlns="http://www.w3.org/2000/svg" xmlns:sodipodi="http://sodipodi.sourceforge.net/DTD/sodipodi-0.dtd" xmlns:inkscape="http://www.inkscape.org/namespaces/inkscape" version="1.1" id="svg2" width="662.53522" height="649.0141" viewBox="0 0 662.53522 649.0141" sodipodi:docname="mage-frost.png.svg" inkscape:version="1.0.2 (e86c870879, 2021-01-15)">
  <metadata id="metadata8">
    <rdf:RDF>
      <cc:Work rdf:about="">
        <dc:format>image/svg+xml</dc:format>
        <dc:type rdf:resource="http://purl.org/dc/dcmitype/StillImage" />
        <dc:title></dc:title>
      </cc:Work>
    </rdf:RDF>
  </metadata>
  <defs id="defs6" />
  <sodipodi:namedview pagecolor="#ffffff" bordercolor="#666666" borderopacity="1" objecttolerance="10" gridtolerance="10" guidetolerance="10" inkscape:pageopacity="0" inkscape:pageshadow="2" inkscape:window-width="1920" inkscape:window-height="1025" id="namedview4" showgrid="false" inkscape:zoom="1.2079861" inkscape:cx="331.26761" inkscape:cy="324.50705" inkscape:window-x="0" inkscape:window-y="25" inkscape:window-maximized="1" inkscape:current-layer="g10" />
  <g inkscape:groupmode="layer" inkscape:label="Image" id="g10">
    <path style="fill:#000000;stroke-width:1.35211" d="m 318.69652,624.9143 c -6.47182,-11.02391 -11.76694,-21.14543 -11.76694,-22.49229 0,-2.84984 18.48425,-31.05523 23.31044,-35.56974 3.94626,-3.6914 3.03116,-4.49986 17.81919,15.74266 7.11045,9.73309 10.25065,15.21712 10.25065,17.90166 0,2.23108 -2.44956,7.74128 -5.78393,13.01072 -3.18117,5.02733 -8.80796,14.16031 -12.504,20.29552 -3.69603,6.13521 -7.35871,11.15493 -8.13927,11.15493 -0.78056,0 -6.71434,-9.01955 -13.18614,-20.04346 z m -149.6822,-19.50583 c 0.004,-5.91669 18.93062,-88.0632 21.38369,-92.81113 2.06055,-3.98822 4.2267,-5.5777 11.86422,-8.70577 9.71268,-3.97799 32.41766,-11.72254 34.36738,-11.72254 1.33292,0 3.22894,8.44386 6.24655,27.81888 1.86655,11.98443 1.93566,14.80203 0.43203,17.61159 -3.60256,6.73145 -68.68398,68.14699 -72.21466,68.14699 -1.1437,0 -2.07934,-0.15211 -2.07921,-0.33802 z m 291.75726,-28.65899 c -17.54624,-15.94836 -33.589,-31.20847 -35.6506,-33.91134 l -3.74832,-4.91432 1.67559,-12.39853 c 2.39278,-17.70526 5.99469,-33.59023 7.77292,-34.27977 1.73856,-0.67415 33.41572,10.88225 37.99577,13.86155 5.67799,3.69351 6.53811,6.51264 20.78366,68.12144 6.30763,27.27905 6.98676,32.51798 4.21537,32.51798 -0.62816,0 -15.49814,-13.04866 -33.04439,-28.99701 z m -191.1485,-13.76592 c -4.31061,-8.03628 -7.87163,-15.79758 -7.91338,-17.24733 -0.0587,-2.03632 5.84467,-6.00106 25.95228,-17.42988 l 26.02816,-14.79397 v -6.71118 c 0,-3.69115 2.99214,-25.07368 6.64918,-47.51675 3.65703,-22.44306 7.02217,-43.84782 7.47808,-47.56613 1.28907,-10.51361 3.59418,-19.60563 4.97065,-19.60563 2.9714,0 4.0837,6.00567 14.90018,80.4507 1.51271,10.41127 3.07574,23.9333 3.47342,30.04896 l 0.72303,11.11939 25.67513,14.52001 c 14.12132,7.98601 25.97029,15.28918 26.33103,16.22926 0.36074,0.94008 -3.01287,8.56855 -7.49691,16.95215 -6.04624,11.30437 -8.78807,15.19191 -10.61139,15.04554 -1.35223,-0.10857 -13.86704,-5.18828 -27.8107,-11.2883 l -25.35212,-11.09093 -25.35211,11.05983 c -13.94366,6.08291 -26.35448,11.36939 -27.57958,11.74775 -1.70039,0.52514 -4.08207,-2.7696 -10.06495,-13.92349 z m -21.2042,-50.08525 c -0.36569,-0.61801 -1.43486,-8.57717 -2.37596,-17.68703 -0.94108,-9.10986 -2.13952,-16.56338 -2.66318,-16.56338 -0.52366,0 -7.48736,2.73803 -15.47489,6.08451 -7.98753,3.34647 -15.11561,6.0845 -15.84018,6.0845 -1.21837,0 -16.24008,-29.96542 -15.42854,-30.77696 0.19964,-0.19966 3.95368,-1.298 8.3423,-2.4408 14.31063,-3.72645 28.14972,-13.43148 51.24693,-35.93827 8.18028,-7.97118 19.71542,-20.21898 25.63365,-27.21736 l 10.76041,-12.72431 4.78888,2.7368 c 2.63389,1.50524 5.00939,2.89808 5.27891,3.0952 0.2695,0.19713 -1.97946,7.2365 -4.99768,15.64304 -15.88969,44.25681 -22.26895,84.31184 -16.04897,100.77069 1.18711,3.14127 1.73462,5.95845 1.21667,6.26042 -0.51795,0.30195 -7.02624,0.97415 -14.46286,1.49377 -7.43662,0.51962 -14.82377,1.25032 -16.41588,1.62379 -1.5921,0.37347 -3.19393,0.17338 -3.55961,-0.44461 z m 149.10225,-1.12365 c -8.55211,-0.89673 -15.70957,-1.71991 -15.90547,-1.8293 -0.19589,-0.10939 0.64864,-2.48056 1.87675,-5.26929 2.96072,-6.72311 2.93059,-27.93199 -0.0636,-44.71131 -2.60713,-14.61068 -9.28711,-38.38574 -16.21487,-57.71123 -2.66587,-7.43662 -4.84722,-13.88506 -4.84744,-14.32987 -5e-4,-1.00361 10.69655,-5.90675 11.23414,-5.1493 0.21454,0.30228 6.28044,7.32099 13.47979,15.59713 26.8071,30.81661 55.55342,54.61949 70.6482,58.49897 12.47458,3.20608 12.19465,1.70983 3.60644,19.27736 l -7.70131,15.75342 -15.3386,-6.62666 c -8.43622,-3.64468 -15.78475,-6.62668 -16.33006,-6.62668 -0.54529,0 -1.76945,6.84507 -2.72033,15.21127 -1.65875,14.59423 -3.13003,20.17233 -5.20787,19.74479 -0.53159,-0.10939 -7.96371,-0.93257 -16.51582,-1.8293 z M 140.07681,493.37967 c -0.42216,-3.26868 -1.70279,-14.46135 -2.84584,-24.87262 -1.14304,-10.41126 -2.4326,-21.26932 -2.86568,-24.12902 -0.74243,-4.90232 -2.13152,-6.19946 -24.30875,-22.69957 -12.936731,-9.62507 -23.521328,-18.05758 -23.521328,-18.73889 0,-1.1786 16.682778,-27.72906 19.043568,-30.30765 0.64885,-0.70871 9.28869,3.6325 20.44846,10.27462 10.62868,6.32604 22.48445,13.24926 26.34615,15.38496 l 7.02128,3.88309 8.52802,-4.15669 c 4.69041,-2.28619 17.04633,-7.36048 27.45759,-11.27621 10.41127,-3.91572 30.49015,-11.60784 44.61972,-17.09359 36.86824,-14.31392 41.12059,-14.63562 26.70423,-2.0202 -16.52812,14.46336 -74.27189,59.53552 -83.15493,64.90695 l -5.07042,3.066 v 30.98831 30.98832 l -5.74648,0.007 c -3.16057,0.004 -11.62833,0.39652 -18.81726,0.87261 l -13.07078,0.86561 -0.76755,-5.94302 z m 357.83869,4.54396 -11.15493,-0.45551 v -30.92794 -30.92793 l -6.42254,-4.01352 c -3.53239,-2.20743 -14.33239,-10.49772 -24,-18.42286 -9.6676,-7.92514 -25.76177,-20.92618 -35.76482,-28.8912 -24.11703,-19.20339 -30.19628,-24.7799 -28.67374,-26.30243 1.71418,-1.71418 6.54063,-0.20751 33.33997,10.40767 52.91961,20.9614 70.53932,28.20189 74.52579,30.62499 2.31877,1.40941 5.01115,2.56257 5.98309,2.56257 0.97192,0 13.27847,-6.7574 27.34789,-15.01644 14.06941,-8.25905 26.06738,-14.49567 26.66214,-13.85915 2.29167,2.45255 18.94588,29.00745 18.94588,30.20893 0,0.69713 -10.60408,9.15706 -23.5646,18.79984 -23.20516,17.26491 -23.57698,17.62148 -24.37544,23.37563 -0.97485,7.02524 -6.12966,51.38977 -6.13834,52.82922 -0.005,0.98131 -2.85753,0.98219 -26.71035,0.008 z M 71.004538,485.74837 c -8.17004,-0.24084 -15.374087,-0.95735 -16.008993,-1.59225 -1.128295,-1.1283 18.945105,-38.04184 22.819536,-41.96349 1.445234,-1.46285 4.676314,-1.88788 12.434954,-1.63573 13.842435,0.44984 33.180065,2.80165 34.596305,4.20755 1.43996,1.42944 -13.11018,34.81879 -16.9578,38.91439 -2.54677,2.71092 -4.04634,3.04717 -12.462259,2.79457 -5.261918,-0.15794 -16.251704,-0.4842 -24.421743,-0.72504 z m 489.193082,-0.0499 c -2.29872,-1.46166 -19.3503,-36.92824 -19.35153,-40.25038 -9.4e-4,-2.57867 1.42509,-2.93153 19.94265,-4.93457 15.34427,-1.65978 20.70421,-1.79885 23.24151,-0.60301 2.25624,1.06337 6.84708,8.13928 14.53521,22.40325 6.18054,11.46693 11.23736,21.65848 11.23736,22.64789 0,1.43036 -4.91701,1.79467 -24,1.77821 -13.2,-0.0108 -24.72233,-0.48001 -25.6052,-1.04139 z M 136.77264,360.18164 c -5.39657,-7.89447 -9.62881,-14.49461 -9.40497,-14.66698 0.22384,-0.17235 6.33937,-4.73949 13.59008,-10.14918 7.2507,-5.4097 13.1831,-10.29599 13.1831,-10.85843 0,-0.56244 -5.78028,-5.36735 -12.84507,-10.67758 -7.06479,-5.31023 -12.84507,-10.44383 -12.84507,-11.40799 0,-1.28171 14.85558,-23.78073 18.28931,-27.69946 0.20863,-0.2381 3.07543,2.26319 6.37067,5.55842 7.39362,7.39363 15.24188,12.0648 30.01503,17.86448 17.0441,6.69124 34.14496,11.442 58.21908,16.17377 l 21.62649,4.25068 -0.13866,5.92555 -0.13867,5.92555 -21.48782,4.26185 c -46.09041,9.14149 -80.61999,22.94723 -89.86453,35.92999 -1.53634,2.15761 -3.23519,3.92291 -3.77519,3.92291 -0.54001,0 -5.39722,-6.45911 -10.79378,-14.35358 z m 377.36787,10.46482 c -9.74194,-13.17669 -44.25262,-26.92651 -90.24587,-35.95599 l -21.62648,-4.24574 0.13866,-5.92555 0.13867,-5.92555 21.48781,-4.26185 c 46.18855,-9.16094 80.61837,-22.94496 89.91171,-35.99624 1.5623,-2.19405 3.35494,-3.80725 3.98366,-3.58489 1.30222,0.46056 20.59158,28.24371 19.95296,28.73894 -0.22927,0.17778 -6.34923,4.74934 -13.59993,10.15903 -7.25071,5.4097 -13.1831,10.29599 -13.1831,10.85843 0,0.56244 5.83708,5.41005 12.9713,10.77247 9.55807,7.18429 12.80728,10.37709 12.34795,12.13355 -0.70366,2.69085 -17.46791,27.05774 -18.64244,27.09685 -0.4179,0.0139 -2.0536,-1.72464 -3.6349,-3.86346 z M 322.32137,368.57 c -14.2921,-3.46847 -26.25054,-13.58273 -32.69025,-27.6489 -4.68466,-10.23266 -4.80083,-24.38413 -0.29534,-35.97778 7.69064,-19.78975 30.77846,-32.91327 51.24667,-29.1295 26.26994,4.85626 43.88686,29.14429 39.33733,54.23343 -3.5827,19.75737 -17.03012,34.06029 -36.28379,38.59208 -9.12692,2.14824 -12.21838,2.13818 -21.31462,-0.0694 z M 96.676058,353.31395 c -4.463127,-1.03298 -69.62794,-20.67348 -79.098593,-23.8401 -15.4542629,-5.16733 -16.86792591,-4.42458 47.852434,-25.14215 14.048417,-4.49703 28.347009,-8.54517 31.774648,-8.99589 6.176423,-0.81217 6.352803,-0.72326 19.753203,9.95889 7.43662,5.92813 15.59378,12.95533 18.12703,15.61603 5.57439,5.85483 5.92772,5.2736 -12.04122,19.80869 -17.18182,13.8984 -18.34122,14.45218 -26.367502,12.59453 z M 548.2817,343.7194 c -7.43662,-5.92813 -15.59378,-12.95533 -18.12703,-15.61603 -5.5744,-5.85483 -5.92772,-5.2736 12.04121,-19.80869 16.0798,-13.00696 17.95476,-14.0084 24.14369,-12.8954 5.05405,0.90892 65.55465,18.86883 81.32241,24.14097 15.45427,5.16733 16.86793,4.42458 -47.85243,25.14215 -14.04842,4.49703 -28.34702,8.54517 -31.77465,8.99589 -6.17644,0.81217 -6.35281,0.72326 -19.7532,-9.95889 z M 262.98592,289.51805 c -3.71831,-1.34751 -15.5831,-5.93822 -26.3662,-10.20158 -46.29194,-18.30263 -67.19615,-26.91673 -71.1455,-29.31727 -2.31877,-1.40941 -5.01115,-2.56257 -5.98309,-2.56257 -0.97193,0 -13.27848,6.7574 -27.34789,15.01644 -14.06942,8.25905 -26.06738,14.49567 -26.66214,13.85915 -2.29167,-2.45255 -18.945888,-29.00745 -18.945888,-30.20893 0,-0.69713 10.584597,-9.14258 23.521328,-18.76765 22.16066,-16.48778 23.56745,-17.80091 24.31861,-22.69957 0.43851,-2.8597 2.0476,-16.12552 3.57574,-29.47962 1.52815,-13.35408 2.99328,-24.49499 3.25586,-24.75756 0.26257,-0.26257 8.75622,-0.048 18.87477,0.47682 l 18.39736,0.95423 v 30.78596 30.78595 l 6.42253,4.01352 c 3.5324,2.20743 14.3324,10.49772 24,18.42286 9.66761,7.92514 25.76178,20.92618 35.76483,28.8912 22.8159,18.16738 29.97847,24.61259 29.03982,26.13136 -1.04669,1.69361 -3.02565,1.44572 -10.72014,-1.34274 z m 127.77465,0.0979 c 0,-1.88119 10.91636,-11.35361 36.50704,-31.67809 29.02011,-23.04821 48.43335,-37.83704 54.42254,-41.4586 l 5.07042,-3.066 V 182.6074 151.80156 l 18.36419,-0.9732 c 10.10031,-0.53526 18.626,-0.7114 18.94598,-0.39142 0.31998,0.31999 1.79421,11.47582 3.27607,24.79074 1.48187,13.31493 3.0589,26.5487 3.50453,29.4084 0.76262,4.89383 2.19272,6.22802 24.33157,22.69957 12.93673,9.62507 23.52132,18.05758 23.52132,18.73889 0,1.1786 -16.68278,27.72906 -19.04357,30.30765 -0.64885,0.70871 -9.28868,-3.6325 -20.44846,-10.27462 -10.62868,-6.32604 -22.48445,-13.24926 -26.34615,-15.38496 l -7.02127,-3.88309 -8.52802,4.15669 c -4.69041,2.28619 -17.04633,7.36048 -27.4576,11.27621 -10.41127,3.91572 -30.49014,11.60784 -44.61972,17.09359 -26.82091,10.4131 -34.47887,12.68967 -34.47887,10.24994 z m -22.30986,-24.76068 c -2.23099,-1.39165 -4.61204,-2.71892 -5.29125,-2.94947 -0.67919,-0.23057 1.26554,-7.38326 4.32162,-15.89489 15.99951,-44.56076 22.35017,-84.45869 16.0851,-101.05445 -1.65573,-4.38592 -1.78783,-5.92834 -0.54062,-6.31244 2.60461,-0.80212 32.65639,-3.15473 33.57381,-2.62831 0.4536,0.26026 1.60189,8.0956 2.55177,17.41186 0.94988,9.31625 2.16212,16.93864 2.69386,16.93864 0.53175,0 7.50207,-2.73803 15.48959,-6.08451 7.98754,-3.34647 15.11562,-6.0845 15.84019,-6.0845 1.21836,0 16.24008,29.96542 15.42854,30.77696 -0.19964,0.19966 -3.95369,1.298 -8.34231,2.4408 -9.07227,2.36239 -16.58039,6.42864 -28.261,15.30559 -11.45783,8.70763 -32.73836,29.5601 -46.3814,45.44848 -6.38568,7.43662 -11.94811,13.9026 -12.36095,14.36883 -0.41284,0.46624 -2.57596,-0.29093 -4.80695,-1.68259 z m -87.88733,-11.51361 c -25.18892,-29.92171 -57.86396,-57.29439 -73.05267,-61.19801 -12.47458,-3.20608 -12.19465,-1.70983 -3.60644,-19.27736 l 7.70137,-15.75342 15.33859,6.62666 c 8.43623,3.64468 15.79103,6.62668 16.34399,6.62668 0.55297,0 1.78307,-6.97731 2.73357,-15.50512 0.95049,-8.52782 2.41824,-16.34254 3.26164,-17.36606 1.284,-1.55819 4.17312,-1.59582 17.75883,-0.23136 8.92394,0.89627 16.38563,1.71381 16.58152,1.81676 0.1959,0.1029 -0.64391,2.46888 -1.86625,5.25761 -2.7425,6.25697 -3.05651,26.26763 -0.64179,40.90141 2.43803,14.77516 8.62618,37.59397 15.7414,58.04643 3.4266,9.84967 6.02991,18.0821 5.78512,18.29429 -1.25218,1.08539 -9.2453,4.77423 -10.18074,4.69843 -0.59468,-0.0481 -5.94884,-5.86981 -11.89814,-12.93694 z m 49.20025,-0.15855 c -1.30123,-3.3669 -4.1896,-21.51491 -12.21242,-76.73239 -1.5127,-10.41127 -3.07573,-23.9333 -3.47341,-30.04896 l -0.72303,-11.11939 -25.67514,-14.52001 c -14.12131,-7.98601 -25.97028,-15.28917 -26.33102,-16.22926 -0.36075,-0.94008 3.01287,-8.568551 7.49691,-16.952151 6.04624,-11.304374 8.78807,-15.191911 10.61139,-15.045539 1.35222,0.108548 13.86704,5.188291 27.8107,11.288303 l 25.35211,11.090933 25.35212,-11.090933 c 13.94366,-6.100012 26.45847,-11.179748 27.8107,-11.288303 1.82332,-0.146372 4.56515,3.741165 10.61139,15.045539 4.48404,8.3836 7.85765,16.012071 7.49691,16.952151 -0.36074,0.94009 -12.28517,8.28593 -26.49872,16.3241 l -25.84282,14.61485 v 6.72602 c 0,3.69931 -2.99213,25.08852 -6.64918,47.53159 -3.65703,22.44306 -7.02217,43.84782 -7.47807,47.56613 -1.28908,10.51361 -3.59419,19.60563 -4.97065,19.60563 -0.6879,0 -1.89739,-1.67323 -2.68777,-3.71831 z M 81.217244,209.25218 C 79.055387,208.13316 74.071835,200.40101 66.682032,186.70033 60.497056,175.2334 55.43662,165.04185 55.43662,164.05244 c 0,-1.43036 4.917014,-1.79467 24.000001,-1.77821 13.2,0.0108 24.722339,0.48001 25.605199,1.04139 2.3118,1.46997 19.35031,36.93765 19.35153,40.28248 9.4e-4,2.6089 -1.22901,2.93038 -17.23842,4.50558 -9.481689,0.93292 -18.456337,1.95613 -19.943661,2.27379 -1.487324,0.31768 -4.184635,-0.18871 -5.994025,-1.12529 z m 487.346146,-1.04495 c -17.9824,-1.28903 -27.55448,-2.67924 -28.45256,-4.13236 -1.06965,-1.73074 13.80453,-35.08263 17.31031,-38.81438 2.96102,-3.15186 3.00114,-3.15514 27.3355,-2.24243 13.40358,0.50275 24.88121,1.38212 25.50588,1.95419 0.62466,0.57206 -3.80201,9.77746 -9.83704,20.45646 -9.90547,17.52773 -15.00878,24.52078 -17.47667,23.94825 -0.47536,-0.11027 -6.9488,-0.63665 -14.38542,-1.16973 z m -353.9321,-56.63997 c -9.49083,-3.62321 -18.20137,-7.37219 -19.35677,-8.33108 -4.65936,-3.86695 -6.41664,-9.94683 -20.2334,-70.00461 -6.68851,-29.073125 -6.73568,-33.460416 -0.29846,-27.758282 24.79949,21.967564 62.65812,57.139622 65.46437,60.818792 l 3.63015,4.75937 -1.74516,13.094 c -2.52714,18.96133 -6.06863,33.31704 -8.31183,33.69256 -1.04107,0.17429 -9.65809,-2.64754 -19.1489,-6.27075 z m 211.40722,-1.49815 c -0.79926,-3.72679 -2.45311,-13.19609 -3.67523,-21.04291 -1.86655,-11.98444 -1.93566,-14.80204 -0.43202,-17.61161 3.60255,-6.73144 68.68398,-68.146983 72.21466,-68.146983 1.1437,0 2.07933,0.152112 2.07921,0.338028 -0.004,5.916687 -18.93062,88.063195 -21.38369,92.811125 -2.06055,3.98822 -4.2267,5.5777 -11.86422,8.70577 -9.71269,3.97799 -32.41766,11.72254 -34.36738,11.72254 -0.61498,0 -1.77208,-3.04919 -2.57133,-6.77596 z M 329.57779,82.837885 c -1.18081,-1.312948 -6.75971,-8.701371 -12.39756,-16.418715 -7.11045,-9.733094 -10.25065,-15.217117 -10.25065,-17.901664 0,-2.231079 2.44957,-7.741282 5.78393,-13.010717 3.18117,-5.027325 8.80796,-14.16031 12.504,-20.295521 3.69603,-6.1352114 7.35872,-11.1549299 8.13928,-11.1549299 1.86329,0 24.95307,39.3595279 24.95307,42.5357429 0,2.849852 -18.48424,31.055241 -23.31043,35.569748 -3.1158,2.914571 -3.37892,2.947381 -5.42164,0.676056 z" id="path14" />
  </g>
</svg>
