<?xml version="1.0" encoding="UTF-8" standalone="no"?>
<svg xmlns:dc="http://purl.org/dc/elements/1.1/" xmlns:cc="http://creativecommons.org/ns#" xmlns:rdf="http://www.w3.org/1999/02/22-rdf-syntax-ns#" xmlns:svg="http://www.w3.org/2000/svg" xmlns="http://www.w3.org/2000/svg" xmlns:sodipodi="http://sodipodi.sourceforge.net/DTD/sodipodi-0.dtd" xmlns:inkscape="http://www.inkscape.org/namespaces/inkscape" version="1.1" id="svg2" width="655.77466" height="649.0141" viewBox="0 0 655.77466 649.0141" sodipodi:docname="monk-brewmaster.png.svg" inkscape:version="1.0.2 (e86c870879, 2021-01-15)">
  <metadata id="metadata8">
    <rdf:RDF>
      <cc:Work rdf:about="">
        <dc:format>image/svg+xml</dc:format>
        <dc:type rdf:resource="http://purl.org/dc/dcmitype/StillImage" />
        <dc:title></dc:title>
      </cc:Work>
    </rdf:RDF>
  </metadata>
  <defs id="defs6" />
  <sodipodi:namedview pagecolor="#ffffff" bordercolor="#666666" borderopacity="1" objecttolerance="10" gridtolerance="10" guidetolerance="10" inkscape:pageopacity="0" inkscape:pageshadow="2" inkscape:window-width="1920" inkscape:window-height="1025" id="namedview4" showgrid="false" inkscape:zoom="1.2079861" inkscape:cx="327.88733" inkscape:cy="324.50705" inkscape:window-x="0" inkscape:window-y="25" inkscape:window-maximized="1" inkscape:current-layer="g10" />
  <g inkscape:groupmode="layer" inkscape:label="Image" id="g10">
    <path style="fill:#000000;stroke-width:1.35211" d="M 0,324.50705 V 0 l 126.76057,0.0236218 126.76056,0.0236218 5.01212,8.4270826 c 7.7757,13.0736138 12.69929,23.4927398 19.37033,40.9908218 7.80215,20.464938 15.6634,47.252699 14.64546,49.905399 -0.58237,1.517633 -2.95846,2.037903 -9.30715,2.037903 -11.39689,0 -26.31826,2.97603 -37.63324,7.50586 -22.09007,8.8435 -36.03118,30.5587 -36.03118,56.12353 v 8.9767 l -14.34242,3.73141 C 109.50513,200.04992 50.958153,235.55153 26.487193,280.07097 5.2521674,318.70336 7.6838637,365.08046 33.744352,418.47888 c 13.593824,27.854 32.347209,55.13468 58.891888,85.67049 l 13.16459,15.14394 -9.033397,23.79049 C 75.794193,598.31926 59.235514,627.97245 40.697681,643.49321 L 34.10358,649.0141 H 17.051791 0 Z m 220.39437,303.62382 -26.3662,-12.63086 0.18745,-6.5669 c 0.97187,-34.04709 0.39472,-51.90804 -2.05381,-63.55981 -4.93549,-23.48642 -16.16616,-40.02331 -32.24759,-47.4838 -7.13684,-3.31091 -9.25264,-3.62239 -24.83317,-3.6558 -10.99224,-0.0235 -17.70463,0.52031 -18.92957,1.53376 -4.19032,3.46684 -9.37316,0.39769 -18.376219,-10.88197 -22.718678,-28.46351 -43.39051,-65.19017 -52.500645,-93.27534 -7.104516,-21.90217 -9.17376,-36.0191 -8.448558,-57.63831 0.537098,-16.01163 1.144474,-19.83115 4.945253,-31.09859 6.791716,-20.13411 13.68706,-31.09403 29.890662,-47.51022 8.235487,-8.34353 18.739429,-17.34146 25.014085,-21.42767 15.857472,-10.32676 43.404132,-23.38956 64.225352,-30.45607 22.30914,-7.5715 50.06114,-14.71257 51.45347,-13.23988 0.56396,0.59649 2.94066,6.86482 5.28156,13.92961 19.17782,57.87816 60.10326,104.93939 112.95512,129.88998 21.89197,10.33488 36.05729,14.56587 68.89864,20.57911 l 9.40568,1.72217 4.27736,20.91846 c 4.04615,19.78769 4.15329,21.06463 1.98213,23.62268 -1.26237,1.48732 -10.00564,11.38481 -19.42952,21.99442 -11.89145,13.38769 -17.13429,20.28958 -17.13429,22.55627 0,1.79634 3.6156,33.27349 8.03467,69.94924 4.41907,36.67575 8.22189,69.07745 8.4507,72.00379 l 0.41604,5.3206 -70.98592,23.99843 c -39.04226,13.19914 -72.50705,24.00724 -74.3662,24.018 -1.85916,0.0108 -15.24507,-5.66434 -29.74648,-12.6113 z M 323.90291,442.80865 c 2.26548,-15.10728 -4.06335,-32.53322 -16.22423,-44.67218 -8.17696,-8.16223 -19.22121,-15.97052 -20.24533,-14.31347 -0.40424,0.65408 -1.12405,5.37537 -1.59956,10.49175 -1.57688,16.96651 5.76934,35.24236 17.87875,44.47867 6.02757,4.59745 15.61086,10.07086 17.66941,10.09171 0.88401,0.009 2.01843,-2.72546 2.52096,-6.07648 z m 104.571,-97.30507 c -57.07793,-9.31945 -104.21215,-33.45203 -145.28913,-74.38761 -31.66544,-31.55641 -48.77532,-60.59043 -53.30115,-90.44749 -2.81096,-18.54403 2.30604,-36.04392 13.38317,-45.76977 6.1978,-5.44175 19.0724,-11.22492 29.12694,-13.0836 12.29279,-2.27245 33.62541,-1.76895 47.64658,1.12456 24.61129,5.07896 39.14411,15.46221 65.13048,46.53368 21.76938,26.02928 27.19986,30.74861 41.21924,35.82141 19.41438,7.02494 42.52515,8.75428 67.1311,5.0233 17.00106,-2.57785 28.66603,-6.29381 46.64788,-14.86 46.43984,-22.123 78.53367,-63.19581 94.09154,-120.415805 2.42638,-8.923944 4.91318,-16.80338 5.52623,-17.509859 1.57653,-1.816795 1.38477,43.157484 -0.29381,68.913214 -3.39562,52.10136 -13.91926,96.08006 -31.10961,130.0082 -9.31386,18.38249 -17.68246,30.40802 -30.27354,43.50248 -22.06611,22.94832 -46.8967,36.67188 -79.9899,44.20945 -13.26947,3.02237 -54.48058,3.81399 -69.64602,1.33784 z" id="path14" />
  </g>
</svg>
