<?xml version="1.0" encoding="UTF-8" standalone="no"?>
<svg xmlns:dc="http://purl.org/dc/elements/1.1/" xmlns:cc="http://creativecommons.org/ns#" xmlns:rdf="http://www.w3.org/1999/02/22-rdf-syntax-ns#" xmlns:svg="http://www.w3.org/2000/svg" xmlns="http://www.w3.org/2000/svg" xmlns:sodipodi="http://sodipodi.sourceforge.net/DTD/sodipodi-0.dtd" xmlns:inkscape="http://www.inkscape.org/namespaces/inkscape" version="1.1" id="svg2" width="653.07043" height="649.0141" viewBox="0 0 653.07043 649.0141" sodipodi:docname="monk-mistweaver.svg" inkscape:version="1.0.2 (e86c870879, 2021-01-15)">
  <metadata id="metadata8">
    <rdf:RDF>
      <cc:Work rdf:about="">
        <dc:format>image/svg+xml</dc:format>
        <dc:type rdf:resource="http://purl.org/dc/dcmitype/StillImage" />
        <dc:title></dc:title>
      </cc:Work>
    </rdf:RDF>
  </metadata>
  <defs id="defs6" />
  <sodipodi:namedview pagecolor="#ffffff" bordercolor="#666666" borderopacity="1" objecttolerance="10" gridtolerance="10" guidetolerance="10" inkscape:pageopacity="0" inkscape:pageshadow="2" inkscape:window-width="1920" inkscape:window-height="1025" id="namedview4" showgrid="false" inkscape:zoom="1.2079861" inkscape:cx="326.53522" inkscape:cy="324.50705" inkscape:window-x="0" inkscape:window-y="25" inkscape:window-maximized="1" inkscape:current-layer="g10" />
  <g inkscape:groupmode="layer" inkscape:label="Image" id="g10">
    <path style="fill:#000000;stroke-width:1.35211" d="m 35.541169,638.74614 c 0.427434,-5.65164 1.075245,-10.5738 1.43958,-10.93814 0.364334,-0.36433 8.015137,-0.14456 17.001784,0.48838 l 16.339355,1.15081 12.163,-12.21378 12.163,-12.21379 v -14.43 c 0,-7.93651 0.456338,-14.6825 1.014085,-14.99109 0.557746,-0.30859 9.532397,0.21466 19.943667,1.1628 l 18.92957,1.72388 37.42721,-21.86232 37.42721,-21.86231 6.31644,-13.74722 6.31645,-13.74721 7.63662,0.64705 c 4.20015,0.35588 13.02005,1.23785 19.59978,1.95993 l 11.96313,1.31289 23.86786,-14.4902 c 33.18753,-20.1482 42.12136,-25.95148 42.12136,-27.36142 0,-0.6702 -1.17119,-5.08546 -2.60263,-9.81168 -1.43145,-4.72622 -3.51877,-11.75564 -4.6385,-15.62094 l -2.03586,-7.02782 14.47551,-8.13623 c 18.66058,-10.48853 24.08262,-12.37486 32.65273,-11.35986 l 6.76847,0.80163 v 13.21384 c 0,21.48966 -5.26632,43.10472 -16.41403,67.36974 l -5.20353,11.32644 5.06231,-0.81113 c 6.91897,-1.10861 28.29494,-8.31145 39.28828,-13.23856 15.12535,-6.77905 34.04122,-20.30975 45.67606,-32.67251 12.06011,-12.81463 17.96768,-21.9685 24.27819,-37.6194 2.39126,-5.93061 4.72571,-11.1609 5.18767,-11.62287 1.3556,-1.35558 7.65127,5.30172 9.8713,10.43834 4.62235,10.69493 3.61471,38.96528 -2.38327,66.86627 -1.43132,6.65814 -2.60242,12.93514 -2.60242,13.94887 0,2.63532 14.68339,-9.24391 25.4965,-20.62729 34.52905,-36.35013 49.36939,-81.20041 42.95618,-129.82165 -2.20793,-16.73932 -8.00615,-39.69959 -12.91813,-51.15436 -1.54118,-3.59404 -2.80215,-7.09263 -2.80215,-7.77465 0,-1.83547 11.84867,-1.47407 19.60563,0.59798 20.40652,5.45106 33.48722,19.16296 40.98134,42.9588 3.68055,11.6868 3.11732,63.69556 -0.9401,86.80856 -8.33706,47.49174 -30.45185,103.10468 -57.62099,144.9017 -12.15757,18.70325 -21.3638,39.28743 -28.91233,64.64509 l -3.6988,12.42533 -230.98735,0.34191 -230.987331,0.34191 z M 558.70519,611.37132 c -6.94521,-4.80435 -13.71727,-12.2831 -19.29584,-21.30942 -3.56474,-5.76785 -2.65317,-9.11705 6.2287,-22.88507 10.45066,-16.19987 20.71519,-34.82626 25.99677,-47.17479 2.57156,-6.01239 6.16592,-14.27808 7.98747,-18.36823 l 3.3119,-7.43662 -0.73557,6.08451 c -0.40458,3.34648 -2.2376,17.64507 -4.07339,31.77465 -1.83579,14.12958 -4.34637,38.16338 -5.57905,53.40845 -2.02157,25.00176 -3.21857,31.35255 -5.83849,30.97695 -0.46669,-0.0669 -4.06781,-2.3486 -8.0025,-5.07043 z M 121.699,535.0986 c 0.005,-0.92957 1.22177,-9.8069 2.70422,-19.72739 3.07252,-20.5611 3.31729,-28.28187 1.20836,-38.11547 -2.06901,-9.64744 -7.62068,-15.61289 -17.09247,-18.36641 -4.36289,-1.26833 -9.510722,-4.03833 -12.363494,-6.65271 -4.178736,-3.82952 -4.886303,-5.32844 -4.876247,-10.3299 0.0065,-3.2177 1.077997,-8.62639 2.381176,-12.0193 2.475035,-6.44393 4.956976,-8.1275 17.888755,-12.13442 19.49113,-6.03933 43.04387,-21.83944 89.91549,-60.31886 31.41111,-25.78704 46.83617,-37.35764 55.97864,-41.99049 l 6.75696,-3.424 -3.98752,-2.20701 c -3.08967,-1.71007 -7.48863,-2.17577 -19.53681,-2.06829 -23.63221,0.21084 -46.78695,5.46826 -120.33803,27.3235 -27.381209,8.13615 -45.117061,12.62749 -56.601523,14.3335 -4.852888,0.72088 -6.922911,0.27498 -11.688477,-2.51782 -12.363393,-7.24543 -15.697125,-15.67329 -9.920951,-25.08071 6.883597,-11.21102 9.253203,-17.39071 9.253203,-24.13141 0,-6.56665 -0.237262,-7.00051 -5.994683,-10.96171 -14.930848,-10.2727 -16.806837,-23.87358 -5.08286,-36.85062 7.05829,-7.81268 16.192761,-12.02533 25.669819,-11.83845 4.244671,0.0837 9.847161,0.10939 12.449978,0.0572 4.915846,-0.0987 104.555504,-10.98101 105.094674,-11.47806 0.16827,-0.15511 -0.90194,-3.46092 -2.37824,-7.34623 -11.63726,-30.62677 -0.84525,-60.87997 26.1571,-73.32615 9.02156,-4.15832 10.77602,-4.46729 31.27171,-5.50719 29.7331,-1.50858 45.3279,-3.31885 68.61722,-7.96525 C 364.26633,121.06673 414.52461,93.994116 446.39853,57.46479 456.78109,45.565797 468.98215,27.256782 477.034,11.492958 l 6.21569,-12.16901435 1.14647,8.78873265 C 489.32155,45.870249 473.10844,83.021035 436.16004,118.6411 c -8.29636,7.9981 -19.754,17.88848 -25.46143,21.97862 -5.70742,4.09014 -10.39877,7.80987 -10.4252,8.26606 -0.0851,1.46838 15.05331,7.5063 31.72659,12.65407 32.92607,10.16571 73.40522,36.59546 96.92093,63.28187 10.6087,12.0391 22.53814,29.65102 27.41695,40.47683 3.73043,8.27756 7.85929,21.77975 6.43527,21.04458 -10.50685,-5.42438 -17.63288,-7.98151 -25.35031,-9.09681 -10.61181,-1.53358 -29.2744,-1.83938 -35.55813,-0.58263 l -4.16347,0.83269 4.49121,8.97013 c 14.18953,28.34015 20.87677,53.3355 22.03323,82.35501 1.13915,28.58551 -2.5145,50.64562 -11.35952,68.58694 -4.54752,9.2242 -14.28529,23.66323 -15.95401,23.65636 -0.83302,-0.004 -1.42118,-6.44265 -1.51288,-16.56338 -0.22596,-24.93808 -4.63013,-39.69352 -16.57124,-55.51907 -4.12133,-5.462 -16.99567,-15.79926 -19.67689,-15.79926 -0.43171,0 -0.78494,3.59717 -0.78494,7.99373 0,33.84842 -20.81835,68.41536 -54.76056,90.92478 -10.17622,6.74855 -21.88472,12.83552 -22.83566,11.87172 -0.32181,-0.32618 0.8664,-4.91499 2.64046,-10.19737 10.19942,-30.36924 6.23674,-60.72306 -9.76635,-74.80955 -10.40332,-9.15737 -17.34967,-10.91862 -46.03976,-11.67342 l -24.90675,-0.65526 0.88959,5.93224 c 1.81179,12.08189 -5.7981,31.30493 -20.51429,51.8203 -11.41463,15.9128 -26.26978,32.90624 -28.76101,32.90098 -1.82442,-0.004 -2.1529,-2.26426 -2.21043,-15.21127 -0.0522,-11.75006 -0.7526,-17.43504 -3.08117,-25.00956 -1.65749,-5.39155 -3.2499,-9.80281 -3.53869,-9.80281 -0.2888,0 -1.20802,3.19436 -2.04269,7.09859 -2.09514,9.80006 -10.50973,26.64923 -19.75118,39.54929 -9.3905,13.10813 -28.86209,35.83099 -30.70414,35.83099 -0.83667,0 -1.00496,-4.14305 -0.45312,-11.15493 0.48284,-6.13521 1.20031,-16.32676 1.59436,-22.64789 l 0.71647,-11.49295 -3.42665,8.09151 c -8.3207,19.64806 -29.34621,42.40372 -52.17826,56.47187 -12.40114,7.64106 -17.55489,9.42913 -17.53737,6.0845 z M 274.72506,231.05217 c 12.3664,-3.42692 21.46643,-8.12864 27.24133,-14.07487 7.3615,-7.57989 9.68354,-22.27307 3.51993,-22.27307 -5.92747,0 -17.42478,3.31549 -24.92294,7.18703 -8.64261,4.46248 -26.47394,21.29969 -30.9415,29.21647 l -2.54714,4.51368 9.096,-0.97411 c 5.00281,-0.53576 13.35224,-2.15356 18.55432,-3.59513 z m 334.40171,245.41664 c -8.8485,-4.63575 -22.31877,-14.60692 -22.47006,-16.63313 -0.26535,-3.55371 0.35905,-6.1575 1.67216,-6.97299 2.13475,-1.32576 3.95904,-9.59661 4.75074,-21.53874 0.41906,-6.32112 1.25357,-12.37956 1.85448,-13.46319 1.13196,-2.04131 1.19535,-1.85995 6.11954,17.50713 3.20813,12.61776 7.92367,23.55446 13.50639,31.32518 2.67465,3.72294 4.66972,7.78367 4.43347,9.02387 -0.57588,3.02305 -4.90229,3.35274 -9.86672,0.75187 z M 98.10484,409.38929 c -2.419496,-3.45431 -2.619484,-8.61018 -0.670132,-17.2766 1.415067,-6.2911 7.835062,-20.2817 9.306862,-20.2817 0.45901,0 1.51359,1.79891 2.34349,3.99757 1.76076,4.66477 11.93969,11.64588 20.27808,13.90748 6.50937,1.76552 10.38709,7.22776 6.17794,8.70234 -1.29689,0.45434 -9.22769,3.78031 -17.62399,7.39103 -8.39631,3.61073 -15.81533,6.56497 -16.48671,6.56497 -0.67139,0 -2.167878,-1.35229 -3.32554,-3.00509 z M 79.774649,387.21306 c -10.44536,-7.03199 -16.225352,-15.8471 -16.225352,-24.74542 0,-6.8729 1.665468,-7.7727 15.549295,-8.40081 l 10.816902,-0.48936 -0.273647,4.7324 c -0.150507,2.60281 -0.562166,10.51267 -0.914799,17.57746 -0.554561,11.11033 -0.974119,12.89614 -3.106633,13.22323 -1.356017,0.20798 -3.986611,-0.64589 -5.845766,-1.8975 z m 68.748841,-3.55108 c -5.29909,-4.31029 -7.5117,-19.4473 -4.04377,-27.66435 l 1.83183,-4.3404 4.25267,4.4677 c 2.80744,2.9494 7.00972,5.30065 12.36536,6.91866 4.46197,1.34801 8.64315,2.91642 9.29153,3.48534 0.64836,0.56893 2.01738,0.71263 3.04225,0.31935 1.03254,-0.39623 1.8634,0.12322 1.8634,1.16501 0,2.34415 -20.87003,17.33883 -24.13268,17.33883 -1.316,0 -3.32775,-0.76056 -4.47059,-1.69014 z M 126.06321,373.0302 c -9.17328,-4.54068 -14.46182,-13.55094 -12.86293,-21.91499 0.56503,-2.95577 2.19196,-3.98804 10.8997,-6.91576 5.62954,-1.89277 10.49448,-3.18244 10.81098,-2.86595 0.60183,0.60184 0.63037,1.71039 0.3849,14.9482 -0.18607,10.03392 -1.45764,19.60598 -2.60431,19.60456 -0.47331,-5.8e-4 -3.45606,-1.28581 -6.62834,-2.85606 z m 57.45173,-17.089 c -4.93866,-5.45716 -6.1457,-13.21957 -3.45312,-22.2066 1.71735,-5.73203 2.79256,-5.85453 9.03184,-1.029 1.97032,1.52387 5.6593,4.10542 8.19774,5.73677 6.63226,4.26228 6.32629,6.78827 -1.66953,13.78281 -7.7233,6.75617 -9.00079,7.14827 -12.10693,3.71602 z m -22.63462,-1.48703 c -8.75084,-4.6502 -14.49057,-17.97581 -8.42961,-19.57059 12.88929,-3.39148 15.41791,-3.86001 16.26413,-3.01365 0.53641,0.5365 1.02706,4.72751 1.09033,9.31333 0.0633,4.58583 0.58556,10.01111 1.16066,12.05619 0.92964,3.3058 0.68953,3.71831 -2.16428,3.71831 -1.76547,0 -5.33002,-1.12663 -7.92123,-2.50359 z m 38.80007,-24.0518 c -5.07154,-3.43622 -8.72224,-6.69303 -8.11267,-7.23737 1.38425,-1.23609 18.2998,-5.41851 21.91482,-5.41851 3.70028,0 4.44119,3.54832 2.39984,11.49295 -2.28166,8.8799 -4.56998,9.04415 -16.20199,1.16293 z m 391.92755,-9.85678 c -0.42736,-0.69148 -1.35902,-5.84766 -2.07036,-11.45817 -1.63356,-12.88413 -4.53914,-25.46892 -7.85666,-34.02898 -1.42049,-3.66523 -2.97966,-8.73806 -3.46485,-11.27293 l -0.88214,-4.60885 7.78374,7.33698 c 10.84946,10.22673 20.17121,17.93289 38.20628,31.58459 15.21758,11.519 20.45626,17.3103 17.93718,19.82939 -3.00561,3.00561 -47.94909,5.37527 -49.65319,2.61797 z M 563.3645,240.90762 c -1.23076,-1.35996 -2.23773,-3.10724 -2.23773,-3.88286 0,-0.7756 -2.94896,-5.92752 -6.55323,-11.44873 -4.85545,-7.43779 -9.2342,-12.05629 -16.90141,-17.82681 -12.86994,-9.68619 -13.99092,-13.57065 -2.19833,-7.61777 19.67916,9.93401 43.1186,15.1672 55.32666,12.35247 3.30644,-0.76234 6.49628,-1.0866 7.08853,-0.72057 0.59226,0.36603 -0.10127,2.97473 -1.54113,5.7971 -1.72291,3.37717 -7.2317,8.66813 -16.11289,15.47572 -7.4222,5.68927 -13.75094,10.34412 -14.06384,10.34412 -0.3129,0 -1.57588,-1.1127 -2.80663,-2.47267 z m -58.35041,-59.98811 c -1.48732,-0.84341 -3.00845,-1.95955 -3.38028,-2.48033 -1.57996,-2.21283 -16.17748,-9.34211 -23.66197,-11.55626 l -8.11268,-2.39998 7.43662,-1.04433 c 12.89445,-1.81078 38.49376,-8.85582 50.91405,-14.01179 6.57755,-2.7305 13.28776,-5.28387 14.91158,-5.67416 3.11458,-0.7486 3.07338,-1.04154 1.13956,8.10191 -1.20217,5.68415 -10.82835,15.35907 -23.3472,23.46546 -12.16752,7.87887 -11.99018,7.81642 -15.89968,5.59948 z" id="path14" />
  </g>
</svg>
