<?xml version="1.0" encoding="UTF-8" standalone="no"?>
<svg xmlns:dc="http://purl.org/dc/elements/1.1/" xmlns:cc="http://creativecommons.org/ns#" xmlns:rdf="http://www.w3.org/1999/02/22-rdf-syntax-ns#" xmlns:svg="http://www.w3.org/2000/svg" xmlns="http://www.w3.org/2000/svg" xmlns:sodipodi="http://sodipodi.sourceforge.net/DTD/sodipodi-0.dtd" xmlns:inkscape="http://www.inkscape.org/namespaces/inkscape" version="1.1" id="svg2" width="670.64789" height="649.0141" viewBox="0 0 670.64789 649.0141" sodipodi:docname="monk-windwalker.svg" inkscape:version="1.0.2 (e86c870879, 2021-01-15)">
  <metadata id="metadata8">
    <rdf:RDF>
      <cc:Work rdf:about="">
        <dc:format>image/svg+xml</dc:format>
        <dc:type rdf:resource="http://purl.org/dc/dcmitype/StillImage" />
        <dc:title></dc:title>
      </cc:Work>
    </rdf:RDF>
  </metadata>
  <defs id="defs6" />
  <sodipodi:namedview pagecolor="#ffffff" bordercolor="#666666" borderopacity="1" objecttolerance="10" gridtolerance="10" guidetolerance="10" inkscape:pageopacity="0" inkscape:pageshadow="2" inkscape:window-width="1920" inkscape:window-height="1025" id="namedview4" showgrid="false" inkscape:zoom="1.2079861" inkscape:cx="335.32394" inkscape:cy="324.50705" inkscape:window-x="0" inkscape:window-y="25" inkscape:window-maximized="1" inkscape:current-layer="g10" />
  <g inkscape:groupmode="layer" inkscape:label="Image" id="g10">
    <path style="fill:#000000;stroke-width:1.35211" d="m 417.94557,578.59335 c -16.2573,-2.10614 -28.50459,-7.88053 -37.25327,-17.56428 -9.84777,-10.90031 -14.62522,-28.99379 -10.90049,-41.28307 4.49905,-14.84402 3.89671,-36.69092 -1.45874,-52.90858 -14.19887,-42.9978 -52.71784,-72.42974 -114.63219,-87.58925 -18.26845,-4.47295 -18.25339,-4.48275 -28.47825,18.50384 -11.73099,26.3725 -24.45656,51.25693 -29.77232,58.21875 -4.11267,5.38621 -6.8289,7.05552 -23.32019,14.3318 -38.5323,17.00124 -60.53125,24.03996 -70.47463,22.54886 -17.00284,-2.54973 -39.842578,-10.59229 -54.650201,-19.24395 -9.871613,-5.76771 -23.072846,-17.95226 -25.896026,-23.90168 -4.561025,-9.61164 -2.088225,-28.76904 7.270552,-56.3268 7.320437,-21.55568 11.912468,-31.3324 21.979385,-46.7955 10.963012,-16.83952 16.734586,-27.04628 19.125234,-33.82209 1.629827,-4.61943 1.609889,-6.42378 -0.147213,-13.32276 -4.506879,-17.69549 3.180256,-37.20675 23.089158,-58.60422 38.545471,-41.42745 118.947771,-120.0738 138.784891,-135.75386 5.57746,-4.40866 17.53133,-15.456633 26.56413,-24.551058 18.83173,-18.96019 32.13875,-30.041094 50.77671,-42.282364 14.44418,-9.486812 32.47004,-18.368324 35.92846,-17.702292 1.33504,0.257104 2.63885,2.451557 3.27462,5.511473 1.41846,6.827131 5.66995,15.045964 12.22544,23.633823 6.27918,8.225901 7.12779,8.387973 23.34332,4.458229 15.16674,-3.675579 26.54713,-8.610589 39.88732,-17.29681 12.19376,-7.939745 28.5401,-22.873448 34.58492,-31.5961407 L 461.4382,0 h 17.78309 17.7831 l -8.87135,9.1267608 C 477.76025,19.798189 470.76805,32.348952 465.96841,48.911502 c -3.74409,12.920075 -6.36031,36.461469 -5.06404,45.567441 l 0.84211,5.915567 17.57747,5.13613 c 24.62596,7.19571 35.3547,11.19722 54.72974,20.41261 31.59131,15.02583 61.56829,38.11647 78.52802,60.48844 12.94085,17.0706 25.61548,47.56971 25.61548,61.63885 0,4.15634 -3.92221,11.61056 -4.01335,7.62743 -0.10451,-4.56825 -24.59029,-24.76706 -34.66861,-28.59882 -3.50359,-1.33208 -3.54121,-1.29119 -1.5746,1.71176 16.64395,25.41475 30.85693,55.46508 44.87376,94.87602 l 7.55181,21.23328 v 66.07465 66.07465 l -18.64182,-8.52469 c -52.25277,-23.89461 -92.78818,-35.00615 -128.06241,-35.10438 -19.79557,-0.0552 -28.60771,1.59387 -40.24558,7.53107 -12.77683,6.51825 -22.7327,20.1466 -19.98916,27.36266 2.32715,6.12088 11.18065,9.52592 24.92351,9.58555 l 12.01271,0.0521 -0.83731,12.16902 c -2.09721,30.47947 -14.23991,59.67909 -32.99398,79.34077 -6.76807,7.09563 -13.72353,10.9855 -18.5885,10.39573 -0.74366,-0.0902 -5.2428,-0.66796 -9.99809,-1.28401 z M 403.0327,486.24108 c 8.82697,-18.33476 20.5294,-51.69231 27.22974,-77.61788 4.39523,-17.00647 4.44173,-17.51246 4.43642,-48.28516 -0.004,-24.15728 -0.52822,-33.66386 -2.34788,-42.59155 -2.48803,-12.2069 -10.31399,-38.4877 -11.19777,-37.60391 -0.28932,0.2893 0.47161,6.28262 1.69092,13.31847 2.83303,16.3476 3.19415,67.83179 0.6066,86.48262 -2.2406,16.15016 -8.01856,39.62625 -15.9736,64.90141 -7.17045,22.78229 -8.81206,25.47942 -10.93787,17.97062 -10.03661,-35.45148 -20.00468,-54.16597 -38.43923,-72.16754 -13.83985,-13.51477 -31.75989,-22.04416 -49.62589,-23.62038 l -8.98118,-0.79237 12.16901,5.97597 c 20.88134,10.25444 35.68688,23.31198 49.28857,43.46937 13.54364,20.07135 23.2489,44.59167 28.74886,72.63394 1.69913,8.66323 3.6197,15.42664 4.26792,15.02982 0.64823,-0.39683 4.72764,-8.09337 9.06538,-17.10343 z M 127.09859,467.31901 c 3.34648,-2.25948 9.07111,-6.87143 12.72141,-10.24877 6.80586,-6.29698 17.02507,-20.66766 17.02507,-23.94136 0,-1.00769 -5.91734,3.06852 -13.14966,9.05824 -7.23232,5.98973 -16.94826,13.44938 -21.59098,16.577 -4.64272,3.12763 -8.46059,6.16434 -8.48414,6.74825 -0.0962,2.38611 4.41891,7.64029 5.85155,6.80932 0.84824,-0.49201 4.28027,-2.74321 7.62675,-5.00268 z m -41.850088,-4.55844 c -0.473559,-2.78873 -0.08571,-9.93802 0.86187,-15.88732 2.225729,-13.97392 2.26271,-25.64406 0.08681,-27.39557 -2.284394,-1.83885 -14.675266,1.43929 -22.615107,5.98308 -8.112423,4.64256 -25.722916,18.00302 -25.722916,19.51507 0,2.20536 20.338589,15.37774 29.487082,19.09743 4.976471,2.0234 11.234039,3.69664 13.905705,3.71831 l 4.857575,0.0394 z m 101.515858,-28.278 c 1.95421,-2.10907 4.2359,-5.16369 5.07043,-6.78804 1.93602,-3.76831 1.95859,-21.88125 0.0402,-32.25876 -1.43148,-7.74355 -13.18702,-39.13782 -14.25514,-38.06969 -0.2911,0.2911 0.43244,7.77184 1.60787,16.62385 4.76586,35.89098 4.91622,49.37039 0.67513,60.52531 -0.78319,2.05993 -1.42398,4.33557 -1.42398,5.05698 0,1.93785 4.11774,-0.59162 8.28549,-5.08965 z m -46.03477,-21.24471 c 6.2744,-7.97661 8.35926,-16.57053 8.89709,-36.67447 0.27854,-10.41127 0.67634,-22.73071 0.884,-27.37652 0.20766,-4.64581 -0.0982,-7.97117 -0.67971,-7.38967 -0.96741,0.96741 -2.34194,8.56975 -8.42191,46.58057 -1.82912,11.43526 -4.1817,19.93109 -8.30912,30.00651 -0.99444,2.42751 -0.8672,2.46824 1.82354,0.58357 1.59091,-1.11432 4.20367,-3.69281 5.80611,-5.72999 z m 402.95779,-20.11305 c 5.04521,-3.34296 9.92101,-12.2059 11.34253,-20.61776 l 0.91398,-5.40845 -3.83109,3.58045 c -16.28892,15.22322 -31.54942,11.07208 -31.54942,-8.58202 0,-14.33015 8.56952,-26.23994 22.30986,-31.00589 8.03285,-2.78626 17.54543,-2.93544 24.33803,-0.38168 5.7573,2.16454 -2.23681,-4.75349 -9.72817,-8.41867 -8.67568,-4.24461 -16.69168,-3.8789 -27.89731,1.27274 -9.31579,4.28281 -14.5593,8.91091 -20.96648,18.50575 -10.99958,16.47199 -10.64749,31.63696 1.00506,43.28951 10.40378,10.40377 25.0445,13.74171 34.06301,7.76602 z M 255.40129,321.80282 c 24.75903,-14.79712 52.40754,-33.78537 61.94413,-42.54154 16.40741,-15.06472 26.93159,-33.7292 29.40184,-52.1437 0.84705,-6.31451 -0.80734,-21.04511 -3.38824,-30.16864 l -1.46872,-5.19191 -8.35359,0.87211 c -13.52984,1.41253 -22.395,3.38974 -36.74798,8.19593 -7.43662,2.4902 -15.79853,4.93667 -18.58203,5.4366 -5.97831,1.07373 -10.47126,5.76133 -20.6447,21.5391 -7.73391,11.99435 -24.99862,42.60835 -24.99862,44.32785 0,2.06687 5.97789,-2.11045 12.28184,-8.58246 3.82385,-3.92582 9.11633,-11.97811 13.42276,-20.42221 8.78989,-17.23531 14.61715,-24.58343 22.75631,-28.69549 8.0746,-4.07943 20.33485,-6.60968 26.45957,-5.46068 4.11634,0.77223 4.90631,1.54081 5.64816,5.49516 1.86122,9.92122 -2.61583,24.63995 -11.35337,37.32527 -2.19317,3.18409 -10.90607,12.47381 -19.362,20.64381 -35.74253,34.53398 -44.56555,43.99535 -52.57129,56.37483 -4.45438,6.88793 -8.09888,13.29912 -8.09888,14.24708 0,0.94796 4.77262,-1.77249 10.60581,-6.04546 5.8332,-4.27296 16.20525,-11.1155 23.049,-15.20565 z m 13.95796,-23.18205 c 0.33482,-1.00762 7.10823,-6.88857 15.05201,-13.06878 22.93142,-17.8405 34.11302,-33.63068 40.1165,-56.65081 5.06132,-19.40747 5.48995,-20.67582 6.98742,-20.67582 2.70036,0 0.0246,26.62761 -3.57048,35.53188 -8.27953,20.50641 -26.56875,41.56781 -43.4342,50.01778 -12.04187,6.03322 -15.96251,7.28714 -15.15125,4.84575 z m -93.73363,6.2652 c 11.8668,-6.23583 18.53069,-11.86336 21.92367,-18.51414 2.61519,-5.12619 3.21378,-9.15339 5.96695,-40.14452 l 0.7681,-8.64594 -11.10772,9.99805 c -17.98938,16.19224 -26.73504,28.78221 -28.87002,41.56039 -0.96515,5.77648 0.1586,20.494 1.5648,20.494 0.39549,0 4.78488,-2.13653 9.75422,-4.74784 z m 333.8422,0.15665 c 8.58369,-4.34968 17.42598,-14.05082 18.62308,-20.43194 0.98997,-5.27693 -1.45033,-16.11315 -3.36251,-14.93135 -0.61132,0.37782 -1.46211,2.44 -1.89063,4.58263 -1.91211,9.56052 -13.86678,17.735 -25.93635,17.735 -13.46647,0 -22.19263,-6.88992 -25.19397,-19.89242 -3.16456,-13.70964 6.95535,-34.0029 20.36932,-40.8462 10.62874,-5.42238 21.32951,-7.17244 38.9655,-6.37262 9.10985,0.41316 16.56338,0.4543 16.56338,0.0914 0,-1.43857 -20.12041,-10.04942 -28.37214,-12.1423 -18.65933,-4.73258 -36.16576,0.30602 -52.53658,15.12077 -19.97974,18.08063 -24.54212,36.97144 -14.08626,58.32509 9.77058,19.95414 36.86245,28.89398 56.85716,18.76189 z m -49.33741,-88.78685 c 2.38513,-1.11409 5.62446,-5.04749 8.72962,-10.60002 4.3487,-7.77622 4.92188,-9.8819 4.80833,-17.66472 -0.0709,-4.85984 -0.88068,-10.66145 -1.79948,-12.89243 l -1.67055,-4.05634 -1.62836,6.93095 c -5.02675,21.39588 -17.46815,30.86647 -33.78997,25.72147 -13.44119,-4.23696 -17.48042,-12.86167 -19.15699,-40.90469 -0.50971,-8.52552 -1.29255,-15.29725 -1.73966,-15.04829 -9.98322,5.55901 -15.02283,6.8144 -29.83459,7.43189 -15.03136,0.62665 -20.33045,2.17421 -20.33045,5.93739 0,2.46533 26.7542,0.97398 39.23512,-2.18709 l 3.40415,-0.86216 -0.0239,18.65928 -0.0238,18.65928 4.4375,6.39081 c 4.64806,6.69408 12.70234,12.24918 22.31546,15.39117 6.68684,2.18557 21.51073,1.6891 27.06759,-0.9065 z M 327.58755,156.22792 c 19.47195,-3.47136 37.48287,-18.88426 37.48287,-32.0761 0,-7.77549 -3.88297,-14.13441 -17.39587,-28.488222 -6.66673,-7.081609 -13.10122,-14.770545 -14.29886,-17.086525 -1.19764,-2.315981 -2.53069,-4.210874 -2.96232,-4.210874 -0.43162,0 -3.00192,1.73321 -5.71176,3.851578 -2.70982,2.118369 -11.92414,8.614832 -20.47626,14.436587 -21.41864,14.580496 -27.28848,19.675726 -31.38868,27.246416 -3.93034,7.25707 -6.47047,18.90483 -6.47047,29.67033 0,6.99995 0.0636,7.11051 4.39436,7.64796 11.07846,1.37483 47.07738,0.74695 56.82699,-0.99115 z m 8.38285,365.22564 c -19.4915,-8.03058 -46.40097,-27.88045 -46.5733,-34.35496 -0.0548,-2.05691 1.26157,-2.15042 24.39959,-1.7333 20.91256,0.37701 31.32917,-1.31079 38.6183,-6.25733 4.86593,-3.3021 5.13025,-3.33764 6.93727,-0.9324 2.1852,2.90861 1.58248,13.64461 -1.94315,34.61317 l -2.2166,13.1831 -4.1878,-0.0247 c -2.3033,-0.0137 -9.06873,-2.0357 -15.03431,-4.49354 z m -137.20984,-7.19865 c -15.92729,-2.50556 -34.73683,-8.94954 -46.85841,-16.05327 l -6.50857,-3.81427 25.66942,-12.53736 c 14.11816,-6.89554 26.72016,-12.56651 28.00443,-12.60213 1.28426,-0.0356 3.33113,1.45549 4.5486,3.31358 1.21747,1.85808 5.03431,5.44678 8.48187,7.97489 7.40925,5.43321 29.60744,16.7693 34.96452,17.85556 5.30684,1.07606 11.76918,6.54572 10.77984,9.12393 -0.85782,2.23544 -7.46006,4.37226 -19.70862,6.37872 -7.36995,1.2073 -32.52577,1.43752 -39.37308,0.36035 z M 642.87875,185.13345 c -12.53367,-12.82663 -38.21146,-34.24062 -56.7379,-47.3166 -28.39867,-20.0438 -65.08481,-38.065832 -90.56646,-44.490675 -8.73797,-2.203157 -9.61775,-2.754467 -11.10371,-6.958049 -2.37584,-6.720948 -2.15359,-29.720159 0.38195,-39.525067 2.97471,-11.503272 9.74346,-25.436454 17.99414,-37.0402419 L 509.81691,0 h 70.27465 70.27464 V 96.000002 C 650.3662,148.8 650.19121,192 649.97735,192 c -0.21388,0 -3.40825,-3.08995 -7.0986,-6.86655 z" id="path14" />
  </g>
</svg>
