<?xml version="1.0" encoding="UTF-8" standalone="no"?>
<svg xmlns:dc="http://purl.org/dc/elements/1.1/" xmlns:cc="http://creativecommons.org/ns#" xmlns:rdf="http://www.w3.org/1999/02/22-rdf-syntax-ns#" xmlns:svg="http://www.w3.org/2000/svg" xmlns="http://www.w3.org/2000/svg" xmlns:sodipodi="http://sodipodi.sourceforge.net/DTD/sodipodi-0.dtd" xmlns:inkscape="http://www.inkscape.org/namespaces/inkscape" version="1.1" id="svg2" width="669.29578" height="649.0141" viewBox="0 0 669.29578 649.0141" sodipodi:docname="paladin-retribution.svg" inkscape:version="1.0.2 (e86c870879, 2021-01-15)">
  <metadata id="metadata8">
    <rdf:RDF>
      <cc:Work rdf:about="">
        <dc:format>image/svg+xml</dc:format>
        <dc:type rdf:resource="http://purl.org/dc/dcmitype/StillImage" />
        <dc:title></dc:title>
      </cc:Work>
    </rdf:RDF>
  </metadata>
  <defs id="defs6" />
  <sodipodi:namedview pagecolor="#ffffff" bordercolor="#666666" borderopacity="1" objecttolerance="10" gridtolerance="10" guidetolerance="10" inkscape:pageopacity="0" inkscape:pageshadow="2" inkscape:window-width="1920" inkscape:window-height="1025" id="namedview4" showgrid="false" inkscape:zoom="1.2079861" inkscape:cx="334.64789" inkscape:cy="324.50705" inkscape:window-x="0" inkscape:window-y="25" inkscape:window-maximized="1" inkscape:current-layer="g10" />
  <g inkscape:groupmode="layer" inkscape:label="Image" id="g10">
    <path style="fill:#000000;stroke-width:1.35211" d="m 32.477882,624.33804 0.02718,-24.67605 28.705216,-23.08 28.705217,-23.07998 1.195766,-8.30567 1.195767,-8.30565 12.510022,-4.16772 12.51003,-4.16771 7.6188,8.14558 c 4.19034,4.48008 10.95232,11.71157 15.0266,16.06999 4.07429,4.35841 7.38856,8.78205 7.36506,9.8303 -0.0235,1.04827 -2.3052,6.16508 -5.07042,11.37071 -4.86683,9.162 -5.23383,9.50461 -11.47115,10.7094 -6.13926,1.18586 -7.88498,2.73389 -36.975739,32.78873 L 63.287964,649.0141 h -15.41863 -15.41863 z m 159.774558,12.94443 -2.99678,-2.46555 4.80196,-13.78105 c 2.64107,-7.57956 4.93179,-16.90289 5.09047,-20.71849 l 0.28853,-6.93744 -16.79332,-15.78856 c -9.23632,-8.6837 -32.58798,-33.64236 -51.89257,-55.46369 -19.30459,-21.82134 -36.998297,-40.83314 -39.319356,-42.24848 -4.761673,-2.90355 -18.391618,-3.5544 -24.645105,-1.17682 -3.362404,1.27838 -4.234461,0.8817 -9.567005,-4.35179 -3.227052,-3.16712 -5.708868,-6.11563 -5.515147,-6.55227 0.672705,-1.51623 92.917473,-86.40452 96.302693,-88.6226 4.95407,-3.24604 22.48642,-3.34598 30.70341,-0.17505 7.3625,2.84118 16.41422,12.01366 20.11776,20.38613 6.08447,13.75495 6.56939,37.27706 1.2375,60.02699 -5.4249,23.14672 -9.22846,24.71792 -15.4384,6.37739 -7.12106,-21.03144 -15.32813,-31.90761 -24.26845,-32.16103 -5.81133,-0.16473 -10.99017,3.34334 -14.62442,9.90632 -3.58647,6.47671 -2.60784,17.78835 2.25717,26.08988 3.69487,6.30479 55.61406,61.05838 65.08788,68.64116 5.15362,4.12492 5.55971,4.21434 16.10384,3.54572 18.91581,-1.1995 32.58719,-8.38888 38.87988,-20.44577 2.35182,-4.50615 2.85323,-7.66514 2.69427,-16.97489 -0.11006,-6.44557 0.43674,-12.19996 1.25267,-13.18309 2.18375,-2.63127 7.59168,-2.10078 9.19892,0.90235 2.36452,4.41815 26.65497,21.61577 49.73469,35.21212 20.86149,12.28956 21.80777,13.03246 21.88116,17.17817 0.0687,3.88175 -0.381,4.39702 -4.31764,4.94677 -27.24775,3.80514 -40.51747,7.35436 -58.34555,15.60553 -31.42264,14.54299 -69.36935,45.3284 -81.25889,65.92372 -2.07746,3.59864 -3.84029,6.64084 -3.91738,6.76044 -0.0771,0.11953 -2.29922,0.62063 -4.93809,1.11344 -3.60699,0.67359 -5.54178,0.28401 -7.7947,-1.56956 z m 12.25709,-128.31562 c -9.49268,-10.03681 -13.40187,-15.09915 -12.84026,-16.62799 0.44409,-1.20891 3.15474,-4.89316 6.02365,-8.18724 15.07698,-17.31132 21.92723,-44.82331 16.68863,-67.02485 -1.76128,-7.46441 -1.72236,-8.32877 0.48704,-10.8169 2.81862,-3.17418 134.63439,-147.56324 138.04007,-151.20704 2.22019,-2.37543 2.45316,-2.23532 5.81124,3.49481 6.64389,11.33694 26.01268,24.16847 46.35297,30.70814 29.89752,9.61244 55.76977,5.60696 74.83265,-11.58547 13.60794,-12.27272 25.88534,-35.14657 29.90976,-55.7245 2.24707,-11.4899 0.91614,-30.97636 -2.86678,-41.97286 -5.16556,-15.01566 -21.72369,-36.28604 -35.06117,-45.03917 -2.81421,-1.8469 -3.12465,-2.63629 -1.85383,-4.71377 0.83954,-1.37245 8.20488,-12.83902 16.36741,-25.48128 29.85713,-46.243195 48.67922,-81.144197 51.15585,-94.8561514 1.38289,-7.6563358 1.85422,-7.8818198 6.15379,-2.9439495 23.80911,27.3437669 48.10355,70.5865399 72.79699,129.5747509 13.44703,32.12254 37.75471,100.66735 36.23723,102.18481 -0.33266,0.33266 -6.19558,2.06138 -13.0287,3.84158 -6.83313,1.7802 -13.16461,3.8186 -14.06996,4.52977 -27.08602,21.27656 -45.72762,35.46394 -46.55926,35.4344 -0.58227,-0.0207 -3.49248,-1.88153 -6.46713,-4.13521 l -5.40845,-4.09759 -0.45918,9.20563 -0.45917,9.20563 -68.49857,57.02569 c -37.67422,31.36414 -95.15128,79.27963 -127.7268,106.47888 -32.57553,27.19925 -59.67252,49.45318 -60.21553,49.45318 -0.54299,0 -2.02842,-1.76252 -3.30092,-3.9167 -3.60545,-6.10353 -14.3094,-16.03403 -20.52743,-19.04412 -6.15765,-2.98087 -15.89983,-3.5618 -21.93565,-1.30805 -2.09348,0.78172 -9.58661,7.02277 -16.6514,13.86903 -7.06479,6.84626 -16.5428,15.97097 -21.06224,20.27712 l -8.21716,7.8294 z M 408.58362,267.55806 c -14.36878,-2.39023 -32.19323,-12.33715 -41.4178,-23.11313 -17.63986,-20.60661 -18.96756,-47.55295 -3.49612,-70.95594 21.1996,-32.06774 54.44035,-40.98524 83.26679,-22.33803 28.34184,18.33372 40.8161,55.55956 27.60819,82.38864 -8.69297,17.6579 -26.568,31.12734 -45.40161,34.21161 -9.03766,1.48004 -10.58883,1.46548 -20.55945,-0.19315 z" id="path14" />
  </g>
</svg>
