<?xml version="1.0" encoding="UTF-8" standalone="no"?>
<svg xmlns:dc="http://purl.org/dc/elements/1.1/" xmlns:cc="http://creativecommons.org/ns#" xmlns:rdf="http://www.w3.org/1999/02/22-rdf-syntax-ns#" xmlns:svg="http://www.w3.org/2000/svg" xmlns="http://www.w3.org/2000/svg" xmlns:sodipodi="http://sodipodi.sourceforge.net/DTD/sodipodi-0.dtd" xmlns:inkscape="http://www.inkscape.org/namespaces/inkscape" version="1.1" id="svg2" width="593.57745" height="649.0141" viewBox="0 0 593.57745 649.0141" sodipodi:docname="paladin-protection.svg" inkscape:version="1.0.2 (e86c870879, 2021-01-15)">
  <metadata id="metadata8">
    <rdf:RDF>
      <cc:Work rdf:about="">
        <dc:format>image/svg+xml</dc:format>
        <dc:type rdf:resource="http://purl.org/dc/dcmitype/StillImage" />
        <dc:title></dc:title>
      </cc:Work>
    </rdf:RDF>
  </metadata>
  <defs id="defs6" />
  <sodipodi:namedview pagecolor="#ffffff" bordercolor="#666666" borderopacity="1" objecttolerance="10" gridtolerance="10" guidetolerance="10" inkscape:pageopacity="0" inkscape:pageshadow="2" inkscape:window-width="1920" inkscape:window-height="1025" id="namedview4" showgrid="false" inkscape:zoom="1.2079861" inkscape:cx="296.78873" inkscape:cy="324.50705" inkscape:window-x="0" inkscape:window-y="25" inkscape:window-maximized="1" inkscape:current-layer="g10" />
  <g inkscape:groupmode="layer" inkscape:label="Image" id="g10">
    <path style="fill:#000000;stroke-width:1.35211" d="M 155.06156,564.76063 63.362566,495.70936 64.470015,390.16453 c 0.609096,-58.04964 1.107448,-123.78746 1.107448,-146.08402 v -40.53924 l -16.514677,-12.19316 -16.514678,-12.19318 -0.0487,-61.85915 c -0.04621,-58.684708 0.07619,-61.859159 2.385099,-61.859159 1.338592,0 3.011831,-0.569573 3.71831,-1.265719 0.804203,-0.792441 18.16782,14.501461 46.436575,40.901409 l 45.152068,42.167129 -0.83599,147.48154 -0.83599,147.48156 23.28955,18.39128 c 12.80926,10.11519 38.80505,30.64228 57.76843,45.61574 18.96338,14.97346 36.0884,28.86026 38.05559,30.85958 l 3.57672,3.6351 -1.77695,51.15798 c -0.97732,28.13688 -1.9784,51.33611 -2.22461,51.55383 -0.24622,0.21773 -41.7122,-30.67722 -92.14665,-68.65542 z m 203.18297,68.41467 c -0.0359,-0.58443 -0.88401,-23.87951 -1.88463,-51.76684 l -1.81932,-50.70422 3.57478,-3.6351 c 1.96612,-1.99932 19.09026,-15.88612 38.05364,-30.85958 18.96338,-14.97346 44.95624,-35.49823 57.76189,-45.6106 l 23.28303,-18.38614 -0.82917,-147.4867 -0.82917,-147.48668 45.15177,-42.167129 c 28.26858,-26.399949 45.6321,-41.69385 46.4363,-40.901409 0.70648,0.696146 2.37972,1.265719 3.71831,1.265719 2.30891,0 2.4313,3.174451 2.3851,61.859159 l -0.0487,61.85915 -16.51468,12.19318 -16.51467,12.19316 v 40.53924 c 0,22.29656 0.49835,88.03457 1.10745,146.08444 l 1.10746,105.54522 -92.03704,69.26386 c -50.62037,38.09513 -92.06642,68.7857 -92.10234,68.20127 z m -90.90425,-208.75315 -32.9914,-29.88771 -0.95401,-127.12146 c -0.5247,-69.9168 -0.64165,-127.43381 -0.25989,-127.81556 0.69353,-0.69353 18.18339,6.84319 48.78051,21.02048 9.92791,4.60013 18.0621,7.51807 20.95774,7.51807 2.89565,0 11.02983,-2.91794 20.95775,-7.51807 30.59712,-14.17729 48.08698,-21.71401 48.7805,-21.02048 0.38176,0.38175 0.26481,57.89876 -0.25989,127.81556 l -0.95401,127.12146 -32.9914,29.88771 c -18.37646,16.64771 -34.11727,29.88772 -35.53295,29.88772 -1.41567,0 -17.15648,-13.24001 -35.53295,-29.88772 z" id="path14" />
  </g>
</svg>
