<?xml version="1.0" encoding="UTF-8" standalone="no"?>
<svg xmlns:dc="http://purl.org/dc/elements/1.1/" xmlns:cc="http://creativecommons.org/ns#" xmlns:rdf="http://www.w3.org/1999/02/22-rdf-syntax-ns#" xmlns:svg="http://www.w3.org/2000/svg" xmlns="http://www.w3.org/2000/svg" xmlns:sodipodi="http://sodipodi.sourceforge.net/DTD/sodipodi-0.dtd" xmlns:inkscape="http://www.inkscape.org/namespaces/inkscape" version="1.1" id="svg2" width="667.94366" height="649.0141" viewBox="0 0 667.94366 649.0141" sodipodi:docname="paladin-holy.svg" inkscape:version="1.0.2 (e86c870879, 2021-01-15)">
  <metadata id="metadata8">
    <rdf:RDF>
      <cc:Work rdf:about="">
        <dc:format>image/svg+xml</dc:format>
        <dc:type rdf:resource="http://purl.org/dc/dcmitype/StillImage" />
        <dc:title></dc:title>
      </cc:Work>
    </rdf:RDF>
  </metadata>
  <defs id="defs6" />
  <sodipodi:namedview pagecolor="#ffffff" bordercolor="#666666" borderopacity="1" objecttolerance="10" gridtolerance="10" guidetolerance="10" inkscape:pageopacity="0" inkscape:pageshadow="2" inkscape:window-width="1920" inkscape:window-height="1025" id="namedview4" showgrid="false" inkscape:zoom="1.2079861" inkscape:cx="333.97183" inkscape:cy="324.50705" inkscape:window-x="0" inkscape:window-y="25" inkscape:window-maximized="1" inkscape:current-layer="g10" />
  <g inkscape:groupmode="layer" inkscape:label="Image" id="g10">
    <path style="fill:#000000;stroke-width:1.35211" d="m 122.05905,644.61973 c -0.79031,-2.4169 -10.67835,-29.94929 -21.97343,-61.1831 C 88.790535,552.20283 75.387986,515.08734 70.302174,500.95776 53.849661,455.24883 43.801436,427.38134 29.105599,386.70423 -1.1177353,303.04805 0,306.48377 0,297.23851 v -8.56708 l 9.7923012,-7.71524 c 5.3857648,-4.24339 10.2306198,-7.27692 10.7663438,-6.7412 0.884661,0.88466 12.352571,32.24748 31.491154,86.12305 3.962642,11.15493 12.793808,35.79718 19.624814,54.76056 12.226712,33.94226 22.388653,62.24465 40.537137,112.90141 24.12519,67.33919 35.20356,99.72721 36.07438,105.46479 0.54687,3.60311 -0.21335,4.69841 -6.80399,9.80282 -5.82858,4.51422 -8.55258,5.74648 -12.70291,5.74648 -4.76444,0 -5.42437,-0.43153 -6.72018,-4.39437 z m 37.49025,-18.08588 c 0,-2.21232 10.06098,-26.5756 14.4471,-34.98454 5.90112,-11.31342 24.81687,-39.54083 35.33703,-52.7324 37.64239,-47.20095 80.24127,-76.99444 120.58206,-84.33462 12.75924,-2.3216 24.69583,-2.925 33.12676,-1.67458 7.94891,1.17895 8.34849,1.08222 19.7943,-4.79155 l 11.6816,-5.99478 6.86523,-13.79942 c 12.70449,-25.53656 31.30862,-46.29926 53.13326,-59.29812 19.19489,-11.43255 35.54652,-16.70443 80.93244,-26.09317 48.9797,-10.13216 59.25302,-13.53219 77.73402,-25.72671 10.3565,-6.83364 26.4709,-15.58283 28.70071,-15.58283 2.35887,0 7.28186,16.10999 6.86979,22.48066 l -0.41557,6.42473 -14.87324,5.64207 c -37.17668,14.10275 -90.23407,40.49996 -127.09859,63.23435 -23.85523,14.71154 -60.61785,40.7112 -78.42254,55.46285 l -4.05634,3.36078 3.04226,3.24922 c 3.63634,3.88372 3.94645,9.69075 0.67605,12.6595 -3.00815,2.73068 -25.99171,19.33978 -40.64367,29.37117 -6.17937,4.23068 -12.41599,7.69214 -13.85915,7.69214 -3.41425,0 -8.03239,-4.6643 -8.03239,-8.11267 0,-1.99381 -0.90141,-2.70423 -3.43125,-2.70423 -4.25623,0 -23.70963,7.43772 -37.12991,14.19606 -32.88684,16.56156 -102.46096,64.23208 -151.34611,103.69873 -10.66605,8.61107 -13.61385,10.42069 -13.61385,8.35736 z M 147.79656,589.85917 C 138.31581,563.57365 120.33589,514.13658 89.892493,430.6479 72.266465,382.30987 55.22394,335.45916 52.020216,326.53522 c -3.203724,-8.92394 -8.972579,-24.74366 -12.81968,-35.15493 -16.659197,-45.08417 -17.441364,-48 -12.875958,-48 3.239778,0 15.724225,-10.78076 39.928943,-34.48004 13.014084,-12.74234 27.531081,-26.34992 32.259993,-30.23908 21.818976,-17.94443 46.721976,-31.78347 70.137746,-38.97679 10.92665,-3.35666 13.74513,-3.64816 35.96396,-3.71958 21.45398,-0.069 24.29877,0.18304 25.8392,2.28872 0.95206,1.30141 2.34339,2.3662 3.09184,2.3662 0.74843,0 2.60215,2.89014 4.11934,6.42254 1.5172,3.53239 7.29905,16.46197 12.84854,28.73239 18.01692,39.83701 53.82871,119.1508 63.1874,139.94367 5.02073,11.15493 15.04436,33.36338 22.27472,49.35211 28.96061,64.04152 37.30074,82.83544 36.92446,83.20677 -0.21653,0.21366 -3.81469,-1.05554 -7.99591,-2.82044 -36.76416,-15.51826 -80.93189,2.85254 -133.03721,55.33451 -26.85545,27.04959 -56.40336,64.35137 -73.73622,93.08589 -2.56663,4.25496 -4.98182,7.75356 -5.36709,7.77465 -0.38528,0.0211 -2.62076,-5.2856 -4.96773,-11.79264 z m 84.84398,-148.86103 c 5.11352,-4.14066 3.91202,-10.90243 -3.71031,-20.88083 -11.49415,-15.047 -26.22025,-33.41308 -26.79095,-33.41308 -0.30674,0 1.54389,5.8058 4.11253,12.90177 2.56863,7.09597 6.57855,18.3666 8.91093,25.04585 2.99819,8.5859 5.40667,13.12518 8.22019,15.4926 4.76513,4.00959 5.2994,4.05886 9.25761,0.85369 z m 85.26501,-21.68412 c 4.66236,-4.66236 5.24881,-5.98539 5.24432,-11.83099 -0.009,-12.67995 -9.19825,-20.68635 -23.8126,-20.7491 -9.54334,-0.041 -13.39581,3.13763 -14.57482,12.0254 -1.04959,7.91222 1.13318,17.94358 4.58393,21.06647 3.25951,2.94983 8.80358,4.48145 16.72819,4.62138 5.91298,0.10438 7.11488,-0.41708 11.83098,-5.13316 z m -17.93796,-4.73862 c -6.94593,-3.46292 -6.56958,-14.4153 0.63106,-18.36456 3.6525,-2.00323 3.90263,-1.92759 7.7568,2.34572 4.26651,4.7305 5.4462,12.36154 2.29244,14.82908 -2.94503,2.30421 -7.44045,2.805 -10.6803,1.18976 z m -116.08027,-5.51569 c 0,-2.98796 -1.51263,-6.30031 -4.71926,-10.33421 -2.59561,-3.26521 -4.72519,-6.40255 -4.7324,-6.97185 -0.007,-0.56931 -5.79341,-9.69281 -12.8582,-20.27446 -7.06478,-10.58165 -12.84507,-20.50556 -12.84507,-22.05315 0,-4.43897 5.69412,-8.7981 21.95326,-16.80631 8.30424,-4.09014 15.70468,-8.45574 16.44541,-9.70132 3.52468,-5.92698 -11.52954,-60.60854 -16.68597,-60.60854 -0.66207,0 -3.2043,2.52586 -5.64939,5.61305 -5.20811,6.57577 -15.22934,13.31652 -19.79719,13.31652 -8.29179,0 -12.49147,-6.94895 -12.49147,-20.66891 0,-10.52346 2.65136,-19.85693 8.06534,-28.39213 5.2004,-8.19848 5.25593,-10.68968 0.12886,-5.77758 -4.22196,4.04489 -10.84347,19.13567 -14.24926,32.47481 -5.6547,22.14727 0.93615,34.64407 17.25223,32.71167 7.7215,-0.9145 17.98539,-6.44087 19.22681,-10.35228 0.47128,-1.48489 1.67447,-2.6998 2.67374,-2.6998 7.07451,0 17.17724,28.28524 13.7821,38.58655 -0.95726,2.90442 -11.05958,9.92233 -27.9502,19.4165 -5.57746,3.13508 -11.6134,6.81101 -13.41319,8.16876 l -3.27234,2.46862 18.64427,30.24317 c 10.25434,16.63374 20.38907,31.90046 22.52164,33.92606 4.83646,4.59387 7.97032,3.69538 7.97032,-2.28517 z m 78.15322,-5.56487 c 0.30734,-3.14864 -0.93114,-5.94772 -5.06716,-11.45225 -5.89591,-7.84673 -6.00412,-9.67124 -0.97686,-16.47099 2.63681,-3.56648 12.11229,-9.14906 15.52896,-9.14906 0.88071,0 1.60128,-0.31394 1.60128,-0.69765 0,-0.38371 -4.05695,-8.18358 -9.01545,-17.33303 l -9.01545,-16.63539 -8.87077,2.4598 c -10.76455,2.98491 -16.83241,3.12795 -19.05559,0.44919 -3.01822,-3.63674 -0.21026,-8.29629 11.29301,-18.73977 15.86726,-14.40539 19.57801,-23.77229 10.97107,-27.69388 -3.66898,-1.67169 -16.79908,-2.10958 -21.94062,-0.73169 -5.1381,1.37695 -3.37847,3.20411 3.08568,3.20411 3.37036,0 8.23796,0.88163 10.8169,1.95917 8.98626,3.75471 5.43159,11.15209 -11.32993,23.57793 -9.83123,7.28818 -12.37547,11.0798 -12.37547,18.44283 0,4.94008 3.66193,15.51303 5.37292,15.51303 0.56262,0 2.59058,-1.23308 4.50655,-2.7402 4.2103,-3.31181 12.08949,-6.72459 15.52532,-6.72459 3.0529,0 15.63182,21.53156 14.4215,24.68556 -0.43334,1.12929 -2.61169,2.418 -4.84075,2.86382 -5.08013,1.01602 -18.76019,9.98231 -18.76019,12.29594 0,2.12952 12.31348,21.14421 16.22645,25.05719 1.984,1.98399 4.18682,2.73436 7.17722,2.44482 3.72058,-0.36023 4.37065,-0.9915 4.72138,-4.58489 z M 125.53905,392.17175 c 0.26312,-1.8648 -2.94149,-11.73399 -7.30775,-22.50556 l -7.77637,-19.18434 4.98696,-4.3786 c 2.74283,-2.40825 4.7549,-4.61068 4.47128,-4.8943 -0.6953,-0.69531 -18.88559,4.90512 -20.306846,6.25207 -1.315758,1.24695 13.470986,42.81909 16.506036,46.4058 3.02097,3.57009 8.83119,2.52532 9.42669,-1.69507 z m 178.7442,-55.52668 c 4.44547,-2.37913 5.63587,-6.13354 3.53729,-11.15618 -6.02849,-14.42821 -27.73296,-19.0804 -32.7704,-7.02411 -4.17906,10.00191 -0.89306,16.65776 9.0152,18.26043 9.15463,1.48077 17.36213,1.44824 20.21791,-0.0802 z m -18.65644,-7.0676 c -2.5179,-3.14722 -3.29598,-7.85948 -1.62929,-9.8677 3.67409,-4.42701 13.46727,-0.42573 13.46727,5.50243 0,5.1058 -8.68368,8.30793 -11.83798,4.36527 z m -4.90759,-47.23834 c 0.99658,-0.99657 2.19035,-3.70388 2.65282,-6.01623 0.6806,-3.40302 0.10655,-5.02377 -3.01207,-8.50438 -8.93789,-9.97524 -27.27433,-6.52446 -25.12328,4.72801 0.68127,3.56388 6.26187,9.72658 10.45345,11.54382 3.62208,1.57034 12.77392,0.50396 15.02908,-1.75122 z m -15.3729,-5.36463 c -2.4285,-2.4285 -2.07346,-5.78069 0.89693,-8.46886 2.40426,-2.17584 2.87355,-2.18489 6.84292,-0.13224 3.41929,1.76819 4.17854,2.92343 3.84126,5.84478 -0.35646,3.08732 -1.14092,3.7018 -5.15857,4.04084 -2.60601,0.21991 -5.49615,-0.35812 -6.42254,-1.28451 z m -33.38955,-28.38393 c 1.05963,-3.98114 1.93384,-9.56365 1.94267,-12.40556 l 0.0161,-5.1671 7.09859,0.4347 c 6.72059,0.41157 7.0986,0.26114 7.0986,-2.82493 0,-2.51871 -1.0757,-3.62385 -4.7324,-4.8619 l -4.73239,-1.60226 v -13.61103 c 0,-7.48608 -0.50609,-14.1198 -1.12464,-14.74161 -2.04142,-2.05219 -4.54998,3.43766 -6.33248,13.85829 -1.0691,6.25 -2.50004,10.55421 -3.65626,10.9979 -2.09622,0.80439 -22.1976,-2.21323 -23.5181,-3.53055 -0.45575,-0.45466 -0.21487,-5.8659 0.53529,-12.02499 1.38017,-11.33181 0.23587,-17.87209 -3.12696,-17.87209 -2.2942,0 -5.35333,8.76715 -5.52841,15.8439 -0.31426,12.70134 -1.08026,14.07345 -8.98464,16.09373 -3.91404,1.0004 -9.3901,2.98704 -12.16902,4.41475 l -5.05257,2.59584 9.15157,-0.73165 c 11.60055,-0.92742 14.45261,1.08672 14.62886,10.33102 0.0652,3.41713 0.531,9.25523 1.03523,12.97354 l 0.91679,6.76056 2.42672,-11.00818 c 3.40833,-15.46111 3.58936,-15.63066 15.50682,-14.52304 14.11705,1.31203 15.88084,3.42048 15.32391,18.31822 -0.46752,12.50647 0.39544,13.10758 3.27673,2.28244 z m 155.50976,184.42352 c -2.52669,-5.24464 -29.95739,-65.43339 -63.6245,-139.60563 -10.63286,-23.42535 -30.957,-68.11058 -45.16473,-99.30051 -14.20773,-31.18994 -25.83223,-58.02257 -25.83223,-59.62806 0,-1.60551 3.55123,-8.57206 7.89163,-15.48124 28.97157,-46.117864 59.02468,-72.842035 95.54499,-84.961611 4.46197,-1.480743 21.49859,-5.866425 37.85915,-9.745957 30.40694,-7.210307 48.28978,-12.777309 64.68943,-20.1380808 16.96967,-7.6166248 11.35409,-15.2063842 54.70107,73.9315078 20.8845,42.946481 53.52304,109.997641 72.53009,149.002581 19.00706,39.00493 34.55829,71.67441 34.55829,72.59883 0,2.85153 -18.80684,16.57303 -30.31747,22.11966 -15.76796,7.59813 -30.73327,11.48237 -62.56606,16.23898 -51.02726,7.62476 -70.1424,14.34789 -91.76509,32.27544 -14.86847,12.32756 -31.76226,36.70088 -40.64341,58.63776 -2.03223,5.01972 -4.08273,9.12676 -4.55668,9.12676 -0.47394,0 -1.96095,-2.28169 -3.30448,-5.07043 z M 514.4382,296.45071 c 16.39599,-29.04045 21.35755,-38.29712 20.79762,-38.80173 -0.26139,-0.23556 -6.75008,-2.17338 -14.4193,-4.30624 l -13.94403,-3.87795 -27.41854,-54.17034 c -22.17111,-43.80307 -27.20456,-54.74876 -26.3005,-57.19267 1.37565,-3.71876 9.89856,-7.60266 31.37721,-14.29863 8.81297,-2.74745 15.81016,-5.19166 15.54929,-5.43158 -0.26087,-0.23992 -7.69048,-6.28435 -16.51024,-13.43206 -15.10422,-12.240786 -21.10659,-15.659646 -19.32026,-11.004556 0.55488,1.446001 -0.79397,2.394608 -4.92576,3.464124 -29.34564,7.596142 -33.4082,9.321082 -33.4082,14.184942 0,1.84006 0.40553,3.34556 0.90116,3.34556 0.84633,0 37.84675,-11.55722 41.55012,-12.97834 C 469.70896,101.43619 480,114.50258 480,116.72179 c 0,0.26493 -3.35201,1.23184 -7.44893,2.14869 -14.0272,3.13915 -41.23479,16.11786 -41.22207,19.66399 0.003,0.77505 1.31156,3.53877 2.90841,6.14159 1.59684,2.60282 8.08413,14.77183 14.41621,27.04225 6.33206,12.27043 18.17617,34.7831 26.32021,50.02817 l 14.80738,27.71831 1.72109,18.25353 c 0.94661,10.03943 1.48832,18.50259 1.2038,18.80701 -0.28453,0.30442 -10.60351,-3.34628 -22.9311,-8.11268 l -22.41378,-8.66616 -28.47678,-55.43663 c -15.66223,-30.49014 -28.75246,-55.74084 -29.08941,-56.11267 -1.77673,-1.96066 -18.13153,0.0388 -26.61214,3.25353 -12.14417,4.6034 -23.76873,11.30288 -24.91852,14.36107 -1.57586,4.19142 -8.00967,-2.14693 -9.09729,-8.96229 -0.82054,-5.14192 -0.51407,-5.90496 4.21727,-10.49999 5.93179,-5.76088 20.29125,-13.28659 30.19433,-15.82467 3.79511,-0.97265 6.90019,-2.16423 6.90019,-2.64792 0,-1.22208 -6.39718,-4.01799 -9.19038,-4.0167 -7.85204,0.004 -39.82718,21.02548 -46.00748,30.24732 -2.50863,3.74322 -2.99389,5.86731 -2.40876,10.54353 2.45131,19.59022 3.84299,29.51795 4.13784,29.51795 0.18504,0 4.5963,-4.12681 9.80283,-9.17068 13.70269,-13.27462 33.62766,-22.80602 45.31617,-21.67765 4.30979,0.41606 4.8373,1.24551 23.05829,36.25678 32.67465,62.78368 34.31739,66.22299 32.24299,67.50504 -1.02374,0.63271 -1.45929,1.80088 -0.96792,2.59593 0.49138,0.79507 -0.95179,4.71512 -3.20705,8.71121 -2.25526,3.9961 -4.10047,7.60278 -4.10047,8.01485 0,0.41205 4.89471,1.4649 10.87714,2.33965 12.58281,1.83985 47.65033,10.60626 61.46089,15.3644 5.20563,1.79348 9.79262,3.34572 10.1933,3.44941 0.40069,0.10371 6.13905,-9.39457 12.75194,-21.10725 z M 432.52634,181.77765 c 5.21285,-4.38633 6.60448,-10.87448 3.58489,-16.71373 -2.6807,-5.18391 -6.93592,-7.01221 -13.08998,-5.62424 -14.59555,3.29183 -18.60984,13.02316 -9.05434,21.94934 5.47591,5.11525 12.76086,5.2678 18.55943,0.38863 z m -33.6531,-58.69446 c 0,-6.61219 4.7299,-30.942849 6.37267,-32.781074 2.17808,-2.437223 9.34932,-5.394906 18.97944,-7.82782 6.58186,-1.662811 7.00877,-3.133404 2.53339,-8.726795 -3.05682,-3.820445 -4.66985,-4.286684 -36.13029,-10.443273 -18.11185,-3.544362 -33.34163,-6.003976 -33.84394,-5.46581 -0.50232,0.538167 -6.95579,11.626372 -14.34106,24.640457 -13.34399,23.514365 -13.42418,23.710255 -12.85476,31.401305 l 0.57298,7.73933 4.94734,-2.51657 c 7.2241,-3.67471 22.82435,-8.24564 27.73765,-8.12723 2.33856,0.0564 10.94489,3.0401 19.12517,6.63052 16.40386,7.19985 16.90141,7.36109 16.90141,5.47696 z" id="path14" />
  </g>
</svg>
