<?xml version="1.0" encoding="UTF-8" standalone="no"?>
<svg xmlns:dc="http://purl.org/dc/elements/1.1/" xmlns:cc="http://creativecommons.org/ns#" xmlns:rdf="http://www.w3.org/1999/02/22-rdf-syntax-ns#" xmlns:svg="http://www.w3.org/2000/svg" xmlns="http://www.w3.org/2000/svg" xmlns:sodipodi="http://sodipodi.sourceforge.net/DTD/sodipodi-0.dtd" xmlns:inkscape="http://www.inkscape.org/namespaces/inkscape" version="1.1" id="svg2" width="647.66199" height="649.0141" viewBox="0 0 647.66199 649.0141" sodipodi:docname="priest-shadow.svg" inkscape:version="1.0.2 (e86c870879, 2021-01-15)">
  <metadata id="metadata8">
    <rdf:RDF>
      <cc:Work rdf:about="">
        <dc:format>image/svg+xml</dc:format>
        <dc:type rdf:resource="http://purl.org/dc/dcmitype/StillImage" />
        <dc:title></dc:title>
      </cc:Work>
    </rdf:RDF>
  </metadata>
  <defs id="defs6" />
  <sodipodi:namedview pagecolor="#ffffff" bordercolor="#666666" borderopacity="1" objecttolerance="10" gridtolerance="10" guidetolerance="10" inkscape:pageopacity="0" inkscape:pageshadow="2" inkscape:window-width="1920" inkscape:window-height="1025" id="namedview4" showgrid="false" inkscape:zoom="1.2079861" inkscape:cx="323.83099" inkscape:cy="324.50705" inkscape:window-x="0" inkscape:window-y="25" inkscape:window-maximized="1" inkscape:current-layer="g10" />
  <g inkscape:groupmode="layer" inkscape:label="Image" id="g10">
    <path style="fill:#000000;stroke-width:1.35211" d="M 83.361016,639.21128 C 63.01598,596.31668 59.500796,528.42464 74.452613,467.15494 c 7.105283,-29.1161 30.496337,-63.65964 68.372727,-100.97179 22.05005,-21.72155 49.05199,-44.41929 66.4548,-55.8617 7.24654,-4.76461 16.90176,-17.40528 22.72989,-29.75806 14.66652,-31.08584 10.01928,-69.74725 -11.12972,-92.59069 -10.62524,-11.47653 -21.33941,-16.55627 -36.61108,-17.35783 -14.36472,-0.75395 -23.65587,1.19792 -37.565,7.8916 -36.84669,17.73226 -64.894838,62.89309 -81.679279,131.51331 -6.478848,26.48764 -10.338582,53.73134 -12.684039,89.52953 l -0.354355,5.40845 -5.114718,-10.81691 C 26.963229,352.03697 14.899263,289.72142 18.825058,249.26724 c 3.466378,-35.72003 13.002005,-62.35637 31.025216,-86.66427 13.23841,-17.85465 41.628526,-39.43189 69.811706,-53.05875 24.72714,-11.955826 41.88933,-16.751983 65.8534,-18.403425 43.67205,-3.009583 91.56816,17.188035 130.62803,55.085365 16.39172,15.90386 21.5306,28.9546 22.83893,58.00205 2.61957,58.1592 -23.39212,133.6773 -62.92302,182.68045 -11.61257,14.39516 -21.18734,22.77757 -40.79171,35.71193 -25.67462,16.93933 -40.04,32.27771 -46.7747,49.9428 -3.67653,9.64357 -3.39773,27.23749 0.58529,36.93393 16.58711,40.38047 76.40447,82.30049 172.25318,120.7151 10.9576,4.39163 20.69282,7.98758 21.6338,7.991 0.94099,0.004 6.491,1.86558 12.33336,4.1381 5.84234,2.27253 10.87423,3.8801 11.18195,3.57239 1.64227,-1.64228 1.99571,-24.27175 0.63347,-40.5587 -5.96911,-71.36628 -31.2584,-137.51018 -77.47952,-202.64683 l -9.27186,-13.06627 7.44179,-26.82105 c 4.09298,-14.75158 13.133,-47.8126 20.08893,-73.46894 l 12.64715,-46.64789 64.12415,-55.85065 C 526.51441,98.144763 629.96892,8.8288035 631.43884,8.3380284 c 0.89405,-0.2985023 1.34991,61.4574376 1.34991,182.8732516 0,100.82816 -0.45634,183.31968 -1.01408,183.31446 -6.12973,-0.0572 -45.89301,-12.44313 -67.26761,-20.9532 -19.77115,-7.87168 -58.18144,-25.35432 -83.02683,-37.79011 -14.20004,-7.1075 -25.81825,-12.59495 -25.81825,-12.19436 0,1.05124 31.35889,21.41786 54.15555,35.17234 45.14822,27.24044 95.24046,49.91892 116.78283,52.87163 l 6.18839,0.84822 v 18.74578 c 0,12.65827 -0.47989,18.7458 -1.47775,18.7458 -4.79628,0 -30.26662,-6.1573 -45.14119,-10.9126 -54.6341,-17.4662 -117.01561,-53.30469 -174.96632,-100.51905 -25.63378,-20.88469 -22.6816,-19.14331 -24.94893,-14.71641 -5.33143,10.4095 -34.70525,73.61544 -34.70525,74.678 0,0.67446 3.27416,5.99029 7.27594,11.81296 16.14831,23.4962 33.75827,55.03256 44.79524,80.22048 24.13888,55.08829 36.78749,116.4003 33.73365,163.51821 l -0.96965,14.96067 H 262.19751 88.010521 Z M 560.6421,481.89359 c -5.10037,-1.11956 -13.29557,-3.93594 -18.21154,-6.25863 l -8.93814,-4.22307 12.8031,-11.96118 12.80309,-11.96118 16.90141,-0.59461 c 9.86354,-0.34699 24.07136,-1.97319 34.12002,-3.9053 19.54875,-3.75874 22.67085,-3.52799 22.66407,1.67513 -0.005,4.52068 -15.98463,22.34967 -25.50613,28.45959 -14.19263,9.10739 -30.83713,12.23716 -46.63588,8.76925 z M 448.22536,471.43271 c -7.92194,-2.62934 -13.98797,-5.94972 -21.92062,-11.99874 -11.74552,-8.95649 -32.09095,-36.22269 -27.02857,-36.22269 1.10659,0 2.35334,-0.88953 2.77053,-1.97674 0.65026,-1.69453 1.83092,-1.60778 8.27033,0.60771 12.38644,4.26156 34.38257,9.40438 48.03747,11.23143 l 12.83338,1.71713 8.45184,13.35203 c 9.54014,15.07127 9.55043,14.93483 -1.53536,20.3586 -8.5926,4.20398 -22.06295,5.52548 -29.879,2.93127 z" id="path14" />
  </g>
</svg>
