<?xml version="1.0" encoding="UTF-8" standalone="no"?>
<svg xmlns:dc="http://purl.org/dc/elements/1.1/" xmlns:cc="http://creativecommons.org/ns#" xmlns:rdf="http://www.w3.org/1999/02/22-rdf-syntax-ns#" xmlns:svg="http://www.w3.org/2000/svg" xmlns="http://www.w3.org/2000/svg" xmlns:sodipodi="http://sodipodi.sourceforge.net/DTD/sodipodi-0.dtd" xmlns:inkscape="http://www.inkscape.org/namespaces/inkscape" version="1.1" id="svg2" width="667.94366" height="649.0141" viewBox="0 0 667.94366 649.0141" sodipodi:docname="priest-holy.svg" inkscape:version="1.0.2 (e86c870879, 2021-01-15)">
  <metadata id="metadata8">
    <rdf:RDF>
      <cc:Work rdf:about="">
        <dc:format>image/svg+xml</dc:format>
        <dc:type rdf:resource="http://purl.org/dc/dcmitype/StillImage" />
        <dc:title></dc:title>
      </cc:Work>
    </rdf:RDF>
  </metadata>
  <defs id="defs6" />
  <sodipodi:namedview pagecolor="#ffffff" bordercolor="#666666" borderopacity="1" objecttolerance="10" gridtolerance="10" guidetolerance="10" inkscape:pageopacity="0" inkscape:pageshadow="2" inkscape:window-width="1920" inkscape:window-height="1025" id="namedview4" showgrid="false" inkscape:zoom="1.2079861" inkscape:cx="333.97183" inkscape:cy="324.50705" inkscape:window-x="0" inkscape:window-y="25" inkscape:window-maximized="1" inkscape:current-layer="g10" />
  <g inkscape:groupmode="layer" inkscape:label="Image" id="g10">
    <path style="fill:#000000;stroke-width:1.35211" d="m 262.30986,625.15304 c -3.34648,-0.22147 -17.34085,-1.05997 -31.09859,-1.8633 C 152.07087,618.66859 86.216477,610.98853 68.32165,604.2932 54.303672,599.04841 44.619718,587.2379 44.619718,575.38644 c 0,-5.16671 2.311088,-10.56338 14.709899,-34.34941 38.700431,-74.24339 88.671013,-180.37059 108.639153,-230.72716 5.60287,-14.12958 12.17205,-30.86198 14.5982,-37.1831 5.97196,-15.55945 21.16531,-45.74906 31.6068,-62.80356 28.61062,-46.73086 64.32424,-78.90407 99.51637,-89.65098 14.54738,-4.44246 19.84375,-4.73882 31.48229,-1.7616 46.67649,11.94014 88.9612,54.32392 123.77487,124.06482 5.1227,10.2621 11.29903,23.83019 13.72516,30.15132 2.42615,6.32112 8.99534,23.05352 14.59821,37.1831 19.96813,50.35657 69.93872,156.48377 108.63914,230.72716 12.39882,23.78603 14.70991,29.1827 14.70991,34.34941 0,11.16564 -8.44941,22.26209 -21.26971,27.93312 -11.46529,5.07165 -50.8939,11.12302 -99.06832,15.2047 -67.23218,5.69637 -142.61083,9.18495 -139.94366,6.47671 0.74366,-0.75511 8.95774,-4.5397 18.25352,-8.41019 22.79639,-9.49178 71.65027,-33.54676 82.36404,-40.55492 24.12582,-15.78137 27.85546,-22.08306 27.62965,-46.68373 -0.39679,-43.22721 -20.24575,-108.17562 -68.38805,-223.77466 -16.92523,-40.64079 -42.96154,-68.9019 -68.37642,-74.21922 -9.20469,-1.9258 -29.19741,-1.9258 -38.40211,0 -25.41487,5.31732 -51.45118,33.57843 -68.37642,74.21922 -11.84215,28.43531 -36.00777,90.07221 -40.81887,104.11268 -19.01945,55.50554 -27.31061,91.49268 -27.56917,119.66198 -0.22739,24.77096 3.38309,30.88363 27.51481,46.58366 11.01078,7.16357 60.0329,31.33348 82.47888,40.66545 9.29577,3.86473 17.47943,7.56683 18.18591,8.22688 1.18186,1.10416 -27.44494,1.3229 -42.52394,0.32492 z m 376.01688,-80.29209 c -9.96817,-18.19746 -20.52576,-37.25322 -23.46129,-42.34611 -2.93555,-5.09291 -4.8192,-9.71474 -4.18591,-10.27074 2.01325,-1.76754 45.36478,-21.8899 45.93374,-21.32094 0.29989,0.29988 0.38599,24.50298 0.19134,53.78466 l -0.35392,53.23943 z M 8.112676,460.91493 v -70.46537 l 3.042254,1.96033 c 1.673239,1.07818 14.754929,9.41203 29.070422,18.51969 29.82626,18.97574 28.818447,17.43464 21.666831,33.1316 -4.308048,9.45566 -16.722505,32.23863 -24.003705,44.05151 -14.852772,24.09685 -27.498461,43.2676 -28.540802,43.2676 -0.7294598,0 -1.235,-28.84459 -1.235,-70.46536 z m 563.128484,-60.4124 c -12.28073,-24.96591 -21.86208,-45.78251 -21.29191,-46.25911 0.57016,-0.47661 6.20849,-2.43121 12.52962,-4.34357 15.63088,-4.72887 86.30799,-26.55554 90.92958,-28.08108 l 3.71831,-1.22738 -0.0219,17.84515 -0.0219,17.84516 -15.18932,7.88217 c -15.06077,7.81545 -29.32662,17.5986 -30.40399,20.85022 -0.86995,2.62566 13.33643,2.05951 26.70762,-1.06433 6.32113,-1.47676 13.18338,-3.06176 15.24947,-3.52222 l 3.75652,-0.83718 -0.37624,19.19057 -0.37631,19.19057 -19.60563,8.83423 c -10.7831,4.85882 -24.93132,11.14163 -31.44049,13.96178 l -11.83485,5.12758 z M 47.030785,324.03453 8.2024171,300.84508 8.1575466,276.93607 8.112676,253.02706 l 17.915493,8.5713 c 26.391944,12.62666 48.863702,18.76206 54.947393,15.00213 4.41845,-2.73075 -0.790522,-15.46612 -13.034561,-31.86809 -9.42425,-12.62461 -38.558773,-41.70677 -50.718129,-50.62698 L 8.112676,187.4221 v -27.45753 c 0,-15.10163 0.2773528,-27.45752 0.6163396,-27.45752 0.5925684,0 51.4147364,37.42123 105.8625344,77.94839 14.31549,10.65546 26.02817,19.80862 26.02817,20.34037 0,0.53174 -2.67198,6.47093 -5.93772,13.19817 -3.26575,6.72727 -10.94799,24.70462 -17.07165,39.94969 -16.3709,40.75593 -27.675702,63.94056 -30.920999,63.4148 -0.456608,-0.074 -18.302963,-10.56975 -39.658566,-23.32394 z M 520.60266,272.11268 c -6.86967,-16.91831 -12.75723,-31.41965 -13.08348,-32.2252 -0.51614,-1.27442 146.33027,-99.26776 148.75617,-99.26776 0.50604,0 0.75252,9.57201 0.54771,21.27115 l -0.37236,21.27114 -6.0845,3.2396 c -37.26881,19.84317 -69.29763,40.29881 -81.20859,51.86497 l -7.35479,7.14188 4.73239,0.46291 c 10.21157,0.99888 38.79114,-8.32354 71.81874,-23.42668 l 18.77281,-8.58461 v 20.65056 20.65055 l -15.88733,6.16501 c -72.20761,28.01982 -107.26324,41.54705 -107.6687,41.54705 -0.26278,0 -6.09842,-13.84226 -12.96807,-30.76057 z M 481.07024,189.2189 c -1.27052,-0.74072 -1.98962,-2.18174 -1.598,-3.20229 0.85905,-2.23865 -4.02743,-12.11405 -13.85758,-28.00568 -9.01638,-14.57603 -17.86909,-25.57036 -22.64949,-28.12875 -1.99569,-1.06807 -3.45393,-2.64716 -3.24051,-3.5091 0.2134,-0.86194 20.41205,-29.648497 44.88587,-63.970123 L 529.10837,0 h 24.16747 24.16746 l -14.20996,17.418646 c -24.30451,29.792622 -40.99687,56.514229 -43.38665,69.454596 -0.91107,4.933361 -0.82757,5.070422 3.08877,5.070422 13.43878,0 48.15641,-26.084194 95.22095,-71.541794 L 639.27949,0 h 8.92364 8.92363 v 22.094173 22.094174 l -10.47887,8.832448 c -5.76338,4.857847 -44.22228,37.811245 -85.46421,73.229775 -41.24194,35.41853 -75.6194,64.37882 -76.39436,64.3562 -0.77498,-0.0226 -2.44856,-0.64714 -3.71908,-1.38787 z M 89.02915,86.44803 C 44.89692,41.780361 8.5943014,4.0564168 8.3566634,2.6170431 7.9413753,0.10164056 8.9785163,0 35.060993,0 h 27.136398 l 29.408347,29.574338 c 39.427052,39.64959 60.852892,57.12694 76.686522,62.554245 4.63776,1.589689 7.46086,1.902346 9.12676,1.010784 8.2929,-4.438231 -5.60974,-40.5578 -29.21436,-75.89993 L 136.69064,0 h 29.00333 29.00332 l 25.63581,51.257799 c 26.60928,53.204191 26.48481,52.854881 18.83531,52.854881 -4.17439,0 -16.0153,6.51092 -24.85855,13.66889 -14.89185,12.05387 -39.81883,43.32427 -37.124,46.57134 1.48815,1.7931 -1.0088,3.30907 -5.45039,3.30907 -1.46849,0 -34.92185,-32.84973 -82.70632,-81.21395 z m 303.83746,17.27321 c 0.59332,-1.54618 -1.84643,-3.05897 -10.01184,-6.207884 -27.7458,-10.699913 -54.00861,-15.469526 -69.40924,-12.605478 -9.74489,1.812252 -9.86918,1.71921 -11.15285,-8.348618 -0.48565,-3.809001 -3.29173,-21.73154 -6.23573,-39.827866 C 293.11295,18.635067 290.70422,2.9674616 290.70422,1.9144913 290.70422,0.34301517 294.5803,0 312.33803,0 h 21.6338 l 0.0235,9.1267608 c 0.0456,17.7347322 5.50598,34.9053722 12.96622,40.7735992 6.88602,5.416552 18.82896,3.479704 29.75678,-4.82581 8.973,-6.819778 22.76103,-27.617028 26.43157,-39.8681844 L 404.70974,0 h 21.41978 c 11.78087,0 21.41977,0.24165425 21.41977,0.53700945 0,0.29535519 -7.06908,16.26718655 -15.70908,35.49295855 -8.64,19.225771 -18.71119,41.648907 -22.3804,49.829189 -7.37921,16.451453 -8.2543,17.669483 -13.6441,18.991013 -2.9933,0.73394 -3.57805,0.51009 -2.9491,-1.12893 z" id="path14" />
  </g>
</svg>
