<?xml version="1.0" encoding="UTF-8" standalone="no"?>
<svg xmlns:dc="http://purl.org/dc/elements/1.1/" xmlns:cc="http://creativecommons.org/ns#" xmlns:rdf="http://www.w3.org/1999/02/22-rdf-syntax-ns#" xmlns:svg="http://www.w3.org/2000/svg" xmlns="http://www.w3.org/2000/svg" xmlns:sodipodi="http://sodipodi.sourceforge.net/DTD/sodipodi-0.dtd" xmlns:inkscape="http://www.inkscape.org/namespaces/inkscape" version="1.1" id="svg2" width="639.54932" height="649.0141" viewBox="0 0 639.54932 649.0141" sodipodi:docname="priest-disciplin.svg" inkscape:version="1.0.2 (e86c870879, 2021-01-15)">
  <metadata id="metadata8">
    <rdf:RDF>
      <cc:Work rdf:about="">
        <dc:format>image/svg+xml</dc:format>
        <dc:type rdf:resource="http://purl.org/dc/dcmitype/StillImage" />
        <dc:title></dc:title>
      </cc:Work>
    </rdf:RDF>
  </metadata>
  <defs id="defs6" />
  <sodipodi:namedview pagecolor="#ffffff" bordercolor="#666666" borderopacity="1" objecttolerance="10" gridtolerance="10" guidetolerance="10" inkscape:pageopacity="0" inkscape:pageshadow="2" inkscape:window-width="1920" inkscape:window-height="1025" id="namedview4" showgrid="false" inkscape:zoom="1.2079861" inkscape:cx="319.77466" inkscape:cy="324.50705" inkscape:window-x="0" inkscape:window-y="25" inkscape:window-maximized="1" inkscape:current-layer="g10" />
  <g inkscape:groupmode="layer" inkscape:label="Image" id="g10">
    <path style="fill:#000000;stroke-width:1.35211" d="m 310.45699,645.24227 c -2.88086,-5.57097 -36.63857,-37.88065 -58.21841,-55.72113 -56.74525,-46.91241 -72.7812,-63.53603 -90.76605,-94.09229 -33.99719,-57.76131 -56.91447,-158.04547 -75.640747,-330.99783 -1.923573,-17.76576 -3.221238,-33.02106 -2.883698,-33.90067 0.337539,-0.87962 9.344699,-6.70208 20.015915,-12.93882 10.67121,-6.23674 31.26699,-18.614896 45.7684,-27.507013 55.60254,-34.094903 83.29286,-49.785109 109.97617,-62.31593 33.25598,-15.617435 49.59978,-20.0485577 70.11402,-19.0092749 15.01703,0.7607853 26.85998,3.8883389 46.51766,12.2846429 32.24705,13.773546 57.41253,27.717373 128.32174,71.101206 16.36056,10.009759 36.95029,22.365699 45.75494,27.457649 8.80466,5.09196 16.2907,9.99357 16.63564,10.89247 1.28213,3.34118 -10.1139,100.68104 -17.17343,146.68783 -19.62497,127.89539 -42.86211,199.35076 -79.65803,244.95234 -11.12912,13.79246 -32.25711,34.24507 -52.10653,50.44091 -27.9069,22.77022 -43.25264,36.42735 -63.41159,56.43392 l -20.15617,20.00382 h -10.56967 c -10.19936,0 -10.638,-0.1321 -12.52016,-3.77183 z m 29.16943,-98.98874 c 7.79268,-8.55211 27.44827,-29.23943 43.67907,-45.97183 31.04226,-32.00159 42.24861,-45.01687 49.15794,-57.09313 8.97529,-15.68717 15.85388,-43.80195 22.42054,-91.63927 1.88854,-13.75774 6.48688,-46.97793 10.21854,-73.82265 3.73165,-26.84471 6.78483,-49.58043 6.78483,-50.52382 0,-2.40856 -2.07692,-1.85142 -67.46967,18.09889 -13.68297,4.17446 -25.09943,7.36864 -25.3699,7.09815 -0.27049,-0.27048 16.24861,-19.22187 36.7091,-42.11419 20.46049,-22.89232 37.20089,-42.06795 37.20089,-42.6125 0,-1.89783 -50.81207,-50.78841 -62.88182,-60.50389 -42.91914,-34.547515 -88.14249,-34.552757 -131.14635,-0.0152 -11.92833,9.57996 -62.87324,58.63508 -62.87324,60.54097 0,0.53253 16.74039,19.69831 37.20089,42.59063 20.46049,22.89232 36.97959,41.84371 36.7091,42.11419 -0.27047,0.27049 -11.68693,-2.92369 -25.3699,-7.09815 -35.76287,-10.9107 -60.92086,-18.38939 -64.42742,-19.15228 -3.87994,-0.84411 -3.88128,-0.95695 0.33086,27.99846 1.85521,12.75327 6.44379,45.48716 10.19685,72.74201 7.79514,56.60855 11.89561,79.08366 17.62985,96.63112 7.66344,23.45099 14.52522,32.54004 59.99215,79.4649 17.65363,18.21972 37.36583,39.04769 43.80489,46.28438 6.43906,7.2367 12.07344,13.01698 12.52084,12.84507 0.4474,-0.1719 7.18927,-7.30973 14.98196,-15.86185 z M 51.259124,627.72034 22.067538,627.32877 21.163414,557.38269 c -1.135746,-87.86518 -1.233506,-204.1703 -0.173058,-205.88615 1.551272,-2.51 4.81541,-1.24847 10.62461,4.10628 14.935117,13.76669 20.485181,34.41404 28.531734,106.14367 8.358839,74.51347 15.391557,100.02064 30.761426,111.56955 7.084623,5.32339 21.455234,10.91482 47.007374,18.29003 27.82087,8.03004 39.7483,15.10095 48.51334,28.76009 2.32049,3.61616 4.21905,6.9779 4.21905,7.47054 0,0.83655 -72.88506,0.77571 -139.388766,-0.11641 z m 407.107086,0.33801 c 0,-2.51342 8.78787,-14.5664 13.66278,-18.73914 8.4533,-7.23571 16.99315,-11.16767 37.06172,-17.06412 28.13874,-8.26761 41.87864,-13.57658 49.01528,-18.93905 15.36987,-11.54891 22.40258,-37.05608 30.76143,-111.56955 8.0611,-71.85945 13.58776,-92.36882 28.62591,-106.23051 6.55421,-6.04144 9.95208,-6.42588 11.15806,-1.26245 0.79851,3.41897 -0.88661,271.84088 -1.71178,272.66606 -1.02751,1.0275 -168.5734,2.15933 -168.5734,1.13876 z M 20.352002,244.14107 C 19.113614,242.6489 18.966675,215.33356 19.719204,126.50726 L 20.699325,10.816902 31.645437,10.782049 C 37.6658,10.762881 66.92958,9.8639923 96.67606,8.7845197 126.42254,7.7050471 156.4276,6.8080546 163.35397,6.791203 l 12.5934,-0.03064 -5.68709,8.107513 c -8.04705,11.471836 -17.44539,19.780156 -27.98648,24.740586 l -9.0907,4.277902 -29.74648,0.808393 c -32.21458,0.875468 -37.884528,2.017685 -45.665586,9.199385 -7.354999,6.788457 -9.228953,20.395315 -11.75772,85.373268 -0.738003,18.96338 -2.021863,39.95493 -2.853021,46.64789 -3.073816,24.75211 -14.42025,60.16901 -19.276211,60.16901 -1.055538,0 -2.644974,-0.87454 -3.53208,-1.94344 z m 598.719868,-7.18332 c -5.1003,-11.24651 -11.20217,-34.80922 -13.21805,-51.04225 -0.83116,-6.69296 -2.11502,-27.68451 -2.85303,-46.64789 -2.52876,-64.977953 -4.40272,-78.584811 -11.75771,-85.373268 -7.78106,-7.1817 -13.45101,-8.323917 -45.66559,-9.199384 l -29.74648,-0.808393 -9.0907,-4.277902 c -10.54109,-4.96043 -19.93944,-13.26875 -27.98648,-24.740587 l -5.68709,-8.1075125 12.5934,0.030639 c 6.92637,0.016852 36.93143,0.9138447 66.67791,1.9933173 29.74648,1.0794726 59.01025,1.9783612 65.03062,1.9975292 l 10.94612,0.03485 0.98012,115.690361 c 0.75252,88.8263 0.60558,116.14164 -0.6328,117.63381 -3.07268,3.70234 -5.46684,1.90905 -9.59024,-7.18332 z" id="path14" />
  </g>
</svg>
