<?xml version="1.0" encoding="UTF-8" standalone="no"?>
<svg xmlns:dc="http://purl.org/dc/elements/1.1/" xmlns:cc="http://creativecommons.org/ns#" xmlns:rdf="http://www.w3.org/1999/02/22-rdf-syntax-ns#" xmlns:svg="http://www.w3.org/2000/svg" xmlns="http://www.w3.org/2000/svg" xmlns:sodipodi="http://sodipodi.sourceforge.net/DTD/sodipodi-0.dtd" xmlns:inkscape="http://www.inkscape.org/namespaces/inkscape" version="1.1" id="svg2" width="663.88733" height="649.0141" viewBox="0 0 663.88733 649.0141" sodipodi:docname="rogue-assassination.svg" inkscape:version="1.0.2 (e86c870879, 2021-01-15)">
  <metadata id="metadata8">
    <rdf:RDF>
      <cc:Work rdf:about="">
        <dc:format>image/svg+xml</dc:format>
        <dc:type rdf:resource="http://purl.org/dc/dcmitype/StillImage" />
        <dc:title></dc:title>
      </cc:Work>
    </rdf:RDF>
  </metadata>
  <defs id="defs6" />
  <sodipodi:namedview pagecolor="#ffffff" bordercolor="#666666" borderopacity="1" objecttolerance="10" gridtolerance="10" guidetolerance="10" inkscape:pageopacity="0" inkscape:pageshadow="2" inkscape:window-width="1920" inkscape:window-height="1025" id="namedview4" showgrid="false" inkscape:zoom="1.2079861" inkscape:cx="331.94366" inkscape:cy="324.50705" inkscape:window-x="0" inkscape:window-y="25" inkscape:window-maximized="1" inkscape:current-layer="g10" />
  <g inkscape:groupmode="layer" inkscape:label="Image" id="g10">
    <path style="fill:#000000;stroke-width:1.35211" d="m 318.31226,640.94354 c -4.34042,-1.75588 -9.82392,-9.05854 -10.83036,-14.42335 -1.54269,-8.22325 0.51212,-19.99028 6.03156,-34.54011 2.91094,-7.67354 6.31567,-19.12373 7.56606,-25.44486 4.51833,-22.84152 7.80172,-35.86588 9.49066,-37.64711 1.4098,-1.48683 2.13664,0.10668 4.00879,8.78873 1.25771,5.83268 4.37366,19.20391 6.92432,29.71385 2.55065,10.50995 4.63756,20.2863 4.63756,21.72525 0,1.43895 1.20258,7.13848 2.67239,12.66566 5.19688,19.54252 2.17768,31.51291 -9.44058,37.42968 -6.14945,3.1317 -15.66616,3.91446 -21.0604,1.73226 z m -112.81172,-4.43648 c -8.09618,-4.10371 -11.45998,-10.15944 -11.45371,-20.61972 0.005,-9.11254 3.1275,-18.66544 8.97734,-27.46906 5.76549,-8.67669 6.91378,-15.8817 5.85801,-36.7563 -0.66797,-13.20707 -1.68469,-20.30949 -3.67758,-25.69014 -1.51491,-4.09014 -2.73822,-8.77379 -2.71848,-10.40813 0.0197,-1.63432 -0.7944,-3.15545 -1.80922,-3.38028 -2.86911,-0.63563 -1.2703,-2.16441 20.58657,-19.68468 19.55137,-15.6722 20.57559,-16.30092 22.7112,-13.94109 2.09624,2.31632 1.98961,2.84171 -1.70059,8.37934 -7.76096,11.64637 -11.08363,27.67583 -11.01564,53.14233 0.0537,20.09173 2.09245,33.55505 7.40849,48.92233 2.34347,6.77433 3.91301,14.6034 4.30566,21.47723 0.5376,9.41096 0.20884,11.60774 -2.52945,16.90141 -3.97925,7.69272 -12.10012,12.16901 -22.07694,12.16901 -4.43804,0 -8.98472,-1.07512 -12.86566,-3.04225 z m 251.46806,-3.47532 c -11.03413,-4.89037 -15.25035,-16.10932 -11.4598,-30.49334 1.15089,-4.36725 3.23481,-9.54467 4.63093,-11.50534 5.28438,-7.42123 7.89219,-26.7117 5.59661,-41.39924 -1.7398,-11.13162 -8.87286,-26.6323 -14.93307,-32.45071 -2.3237,-2.23099 -9.81113,-8.32093 -16.63875,-13.53321 -6.8276,-5.21228 -12.56258,-10.38411 -12.7444,-11.49296 -0.18182,-1.10884 0.51157,-3.11527 1.54087,-4.45872 2.07128,-2.70345 -0.18296,-3.91888 34.714,18.71662 38.85932,25.20562 51.25459,33.45214 51.25459,34.09941 0,0.39004 -3.39755,0.35851 -7.5501,-0.07 -9.25905,-0.95562 -10.91025,-0.37217 -13.58499,4.8002 -5.91642,11.44111 -4.52621,36.22117 2.98057,53.12724 7.20083,16.21707 5.51628,29.78715 -4.20171,33.8476 -4.73257,1.9774 -15.92941,2.44146 -19.60475,0.81253 z M 36.845071,606.20313 c -0.929578,-0.37509 -1.690141,-1.26544 -1.690141,-1.97856 0,-1.31546 5.179754,-8.68074 97.34747,-138.42174 28.52797,-40.15775 65.03742,-91.57184 81.13211,-114.25353 16.09468,-22.68169 39.20889,-55.2338 51.36489,-72.33803 12.15601,-17.10422 36.67081,-51.66703 54.47737,-76.80624 17.80654,-25.13921 32.64626,-45.43693 32.97715,-45.10604 0.3309,0.33089 -3.33499,19.07399 -8.14641,41.65132 -4.81143,22.57733 -12.54207,58.85797 -17.17919,80.62363 -4.63713,21.76567 -8.18872,39.81089 -7.8924,40.10048 0.2963,0.2896 36.98432,-7.6421 81.52893,-17.626 44.54461,-9.98389 81.24255,-17.90016 81.551,-17.59172 0.30846,0.30844 -18.18784,14.21755 -41.10286,30.90912 -22.91504,16.69156 -92.46932,67.35999 -154.5651,112.59648 -62.09578,45.2365 -142.83994,104.04802 -179.43149,130.69224 -36.591548,26.64424 -67.014083,48.39603 -67.605637,48.33732 -0.591553,-0.0587 -1.836115,-0.41364 -2.765692,-0.78873 z M 572.61972,577.48448 C 556.25916,565.77489 497.54367,524.05617 442.14085,484.77623 386.73803,445.4963 340.87738,412.88404 340.2283,412.30457 c -2.09995,-1.87475 5.93332,-8.55145 42.41959,-35.25629 40.94192,-29.96598 42.89925,-31.29467 44.57517,-30.2589 0.67715,0.41849 23.02053,30.67719 49.65194,67.24154 137.2333,188.41822 131.2861,180.04699 129.70732,182.57502 -0.81747,1.30899 -2.10053,2.33245 -2.85123,2.27435 -0.75069,-0.0581 -14.7508,-9.68621 -31.11137,-21.39581 z m -295.43731,-3.17461 c -5.79492,-3.95555 -9.4641,-11.01927 -9.4641,-18.21981 0,-3.34985 2.01178,-10.98717 4.81379,-18.27462 5.38673,-14.00972 7.29373,-28.50505 7.16151,-54.43515 -0.0955,-18.7215 -0.812,-21.50244 -5.68639,-22.06937 -2.05976,-0.23957 -3.55682,-0.98189 -3.32682,-1.6496 0.23001,-0.66772 13.4198,-10.10633 29.31065,-20.97471 l 28.89246,-19.76068 6.93853,4.81945 c 14.47171,10.05194 14.92156,10.58579 13.29697,15.78062 -0.7986,2.55366 -4.04871,24.54745 -7.22246,48.87508 -3.17376,24.32763 -6.06038,43.94213 -6.41473,43.58779 -0.69994,-0.69992 -3.03955,-17.25173 -6.20197,-43.87618 -2.34549,-19.74692 -4.76828,-33.80282 -5.82651,-33.80282 -0.41112,0 -5.16838,2.75542 -10.57169,6.12315 -13.15813,8.2011 -13.39187,8.95646 -13.37683,43.22896 0.0108,24.04763 0.34745,28.1748 3.04225,37.26935 3.78493,12.77351 3.91241,22.1126 0.38091,27.90445 -5.24192,8.59703 -17.38724,11.1794 -25.74557,5.47409 z M 183.51938,301.12782 c -14.67964,-10.43407 -26.48271,-19.17857 -26.22906,-19.43221 0.61895,-0.61895 68.42928,13.88315 69.38496,14.83884 0.41275,0.41273 0.25028,1.55148 -0.36101,2.53053 -0.6113,0.97905 -1.22273,2.5126 -1.35873,3.40789 -0.39564,2.60471 -8.79364,13.72589 -11.90371,15.76369 -2.63647,1.72749 -4.77426,0.48903 -29.53245,-17.10874 z m 158.57057,-7.38133 c 0.003,-1.30141 0.88145,-7.84226 1.95215,-14.53522 1.0707,-6.69295 5.34372,-35.59436 9.49564,-64.22535 4.15191,-28.63099 8.33667,-57.31504 9.29948,-63.74234 l 1.75057,-11.68601 11.17482,-12.99005 c 6.14615,-7.14453 11.63193,-12.99005 12.19062,-12.99005 0.55869,0 4.4725,11.10422 8.69736,24.67605 13.47773,43.29561 23.7496,75.46561 24.46653,76.62564 0.77354,1.25162 11.76886,4.78791 50.77021,16.32858 39.65153,11.73307 54.22042,16.51145 53.79384,17.6436 -0.21197,0.56257 -6.03984,6.0082 -12.95086,12.1014 l -12.56546,11.07855 -45.57538,7.28558 c -25.06646,4.00707 -58.9613,9.43113 -75.32186,12.05347 -34.41756,5.51656 -37.18529,5.69346 -37.17766,2.37615 z M 230.53521,283.27537 c -0.74366,-0.25014 -21.30328,-3.35698 -45.68803,-6.9041 l -44.33594,-6.44929 -13.54653,-11.43346 c -7.45059,-6.2884 -13.05435,-11.88113 -12.4528,-12.42828 0.88689,-0.80671 70.46151,-23.12839 95.30059,-30.57536 7.43384,-2.22874 5.03086,3.77434 24.8261,-62.02009 7.15975,-23.79718 13.47362,-43.74251 14.03082,-44.32296 0.87458,-0.91103 20.77723,20.55394 23.28129,25.10883 1.85101,3.36699 13.40453,79.00699 12.4484,81.49866 -1.13725,2.9636 -41.37154,60.56682 -45.50697,65.1521 -2.5395,2.81573 -4.98135,3.50939 -8.35693,2.37395 z M 510.42254,237.15278 C 468.77747,223.4161 432.91551,211.39179 430.7293,210.43207 427.0876,208.83344 426.04979,206.59909 418.34986,183.7802 413.72738,170.08138 403.12937,139.09859 394.79873,114.92958 386.4681,90.760566 378.08782,66.332552 376.17592,60.645105 l -3.4762,-10.34081 20.75641,-24.138064 c 11.416,-13.275934 20.91938,-24.3552108 21.11859,-24.6206149 0.19922,-0.2654041 5.11408,2.8108398 10.92192,6.8360976 58.63657,40.6394663 72.15206,50.1326103 72.74869,51.0979843 2.14944,3.477877 -4.86643,8.125937 -12.26543,8.125937 -2.49284,0 -3.60788,1.407237 -5.83805,7.367872 -8.75563,23.401515 -2.63142,48.890123 15.77659,65.661343 10.12244,9.2224 17.52976,13.50027 29.3022,16.92261 16.56034,4.81423 45.37091,-0.33801 45.37091,-8.11374 0,-4.4711 2.63748,-11.21329 4.69546,-12.003 0.99125,-0.38038 2.7059,0.0272 3.81035,0.90567 1.10444,0.87851 12.80617,16.80854 26.00383,35.40009 13.19765,18.59155 26.00655,36.57231 28.46422,39.95725 l 4.46847,6.15441 -24.16712,21.22587 c -13.2919,11.67422 -24.96783,21.18506 -25.9465,21.1352 -0.97867,-0.0499 -35.85265,-11.32976 -77.49772,-25.06643 z M 26.463827,240.5695 C 13.396046,229.35597 2.7042254,219.64722 2.7042254,218.99449 c 0,-0.65272 9.2241516,-14.44703 20.4981146,-30.65401 36.721457,-52.78923 35.430898,-51.10104 39.064617,-51.10104 2.769874,0 3.497638,0.88324 4.456373,5.40845 1.790468,8.45098 2.569737,9.27333 11.806391,12.45918 19.209313,6.62555 43.146709,1.82265 58.371689,-11.71193 3.53239,-3.1402 6.42253,-6.23854 6.42253,-6.88521 0,-0.64666 1.5569,-2.73263 3.45975,-4.63549 5.03237,-5.03237 11.34348,-19.42424 13.05973,-29.78143 1.67846,-10.129151 0.003,-22.901621 -4.27731,-32.597132 -2.19759,-4.978437 -3.03801,-5.625476 -8.20731,-6.318824 -6.30849,-0.846147 -10.22525,-3.75246 -9.07982,-6.737407 0.40331,-1.050989 17.97066,-14.179861 39.03855,-29.175269 29.77611,-21.1936023 39.21284,-27.25442107 42.3812,-27.21966056 3.56031,0.03906055 6.55609,2.87818326 23.68155,22.44311656 10.7831,12.319119 19.53473,23.098998 19.44806,23.955284 -0.25515,2.520861 -51.81968,158.263862 -52.92153,159.841602 -0.55297,0.7918 -11.04484,4.8662 -23.31526,9.05422 -12.27042,4.18802 -47.25634,16.16434 -77.74648,26.61403 -30.49014,10.4497 -56.153249,19.00066 -57.02913,19.00212 -0.875881,0.001 -12.284332,-9.17204 -25.352113,-20.38559 z M 292.02711,185.61653 c -1.63527,-7.27219 -4.04624,-17.78554 -5.35769,-23.36301 -2.26397,-9.6284 -2.3648,-13.14725 -0.28604,-9.98285 0.51731,0.78747 5.41971,7.62927 10.89421,15.204 9.42206,13.03666 9.86806,13.97883 8.35106,17.64123 -0.88145,2.12797 -3.6334,6.08613 -6.11546,8.79591 l -4.51284,4.92688 z m 248.14191,-39.66646 c -2.23099,-0.65248 -9.83662,-4.73392 -16.90141,-9.06985 -10.43872,-6.40665 -14.18132,-9.64445 -19.97794,-17.28328 -9.82096,-12.94214 -14.07235,-22.226519 -13.5582,-29.608965 0.38062,-5.464914 2.82272,-8.832477 34.76022,-47.932921 L 558.84252,0 h 45.08579 45.08578 v 33.548542 33.548541 l -4.23337,3.129864 c -4.05495,2.997954 -22.8771,18.650516 -66.75255,55.511623 -11.15493,9.3716 -21.78609,18.07481 -23.6248,19.34049 -3.60925,2.48442 -7.8338,2.74293 -14.23435,0.87101 z M 86.40274,144.96261 C 85.214387,144.43318 65.289941,128.48451 42.126193,109.52113 L 0.01028782,75.042255 0.00514391,37.521128 0,0 h 39.590418 39.590418 l 8.19287,9.8028171 c 4.506079,5.3915499 19.850954,23.7011679 34.099724,40.6880409 24.76775,29.527225 25.90685,31.138894 25.90685,36.65453 0,6.013675 -2.99264,12.727172 -12.94745,29.045492 -9.69287,15.88894 -38.377625,33.07213 -48.03009,28.77173 z" id="path14" />
  </g>
</svg>
