<?xml version="1.0" encoding="UTF-8" standalone="no"?>
<svg xmlns:dc="http://purl.org/dc/elements/1.1/" xmlns:cc="http://creativecommons.org/ns#" xmlns:rdf="http://www.w3.org/1999/02/22-rdf-syntax-ns#" xmlns:svg="http://www.w3.org/2000/svg" xmlns="http://www.w3.org/2000/svg" xmlns:sodipodi="http://sodipodi.sourceforge.net/DTD/sodipodi-0.dtd" xmlns:inkscape="http://www.inkscape.org/namespaces/inkscape" version="1.1" id="svg2" width="659.83099" height="649.0141" viewBox="0 0 659.83099 649.0141" sodipodi:docname="rogue-subtlety.svg" inkscape:version="1.0.2 (e86c870879, 2021-01-15)">
  <metadata id="metadata8">
    <rdf:RDF>
      <cc:Work rdf:about="">
        <dc:format>image/svg+xml</dc:format>
        <dc:type rdf:resource="http://purl.org/dc/dcmitype/StillImage" />
        <dc:title></dc:title>
      </cc:Work>
    </rdf:RDF>
  </metadata>
  <defs id="defs6" />
  <sodipodi:namedview pagecolor="#ffffff" bordercolor="#666666" borderopacity="1" objecttolerance="10" gridtolerance="10" guidetolerance="10" inkscape:pageopacity="0" inkscape:pageshadow="2" inkscape:window-width="1920" inkscape:window-height="1025" id="namedview4" showgrid="false" inkscape:zoom="1.2079861" inkscape:cx="329.9155" inkscape:cy="324.50705" inkscape:window-x="0" inkscape:window-y="25" inkscape:window-maximized="1" inkscape:current-layer="g10" />
  <g inkscape:groupmode="layer" inkscape:label="Image" id="g10">
    <path style="fill:#000000;stroke-width:1.35211" d="M 221.74648,620.11631 C 203.52676,610.30214 146.55664,579.8585 95.146221,552.46379 L 1.6727228,502.65523 5.0317408,491.66565 C 14.961822,459.17776 43.361042,381.99873 60.966875,339.65377 85.966689,279.52503 119.05959,211.13401 142.55425,171.04226 c 16.02165,-27.33964 39.88623,-63.00773 54.27981,-81.126765 16.56604,-20.85381 47.14015,-50.868092 62.37519,-61.233089 46.42913,-31.5875525 78.6316,-31.5949345 125.18714,-0.02869 15.77808,10.698081 48.63326,43.343079 65.05824,64.642068 50.81533,65.894456 104.20402,169.234616 152.69907,295.567196 11.87762,30.94191 30.66212,83.96416 36.41817,102.79607 l 3.35699,10.98299 -71.16161,37.941 c -39.13889,20.86754 -96.35777,51.37129 -127.15309,67.7861 -30.79531,16.41482 -56.21431,29.62229 -56.48667,29.34992 -0.48459,-0.48459 74.36004,-71.20275 137.49223,-129.91176 17.47606,-16.25165 33.23474,-30.93484 35.0193,-32.62931 l 3.24467,-3.08086 -7.14634,-19.3725 C 512.42899,335.32295 455.11963,251.58383 403.15548,229.77548 c -8.70139,-3.65181 -26.70454,-7.6912 -28.09258,-6.30317 -0.37234,0.37236 -1.84044,6.37298 -3.26243,13.33474 -5.08694,24.9046 -18.91711,45.01571 -34.64122,50.37344 -8.16507,2.78212 -22.54779,2.78212 -30.71286,0 -15.72411,-5.35773 -29.55428,-25.46884 -34.64122,-50.37344 -1.42199,-6.96176 -2.89009,-12.96238 -3.26243,-13.33474 -1.38804,-1.38803 -19.39119,2.65136 -28.09258,6.30317 -51.96415,21.80835 -109.27351,105.54747 -152.581871,222.94915 l -7.146332,19.3725 3.244656,3.11397 c 1.78456,1.71268 12.979866,12.12347 24.878457,23.13508 36.41701,33.7023 148.05634,138.75325 148.05634,139.3188 0,1.24386 -3.64581,-0.57605 -35.15493,-17.54867 z m 22.30986,-162.26898 c -14.87324,-6.12331 -35.86479,-14.69682 -46.64789,-19.05225 -10.7831,-4.35541 -20.13945,-8.38242 -20.79188,-8.94889 -1.29967,-1.12842 -14.68676,-66.25486 -13.80111,-67.14052 0.7768,-0.77679 105.50205,51.78832 108.86891,54.64494 0.32218,0.27336 1.8449,10.78063 3.38382,23.34949 l 2.79805,22.85246 -3.16066,2.81528 c -1.73837,1.54839 -3.26108,2.76972 -3.38382,2.71402 -0.12277,-0.0557 -12.39218,-5.11121 -27.26542,-11.23453 z m 124.54321,8.32968 c -2.49713,-2.71733 -2.49972,-3.28387 -0.11372,-24.84658 1.34294,-12.13623 2.79709,-22.59782 3.23145,-23.24799 1.21957,-1.82556 14.55184,-8.82989 63.4466,-33.33275 24.79368,-12.42497 45.32549,-22.34479 45.62626,-22.04402 0.88298,0.88299 -12.49882,66.00744 -13.80111,67.16497 -0.65244,0.5799 -8.18343,3.84953 -16.73555,7.26582 -8.55211,3.41629 -29.77657,12.02435 -47.16549,19.12904 -17.3889,7.10469 -31.68749,12.86691 -31.77464,12.80494 -0.0872,-0.0619 -1.30839,-1.36401 -2.71384,-2.89343 z" id="path14" />
  </g>
</svg>
