<?xml version="1.0" encoding="UTF-8" standalone="no"?>
<svg xmlns:dc="http://purl.org/dc/elements/1.1/" xmlns:cc="http://creativecommons.org/ns#" xmlns:rdf="http://www.w3.org/1999/02/22-rdf-syntax-ns#" xmlns:svg="http://www.w3.org/2000/svg" xmlns="http://www.w3.org/2000/svg" xmlns:sodipodi="http://sodipodi.sourceforge.net/DTD/sodipodi-0.dtd" xmlns:inkscape="http://www.inkscape.org/namespaces/inkscape" version="1.1" id="svg2" width="640.90143" height="649.0141" viewBox="0 0 640.90143 649.0141" sodipodi:docname="rogue-outlaw.svg" inkscape:version="1.0.2 (e86c870879, 2021-01-15)">
  <metadata id="metadata8">
    <rdf:RDF>
      <cc:Work rdf:about="">
        <dc:format>image/svg+xml</dc:format>
        <dc:type rdf:resource="http://purl.org/dc/dcmitype/StillImage" />
        <dc:title></dc:title>
      </cc:Work>
    </rdf:RDF>
  </metadata>
  <defs id="defs6" />
  <sodipodi:namedview pagecolor="#ffffff" bordercolor="#666666" borderopacity="1" objecttolerance="10" gridtolerance="10" guidetolerance="10" inkscape:pageopacity="0" inkscape:pageshadow="2" inkscape:window-width="1920" inkscape:window-height="1025" id="namedview4" showgrid="false" inkscape:zoom="1.2079861" inkscape:cx="320.45071" inkscape:cy="324.50705" inkscape:window-x="0" inkscape:window-y="25" inkscape:window-maximized="1" inkscape:current-layer="g10" />
  <g inkscape:groupmode="layer" inkscape:label="Image" id="g10">
    <path style="fill:#000000;stroke-width:1.35211" d="m 381.89354,621.63382 c -14.8764,-15.05916 -31.02525,-31.0532 -35.88633,-35.54233 -22.52008,-20.79691 -33.66613,-48.89054 -31.89325,-80.38707 0.75761,-13.45959 0.59938,-14.68488 -2.99092,-23.16007 -7.54822,-17.81829 -25.87838,-42.73393 -52.10442,-70.82402 -12.04126,-12.89711 -16.94285,-17.01806 -29.57124,-24.86177 -19.4154,-12.0592 -36.64658,-26.5103 -57.83623,-48.50485 l -16.91637,-17.55894 -19.39055,0.84206 c -18.52331,0.80439 -19.44171,0.7211 -20.534,-1.86217 -0.62888,-1.48733 -4.244,-18.52395 -8.03359,-37.85916 -5.00332,-25.52792 -6.99722,-39.04277 -7.281115,-49.35211 C 99.015878,216.59811 96.361441,204.85535 90.317374,192.13784 82.94648,176.6285 71.366254,168.02364 52.853172,164.29951 26.781371,159.05486 17.574504,152.55462 9.9437114,134.00457 5.7725955,123.86481 5.5676574,106.81397 9.4778922,95.24846 14.708731,79.776927 26.905567,67.866335 42.560509,62.942251 c 9.75742,-3.069085 30.266432,-2.300011 40.402062,1.515051 15.317796,5.765633 22.629559,16.384211 23.581819,34.246926 0.69802,13.093602 2.23,16.804192 14.79349,35.830982 6.89532,10.44264 25.69716,34.61394 39.44071,50.70423 l 4.04218,4.7324 10.09349,-9.99194 c 9.97342,-9.87306 13.30516,-11.28771 15.16567,-6.4393 0.39754,1.03599 -2.55972,7.29697 -6.57168,13.9133 l -7.29448,12.0297 0.99141,17.55398 c 1.03078,18.25093 7.64203,54.2193 11.2369,61.13416 2.28866,4.40229 16.34674,18.08698 35.4643,34.52233 7.50908,6.45554 15.72316,14.23622 18.25352,17.2904 l 4.60067,5.55306 10.11367,-2.81101 c 5.56252,-1.54606 13.01605,-2.81102 16.56338,-2.81102 3.82559,0 6.44971,-0.6108 6.44971,-1.50126 0,-0.8257 -2.97152,-5.58673 -6.60338,-10.58008 -8.35797,-11.49119 -9.88878,-14.51834 -14.0894,-27.86175 -11.63752,-36.96693 -5.11487,-62.14128 19.25607,-74.31934 21.85856,-10.92263 40.91928,-1.91917 54.1639,25.58469 2.8952,6.01219 6.47349,15.33416 7.95175,20.71547 1.47828,5.38132 3.06899,10.40103 3.53491,11.15493 0.4988,0.80706 7.90345,1.38293 18.0068,1.40041 14.30665,0.0247 18.17126,0.48633 23.24415,2.77619 7.80396,3.52262 16.91739,12.36249 21.03761,20.40611 3.02882,5.91294 6.7511,10.72262 26.87263,34.72306 l 8.02291,9.56954 2.6304,-4.34385 c 1.44672,-2.38912 8.29055,-10.2483 15.2085,-17.46486 13.02894,-13.59134 20.7093,-23.8583 26.68165,-35.6675 2.95229,-5.83766 3.29089,-7.67085 2.2476,-12.16902 -0.67558,-2.91279 -1.24285,-7.5253 -1.26059,-10.25003 -0.0304,-4.67326 -0.52255,-5.22824 -8.68264,-9.79163 -8.419,-4.70817 -8.77953,-4.78361 -13.47772,-2.82059 -2.655,1.10933 -5.38028,2.01697 -6.05616,2.01697 -0.67587,0 -2.56466,-5.93239 -4.19731,-13.1831 -1.63266,-7.2507 -3.23215,-14.12926 -3.55442,-15.2857 -0.46685,-1.67518 1.84427,-2.56847 11.36912,-4.39436 16.1281,-3.09173 16.15781,-3.08723 18.51375,2.80084 1.40903,3.52151 3.95756,6.25228 8.26085,8.85157 5.79226,3.49866 6.70372,3.66236 13.16267,2.36406 7.58933,-1.52549 15.03549,-0.38161 20.40108,3.13408 4.38455,2.87286 9.77898,10.13539 10.91772,14.69853 0.51035,2.04507 1.8171,3.71831 2.9039,3.71831 1.0868,0 4.62907,1.82535 7.87169,4.05634 3.24262,2.23098 6.39451,4.02635 7.00419,3.98969 0.60967,-0.0366 10.53947,-12.40751 22.06623,-27.49078 11.52676,-15.08326 21.09752,-27.07017 21.26834,-26.63758 0.17082,0.43261 -3.5825,13.55292 -8.34071,29.15626 l -8.65129,28.36972 7.23838,8.13732 c 3.9811,4.47553 17.30363,18.78523 29.60561,31.79931 19.59082,20.72483 22.37109,24.21875 22.39812,28.14746 0.0276,4.01813 -0.28612,4.39309 -3.0114,3.59878 -1.67324,-0.48768 -20.9778,-6.94738 -42.89902,-14.35489 -32.4407,-10.9622 -40.11404,-13.12677 -41.23944,-11.6332 -4.88612,6.48457 -33.68487,38.78473 -34.15829,38.3113 -0.31921,-0.31919 4.17182,-14.65594 9.98007,-31.85944 8.91345,-26.40092 10.24927,-31.47584 8.56531,-32.54074 -3.70423,-2.34247 -4.68741,-1.29678 -9.27965,9.8695 -8.32171,20.23478 -32.29618,67.68076 -41.65403,82.43423 -11.12301,17.53642 -23.28892,32.63957 -29.19029,36.23781 -5.54925,3.38353 -10.99094,3.37477 -16.49443,-0.0266 -2.46871,-1.52576 -12.43367,-13.66283 -23.03522,-28.05634 -10.27637,-13.95198 -19.27073,-25.97572 -19.98748,-26.71939 -1.54761,-1.60574 -1.88865,-3.40101 7.83404,41.23944 8.50211,39.03635 11.98345,50.81913 15.5844,52.7463 4.40173,2.35574 18.75538,1.42768 52.70642,-3.40783 47.79552,-6.80733 62.92342,-6.23585 69.63492,2.63054 8.38747,11.08044 9.46801,28.99835 2.88457,47.83335 -6.79627,19.44394 -10.07356,47.71404 -11.2369,96.93004 l -0.83097,35.15493 4.27253,8.45071 4.27252,8.4507 h -23.50723 -23.50725 l -0.88842,-6.69719 c -0.55215,-4.16234 -0.009,-11.96681 1.43486,-20.61972 3.1993,-19.17235 2.957,-38.87803 -0.87295,-70.99572 -2.61525,-21.93117 -2.992,-28.93909 -1.90809,-35.49296 0.7428,-4.49143 0.88515,-8.16624 0.31633,-8.16624 -0.56884,0 -4.25113,1.28621 -8.18288,2.85825 -3.93176,1.57204 -18.21105,6.65459 -31.73176,11.29457 -23.27754,7.98825 -31.36469,12.15185 -34.67349,17.85132 -0.7619,1.31237 0.37735,3.57459 3.59218,7.13303 9.74759,10.78941 30.53819,44.11792 52.03331,83.41232 5.34359,9.76843 9.71562,18.13463 9.71562,18.59155 0,0.45693 -16.29238,0.83079 -36.20529,0.83079 H 408.94156 Z M 67.002129,127.79773 C 83.018147,119.75812 84.536047,103.24202 70.309862,91.806628 64.189128,86.886617 52.029399,83.664423 45.305826,85.180833 29.524455,88.740112 23.425145,111.10445 35.062122,122.74143 c 8.998277,8.99828 20.46941,10.81423 31.940007,5.0563 z" id="path14" />
  </g>
</svg>
