<?xml version="1.0" encoding="UTF-8" standalone="no"?>
<svg xmlns:dc="http://purl.org/dc/elements/1.1/" xmlns:cc="http://creativecommons.org/ns#" xmlns:rdf="http://www.w3.org/1999/02/22-rdf-syntax-ns#" xmlns:svg="http://www.w3.org/2000/svg" xmlns="http://www.w3.org/2000/svg" xmlns:sodipodi="http://sodipodi.sourceforge.net/DTD/sodipodi-0.dtd" xmlns:inkscape="http://www.inkscape.org/namespaces/inkscape" version="1.1" id="svg2" width="655.77466" height="649.0141" viewBox="0 0 655.77466 649.0141" sodipodi:docname="shaman-elemental.svg" inkscape:version="1.0.2 (e86c870879, 2021-01-15)">
  <metadata id="metadata8">
    <rdf:RDF>
      <cc:Work rdf:about="">
        <dc:format>image/svg+xml</dc:format>
        <dc:type rdf:resource="http://purl.org/dc/dcmitype/StillImage" />
        <dc:title></dc:title>
      </cc:Work>
    </rdf:RDF>
  </metadata>
  <defs id="defs6" />
  <sodipodi:namedview pagecolor="#ffffff" bordercolor="#666666" borderopacity="1" objecttolerance="10" gridtolerance="10" guidetolerance="10" inkscape:pageopacity="0" inkscape:pageshadow="2" inkscape:window-width="1920" inkscape:window-height="1025" id="namedview4" showgrid="false" inkscape:zoom="1.2079861" inkscape:cx="327.88733" inkscape:cy="324.50705" inkscape:window-x="0" inkscape:window-y="25" inkscape:window-maximized="1" inkscape:current-layer="g10" />
  <g inkscape:groupmode="layer" inkscape:label="Image" id="g10">
    <path style="fill:#000000;stroke-width:1.35211" d="m 0,566.11852 v -34.21951 l 14.190651,-12.42838 c 13.159384,-11.52517 16.841524,-14.00466 16.950669,-11.41428 0.0235,0.55775 1.500085,2.66948 3.281299,4.69272 2.824773,3.20861 4.820371,3.87097 15.61846,5.18388 6.808939,0.82789 12.746807,1.13833 13.195262,0.68988 0.448455,-0.44846 1.269365,-4.60656 1.824242,-9.24022 0.981096,-8.19292 0.892435,-8.54583 -3.220674,-12.81922 -3.219366,-3.34483 -5.38065,-4.39436 -9.049152,-4.39436 -4.212478,0 -5.556068,-0.92293 -10.665829,-7.32649 -5.665128,-7.09954 -5.978798,-7.28247 -10.126417,-5.90532 -2.354111,0.78165 -6.435432,3.47012 -9.069604,5.97438 -4.461007,4.241 -5.41129,4.5532 -13.8591549,4.5532 H 0 v -16.25882 c 0,-15.67762 0.110138,-16.30069 3.0811103,-17.43026 1.6946106,-0.64428 5.7839286,-5.04048 9.0873737,-9.76935 7.954886,-11.38734 24.046536,-30.01525 26.844379,-31.07539 1.224616,-0.46403 6.096683,-1.29215 10.826816,-1.84027 l 8.600242,-0.99657 -0.93218,-13.03297 c -1.381402,-19.31366 -0.966898,-18.53213 -13.051436,-24.60812 -5.859418,-2.94605 -10.653487,-5.6539 -10.653487,-6.01743 0,-0.36353 8.366197,-0.62555 18.591549,-0.58227 l 18.59155,0.0787 8.663025,10.82727 8.663025,10.82728 2.624685,-4.1454 c 1.443575,-2.27998 2.953828,-4.14541 3.356117,-4.14541 0.40229,0 6.883381,1.89895 14.402431,4.21989 l 13.671,4.21989 12.17816,-2.39336 c 11.49114,-2.25834 13.05482,-2.26703 27.7183,-0.15408 21.28951,3.06774 19.75567,3.45038 20.77017,-5.1815 0.55241,-4.70011 2.31125,-9.67456 4.81866,-13.62831 l 3.94871,-6.22648 -7.88806,-11.04774 c -6.29668,-8.81892 -8.22707,-12.78099 -9.56846,-19.63899 l -1.68039,-8.59125 -15.41898,-10.0109 c -8.48044,-5.50599 -15.11229,-10.50712 -14.73746,-11.11362 0.37485,-0.6065 3.2105,-1.93736 6.30144,-2.95748 3.09096,-1.0201 5.91453,-2.62247 6.27462,-3.56083 0.36008,-0.93836 -0.0661,-7.2524 -0.94721,-14.03123 -0.88105,-6.77882 -1.38912,-12.5379 -1.12907,-12.79797 0.26006,-0.26005 11.0345,9.48367 23.9432,21.6527 19.7636,18.63116 25.91893,25.44793 38.97419,43.16227 18.22109,24.72371 12.75192,22.79115 50.1781,17.73059 3.95924,-0.53534 5.52477,0.36535 13.74127,7.90562 l 9.27296,8.50979 11.27281,1.37984 c 10.3096,1.26194 13.52572,0.98949 37.63902,-3.18853 14.5014,-2.51262 28.04767,-4.91638 30.10281,-5.34172 2.81664,-0.58292 6.11412,-4.10333 13.39312,-14.2986 5.44381,-7.62482 11.77688,-14.85055 14.51691,-16.56311 2.67322,-1.67081 15.03053,-8.3446 27.46069,-14.83066 18.7228,-9.76957 23.05717,-11.54833 25.26322,-10.36769 3.91766,2.09665 5.82077,1.74019 5.02421,-0.94105 -0.38663,-1.3014 -1.12543,-4.13261 -1.64179,-6.29156 l -0.93881,-3.92538 8.98729,0.92078 8.98728,0.92077 v -5.23769 -5.23771 l 10.47887,-3.00895 c 5.76338,-1.65491 13.69148,-3.92675 17.618,-5.04853 7.11635,-2.03306 7.15797,-2.0771 13.04451,-13.7979 l 5.90539,-11.75833 7.91323,-2.05349 c 6.80057,-1.76475 7.97016,-2.53435 8.3181,-5.4733 0.37239,-3.14551 -0.84695,-3.99744 -15.20213,-10.62153 -14.11528,-6.5134 -16.14069,-7.90863 -21.19098,-14.59768 l -5.584,-7.39595 -13.69275,0.91856 c -10.58377,0.71 -14.06313,1.43762 -15.32401,3.20464 -5.92793,8.30751 -4.97788,7.97057 -10.53103,3.73498 -3.10628,-2.36928 -5.36434,-3.29513 -5.8998,-2.41904 -0.47712,0.78062 -2.69284,4.50052 -4.92383,8.26647 -2.23098,3.76596 -4.5226,6.85925 -5.09247,6.87402 -0.56986,0.0147 -8.45959,-3.07472 -17.53273,-6.86549 l -16.49659,-6.89231 -10.86163,3.01392 c -5.97391,1.65767 -11.87154,3.2947 -13.10587,3.63784 -1.78054,0.495 -2.56858,-0.93853 -3.81416,-6.93852 -1.73085,-8.33745 -2.21261,-8.57924 -10.95086,-5.4962 -3.22096,1.13641 -6.54178,1.80316 -7.37961,1.48166 -0.83783,-0.32151 -6.83151,-8.01175 -13.3193,-17.08942 l -11.79597,-16.50488 2.10418,-6.1754 c 1.1573,-3.39648 2.10417,-6.37124 2.10417,-6.6106 0,-0.23935 -2.9359,-0.43519 -6.52423,-0.43519 -5.67017,0 -7.54995,-0.79649 -14.35987,-6.0845 -4.3096,-3.34648 -8.26482,-6.08451 -8.78938,-6.08451 -0.52455,0 -2.38275,1.52113 -4.12934,3.38028 -4.0308,4.29058 -6.07892,4.25511 -10.18595,-0.17644 l -3.29626,-3.55673 -21.04159,7.61307 c -11.57287,4.18718 -21.55621,7.61306 -22.18519,7.61306 -1.02541,0 -24.41777,-44.56543 -24.41777,-46.51895 0,-0.44275 27.29733,-0.805 60.66072,-0.805 h 60.66073 l 22.83223,-10.95697 c 22.66073,-10.874664 22.86174,-10.940245 26.76048,-8.73113 3.84473,2.17852 4.04591,2.13261 9.46478,-2.159753 16.34049,-12.943524 12.23368,-11.627517 39.60341,-12.6907 l 24.60206,-0.955671 28.13034,-29.628401 C 523.0445,23.613811 520.39617,25.533906 557.44078,8.9452745 L 577.41674,0 h 35.79869 35.79867 v 12.845071 c 0,7.064789 -0.15405,12.84507 -0.34233,12.84507 -0.18828,0 -4.59955,1.258437 -9.80282,2.796528 -5.20327,1.53809 -18.24311,4.468581 -28.97744,6.512201 l -19.51693,3.715674 -2.11687,10.713323 -2.11685,10.713323 -11.26659,1.590365 c -6.19664,0.874702 -11.42907,1.793638 -11.62766,2.042082 -0.19858,0.248444 -3.43787,5.015097 -7.19839,10.592562 -3.76053,5.577465 -10.39288,13.570234 -14.73855,17.761711 -7.75903,7.483739 -8.06861,7.633251 -17.20461,8.30918 l -9.3034,0.68832 -16.38674,16.15782 c -14.32904,14.12886 -32.30698,28.76771 -38.0236,30.96138 -1.22357,0.46952 -3.34803,-1.89727 -6.13391,-6.83356 -2.34411,-4.15355 -4.67143,-7.55189 -5.17182,-7.55189 -0.50039,0 -3.85131,2.43072 -7.44648,5.40159 l -6.53668,5.4016 -3.87652,-2.76033 c -2.13208,-1.51817 -4.23303,-3.33717 -4.66876,-4.0422 -0.43575,-0.70505 -1.95648,-1.90497 -3.37942,-2.6665 -2.24947,-1.20389 -3.11283,-0.45478 -6.6145,5.7392 -2.21504,3.9181 -7.79429,10.8444 -12.39835,15.39177 l -8.37103,8.26797 1.69281,8.97147 1.69279,8.97149 10.32577,10e-4 c 8.65962,9e-4 11.70615,0.65409 18.88041,4.04808 l 8.55465,4.04701 2.26226,-5.38644 2.26226,-5.38644 21.24783,-0.0138 c 15.73953,-0.0108 24.85311,0.68624 35.15493,2.68638 7.6489,1.48508 15.17876,2.70198 16.73301,2.70422 1.55424,0.003 8.2472,-3.03676 14.87324,-6.75338 6.62603,-3.71661 12.44006,-6.75886 12.92006,-6.76056 1.21129,-0.004 22.78924,29.05563 22.78924,30.69121 0,0.72964 -3.04225,2.98244 -6.76056,5.00618 -3.71831,2.02377 -6.76057,3.911 -6.76057,4.19388 0,1.32257 7.32505,20.45139 8.34082,21.78145 0.63292,0.82874 5.67566,2.23674 11.20608,3.12889 l 10.05531,1.6221 9.60567,14.11165 c 14.58456,21.42614 33.80901,55.12504 32.32218,56.65816 -0.80634,0.83145 -8.08863,-5.49657 -19.95429,-17.33952 l -18.68454,-18.64879 -13.67841,-2.10947 -13.67839,-2.10946 -6.85919,4.40154 c -5.52059,3.54254 -8.34141,6.88533 -14.45431,17.12895 -8.09225,13.56045 -8.77804,14.21175 -25.46037,24.17994 -8.66817,5.17949 -12.36129,6.58721 -18.59155,7.08657 -4.7689,0.38225 -7.77464,1.24639 -7.77464,2.23518 0,0.88661 1.82213,7.00262 4.04918,13.59111 2.22707,6.58851 3.78735,12.24096 3.46729,12.56101 -0.32004,0.32004 -4.82269,-0.17598 -10.00589,-1.10226 -5.18319,-0.92629 -10.2821,-1.35488 -11.33091,-0.95241 -1.04879,0.40247 -2.73141,4.16868 -3.73914,8.36939 -1.00774,4.2007 -2.32052,7.93941 -2.91732,8.30826 -0.59678,0.36883 -5.75033,-1.48488 -11.45231,-4.11936 -5.70198,-2.63443 -10.91082,-4.78992 -11.57521,-4.78992 -0.66437,0 -4.94431,3.99417 -9.51096,8.87593 -7.00575,7.48917 -8.81881,8.74647 -11.60443,8.04733 -1.81578,-0.45574 -4.95741,-1.1598 -6.98139,-1.5646 l -3.67996,-0.73599 -3.79061,23.07253 c -2.08482,12.68989 -4.2269,22.80288 -4.76014,22.47332 -0.53325,-0.32957 -3.92374,-5.45038 -7.53442,-11.37959 -4.64417,-7.62632 -7.02213,-10.40089 -8.12771,-9.48334 -3.54828,2.94481 -8.39655,17.13092 -9.20978,26.94793 l -0.84006,10.14085 10.93641,14.69959 10.9364,14.69959 -6.28047,26.53985 c -3.45424,14.59692 -9.91368,42.35956 -14.35427,61.69478 -4.44061,19.33521 -8.3582,35.76338 -8.70577,36.50704 -0.76225,1.63093 0.43013,-70.38558 1.62866,-98.3662 l 0.85428,-19.94366 h -3.4429 c -2.98276,0 -4.81485,-2.33804 -13.7086,-17.49431 l -10.2657,-17.4943 -9.31707,-0.91808 c -5.12438,-0.50495 -9.98106,-1.32847 -10.79263,-1.83003 -0.81158,-0.50158 -1.97293,-3.32024 -2.5808,-6.26368 l -1.10523,-5.35172 -10.76308,-2.15974 c -5.91968,-1.18786 -16.20526,-4.38222 -22.85681,-7.09859 -6.65155,-2.71637 -12.84099,-4.93885 -13.75429,-4.93885 -0.91331,0 -2.36338,2.12958 -3.2224,4.73239 -0.85901,2.60282 -2.149,4.7324 -2.86666,4.7324 -0.71765,0 -8.93682,-2.48295 -18.26479,-5.51768 -9.32798,-3.0347 -17.15431,-5.31639 -17.39185,-5.07042 -0.23752,0.24599 4.34783,15.02964 10.1897,32.85257 5.84186,17.82293 10.32983,32.69706 9.97325,33.05364 -0.35658,0.35656 -5.17691,-3.85005 -10.71184,-9.34804 l -10.06353,-9.99636 -8.1347,3.88803 c -4.4741,2.13842 -8.35699,3.62744 -8.62865,3.30893 -0.27165,-0.31851 -2.17679,-3.49467 -4.23364,-7.05811 l -3.73971,-6.47898 -16.8208,0.93458 -16.82079,0.93458 -5.90592,-5.79623 -5.90592,-5.79622 -5.95594,3.49041 -5.95593,3.49041 -7.3248,-4.40703 c -4.02864,-2.42387 -10.23927,-6.11263 -13.8014,-8.19727 l -6.4766,-3.79024 0.90143,8.79846 0.90142,8.79845 -6.93187,0.82651 c -3.81253,0.45456 -9.97412,1.18781 -13.69243,1.62943 -3.71831,0.44161 -6.753977,0.89795 -6.745928,1.01408 0.0081,0.11615 0.955508,3.2534 2.105462,6.97171 1.149954,3.71831 3.485575,12.85427 5.190266,20.30212 3.05746,13.35817 3.30362,13.83088 18.17623,34.90658 8.29223,11.75076 15.07679,21.88351 15.07679,22.51722 0,0.6337 -4.10704,2.50016 -9.12676,4.14767 -5.01972,1.64752 -9.52213,3.21647 -10.00536,3.48658 -0.48322,0.27012 0.86291,6.09323 2.9914,12.94026 2.1285,6.84705 3.71247,12.6067 3.51994,12.79922 -0.19252,0.19253 -3.50009,-0.48092 -7.35015,-1.49654 -3.85006,-1.01563 -10.06611,-2.26828 -13.81346,-2.78368 -6.462863,-0.88886 -7.326209,-0.61741 -16.782908,5.27668 -5.483253,3.41757 -10.343128,6.21375 -10.799721,6.21375 -0.456593,0 -0.830168,-3.04225 -0.830168,-6.76056 0,-5.56432 -0.418686,-6.74798 -2.366197,-6.68943 -3.941314,0.11845 -21.97626,3.53893 -22.752498,4.31516 -0.398804,0.39881 1.245453,3.52075 3.653906,6.93765 2.408453,3.4169 4.116264,6.42274 3.795137,6.67963 -1.543284,1.2346 -51.7649982,25.26403 -52.8020355,25.26403 C 0.53562848,600.33804 0,584.93926 0,566.11852 Z" id="path14" />
  </g>
</svg>
