<?xml version="1.0" encoding="UTF-8" standalone="no"?>
<svg xmlns:dc="http://purl.org/dc/elements/1.1/" xmlns:cc="http://creativecommons.org/ns#" xmlns:rdf="http://www.w3.org/1999/02/22-rdf-syntax-ns#" xmlns:svg="http://www.w3.org/2000/svg" xmlns="http://www.w3.org/2000/svg" xmlns:sodipodi="http://sodipodi.sourceforge.net/DTD/sodipodi-0.dtd" xmlns:inkscape="http://www.inkscape.org/namespaces/inkscape" version="1.1" id="svg2" width="655.77466" height="649.0141" viewBox="0 0 655.77466 649.0141" sodipodi:docname="shaman-restoration.svg" inkscape:version="1.0.2 (e86c870879, 2021-01-15)">
  <metadata id="metadata8">
    <rdf:RDF>
      <cc:Work rdf:about="">
        <dc:format>image/svg+xml</dc:format>
        <dc:type rdf:resource="http://purl.org/dc/dcmitype/StillImage" />
        <dc:title></dc:title>
      </cc:Work>
    </rdf:RDF>
  </metadata>
  <defs id="defs6" />
  <sodipodi:namedview pagecolor="#ffffff" bordercolor="#666666" borderopacity="1" objecttolerance="10" gridtolerance="10" guidetolerance="10" inkscape:pageopacity="0" inkscape:pageshadow="2" inkscape:window-width="1920" inkscape:window-height="1025" id="namedview4" showgrid="false" inkscape:zoom="1.2079861" inkscape:cx="327.88733" inkscape:cy="324.50705" inkscape:window-x="0" inkscape:window-y="25" inkscape:window-maximized="1" inkscape:current-layer="g10" />
  <g inkscape:groupmode="layer" inkscape:label="Image" id="g10">
    <path style="fill:#000000;stroke-width:1.35211" d="m 104.11268,647.86375 c 0,-0.63268 0.68096,-3.10376 1.51325,-5.49127 1.02643,-2.9444 2.14948,-4.09679 3.49087,-3.58206 1.08769,0.4174 2.71661,0.75889 3.61982,0.75889 0.90322,0 4.96049,2.114 9.01618,4.69778 l 7.37396,4.6978 -12.50704,0.0346 c -6.87887,0.019 -12.50704,-0.48305 -12.50704,-1.11574 z M 126.42254,640.729 C 80.250183,615.06701 37.574575,576.85043 7.6104245,534.33115 L 0,523.53192 0.33132571,379.06174 0.66265141,234.59155 1.0140403,367.65059 l 0.351389,133.05904 15.2882977,15.0771 c 25.734595,25.37907 58.82292,48.61043 97.599793,68.52491 55.4527,28.4786 119.4172,48.04089 181.18311,55.41128 19.54365,2.33211 74.57138,2.35073 91.2676,0.031 62.13888,-8.63381 107.38846,-31.93085 135.57335,-69.80081 21.72871,-29.19532 32.08863,-64.55919 32.08863,-109.53545 v -22.01787 l 3.49898,-0.66886 c 3.09699,-0.59204 3.80875,0.05 6.19537,5.58885 9.97168,23.14198 13.86378,44.00351 12.89764,69.13097 -0.76585,19.91804 -3.7632,32.87704 -11.68208,50.50719 -13.19954,29.38671 -42.44801,60.38207 -75.86891,80.40023 l -9.44279,5.65596 -169.33432,-0.009 -169.33432,-0.009 -14.87324,-8.26636 z m 456.13127,-2.36244 c 15.49272,-20.89503 27.6083,-49.21858 34.19657,-79.94401 2.68176,-12.50685 3.053,-18.22178 3.11808,-48 0.0579,-26.49381 -0.46893,-37.31115 -2.43647,-50.02817 -3.27499,-21.1678 -11.51956,-54.01066 -20.45011,-81.46479 -3.93097,-12.08451 -6.93614,-21.97183 -6.67813,-21.97183 0.96357,0 26.03629,30.76627 32.22711,39.5453 3.53828,5.01753 10.09091,15.36119 14.56139,22.98592 l 8.12817,13.86314 -0.84076,-9.08494 c -1.11922,-12.09401 -6.27546,-32.04806 -11.38276,-44.05004 -13.91739,-32.70538 -40.09563,-64.04657 -72.98999,-87.38525 -8.30802,-5.89458 -15.10549,-11.10224 -15.10549,-11.57256 0,-0.47033 0.79911,-1.948 1.77581,-3.28371 1.67271,-2.28756 2.39889,-2.11471 12.50704,2.97713 26.36274,13.27985 49.99786,29.44504 80.02701,54.73435 l 11.15493,9.39421 V 485.9643 626.84728 l -5.35982,11.08342 -5.3598,11.0834 H 607.15286 574.65913 Z M 257.79638,623.25854 c -69.63743,-15.8611 -127.99356,-36.24232 -127.99356,-44.70248 0,-0.56591 2.50313,-8.08244 5.56252,-16.70342 4.48307,-12.63275 5.9147,-15.3822 7.37739,-14.16829 0.99818,0.82842 2.36866,1.16396 3.04551,0.74564 0.67685,-0.41832 2.37674,0.53491 3.77753,2.11827 3.79838,4.29345 21.34655,15.47967 32.92117,20.98587 22.11515,10.52048 58.35279,21.60449 92.45585,28.27948 12.02179,2.35303 18.97586,4.33704 19.43988,5.54622 0.62693,1.63377 -4.61145,15.85022 -7.42403,20.14809 -2.07101,3.16464 -7.0929,2.77729 -29.16226,-2.24938 z m 49.1332,-26.54258 C 268.90363,592.81825 229.83125,581.95502 197.86984,566.39423 128.07684,532.4147 82.158598,474.26544 70.287812,404.82878 c -2.416461,-14.13477 -5.251704,-56.11031 -3.690099,-54.63159 0.392674,0.37183 3.286813,7.97747 6.431422,16.90141 12.367849,35.09817 29.466085,62.92603 55.677265,90.61634 24.38841,25.76467 55.62076,48.28156 91.01191,65.61483 24.10014,11.80335 41.47825,18.21483 67.67323,24.96735 47.81048,12.32456 101.05926,12.32702 139.20002,0.007 34.84957,-11.25745 64.77457,-34.1556 79.9871,-61.20494 4.74788,-8.44217 6.18799,-9.49274 9.84261,-7.18022 1.67688,1.06107 1.61578,2.76798 -0.44692,12.48634 -4.43291,20.88551 -17.02577,42.84261 -33.05459,57.6345 -25.97129,23.96709 -68.61923,41.22682 -114.07773,46.16756 -12.12727,1.31807 -50.90925,1.63702 -61.91245,0.50918 z m -1.36439,-65.3965 c -45.76037,-10.00615 -81.53891,-24.21344 -117.11996,-46.50712 -13.81908,-8.65849 -16.52687,-10.91067 -17.20709,-14.31181 -0.444,-2.21998 -0.11453,-5.55673 0.73214,-7.41499 0.84668,-1.85825 1.28847,-3.57286 0.98175,-3.81023 -0.30671,-0.23737 -4.51259,-3.42563 -9.34639,-7.08503 -12.28045,-9.29681 -37.87113,-34.33502 -48.27473,-47.23252 C 88.559055,371.7683 70.238038,334.29721 62.070879,296.02759 c -3.612793,-16.9288 -4.859702,-49.37961 -2.634071,-68.55168 1.974538,-17.00909 8.930525,-45.39924 14.9442,-60.99322 2.330949,-6.04435 4.523101,-10.98973 4.87145,-10.98973 0.348349,0 16.684988,9.75579 36.303642,21.67953 l 35.67028,21.67954 0.95047,13.40649 0.95048,13.40649 6.92929,5.77194 c 30.08735,25.06208 42.89418,36.71507 41.37936,37.65129 -1.24897,0.7719 -1.52479,5.95832 -1.08834,20.46548 0.47267,15.71128 1.0886,20.45029 3.21706,24.7526 1.44787,2.92658 3.31686,5.53161 4.15332,5.78896 2.43227,0.74833 6.06144,-10.20698 6.8068,-20.54764 0.3774,-5.2357 1.03166,-10.43214 1.45392,-11.54763 0.42226,-1.1155 0.91519,-2.7135 1.0954,-3.55112 1.4381,-6.68439 2.10148,-7.26578 8.29033,-7.26578 6.01878,0 6.12189,-0.0734 5.22402,-3.71831 -0.50378,-2.04508 -3.64361,-8.11096 -6.97742,-13.47974 l -6.06145,-9.76145 8.94056,-19.13765 8.94058,-19.13766 -11.32992,-11.66428 c -19.18285,-19.74897 -29.50963,-36.74615 -38.17178,-62.82807 -6.25881,-18.84544 -7.97484,-32.38589 -7.03202,-55.486513 1.04922,-25.707059 7.0702,-50.638729 17.98893,-74.4883525 2.83888,-6.2009504 4.03825,-7.55620439 6.3891,-7.2195207 2.3631,0.33843923 3.07453,1.6738419 3.87725,7.2779792 3.01985,21.082609 20.89555,56.62242 44.74214,88.954686 l 6.84664,9.282961 5.1837,-10.302352 c 5.86947,-11.665295 12.01888,-17.089107 23.28239,-20.535201 8.42586,-2.57791 30.6196,-3.934455 37.97591,-2.321197 l 5.40846,1.186087 0.38846,11.622746 0.38847,11.622745 -8.56518,4.008132 c -15.18216,7.10459 -24.24992,17.68125 -21.40058,24.96169 0.66878,1.70881 3.55492,5.35051 6.41366,8.09267 11.52798,11.0579 33.19944,20.92885 61.81086,28.15371 29.53677,7.45853 48.4861,6.85748 55.74407,-1.76812 3.13093,-3.7209 3.46973,-5.11666 3.00367,-12.37421 -0.34988,-5.44828 -1.91536,-11.14681 -4.68749,-17.06304 l -4.16216,-8.88281 5.38311,-9.03268 c 2.9607,-4.96798 6.07173,-9.02464 6.91339,-9.01481 0.84165,0.01 6.09366,2.54781 11.67113,5.63994 21.27007,11.79208 34.14778,30.14388 34.36714,48.97598 0.0615,5.27536 -0.3973,12.1728 -1.01945,15.32766 l -1.13118,5.73609 4.51146,-0.75924 c 31.44994,-5.29269 51.25036,-10.92036 71.00595,-20.18128 20.80485,-9.75279 34.56542,-20.32592 45.30138,-34.80794 3.76908,-5.08421 7.15891,-8.93796 7.53297,-8.56391 1.18838,1.18838 -2.46894,26.1723 -5.91411,40.40045 -12.56835,51.90579 -42.77855,90.69083 -86.63296,111.22276 -19.98686,9.35753 -47.74673,15.45522 -70.40498,15.46506 l -12.52461,0.005 -2.72833,5.74648 c -1.50057,3.16056 -10.81491,24.60845 -20.69855,47.66197 l -17.97022,41.91549 4.39574,0.41399 c 9.44496,0.88951 23.95326,-10.37714 36.66185,-28.47032 4.46304,-6.35401 8.30277,-10.47888 9.75452,-10.47888 3.13011,0 52.38958,5.20399 57.20559,6.04346 3.40556,0.59362 4.13031,-0.11939 8.77399,-8.63266 5.04583,-9.25044 5.08318,-9.28229 11.8371,-10.09407 3.72641,-0.44789 23.42066,-0.81964 43.76502,-0.8261 31.61222,-0.009 36.88131,0.2708 36.2439,1.93184 -0.41021,1.06898 -1.4413,4.5264 -2.29132,7.68315 -2.86039,10.6227 -13.57958,36.92397 -20.09306,49.30161 -23.92016,45.45577 -58.00885,78.4789 -103.00489,99.78506 -32.68715,15.47777 -63.13267,22.28387 -105.76569,23.64396 l -26.7664,0.8539 -5.44099,12.37411 c -3.19517,7.26657 -6.38339,12.62056 -7.72416,12.97117 -1.25574,0.32839 -9.88381,-1.06492 -19.17349,-3.09625 z M 368.45071,154.285 c -19.80545,-5.77959 -38.49443,-19.12017 -38.5263,-27.50087 -0.005,-1.28846 6.71369,-21.36733 14.93018,-44.619724 8.2165,-23.252394 18.10383,-51.247805 21.97183,-62.212022 L 373.85916,0.017441 411.28056,0.00872049 448.70194,0 443.47266,15.887324 c -2.8761,8.738029 -14.10861,43.095743 -24.96114,76.350476 -15.32319,46.95393 -20.39283,60.92611 -22.69015,62.53522 -3.96127,2.77458 -16.98619,2.54235 -27.37066,-0.48802 z M 1.3521127,144.83369 c 0,-5.29233 0.248983,-9.62242 0.5532956,-9.62242 0.3043126,0 11.1043127,-2.72127 23.9999997,-6.04726 52.395729,-13.51365 79.845532,-18.28422 110.773932,-19.25168 l 23.77794,-0.74379 1.57417,7.83842 c 2.66984,13.29408 5.03838,12.01949 -25.8061,13.88713 -41.136748,2.49084 -69.46304,6.96982 -109.859152,17.37104 -10.411268,2.6807 -20.2985923,5.17032 -21.9718317,5.53248 -2.9316229,0.63454 -3.0422536,0.30857 -3.0422536,-8.96392 z" id="path14" />
  </g>
</svg>
