<?xml version="1.0" encoding="UTF-8" standalone="no"?>
<svg xmlns:dc="http://purl.org/dc/elements/1.1/" xmlns:cc="http://creativecommons.org/ns#" xmlns:rdf="http://www.w3.org/1999/02/22-rdf-syntax-ns#" xmlns:svg="http://www.w3.org/2000/svg" xmlns="http://www.w3.org/2000/svg" xmlns:sodipodi="http://sodipodi.sourceforge.net/DTD/sodipodi-0.dtd" xmlns:inkscape="http://www.inkscape.org/namespaces/inkscape" version="1.1" id="svg2" width="653.07043" height="649.0141" viewBox="0 0 653.07043 649.0141" sodipodi:docname="shaman-enhance.svg" inkscape:version="1.0.2 (e86c870879, 2021-01-15)">
  <metadata id="metadata8">
    <rdf:RDF>
      <cc:Work rdf:about="">
        <dc:format>image/svg+xml</dc:format>
        <dc:type rdf:resource="http://purl.org/dc/dcmitype/StillImage" />
        <dc:title></dc:title>
      </cc:Work>
    </rdf:RDF>
  </metadata>
  <defs id="defs6" />
  <sodipodi:namedview pagecolor="#ffffff" bordercolor="#666666" borderopacity="1" objecttolerance="10" gridtolerance="10" guidetolerance="10" inkscape:pageopacity="0" inkscape:pageshadow="2" inkscape:window-width="1920" inkscape:window-height="1025" id="namedview4" showgrid="false" inkscape:zoom="1.2079861" inkscape:cx="326.53522" inkscape:cy="324.50705" inkscape:window-x="0" inkscape:window-y="25" inkscape:window-maximized="1" inkscape:current-layer="g10" />
  <g inkscape:groupmode="layer" inkscape:label="Image" id="g10">
    <path style="fill:#000000;stroke-width:1.35211" d="m 1.3521127,636.90972 v -12.10439 l 8.1699712,-9.19139 8.1699711,-9.19139 -8.1699711,-1.13214 c -7.848771,-1.08762 -8.1699712,-1.28595 -8.1699712,-5.04466 0,-3.04572 0.7488945,-4.10049 3.3802817,-4.76093 4.3215457,-1.08463 4.3215457,-2.73005 0,-3.81469 -2.6697747,-0.67008 -3.3802817,-1.70451 -3.3802817,-4.92142 0,-2.24015 0.7605634,-4.29366 1.6901409,-4.56335 0.9295774,-0.26968 3.8197183,-1.04847 6.4225352,-1.73062 l 4.7323942,-1.24029 -6.422535,-4.57173 c -7.85674866,-5.59263 -8.8903634,-10.18329 -2.0281691,-9.00784 2.4169015,0.414 8.3639551,1.14633 13.2156761,1.6274 l 8.821311,0.87467 -0.417373,-10.60369 -0.417373,-10.60367 6.469302,7.09908 c 3.558116,3.90449 6.92564,7.09886 7.483387,7.09859 0.557746,-2.7e-4 1.014084,-2.4061 1.014084,-5.34629 v -5.34582 l 12.107738,-3.63366 12.107739,-3.63367 20.680994,-24.7761 20.680996,-24.77611 1.35211,-12.79062 1.35211,-12.79062 16.22536,-19.63115 16.22535,-19.63115 14.19718,-5.01235 c 12.66627,-4.47185 15.08936,-5.87851 22.47087,-13.04478 5.53832,-5.37681 8.80819,-9.81637 9.89038,-13.4284 1.11679,-3.72751 2.20714,-5.16941 3.52628,-4.6632 2.26228,0.86812 104.32767,77.51558 105.2858,79.06587 0.36175,0.58532 -2.716,3.10889 -6.83943,5.60794 -6.90742,4.18633 -7.91657,4.43181 -12.82904,3.1206 l -5.33188,-1.42317 -6.19881,8.05583 c -6.69691,8.70313 -8.4397,13.84319 -8.6122,25.40031 -0.10587,7.08957 -0.7246,8.35156 -13.25883,27.04225 l -13.14784,19.60563 -16.64701,1.35212 -16.64701,1.35211 -6.6096,8.37773 c -3.63527,4.60774 -12.91623,16.56583 -20.62435,26.57353 -13.58489,17.63768 -14.04204,18.45672 -14.9038,26.70155 -0.96243,9.20812 -1.99246,10.61367 -7.06703,9.64361 -2.55248,-0.48794 -3.13093,-0.16039 -2.52146,1.42783 0.64011,1.66811 -0.32281,2.02108 -5.05095,1.85149 -6.31536,-0.22652 -6.41904,-0.0398 -4.57654,8.24116 l 0.97774,4.39437 H 69.741236 1.3521127 Z M 441.8465,622.36608 l -0.66908,-26.64802 -5.56162,-4.7886 c -3.05889,-2.63373 -18.6107,-15.13226 -34.55958,-27.77452 l -28.99798,-22.98591 -0.45165,-14.17109 -0.45166,-14.17109 -29.07042,-22.74648 C 326.09578,476.56981 301.45352,457.32815 287.32395,446.32114 273.19437,435.31412 246.78866,414.66259 228.6446,400.42883 l -32.98922,-25.87956 -7.11376,6.07749 c -3.91257,3.34261 -7.63854,6.07747 -8.27994,6.07747 -0.64139,0 -18.16907,-10.20962 -38.95038,-22.68805 l -37.7842,-22.68806 0.41567,-12.02684 0.41568,-12.02684 -3.8412,2.49946 c -2.112654,1.3747 -19.629768,13.02193 -38.926916,25.88269 -19.297148,12.86079 -35.264739,23.20422 -35.483535,22.98543 -0.218798,-0.2188 -1.075035,-27.98792 -1.902751,-61.70918 L 22.699108,245.6215 45.467617,183.03827 68.236125,120.45504 88.340986,97.072591 C 99.398659,84.212244 122.74324,57.109861 140.21782,36.845071 L 171.9898,0 h 92.94546 92.94546 l 22.86246,17.104237 c 12.57435,9.407329 23.09504,17.29624 23.37929,17.530914 0.51214,0.422811 8.58178,33.731712 12.90121,53.252175 1.73926,7.860072 3.03284,10.718391 5.75159,12.708744 3.33408,2.44082 3.68257,2.4535 7.04225,0.25617 12.61833,-8.252757 20.21652,-10.060986 52.21065,-12.425187 33.92492,-2.506874 64.89204,17.679387 77.17259,50.305807 4.42193,11.748 7.04538,24.52917 7.53376,36.70376 0.21628,5.39155 0.82169,9.80282 1.34534,9.80282 0.52366,0 2.80711,-1.56089 5.07434,-3.46864 2.67663,-2.25223 4.77542,-3.08203 5.98478,-2.3662 1.0244,0.60634 17.46598,13.57569 36.53685,28.82076 l 34.67431,27.71831 0.008,132.08921 c 0.005,86.59226 0.47376,132.37706 1.36015,132.92488 0.75745,0.46814 1.35211,6.86074 1.35211,14.53541 0,11.27984 -0.29855,13.29522 -1.69014,11.40954 -1.51968,-2.05925 -2.98561,-1.24587 -14.53521,8.06475 -71.34283,57.51258 -121.91105,97.82299 -122.72583,97.83079 -0.54587,0.005 -5.55586,3.65165 -11.13333,8.10317 l -10.14084,8.09368 -25.16475,0.009 -25.16484,0.01 z m -7.14227,-178.07339 c 11.17447,-3.8296 17.4742,-7.11192 24.15395,-12.58482 2.31322,-1.89528 4.89906,-2.88345 6.42254,-2.45434 1.40265,0.39508 3.81782,1.07961 5.36705,1.52121 2.55465,0.72818 2.7809,0.30604 2.43128,-4.53616 -0.33237,-4.60351 0.40239,-6.2509 5.33349,-11.95783 11.59344,-13.41748 17.60689,-31.27957 15.83095,-47.02349 -1.99118,-17.65204 -10.68367,-34.48817 -26.53912,-51.40261 -9.73957,-10.39007 -10.23511,-11.22148 -9.63777,-16.17039 l 0.62972,-5.21715 -5.49488,0.92834 c -4.8633,0.82166 -6.6032,0.28107 -15.13759,-4.70328 -44.63835,-26.07021 -89.43245,-24.54228 -125.74156,4.28907 -3.99418,3.17158 -5.57223,3.63652 -9.93813,2.92804 -6.35253,-1.03088 -7.57431,0.4792 -7.60289,9.3969 -0.0141,4.40408 -1.26371,8.92401 -3.92501,14.19718 -13.65312,27.05257 -10.5446,50.95424 10.17826,78.26172 4.04048,5.32429 10.11833,11.95202 13.50637,14.72826 5.12039,4.19577 6.06724,5.6802 5.61007,8.79514 -0.51712,3.52334 -0.18258,3.80252 5.59451,4.66885 3.37949,0.50678 7.79105,2.09387 9.80351,3.52686 6.69497,4.76724 20.83266,10.67228 33.70227,14.07678 11.4718,3.03472 14.77801,3.31961 33.67833,2.90192 18.60087,-0.41106 22.1742,-0.88004 31.77465,-4.1702 z M 416.64109,424.5337 c -3.24179,-1.47099 -8.24328,-2.67454 -11.11446,-2.67454 -4.2325,0 -5.7878,-0.76755 -8.21929,-4.05633 -1.64945,-2.23099 -3.85808,-4.05634 -4.90809,-4.05634 -2.86842,0 -11.10347,-8.8081 -11.10347,-11.87611 0,-2.7383 3.28128,-4.29531 9.12676,-4.33079 2.454,-0.0149 3.04225,-0.77954 3.04225,-3.9546 0,-11.85493 -25.45845,-16.76221 -26.79554,-5.16501 -0.33108,2.87166 0.8323,4.97305 5.08324,9.18172 4.62716,4.58114 5.28572,5.88169 4.10009,8.09705 -0.77688,1.45161 -1.94165,2.63929 -2.58839,2.63929 -0.64673,0 -0.84944,2.4338 -0.45044,5.40845 0.70369,5.24647 0.60653,5.40845 -3.24424,5.40845 -4.86874,0 -15.2972,-6.41838 -18.96152,-11.67022 -1.48859,-2.13349 -5.01216,-8.30707 -7.83018,-13.71906 -5.56392,-10.68549 -11.28533,-16.52621 -16.18863,-16.52621 -2.0223,0 -3.37758,-0.9894 -3.85475,-2.8141 -0.58372,-2.23215 0.21354,-3.21081 3.85521,-4.7324 2.52511,-1.05506 5.37122,-1.95686 6.32468,-2.004 0.95347,-0.0472 0.21244,-0.69245 -1.64671,-1.43403 -1.85916,-0.74158 -6.31331,-1.19282 -9.89811,-1.00276 -7.73806,0.41024 -9.7583,-1.6147 -6.97697,-6.9932 1.02136,-1.9751 1.51356,-4.90446 1.09379,-6.50969 -0.41978,-1.60523 -0.008,-3.82804 0.91403,-4.93957 1.37102,-1.65197 1.27673,-2.02096 -0.51648,-2.02096 -3.13302,0 -2.74747,-1.4163 1.93053,-7.09152 3.24445,-3.93608 6.08783,-5.58821 13.32887,-7.74468 5.06254,-1.50771 10.20381,-2.74126 11.42504,-2.74126 3.28877,0 2.69471,-2.44636 -0.71592,-2.94822 -1.61499,-0.23763 -3.17257,-1.14988 -3.4613,-2.02721 -0.684,-2.07851 10.07185,-3.72013 16.07576,-2.45357 7.55577,1.59394 2.73031,-1.51554 -6.97389,-4.49391 l -8.78873,-2.69738 16.39338,-0.12642 c 11.4005,-0.0879 18.14417,0.49123 22.14183,1.90169 7.6711,2.70652 7.45871,2.78219 9.28331,-3.30774 0.87928,-2.93476 3.18721,-6.58547 5.12877,-8.11268 3.8,-2.98909 8.57384,-3.70829 8.57384,-1.29169 0,0.8168 6.73928,7.93378 14.97617,15.8155 8.2369,7.88173 15.84253,16.00576 16.90141,18.0534 2.60516,5.03784 2.42497,12.0069 -0.41529,16.06194 -1.69738,2.42335 -2.35659,6.12854 -2.399,13.48395 -0.041,7.0965 -0.78862,11.49878 -2.48978,14.65896 -2.25928,4.19697 -2.28002,4.89469 -0.29319,9.86028 1.17597,2.93905 2.83825,11.50068 3.69395,19.02585 1.53381,13.48853 1.51237,13.71732 -1.51395,16.16789 -3.81392,3.08833 -4.73337,3.06939 -12.04459,-0.24817 z" id="path14" />
  </g>
</svg>
