<?xml version="1.0" encoding="UTF-8" standalone="no"?>
<svg xmlns:dc="http://purl.org/dc/elements/1.1/" xmlns:cc="http://creativecommons.org/ns#" xmlns:rdf="http://www.w3.org/1999/02/22-rdf-syntax-ns#" xmlns:svg="http://www.w3.org/2000/svg" xmlns="http://www.w3.org/2000/svg" xmlns:sodipodi="http://sodipodi.sourceforge.net/DTD/sodipodi-0.dtd" xmlns:inkscape="http://www.inkscape.org/namespaces/inkscape" version="1.1" id="svg2" width="647.66199" height="649.0141" viewBox="0 0 647.66199 649.0141" sodipodi:docname="warlock-demonology.svg" inkscape:version="1.0.2 (e86c870879, 2021-01-15)">
  <metadata id="metadata8">
    <rdf:RDF>
      <cc:Work rdf:about="">
        <dc:format>image/svg+xml</dc:format>
        <dc:type rdf:resource="http://purl.org/dc/dcmitype/StillImage" />
        <dc:title></dc:title>
      </cc:Work>
    </rdf:RDF>
  </metadata>
  <defs id="defs6" />
  <sodipodi:namedview pagecolor="#ffffff" bordercolor="#666666" borderopacity="1" objecttolerance="10" gridtolerance="10" guidetolerance="10" inkscape:pageopacity="0" inkscape:pageshadow="2" inkscape:window-width="1920" inkscape:window-height="1025" id="namedview4" showgrid="false" inkscape:zoom="1.2079861" inkscape:cx="323.83099" inkscape:cy="324.50705" inkscape:window-x="0" inkscape:window-y="25" inkscape:window-maximized="1" inkscape:current-layer="g10" />
  <g inkscape:groupmode="layer" inkscape:label="Image" id="g10">
    <path style="fill:#000000;stroke-width:1.35211" d="m 439.83994,604.51784 0.98826,-44.49627 -4.01672,-8.58354 c -3.97927,-8.5035 -13.98352,-22.03786 -20.5168,-27.75639 -4.11458,-3.60147 -30.23706,-12.58304 -36.59716,-12.58304 -10.33502,0 -47.80718,30.4571 -109.26041,88.80609 -23.96934,22.75856 -25.38742,23.51626 -38.80073,20.73166 -4.19813,-0.87153 -16.15498,-5.79544 -26.57076,-10.94203 -17.8385,-8.81426 -19.08917,-9.69095 -21.54594,-15.10334 -2.73124,-6.01702 -3.32274,-18.07792 -1.53502,-31.29922 0.88449,-6.54136 0.97693,-6.64737 7.43415,-8.52543 4.28237,-1.24551 6.30827,-2.50172 5.87124,-3.64061 -1.67242,-4.35822 -3.90862,-28.82853 -3.27403,-35.82689 0.73561,-8.1125 4.67294,-17.50474 9.60841,-22.92024 4.50455,-4.94269 9.56919,-6.97013 17.41168,-6.97013 8.45946,0 20.87533,-2.98664 29.31741,-7.05231 7.34999,-3.53972 16.32959,-12.28904 16.32959,-15.91082 0,-3.79256 -8.89345,-7.95529 -33.12676,-15.50557 -37.28751,-11.61754 -37.59397,-11.85417 -38.29927,-29.5731 l -0.44013,-11.05679 21.39788,-8.70293 c 11.76881,-4.78661 24.76865,-10.30064 28.88849,-12.2534 12.69767,-6.01852 11.92232,-6.07186 15.01861,1.03327 3.16075,7.25307 34.89673,88.04297 41.71219,106.18625 2.45799,6.54335 4.93594,11.41096 5.50656,10.81691 0.57062,-0.59405 4.6247,-9.29418 9.00909,-19.33362 4.38438,-10.03944 13.71285,-31.13315 20.72994,-46.87491 12.52306,-28.09363 12.86346,-28.67258 18.45914,-31.39685 l 5.70079,-2.77547 2.84064,6.38277 c 1.56236,3.51052 4.03818,9.1208 5.50184,12.46727 1.64548,3.76222 4.72497,7.5499 8.06839,9.9239 2.97397,2.11168 23.18349,17.35045 44.91005,33.86394 21.72656,16.51348 40.21234,30.45771 41.07952,30.98718 0.9944,0.60713 6.97053,-5.9069 16.18205,-17.63857 24.36382,-31.0295 76.0156,-96.67383 121.26095,-154.11078 23.56172,-29.91053 42.83948,-54.66377 42.83948,-55.0072 0,-0.34344 -7.88689,-5.93245 -17.52643,-12.42004 -11.51124,-7.74728 -17.1959,-12.35564 -16.56338,-13.4274 10.12335,-17.15314 29.79001,-46.62173 31.11428,-46.62173 0.96675,0 3.55284,0.9283 5.7469,2.06289 l 3.98919,2.06289 V 425.27417 649.0141 H 543.76741 438.85168 Z M 415.6098,443.12081 373.86042,413.07043 367.65807,398.53607 c -6.89397,-16.155 -5.96905,-15.63198 -17.64003,-9.97503 -5.81206,2.81712 -6.30684,3.61026 -24.33803,39.01374 -10.12294,19.87597 -18.75768,36.15203 -19.1883,36.16901 -1.02765,0.0406 -3.97211,-6.53706 -19.96024,-44.58885 -32.40498,-77.12391 -37.35105,-88.65692 -38.68617,-90.20661 -3.98087,-4.62058 -4.79625,-5.7675 -4.7991,-6.7504 -0.001,-0.58915 5.44597,-0.87659 12.10595,-0.6388 14.78063,0.52776 25.06707,-1.82623 39.9535,-9.1431 12.66672,-6.22586 26.1591,-16.97984 35.72468,-28.47405 10.80391,-12.98222 10.77331,-12.61062 1.3856,-16.82357 -10.79456,-4.84431 -29.65125,-6.84804 -44.85509,-4.76635 -32.08466,4.39301 -49.90401,20.83981 -57.08739,52.6902 -3.48471,15.45085 -2.74157,50.11829 1.36559,63.70581 0.52823,1.74753 -3.55263,3.70898 -20.39527,9.80281 -11.5806,4.18998 -21.59369,7.61814 -22.25132,7.61814 -0.65763,0 -3.67994,-7.75774 -6.71624,-17.23943 l -5.52053,-17.23944 -23.97995,-26.43764 C 139.58676,320.7118 116.86253,295.4611 102.27744,279.13983 87.692355,262.81856 58.943058,230.69163 38.390116,207.74666 L 1.0211311,166.02853 V 83.014263 0 H 59.223168 117.4252 l 47.60078,33.408095 c 26.18043,18.374454 51.01478,35.773061 55.18743,38.663573 l 7.58662,5.255475 7.62464,-2.403454 7.62464,-2.403454 v -5.648866 c 0,-3.106876 0.37668,-8.397063 0.83706,-11.755972 l 0.83708,-6.107106 17.48682,-3.025327 c 9.61774,-1.66393 17.65354,-2.80347 17.8573,-2.532314 0.20376,0.271157 3.29158,9.011323 6.86181,19.422591 3.57023,10.411268 6.93868,19.423733 7.48544,20.027702 0.54677,0.603968 5.56631,-1.677722 11.15456,-5.070423 9.84958,-5.979835 13.14579,-7.262411 13.24686,-5.154462 0.0268,0.557747 1.43321,2.705624 3.12548,4.773059 l 3.07684,3.758976 18.62608,-8.829398 18.62608,-8.829398 14.41747,0.06267 c 7.9296,0.03447 35.40901,0.869272 61.06535,1.855127 25.65634,0.985855 46.93102,1.536497 47.27706,1.22365 0.34605,-0.312848 0.77817,-11.643431 0.96026,-25.179072 0.1821,-13.535648 0.70797,-28.413081 1.16859,-33.0609686 L 487.99695,0 h 80.34308 80.34309 l -0.0519,94.309861 -0.0519,94.309859 -5.71062,-6.4777 c -5.11997,-5.8077 -7.027,-6.89039 -18.43789,-10.46791 -7,-2.19461 -12.82999,-3.84303 -12.95552,-3.66314 -0.12561,0.17988 -1.62777,3.76649 -3.33827,7.97022 l -3.11002,7.64314 8.38982,10.26743 c 5.26005,6.43723 8.01009,10.89976 7.37189,11.96248 -0.55986,0.93228 -8.81122,10.32269 -18.33635,20.86757 -9.5252,10.54489 -17.3185,19.5285 -17.3185,19.96358 0,0.43507 7.63459,5.73105 16.96573,11.76883 9.44013,6.10829 16.78726,11.75062 16.56338,12.72007 -0.43746,1.89435 -159.51924,201.9173 -160.6277,201.96675 -0.37183,0.0166 -19.46327,-13.4925 -42.42543,-30.02023 z" id="path14" />
  </g>
</svg>
