<?xml version="1.0" encoding="UTF-8" standalone="no"?>
<svg xmlns:dc="http://purl.org/dc/elements/1.1/" xmlns:cc="http://creativecommons.org/ns#" xmlns:rdf="http://www.w3.org/1999/02/22-rdf-syntax-ns#" xmlns:svg="http://www.w3.org/2000/svg" xmlns="http://www.w3.org/2000/svg" xmlns:sodipodi="http://sodipodi.sourceforge.net/DTD/sodipodi-0.dtd" xmlns:inkscape="http://www.inkscape.org/namespaces/inkscape" version="1.1" id="svg2" width="649.0141" height="649.0141" viewBox="0 0 649.0141 649.0141" sodipodi:docname="warlock-affliction.svg" inkscape:version="1.0.2 (e86c870879, 2021-01-15)">
  <metadata id="metadata8">
    <rdf:RDF>
      <cc:Work rdf:about="">
        <dc:format>image/svg+xml</dc:format>
        <dc:type rdf:resource="http://purl.org/dc/dcmitype/StillImage" />
        <dc:title></dc:title>
      </cc:Work>
    </rdf:RDF>
  </metadata>
  <defs id="defs6" />
  <sodipodi:namedview pagecolor="#ffffff" bordercolor="#666666" borderopacity="1" objecttolerance="10" gridtolerance="10" guidetolerance="10" inkscape:pageopacity="0" inkscape:pageshadow="2" inkscape:window-width="1920" inkscape:window-height="1025" id="namedview4" showgrid="false" inkscape:zoom="1.2079861" inkscape:cx="324.50705" inkscape:cy="324.50705" inkscape:window-x="0" inkscape:window-y="25" inkscape:window-maximized="1" inkscape:current-layer="g10" />
  <g inkscape:groupmode="layer" inkscape:label="Image" id="g10">
    <path style="fill:#000000;stroke-width:1.35211" d="M 482.2407,641.66996 C 452.15043,607.63073 409.85617,546.59459 364.4435,471.67324 342.74319,435.8723 340.0509,433.0647 316.94057,422.13587 c -20.99929,-9.93052 -40.30907,-20.70783 -58.05813,-32.4038 -20.31177,-13.38471 -25.46116,-15.0617 -48.45712,-15.78083 -20.64014,-0.64546 -25.46069,0.47016 -29.47142,6.82056 -2.21724,3.51066 -4.36761,45.34906 -2.83429,55.14497 0.86478,5.52474 1.45993,6.25648 7.37141,9.06288 3.53687,1.6791 10.37056,6.03547 15.18596,9.68083 10.02285,7.58749 28.12692,25.5696 28.12692,27.93745 0,5.46866 -10.01678,4.5044 -65.82088,-6.33624 -9.07158,-1.76227 -17.6601,-8.33524 -22.49251,-17.21399 l -3.75034,-6.89059 0.086,-48.3501 c 0.0971,-54.65327 -0.008,-54.03698 10.68902,-62.23788 7.14221,-5.47522 18.64183,-9.04952 42.08855,-13.08192 21.70647,-3.7331 29.92523,-6.95455 33.75065,-13.22903 1.50438,-2.4675 2.73752,-5.16425 2.74029,-5.9928 0.003,-0.82854 -2.88508,-2.58406 -6.41748,-3.90115 -3.53239,-1.31708 -13.41972,-5.92331 -21.97183,-10.23606 -16.47324,-8.30729 -24.50838,-11.09115 -28.06897,-9.72483 -2.34656,0.90047 -67.18416,43.78007 -70.77393,46.80553 -1.72273,1.45191 -2.31264,5.6471 -2.8782,20.46842 l -0.71136,18.6422 5.28965,6.90927 c 12.14703,15.8663 18.42386,36.13772 14.60775,47.1767 -1.08465,3.13741 -2.70589,5.7044 -3.60282,5.7044 -0.89694,0 -7.85516,-5.17183 -15.46273,-11.49296 -7.60756,-6.32113 -17.521594,-14.45951 -22.031182,-18.08529 -4.509589,-3.62579 -8.976979,-7.88494 -9.927536,-9.46479 -1.352157,-2.24732 -1.551542,-11.99453 -0.916168,-44.78795 0.872874,-45.05141 1.913836,-56.28791 5.682153,-61.33516 1.324411,-1.7739 6.354564,-5.3755 11.178118,-8.00355 4.823554,-2.62804 12.420805,-7.64863 16.882775,-11.15685 4.46197,-3.50821 15.35423,-11.07395 24.20501,-16.81272 35.22539,-22.83985 37.4082,-23.13857 66.73397,-9.1327 10.96384,5.2363 22.00252,10.18398 24.53039,10.99484 7.46163,2.39347 21.17774,1.83332 26.89436,-1.09833 6.82403,-3.49957 11.67803,-8.84885 10.21706,-11.25956 -1.57944,-2.60624 -38.81652,-44.70172 -47.116,-53.26335 -7.50919,-7.74637 -12.99725,-9.93897 -25.01409,-9.99363 -4.09014,-0.0187 -13.52112,-0.91538 -20.95774,-1.99283 -22.61646,-3.27677 -23.26637,-3.16966 -35.37588,5.83042 -5.82777,4.33136 -11.45014,8.91778 -12.49414,10.19205 -1.40023,1.70907 -1.93229,7.00331 -2.02817,20.18116 -0.11699,16.07861 -0.46169,18.54006 -3.44843,24.62485 -4.05555,8.26227 -16.938172,20.95775 -21.266666,20.95775 -3.980904,0 -3.872128,0.67083 -6.525343,-40.24186 -2.470878,-38.10105 -2.392028,-38.80432 5.792304,-51.66196 5.708586,-8.96822 19.347835,-23.40121 25.922885,-27.4315 2.64205,-1.61947 7.43624,-4.9414 10.65376,-7.38206 4.43199,-3.36188 7.2179,-4.44078 11.49296,-4.45088 5.38446,-0.0127 94.03075,7.45736 106.03086,8.93506 7.88276,0.97068 12.55457,5.36292 19.1132,17.96942 11.04129,21.22278 25.17329,36.33751 59.65379,63.80208 10.7831,8.589 23.34194,19.08096 27.90854,23.31545 l 8.3029,7.69907 4.33743,-4.94005 c 6.13717,-6.98986 9.67761,-15.93198 10.491,-26.49724 0.85937,-11.16236 -1.5008,-20.41715 -6.29194,-24.67232 -19.34993,-17.18522 -32.69514,-31.49944 -44.10909,-47.31187 -2.57695,-3.57 -3.55047,-3.86132 -16.22535,-4.8554 -15.98198,-1.25345 -17.04388,-1.5973 -19.19644,-6.21608 -1.52113,-3.26389 -1.17173,-4.19819 4.28415,-11.45612 3.26719,-4.34633 6.34705,-9.75407 6.84411,-12.0172 1.03617,-4.71763 6.14733,-8.668622 9.73926,-7.52859 1.34328,0.42634 9.13083,1.68914 17.30565,2.80621 17.15491,2.34418 37.38313,6.94682 43.25767,9.84266 6.00935,2.9623 8.48002,5.48567 14.87716,15.19459 3.18495,4.8338 13.82803,18.21972 23.65127,29.74648 34.8585,40.90356 40.91434,50.86836 41.0855,67.60563 0.0776,7.58341 -0.79228,10.85726 -6.34253,23.87154 -9.53551,22.35899 -13.10239,37.9082 -13.10239,57.11774 0,24.63727 6.6173,43.66483 22.4281,64.49053 15.36654,20.24049 73.03654,65.20638 197.08317,153.66776 l 8.99578,6.41517 v 39.21863 c 0,21.57026 -0.34127,39.21864 -0.7584,39.21864 -1.01018,0 -48.25635,-38.15498 -91.86132,-74.18519 -65.90949,-54.46015 -113.89217,-96.80585 -133.48692,-117.80494 -10.27034,-11.0064 -11.87942,-12.22683 -15.06607,-11.42705 -8.35509,2.09701 -13.50687,13.87401 -9.87327,22.57042 1.6808,4.02272 44.06296,56.39057 135.41937,167.32563 14.78952,17.95908 39.07587,47.73184 41.63637,51.04226 1.03982,1.34436 -7.64747,1.6837 -42.46393,1.65869 l -43.77119,-0.0315 -6.84489,-7.7432 z m -229.43387,-0.684 c -9.85575,-5.96658 -20.56535,-23.752 -29.21825,-48.52272 -7.27133,-20.81572 -8.58697,-30.16175 -6.93928,-49.29539 0.79551,-9.23787 1.69611,-17.54272 2.00134,-18.45522 0.30523,-0.91251 1.2169,-4.24502 2.02594,-7.40559 0.80905,-3.16056 1.90387,-5.74315 2.43295,-5.73908 0.52908,0.004 0.99933,5.93645 1.04499,13.1831 0.18066,28.66947 18.07276,80.75601 33.20431,96.66256 7.5522,7.93903 9.75686,6.97494 19.05859,-8.3342 4.25564,-7.00408 8.30908,-13.30624 9.00764,-14.00481 1.46126,-1.46125 -8.10434,30.77286 -10.41097,35.08281 -2.5028,4.67654 -9.65126,9.91069 -13.52521,9.90327 -1.98801,-0.004 -5.89492,-1.38745 -8.68205,-3.07473 z m 11.152,-5.68894 c 0,-0.36185 -2.0718,-1.52357 -4.60401,-2.58159 -4.85759,-2.02963 -14.07923,-12.66457 -18.50657,-21.34289 -1.44899,-2.84025 -2.96206,-5.16409 -3.3624,-5.16409 -0.40032,0 1.25524,3.72065 3.67901,8.26812 5.94164,11.14767 15.33953,21.47836 19.53899,21.47836 1.79023,0 3.25498,-0.29606 3.25498,-0.65791 z m -149.57752,4.50124 c -5.17201,-5.70118 -6.37356,-9.74174 -6.98936,-23.50382 -1.6987,-37.96267 13.40966,-83.2214 36.56116,-109.52288 5.02476,-5.70843 8.93288,-8.01899 7.33697,-4.33776 -0.403,0.92958 -3.75546,8.3831 -7.44992,16.56338 -14.41697,31.92215 -23.45767,76.01106 -19.21394,93.70089 2.99104,12.46806 6.23302,12.52885 22.40132,0.42004 5.92066,-4.43411 10.99361,-7.83326 11.27321,-7.55364 0.95607,0.95605 -20.78811,28.08329 -25.69185,32.05221 -6.77523,5.48365 -14.40373,6.39667 -18.22759,2.18158 z m 11.75091,-6.59512 c 3.04898,-1.63177 3.46841,-4.00877 0.70736,-4.00877 -3.07113,0 -8.73048,-7.76556 -9.63653,-13.22291 -2.24422,-13.5174 -3.95051,-10.10467 -2.15973,4.31965 1.68806,13.59686 4.24535,16.57458 11.0889,12.91203 z M 7.0902411,627.1662 c -0.154477,-0.74366 -0.180629,-10.47887 -0.05811,-21.6338 0.386683,-35.20777 7.0598339,-63.58527 22.2570719,-94.64789 8.125466,-16.60818 13.032445,-22.91848 27.264985,-35.06234 9.364658,-7.99036 24.281269,-16.68076 25.882772,-15.07925 0.421706,0.4217 -2.383221,3.96622 -6.233172,7.87669 -19.461026,19.76699 -38.124768,53.92031 -51.458043,94.16458 -4.461975,13.46773 -10.594601,36.54964 -16.7463969,63.0299 -0.345529,1.48732 -0.754625,2.09577 -0.909102,1.35211 z M 588.46588,354.6858 c -47.68182,-6.63867 -91.41572,-25.25967 -108.61116,-46.24443 -6.1313,-7.48246 -6.31304,-8.95936 -0.57194,-4.64799 21.05712,15.81321 80.04959,32.08884 117.29577,32.36114 17.8731,0.13062 28.09021,-1.90381 33.16091,-6.60317 3.36655,-3.12003 3.50863,-3.77517 2.68677,-12.38899 l -0.86776,-9.09476 2.69627,3.35613 c 15.92747,19.82533 15.61006,33.44352 -0.95301,40.88839 -6.90187,3.10229 -30.59375,4.35658 -44.83585,2.37368 z m 37.07846,-8.02548 c 7.13369,-1.65451 12.18121,-5.63404 12.70357,-10.01565 l 0.42993,-3.60621 -4.89079,3.31899 c -8.64163,5.86436 -13.67132,6.86508 -34.50427,6.86508 -10.7831,0 -23.55686,-0.50334 -28.38615,-1.11853 -13.55617,-1.72691 -8.92574,0.13706 7.53796,3.03439 15.85079,2.78947 38.49087,3.52088 47.10975,1.52193 z m -64.48691,-6.28286 c -0.44929,-0.4493 -1.6155,-0.49732 -2.59155,-0.10669 -1.07862,0.43163 -0.75824,0.75202 0.8169,0.8169 1.42535,0.0587 2.22394,-0.26087 1.77465,-0.71016 z M 543.1701,228.18985 c -24.14928,-3.70971 -48.50263,-8.89806 -57.28991,-12.20529 -9.4581,-3.55971 -15.04812,-6.67623 -15.04812,-8.38956 0,-0.56648 7.18201,0.004 15.96,1.26747 30.32969,4.36594 48.37466,5.71011 76.65972,5.71034 37.42934,3.1e-4 54.85647,-3.4852 64.21439,-12.84311 5.3747,-5.37471 5.34254,-11.31982 -0.12331,-22.78886 -2.30366,-4.83381 -4.76981,-10.30986 -5.48033,-12.16902 -1.86508,-4.88016 18.43314,15.38596 22.82601,22.78996 11.56507,19.49234 -4.25941,34.32362 -41.9853,39.35013 -14.40779,1.91966 -44.93874,1.5506 -59.73315,-0.72206 z m 62.50705,-8.15042 c -0.44929,-0.4493 -1.6155,-0.49733 -2.59155,-0.10669 -1.07862,0.43163 -0.75824,0.75202 0.8169,0.8169 1.42535,0.0587 2.22394,-0.26087 1.77465,-0.71016 z m 21.60586,-4.82918 c 7.82815,-2.91106 13.91526,-9.06294 13.91526,-14.0633 0,-4.64101 -1.82927,-4.06103 -4.43663,1.40668 -2.70487,5.67217 -10.2467,10.8811 -20.82082,14.38037 -7.74352,2.56255 -7.77205,2.59051 -1.7848,1.74965 3.34648,-0.46998 9.25362,-2.03302 13.12699,-3.4734 z M 420.04988,140.51581 c -2.53755,-1.85551 -2.51294,-1.93969 0.75566,-2.58448 34.14405,-6.73561 52.01403,-11.90514 85.39245,-24.70282 63.54928,-24.365528 115.03163,-55.670245 125.59057,-76.367458 4.40684,-8.638122 3.62187,-11.728201 -5.02305,-19.773668 -4.2197,-3.927104 -7.41406,-7.3612409 -7.09859,-7.6314139 1.33823,-1.1460352 21.09177,4.8021559 25.17194,7.5797779 l 4.45361,3.031849 0.009,11.925398 c 0.008,10.942104 -0.31254,12.393077 -3.89323,17.597433 -5.51044,8.009148 -21.90366,23.238391 -34.63275,32.173684 -33.81823,23.739008 -80.38869,44.836008 -121.69014,55.127158 -21.29592,5.30632 -63.69166,7.53221 -69.03571,3.62454 z m 84.13496,-15.80054 c 20.0933,-6.43646 48.12905,-18.04485 65.35146,-27.059212 45.37656,-23.750501 80.60793,-56.362561 74.72063,-69.165442 -1.28093,-2.785566 -1.46365,-2.603714 -2.40526,2.393883 -1.6499,8.756874 -5.66681,15.228632 -15.27645,24.612329 -21.3871,20.884245 -62.13259,43.366583 -118.56005,65.418462 -22.41619,8.76026 -23.89487,10.22723 -3.83033,3.79998 z m -442.334058,7.53806 c -6.156188,-8.93851 -17.94877,-20.00116 -25.340845,-23.77232 -6.020613,-3.07149 -14.078108,-3.64125 -18.444785,-1.30428 -1.606416,0.85973 -6.261455,6.55294 -10.3445299,12.65159 -5.8142242,8.68436 -7.41937298,10.35818 -7.40348218,7.7202 0.031464,-5.2232 6.19171418,-23.82842 10.09492408,-30.488738 10.936211,-18.661234 33.523579,-10.471543 47.466803,17.210438 4.977131,9.88127 10.438713,24.14285 9.576056,25.0055 -0.250011,0.25002 -2.771875,-2.91006 -5.604141,-7.02239 z M 35.45178,98.42114 c 0,-0.409777 -2.105295,-1.624699 -4.678433,-2.699824 -3.827156,-1.599087 -5.358668,-1.64804 -8.416858,-0.269034 -3.644206,1.643255 -3.551855,1.705743 3.664349,2.479434 4.071526,0.436532 7.859111,0.89287 8.416858,1.014084 0.557746,0.121217 1.014084,-0.114875 1.014084,-0.52466 z M 141.85395,95.952777 C 126.12426,65.84759 72.152169,25.337209 38.502447,18.379197 27.606315,16.126118 24.980092,16.440082 13.479949,21.370613 10.359696,22.708379 10.451291,20.305926 13.802009,12.923342 18.242806,3.1389999 29.559715,-0.29874078 44.240513,3.6770282 66.819098,9.7916303 101.1972,30.857595 122.69414,51.751273 c 12.09542,11.755986 24.983,36.637373 24.983,48.233399 0,5.039898 -1.69728,3.864718 -5.82319,-4.031895 z m 103.1753,0.691115 c 0,-9.942987 -3.61439,-35.8805 -6.65857,-47.783153 -7.16035,-27.996665 -18.19449,-36.085326 -33.46321,-24.530463 -3.58936,2.716304 -10.17681,8.00723 -14.63878,11.757614 -13.38566,11.250936 -13.47773,11.31901 -12.1641,8.993792 2.65375,-4.697269 23.81613,-30.811018 28.59962,-35.2910852 8.24329,-7.720408 11.38789,-9.32863417 18.24046,-9.32863417 14.37159,0 22.79129,15.36665337 26.93337,49.15564837 2.77329,22.623144 -0.0884,51.576809 -5.26836,53.303459 -1.06625,0.35541 -1.58043,-1.68685 -1.58043,-6.277178 z M 236.08969,18.415609 C 231.39176,9.0176052 227.2658,6.2561592 221.36728,8.5621034 l -4.05634,1.5857676 5.19862,1.802351 c 5.76536,1.99884 10.81168,6.21521 14.11561,11.794085 3.87103,6.536452 3.48741,2.718902 -0.53548,-5.328698 z m 154.96773,74.314485 c 0,-0.683381 1.65255,-1.995466 3.67235,-2.915745 8.75374,-3.98847 32.9495,-18.57639 41.90929,-25.267617 23.79954,-17.773651 29.83983,-29.018671 20.56788,-38.290619 -2.28819,-2.288191 -4.63777,-4.160347 -5.22129,-4.160347 -1.68437,0 -24.69347,-10.995316 -24.14884,-11.539955 0.96519,-0.9651909 34.97467,4.592645 41.62994,6.803175 7.89298,2.621626 14.29767,8.442809 15.54689,14.130471 2.68604,12.229462 -18.3564,33.161304 -48.66044,48.404666 -11.55155,5.81059 -45.29578,15.373072 -45.29578,12.835971 z m 80.76032,-47.648412 c 3.59589,-4.112473 5.97485,-9.836184 5.26453,-12.666294 -0.60813,-2.422982 -6.99997,-7.615396 -9.37451,-7.615396 -0.3734,0 -0.0466,2.060071 0.7261,4.577936 1.91625,6.243721 0.41055,12.956705 -4.39367,19.588754 -2.21376,3.056006 -4.02502,5.985226 -4.02502,6.509378 0,0.929758 8.26705,-6.350925 11.80257,-10.394378 z" id="path14" />
  </g>
</svg>
