<?xml version="1.0" encoding="UTF-8" standalone="no"?>
<svg xmlns:dc="http://purl.org/dc/elements/1.1/" xmlns:cc="http://creativecommons.org/ns#" xmlns:rdf="http://www.w3.org/1999/02/22-rdf-syntax-ns#" xmlns:svg="http://www.w3.org/2000/svg" xmlns="http://www.w3.org/2000/svg" xmlns:sodipodi="http://sodipodi.sourceforge.net/DTD/sodipodi-0.dtd" xmlns:inkscape="http://www.inkscape.org/namespaces/inkscape" version="1.1" id="svg2" width="634.14087" height="649.0141" viewBox="0 0 634.14087 649.0141" sodipodi:docname="warlock-destruction.svg" inkscape:version="1.0.2 (e86c870879, 2021-01-15)">
  <metadata id="metadata8">
    <rdf:RDF>
      <cc:Work rdf:about="">
        <dc:format>image/svg+xml</dc:format>
        <dc:type rdf:resource="http://purl.org/dc/dcmitype/StillImage" />
        <dc:title></dc:title>
      </cc:Work>
    </rdf:RDF>
  </metadata>
  <defs id="defs6" />
  <sodipodi:namedview pagecolor="#ffffff" bordercolor="#666666" borderopacity="1" objecttolerance="10" gridtolerance="10" guidetolerance="10" inkscape:pageopacity="0" inkscape:pageshadow="2" inkscape:window-width="1920" inkscape:window-height="1025" id="namedview4" showgrid="false" inkscape:zoom="1.2079861" inkscape:cx="317.07043" inkscape:cy="324.50705" inkscape:window-x="0" inkscape:window-y="25" inkscape:window-maximized="1" inkscape:current-layer="g10" />
  <g inkscape:groupmode="layer" inkscape:label="Image" id="g10">
    <path style="fill:#000000;stroke-width:1.35211" d="m 306.92959,643.02784 c 0,-4.30374 -1.388,-8.57906 -4.93839,-15.21127 -2.71612,-5.07375 -6.5657,-12.26726 -8.55463,-15.98557 l -3.61622,-6.76056 -7.61045,-0.4037 -7.61045,-0.40372 -0.39832,-9.04263 -0.3983,-9.04265 -5.16225,-0.8346 c -7.09064,-1.14638 -9.6368,-4.04679 -9.2536,-10.54111 0.52201,-8.84717 -3.66285,-12.32889 -17.45537,-14.52249 -7.59172,-1.20741 -11.96064,-2.58332 -13.08653,-4.12135 -0.99411,-1.35803 -1.69014,-6.45547 -1.69014,-12.37808 0,-9.71248 -0.17964,-10.27283 -5.07042,-15.81609 -2.78874,-3.16078 -6.29709,-7.78791 -7.79637,-10.28253 -3.05431,-5.08207 -6.28347,-6.17476 -18.98117,-6.42292 -9.0274,-0.17641 -16.51169,-3.95441 -24.26472,-12.2486 l -4.05634,-4.33947 0.35538,-20.88998 c 0.36568,-21.49572 -0.76964,-27.50795 -5.54014,-29.33856 -1.08585,-0.41668 -2.60069,-4.42053 -3.52411,-9.31453 -1.49259,-7.91034 -2.03656,-8.82367 -6.93426,-11.64242 -2.92304,-1.68228 -5.30404,-3.49687 -5.29113,-4.03242 0.0135,-0.53554 2.73996,-6.14554 6.06009,-12.46666 15.17936,-28.89962 15.54266,-30.28198 14.52869,-55.28217 -0.57771,-14.24428 -0.27953,-18.55718 1.7008,-24.60076 3.29938,-10.06897 10.68235,-24.66557 22.32694,-44.14175 2.16247,-3.61686 4.98805,-4.24361 4.3148,-0.95708 -0.21851,1.06672 0.16687,1.9395 0.85639,1.9395 1.96537,0 2.7773,5.01151 1.08597,6.70284 -0.98606,0.98606 -1.05006,1.85989 -0.18163,2.48022 0.77282,0.55206 1.3408,8.69018 1.3408,19.21131 0,20.42797 1.15525,28.39436 4.11761,28.39436 1.0818,0 1.9669,0.99525 1.9669,2.21168 0,1.21643 4.65965,8.00499 10.35478,15.08571 17.70028,22.00665 19.23438,26.52311 19.48163,57.35463 0.0763,9.51041 0.6354,17.29165 1.24251,17.29165 2.60249,0 19.50182,-14.03503 35.00212,-29.06956 32.07705,-31.11316 52.53558,-63.8901 60.76525,-97.35298 5.01617,-20.39635 5.43325,-18.60632 -4.92128,-21.12129 l -9.0236,-2.19172 -4.89352,4.39459 c -2.69145,2.41701 -8.46433,5.73057 -12.82866,7.36348 -11.26982,4.21658 -11.56613,4.60101 -11.20586,14.53838 0.32505,8.96612 -0.92602,11.86587 -4.52379,10.48528 -5.06112,-1.94215 -11.4264,-24.65251 -9.78366,-34.90673 1.38567,-8.64957 9.32583,-24.04752 18.08309,-35.06761 8.26765,-10.40398 27.24526,-25.9353 33.65619,-27.54436 1.99743,-0.50132 7.12349,0.001 11.41945,1.12123 7.06721,1.84124 7.79385,1.83081 7.78187,-0.11169 -0.0189,-3.06606 -5.35909,-13.87405 -13.35765,-27.03448 -3.80096,-6.25396 -6.91083,-12.1429 -6.91083,-13.08657 0,-0.94368 -0.95614,-2.67192 -2.12476,-3.84052 -2.92462,-2.92462 -23.19873,-2.89069 -33.1228,0.0554 -9.94447,2.95219 -22.89329,9.62448 -22.89329,11.79648 0,2.84816 -4.13971,44.70816 -4.56816,46.19234 -0.21466,0.74366 -3.00063,-6.55775 -6.19102,-16.22536 -3.26803,-9.90286 -7.88262,-20.7629 -10.56899,-24.87322 -6.23502,-9.53998 -9.83977,-21.20622 -10.74768,-34.78321 -1.46146,-21.85506 -3.0598,-19.46431 31.2691,-46.77112 16.55897,-13.17177 31.8808,-24.657138 34.04853,-25.523032 2.16772,-0.865896 15.38434,-3.210827 29.37026,-5.21096 l 25.42894,-3.636603 34.88544,22.979115 34.88544,22.97912 3.0278,12.94108 c 4.24232,18.13202 7.94834,29.77809 11.117,34.93497 1.98937,3.23762 9.44751,8.39446 27.9419,19.32011 13.87552,8.19702 26.14088,15.3881 27.25638,15.98017 1.11549,0.59207 4.11251,5.24009 6.66006,10.32893 3.75951,7.50979 4.74721,11.24442 5.24415,19.82876 l 0.61225,10.57632 h 6.34143 c 14.97371,0 30.41994,8.2183 37.38725,19.89221 5.86887,9.83343 7.30415,18.89059 7.30415,46.09178 v 23.61749 l 8.48538,8.27911 c 13.22754,12.90602 18.17036,26.13475 13.31854,35.64513 -6.25784,12.26636 -16.97572,51.63197 -21.32482,78.32368 -2.04421,12.54592 -2.15685,18.54913 -0.97401,51.90887 1.26634,35.71445 1.49152,37.8862 4.23046,40.80168 1.59112,1.69366 4.29166,6.11405 6.00122,9.8231 2.69768,5.85282 3.10831,8.89512 3.10831,23.02906 0,13.48261 -0.41495,16.85676 -2.41109,19.60564 -1.32609,1.82616 -3.90565,5.37829 -5.73234,7.89363 -3.86448,5.32136 -5.52841,10.61579 -7.59261,24.15905 l -1.4941,9.80282 H 429.80749 306.92959 v -5.98627 z M 34.138346,379.34567 C 17.049905,375.20627 6.6560902,363.25293 6.5814838,347.65411 c -0.044116,-9.2238 2.6854744,-23.14706 4.5378722,-23.14706 0.673334,0 2.726001,1.78473 4.561482,3.96608 6.828465,8.11517 18.25767,8.59336 32.715322,1.36879 10.109435,-5.05175 13.49873,-8.52523 11.117848,-11.39401 -1.430519,-1.72367 -1.256611,-2.05354 1.082657,-2.05354 3.522596,0 5.005695,-7.53455 4.923762,-25.01408 -0.08268,-17.64006 -3.185362,-26.38191 -12.719588,-35.83767 -9.707132,-9.62724 -17.205271,-12.33127 -37.136763,-13.39248 L 0.67605636,241.35212 29.509183,227.87692 c 15.85822,-7.41136 29.060847,-13.84366 29.339168,-14.29399 0.278323,-0.45034 -3.350305,-3.3542 -8.063619,-6.45303 C 15.308381,183.80555 -1.951009,130.22061 11.760504,85.972031 l 2.478936,-7.999802 5.273814,10.704028 c 10.261868,20.828053 28.623057,34.768933 51.577892,39.160913 15.56692,2.97845 33.021534,2.21713 33.021534,-1.44029 0,-3.63166 -7.153336,-26.2261 -11.763938,-37.157441 C 77.581874,54.228481 54.255347,29.366566 25.639847,18.13966 c -5.885631,-2.309149 -8.884485,-4.116833 -7.798583,-4.700923 4.451497,-2.39439 27.983934,-3.916511 39.077447,-2.527601 28.613442,3.582408 62.757959,21.854825 85.532729,45.772798 8.65395,9.088331 9.65501,9.151103 13.59304,0.852349 4.40836,-9.289935 2.11133,-15.898915 -9.82115,-28.257432 l -7.63178,-7.904246 7.36034,0.968533 c 29.65463,3.902204 47.99135,22.856273 54.90684,56.755455 l 0.8275,4.056339 3.86216,-4.322298 c 7.70615,-8.62424 8.84181,-24.728812 3.28865,-46.6359 -1.89456,-7.474008 -3.20683,-13.82694 -2.91614,-14.11763 0.75399,-0.753994 14.90754,20.762492 19.10059,29.037078 12.18756,24.050995 13.04208,65.392838 2.21924,107.367968 -4.60352,17.8543 -14.03423,43.71764 -17.22771,47.24641 -2.80517,3.09966 -7.0453,3.48695 -4.49189,0.41029 0.95093,-1.14579 1.09154,-2.02817 0.32319,-2.02817 -2.5196,0 -2.54051,-6.02699 -0.0775,-22.32249 2.91855,-19.30917 4.80058,-61.33178 2.899,-64.72972 -1.10722,-1.97849 -2.49892,-0.77565 -9.1509,7.90911 -6.7861,8.85985 -8.14222,10.0144 -10.04621,8.55297 -1.21061,-0.92922 -7.00131,-5.95049 -12.8682,-11.15838 l -10.66711,-9.4689 0.99974,20.7318 0.99973,20.73181 -3.85377,-0.76888 c -9.96516,-1.98816 -21.0795,-3.68821 -21.48184,-3.28586 -0.24523,0.24523 0.41457,6.52008 1.46622,13.94411 1.05166,7.42403 1.92392,14.13473 1.93839,14.91265 0.0145,0.77794 -8.49203,5.00905 -18.90329,9.40248 -10.41127,4.39344 -18.92958,8.71607 -18.92958,9.60589 0,0.88979 2.4338,6.91082 5.40845,13.38003 2.97465,6.46921 5.40845,12.22217 5.40845,12.78433 0,0.56217 -4.87663,4.85574 -10.83695,9.54128 l -10.836941,8.51918 6.442581,3.61476 c 3.54342,1.98814 11.81024,6.51221 18.37073,10.0535 7.63117,4.11925 11.68548,7.07111 11.25452,8.19418 -0.3705,0.96551 -5.32263,9.1845 -11.00474,18.26444 -5.68211,9.07993 -10.1309,16.70916 -9.88621,16.95385 0.24469,0.2447 13.77698,-4.98357 30.07174,-11.61839 16.29479,-6.6348 29.82422,-11.86594 30.06541,-11.62473 1.04367,1.04366 -6.62407,20.66724 -12.58609,32.21081 -12.59456,24.38539 -28.72054,42.295 -51.1949,56.85735 -25.117323,16.27487 -53.607393,23.1568 -74.706724,18.04581 z" id="path14" />
  </g>
</svg>
