<?xml version="1.0" encoding="UTF-8" standalone="no"?>
<svg xmlns:dc="http://purl.org/dc/elements/1.1/" xmlns:cc="http://creativecommons.org/ns#" xmlns:rdf="http://www.w3.org/1999/02/22-rdf-syntax-ns#" xmlns:svg="http://www.w3.org/2000/svg" xmlns="http://www.w3.org/2000/svg" xmlns:sodipodi="http://sodipodi.sourceforge.net/DTD/sodipodi-0.dtd" xmlns:inkscape="http://www.inkscape.org/namespaces/inkscape" version="1.1" id="svg2" width="569.23944" height="649.0141" viewBox="0 0 569.23944 649.0141" sodipodi:docname="warrior-protection.svg" inkscape:version="1.0.2 (e86c870879, 2021-01-15)">
  <metadata id="metadata8">
    <rdf:RDF>
      <cc:Work rdf:about="">
        <dc:format>image/svg+xml</dc:format>
        <dc:type rdf:resource="http://purl.org/dc/dcmitype/StillImage" />
        <dc:title></dc:title>
      </cc:Work>
    </rdf:RDF>
  </metadata>
  <defs id="defs6" />
  <sodipodi:namedview pagecolor="#ffffff" bordercolor="#666666" borderopacity="1" objecttolerance="10" gridtolerance="10" guidetolerance="10" inkscape:pageopacity="0" inkscape:pageshadow="2" inkscape:window-width="1920" inkscape:window-height="1025" id="namedview4" showgrid="false" inkscape:zoom="1.2079861" inkscape:cx="284.61972" inkscape:cy="324.50705" inkscape:window-x="0" inkscape:window-y="25" inkscape:window-maximized="1" inkscape:current-layer="g10" />
  <g inkscape:groupmode="layer" inkscape:label="Image" id="g10">
    <path style="fill:#000000;stroke-width:1.35211" d="M 245.40845,642.79709 C 155.44879,596.87342 90.935448,513.39195 57.44069,399.56333 31.910662,312.80205 25.735898,203.89692 40.689061,104.11268 45.179328,74.148589 46.39693,71.650022 60.76099,62.924317 71.736818,56.256855 82.18075,52.574547 112.39624,44.718833 167.43341,30.409744 213.82138,22.242174 262.23637,18.336355 c 19.57238,-1.578976 26.54644,-1.578976 46.11881,0 48.41499,3.905819 94.80296,12.073389 149.84013,26.382478 30.2155,7.855714 40.65942,11.538022 51.63526,18.205484 14.36405,8.725705 15.58165,11.224272 20.07192,41.188363 14.95317,99.78424 8.77841,208.68937 -16.75163,295.45065 -33.5093,113.87805 -96.32505,195.26299 -187.71156,243.20166 l -11.9128,6.24911 -27.97453,-0.003 -27.9745,-0.003 -12.16902,-6.21219 z m 57.71907,-59.491 c 59.81154,-32.04612 101.85876,-73.83159 129.49147,-128.68534 24.2577,-48.15401 36.84927,-103.44049 40.71963,-178.78976 2.25435,-43.88818 -0.95923,-137.06249 -4.99972,-144.9615 -3.96503,-7.75152 -27.44743,-17.28141 -65.6951,-26.66115 -81.24574,-19.924438 -154.02358,-19.956299 -234.30577,-0.10257 -37.66818,9.31531 -60.56427,18.21192 -65.24173,25.35063 -2.91945,4.45565 -3.607123,12.60615 -5.790238,68.62811 -5.343777,137.12914 15.462658,230.23848 66.774338,298.81691 26.20067,35.01738 61.20061,64.2043 103.63791,86.42504 9.29578,4.86741 17.32006,8.86086 17.83174,8.87437 0.5117,0.0135 8.42156,-3.98914 17.57747,-8.89474 z m -23.46608,-39.62237 c -2.47858,-2.90073 -16.97975,-16.50328 -32.22482,-30.2279 -31.18663,-28.07628 -51.11774,-48.24319 -62.46331,-63.20229 -31.31004,-41.28223 -47.16274,-94.32304 -53.77033,-179.90764 -1.49497,-19.36355 -4.03892,-92.00769 -4.08005,-116.50835 l -0.0243,-14.50049 3.93339,-2.03403 c 4.73544,-2.44879 37.19868,-11.73425 56.98823,-16.30035 65.25765,-15.05707 129.29349,-15.05707 194.55114,0 19.78954,4.5661 52.25278,13.85156 56.98822,16.30035 l 3.93339,2.03403 -0.0243,14.50049 c -0.0411,24.50066 -2.58507,97.1448 -4.08004,116.50835 -6.6076,85.5846 -22.46029,138.62541 -53.77034,179.90764 -11.34557,14.9591 -31.27668,35.12601 -62.46331,63.20229 -15.24507,13.72462 -29.74623,27.32717 -32.22482,30.2279 -2.47857,2.90072 -5.01402,5.27404 -5.63433,5.27404 -0.62031,0 -3.15577,-2.37332 -5.63434,-5.27404 z" id="path14" />
  </g>
</svg>
