<?xml version="1.0" encoding="UTF-8" standalone="no"?>
<svg xmlns:dc="http://purl.org/dc/elements/1.1/" xmlns:cc="http://creativecommons.org/ns#" xmlns:rdf="http://www.w3.org/1999/02/22-rdf-syntax-ns#" xmlns:svg="http://www.w3.org/2000/svg" xmlns="http://www.w3.org/2000/svg" xmlns:sodipodi="http://sodipodi.sourceforge.net/DTD/sodipodi-0.dtd" xmlns:inkscape="http://www.inkscape.org/namespaces/inkscape" version="1.1" id="svg2" width="628.73236" height="649.0141" viewBox="0 0 628.73236 649.0141" sodipodi:docname="warrior-fury.svg" inkscape:version="1.0.2 (e86c870879, 2021-01-15)">
  <metadata id="metadata8">
    <rdf:RDF>
      <cc:Work rdf:about="">
        <dc:format>image/svg+xml</dc:format>
        <dc:type rdf:resource="http://purl.org/dc/dcmitype/StillImage" />
        <dc:title></dc:title>
      </cc:Work>
    </rdf:RDF>
  </metadata>
  <defs id="defs6" />
  <sodipodi:namedview pagecolor="#ffffff" bordercolor="#666666" borderopacity="1" objecttolerance="10" gridtolerance="10" guidetolerance="10" inkscape:pageopacity="0" inkscape:pageshadow="2" inkscape:window-width="1920" inkscape:window-height="1025" id="namedview4" showgrid="false" inkscape:zoom="1.2079861" inkscape:cx="314.36618" inkscape:cy="324.50705" inkscape:window-x="0" inkscape:window-y="25" inkscape:window-maximized="1" inkscape:current-layer="g10" />
  <g inkscape:groupmode="layer" inkscape:label="Image" id="g10">
    <path style="fill:#000000;stroke-width:1.35211" d="m 108.46258,544.21362 c -14.339941,-1.65371 -26.381779,-3.3159 -26.759636,-3.69376 -0.377857,-0.37786 0.859049,-12.09015 2.74868,-26.02732 1.889633,-13.93717 3.435695,-25.53594 3.435695,-25.77507 0,-0.23912 2.129577,-0.0892 4.732394,0.33319 4.295064,0.697 4.734101,0.47048 4.750857,-2.4512 0.04066,-7.08891 1.467698,-9.48263 5.22766,-8.76883 13.59572,2.58098 14.7998,2.52071 15.26635,-0.76418 0.40386,-2.84345 1.13686,-3.13575 7.88189,-3.14297 6.41116,-0.007 7.62067,-0.42748 8.77133,-3.05023 1.01037,-2.30296 2.46008,-3.04225 5.96566,-3.04225 3.63968,0 7.40594,-2.07829 17.59486,-9.70921 17.86577,-13.3804 37.79006,-29.65125 43.00361,-35.11821 l 4.34954,-4.56095 -2.05781,-7.88022 c -1.91878,-7.34782 -1.89291,-8.11166 0.38285,-11.3062 6.12763,-8.60147 7.15928,-10.8465 7.16594,-15.59423 0.004,-3.16224 0.64318,-5.06263 1.69726,-5.04972 3.21158,0.0394 5.58476,2.4977 6.08364,6.30198 1.12079,8.54692 7.96429,12.91533 15.6533,9.99198 10.87348,-4.1341 -6.40023,-25.77945 -20.57287,-25.77945 -3.75231,0 -4.10574,-0.43415 -4.95306,-6.08451 -0.61436,-4.09685 -1.57399,-6.0845 -2.93754,-6.0845 -1.59053,0 -1.83036,-1.03821 -1.11757,-4.8378 0.78235,-4.17024 0.51803,-4.93964 -1.9156,-5.57606 -3.32318,-0.86903 -2.85457,-3.37925 2.28281,-12.22838 2.93352,-5.05295 3.76338,-5.63796 6.926,-4.88229 7.42908,1.77507 35.52345,27.10314 50.69475,45.7031 4.21243,5.16441 7.65895,9.96971 7.65895,10.67844 0,0.78807 -4.90304,0.94395 -12.62273,0.40132 -12.29846,-0.8645 -12.6595,-0.80653 -14.05513,2.25652 -0.78782,1.72908 -1.87252,8.42728 -2.41044,14.88489 l -0.97802,11.7411 8.61062,0.0122 c 4.73585,0.007 11.805,0.39544 15.70922,0.86439 l 7.09859,0.85264 v -11.60149 c 0,-11.41413 1.60301,-16.10164 3.4507,-10.09058 0.51765,1.68404 1.97219,4.04753 3.23232,5.25221 1.26013,1.20468 4.68323,9.29559 7.60688,17.97979 4.52705,13.44681 5.687,15.69312 7.81802,15.1401 4.55605,-1.18231 8.99067,1.91524 8.99067,6.27994 0,5.50556 3.48456,12.30662 9.09972,17.76063 4.37461,4.24905 4.54687,4.70832 2.21615,5.90884 -1.38993,0.71591 -6.02573,1.6448 -10.30178,2.06417 -7.00793,0.68731 -7.77465,0.50879 -7.77465,-1.81022 0,-2.13746 -0.68628,-2.43548 -4.05634,-1.76146 -3.6829,0.73657 -4.05634,0.4845 -4.05634,-2.73803 0,-3.30516 -0.4185,-3.5493 -6.0845,-3.5493 -3.34648,0 -6.09656,-0.45634 -6.11129,-1.01408 -0.18046,-6.83223 -3.32874,-20.67829 -5.50097,-24.19303 -4.74534,-7.67855 -18.81028,-9.56568 -18.81028,-2.52425 0,3.70316 5.6812,10.98078 9.52418,12.2005 1.45465,0.46169 2.64484,2.01533 2.64484,3.45255 0,2.24985 -0.98679,2.61427 -7.09859,2.62143 -3.90423,0.004 -8.84139,0.91726 -10.97146,2.02817 -4.90347,2.55735 -9.1284,2.55582 -15.25847,-0.005 l -4.84731,-2.02534 -14.37687,11.68228 c -7.90729,6.42525 -20.89241,16.91974 -28.85585,23.32111 l -14.47897,11.63883 -0.0562,7.0986 -0.0562,7.09851 h -4.58773 c -4.84613,0 -6.22917,1.67567 -6.22917,7.5472 0,2.53811 -0.71674,3.2697 -3.20337,3.2697 -2.65126,0 -3.3478,0.87388 -4.04145,5.07042 -0.46095,2.78873 -0.84479,7.65634 -0.85297,10.8169 l -0.0149,5.74648 h -6.08451 c -5.85915,0 -6.08451,0.15023 -6.08451,4.05634 0,2.23098 -0.45634,3.96964 -1.01408,3.86369 -0.55775,-0.10601 -12.74677,-1.54568 -27.08671,-3.19938 z m 403.9881,-0.69811 c 0,-3.86605 -0.23672,-4.02254 -6.08451,-4.02254 h -6.08451 l -0.0149,-5.74648 c -0.008,-3.16056 -0.39202,-8.02817 -0.85297,-10.8169 -0.69366,-4.19654 -1.3902,-5.07042 -4.04146,-5.07042 -2.48663,0 -3.20337,-0.73159 -3.20337,-3.2697 0,-5.87153 -1.38304,-7.5472 -6.22917,-7.5472 h -4.58773 l -0.0562,-7.0986 -0.0562,-7.09859 -14.47896,-11.63884 c -7.96344,-6.40136 -20.94857,-16.89585 -28.85586,-23.3211 l -14.37686,-11.68228 -4.84731,2.02534 c -6.13007,2.56131 -10.35501,2.56284 -15.25847,0.005 -2.13008,-1.11091 -7.06724,-2.02358 -10.97146,-2.02817 -6.11181,-0.007 -7.09859,-0.37159 -7.09859,-2.62143 0,-1.43722 1.19018,-2.99086 2.64484,-3.45256 3.84297,-1.21971 9.52417,-8.49733 9.52417,-12.20049 0,-7.04144 -14.06493,-5.15431 -18.81028,2.52383 -2.17222,3.51473 -5.32051,17.3608 -5.50096,24.19303 -0.0147,0.55774 -2.76481,1.01408 -6.11129,1.01408 -5.666,0 -6.08451,0.24414 -6.08451,3.5493 0,3.22253 -0.37344,3.4746 -4.05634,2.73803 -3.38489,-0.67698 -4.05633,-0.37979 -4.05633,1.79545 0,2.33651 -0.73581,2.53055 -7.0986,1.87187 -15.58292,-1.61313 -23.83617,-5.96936 -28.13542,-14.85042 -3.53455,-7.30141 -3.09025,-14.83478 1.52544,-25.86479 2.66001,-6.35657 5.31421,-9.26146 5.31421,-5.81614 0,0.70534 1.53581,2.93961 3.41291,4.96504 1.87711,2.02542 3.76842,5.09903 4.20292,6.83022 0.91185,3.6331 2.19196,3.96456 4.51255,1.16843 2.39514,-2.88596 -1.55455,-13.81583 -7.50449,-20.76702 -8.59675,-10.04334 -17.04385,-8.81027 -29.11466,4.25003 l -6.28391,6.799 -1.67725,-10.03872 c -2.37454,-14.21222 -5.89785,-22.77076 -14.93757,-36.28531 -10.40763,-15.55956 -31.28318,-35.4942 -52.90273,-50.51827 -13.02016,-9.04809 -16.92219,-12.43409 -16.44259,-14.26811 0.83895,-3.20813 -7.74202,-15.77521 -17.81769,-26.09453 -22.27482,-22.8135 -49.1356,-35.1168 -76.62322,-35.09652 -20.44273,0.0151 -35.870916,4.54112 -53.143551,15.5903 -4.262889,2.72694 -8.051623,4.65715 -8.419409,4.28936 -0.367786,-0.36778 0.05883,-7.24781 0.948049,-15.28893 3.795515,-34.32277 10.62007,-58.47118 20.887476,-73.9095 11.977846,-18.01018 34.759045,-31.14601 68.367965,-39.42154 4.8338,-1.19024 9.8773,-2.48478 11.20777,-2.87677 2.03905,-0.60076 2.27582,-0.14214 1.50733,2.91978 -0.8929,3.55761 -0.58922,3.46227 14.7298,-4.6245 8.60283,-4.54128 15.97874,-8.25693 16.39091,-8.25693 0.4122,0 0.37061,4.48156 -0.0925,9.95902 -1.57198,18.59642 7.08873,35.04839 25.90506,49.20946 18.12167,13.6383 36.52395,21.75429 68.26704,30.10799 l 19.60563,5.15953 -20.95774,0.15472 -20.95775,0.15472 6.76057,2.44048 c 9.03619,3.26195 14.13253,5.89384 27.38028,14.13989 11.27081,7.01553 13.19303,9.01222 8.67606,9.01222 -5.60331,0 -3.76287,2.01726 4.92399,5.39708 5.06809,1.97185 12.63391,5.85471 16.81291,8.62857 6.18344,4.10434 7.55256,5.68719 7.35316,8.50111 -0.22012,3.10659 1.37779,4.31738 15.7352,11.92314 8.78911,4.65598 15.9795,8.97498 15.97865,9.59777 -8.6e-4,0.62278 -3.10824,2.14511 -6.90531,3.38294 -3.79707,1.23783 -7.24607,2.59291 -7.66444,3.01128 -0.84489,0.84489 3.54081,2.09346 22.49822,6.40506 12.89622,2.93306 28.39437,8.85083 28.39437,10.84203 0,0.58638 -2.58592,2.49263 -5.74648,4.23609 -5.04306,2.78191 -5.74648,3.74278 -5.74648,7.84958 0,4.09555 0.70643,5.06931 5.65967,7.80169 9.69057,5.34562 23.41075,5.46406 23.41075,0.20211 0,-0.62143 -4.42306,-2.52439 -9.82903,-4.22881 -5.40597,-1.70442 -9.9942,-3.70739 -10.19607,-4.45105 -0.54571,-2.01033 13.39156,-8.88173 19.74264,-9.7336 8.3751,-1.12334 14.15224,0.50259 20.21022,5.688 5.32952,4.56187 11.25353,13.21789 13.06432,19.08926 0.6764,2.19318 0.21732,3.04965 -1.93661,3.61291 -2.43362,0.63642 -2.69795,1.40582 -1.9156,5.57606 0.71279,3.79959 0.47297,4.8378 -1.11756,4.8378 -1.36356,0 -2.32319,1.98765 -2.93755,6.0845 -0.84732,5.65036 -1.20074,6.08451 -4.95306,6.08451 -14.17264,0 -31.44635,21.64535 -20.57287,25.77945 7.68901,2.92335 14.53251,-1.44506 15.6533,-9.99198 0.49888,-3.80428 2.87207,-6.26263 6.08364,-6.30198 1.05408,-0.0135 1.69282,1.88748 1.69726,5.04972 0.007,4.74773 1.03831,6.99276 7.16594,15.59423 2.27577,3.19454 2.30163,3.95838 0.38285,11.3062 l -2.05781,7.88022 4.34954,4.56095 c 5.21355,5.46696 25.13785,21.73781 43.00361,35.11821 10.18892,7.63092 13.95518,9.70921 17.59486,9.70921 3.50558,0 4.95529,0.73929 5.96566,3.04225 1.15066,2.62275 2.36017,3.04335 8.77133,3.05023 6.74503,0.007 7.47803,0.29952 7.88188,3.14297 0.46656,3.28489 1.67065,3.34516 15.26635,0.76418 3.75997,-0.7138 5.18702,1.67992 5.22768,8.76883 0.0168,2.92168 0.45578,3.1482 4.75085,2.4512 2.60281,-0.42237 4.73239,-0.57231 4.73239,-0.33319 0,0.23913 1.54606,11.8379 3.43569,25.77507 1.88963,13.93717 3.13012,25.6459 2.75661,26.0194 -0.37349,0.3735 -11.19844,1.79836 -24.05541,3.16635 -12.85698,1.368 -25.04956,2.79607 -27.09463,3.1735 -3.37689,0.62324 -3.71831,0.31689 -3.71831,-3.33628 z m -112.40345,-128.40516 8.61062,-0.0122 -0.97803,-11.7411 c -0.53791,-6.4576 -1.63481,-13.18258 -2.43754,-14.9444 -1.40911,-3.09266 -1.83623,-3.17491 -12.36499,-2.38136 -15.15641,1.14234 -17.39712,1.71761 -16.43686,4.21998 0.43945,1.14517 0.79899,7.59318 0.79899,14.32891 v 12.24676 l 7.09859,-0.85265 c 3.90422,-0.46895 10.97336,-0.85792 15.70922,-0.86439 z M 324.8026,357.29578 c 1.53871,-3.18699 2.61213,-3.71831 7.51214,-3.71831 10.35074,0 5.83831,-3.30901 -6.30189,-4.62125 l -7.2829,-0.7872 -8.95056,-14.05493 c -4.92279,-7.73021 -10.02529,-14.7274 -11.33887,-15.54929 -1.86944,-1.16971 -3.49381,-0.86088 -7.47677,1.42149 l -5.08846,2.91586 -5.36018,-8.32431 c -10.51162,-16.32441 -18.10718,-22.5215 -27.60385,-22.5215 -3.5102,0 -4.52488,-0.89286 -7.29869,-6.42253 -1.77193,-3.53239 -5.13375,-12.61852 -7.47071,-20.19141 -6.49199,-21.03728 -14.24168,-29.29347 -31.05805,-33.08798 -3.97432,-0.89678 -8.7068,-2.79527 -10.5166,-4.21887 -7.10312,-5.5873 -11.29623,-20.1025 -11.31758,-39.1778 -0.009,-8.8079 -0.12723,-9.12676 -3.35863,-9.12676 -2.17164,0 -5.8395,2.37597 -10.43648,6.76056 -10.63176,10.14055 -11.90523,9.51382 -11.90523,-5.85915 0,-6.94085 -0.36679,-12.98651 -0.81508,-13.43481 -1.82012,-1.82011 -8.37068,2.28675 -14.95525,9.37619 -3.83988,4.1343 -7.79481,7.24884 -8.78873,6.92122 -1.18234,-0.38973 -2.04088,-3.83137 -2.48319,-9.9545 l -0.67606,-9.35881 -2.85457,4.05634 c -8.25025,11.72356 -7.05895,21.95872 3.95897,34.01409 l 6.77022,7.4077 1.88197,-4.47589 c 1.9374,-4.60773 6.81998,-10.5797 8.64977,-10.5797 0.56847,0 1.43219,2.6581 1.91937,5.90691 0.48719,3.2488 1.89348,7.428 3.12511,9.28713 2.43952,3.68248 12.06075,14.55244 12.88065,14.55244 0.27915,0 0.81303,-2.89014 1.18639,-6.42254 0.37337,-3.53239 2.07523,-9.46478 3.78191,-13.18309 l 3.10307,-6.76057 1.54394,9.58411 c 0.84917,5.27126 2.37737,11.65999 3.39601,14.19719 3.18586,7.93524 10.81679,19.20191 17.99183,26.56398 l 6.89785,7.07768 3.8836,-4.71148 c 8.1501,-9.88749 13.44174,-5.33523 22.6706,19.5029 7.9152,21.30263 13.27181,29.87013 18.67551,29.87013 7.00953,0 15.28718,6.88203 24.53862,20.40141 8.15935,11.92346 15.46458,20.16197 17.87797,20.16197 0.57793,0 1.05078,-1.44662 1.05078,-3.21473 0,-1.76809 0.94077,-3.99549 2.09061,-4.94977 3.3865,-2.81054 8.76275,2.33809 12.79631,12.25447 3.25913,8.01254 9.40502,16.19172 12.16654,16.19172 0.65634,0 2.00121,-1.67324 2.98859,-3.71831 z m 110.57766,-45.50962 c -1.85916,-0.98765 -8.82275,-2.22155 -15.47466,-2.74199 -10.83634,-0.84786 -21.03238,-3.4649 -21.03238,-5.39845 0,-0.39468 2.42824,-3.92433 5.39609,-7.84363 3.57696,-4.72371 7.53888,-13.0067 11.75229,-24.56993 9.29522,-25.5097 14.82286,-30.4115 23.04538,-20.43617 l 3.88359,4.71148 6.89786,-7.07768 c 7.17504,-7.36207 14.80597,-18.62874 17.99183,-26.56398 1.01864,-2.5372 2.54684,-8.92593 3.39601,-14.19719 l 1.54394,-9.58411 3.10307,6.76057 c 1.70667,3.71831 3.40854,9.6507 3.78191,13.18309 0.37336,3.5324 0.90724,6.42254 1.18638,6.42254 0.81991,0 10.44114,-10.86996 12.88066,-14.55244 1.23163,-1.85913 2.63792,-6.03833 3.12511,-9.28713 0.48718,-3.24881 1.3509,-5.90691 1.91937,-5.90691 1.82978,0 6.71237,5.97197 8.64977,10.5797 l 1.88197,4.47589 6.77021,-7.4077 c 11.01794,-12.05537 12.20923,-22.29053 3.95898,-34.01409 l -2.85457,-4.05634 -0.67606,9.35881 c -0.44231,6.12313 -1.30085,9.56477 -2.48319,9.9545 -0.99393,0.32762 -4.94886,-2.78692 -8.78873,-6.92122 -6.58458,-7.08944 -13.13513,-11.1963 -14.95525,-9.37619 -0.44829,0.4483 -0.81508,6.49396 -0.81508,13.43481 0,15.37297 -1.27347,15.9997 -11.90523,5.85915 -4.59698,-4.38459 -8.26484,-6.76056 -10.43648,-6.76056 -3.23144,0 -3.34878,0.31886 -3.35864,9.12676 -0.0214,19.0753 -4.21445,33.5905 -11.31757,39.1778 -1.8098,1.4236 -6.54228,3.32209 -10.5166,4.21887 -16.81637,3.79451 -24.56606,12.0507 -31.05805,33.08798 -2.33697,7.57289 -5.69878,16.65902 -7.47071,20.19141 -2.83786,5.65733 -3.74255,6.42608 -7.5933,6.45223 -2.40437,0.0164 -6.88748,1.17213 -9.96246,2.56846 -6.53638,2.96809 -5.88369,3.23659 -22.1798,-9.12409 -6.20268,-4.70474 -13.58342,-9.73043 -16.40165,-11.16819 -2.85403,-1.45602 -6.10714,-4.55498 -7.34313,-6.9952 -1.2205,-2.40961 -3.14044,-5.43234 -4.26653,-6.7172 -1.88355,-2.14909 -1.53574,-2.55544 4.34485,-5.07614 3.51575,-1.50704 7.85275,-3.10661 9.63777,-3.55462 3.70126,-0.92896 3.08004,-3.23032 -0.87198,-3.23032 -4.66976,0 -2.83639,-1.93689 8.53051,-9.01222 13.24774,-8.24605 18.34408,-10.87794 27.38028,-14.13989 l 6.76056,-2.44048 -20.95775,-0.15472 -20.95774,-0.15472 19.60563,-5.15953 c 31.74309,-8.3537 50.14537,-16.46969 68.26704,-30.10799 18.81633,-14.16107 27.47704,-30.61304 25.90506,-49.20946 -0.46302,-5.47746 -0.50461,-9.95902 -0.0924,-9.95902 0.41218,0 7.78809,3.71565 16.39091,8.25701 15.31901,8.08677 15.6227,8.18211 14.72979,4.6245 -0.76849,-3.06192 -0.53172,-3.52054 1.50734,-2.91978 1.33046,0.39199 6.37396,1.68653 11.20777,2.87677 33.60892,8.27553 56.39011,21.41136 68.36796,39.42155 10.2674,15.43831 17.09196,39.58672 20.88748,73.90949 0.88921,8.04112 1.31583,14.92115 0.94804,15.28894 -0.36778,0.36778 -4.15651,-1.56243 -8.4194,-4.28937 -17.27264,-11.04918 -32.70083,-15.57521 -53.14355,-15.5903 -21.24448,-0.0157 -39.39804,6.16158 -59.06307,20.09784 -16.09256,11.40452 -35.83098,33.98767 -35.83098,40.99496 0,2.99865 -0.82319,3.09968 -5.40845,0.66384 z" id="path14" />
  </g>
</svg>
