<?xml version="1.0" encoding="UTF-8" standalone="no"?>
<svg xmlns:dc="http://purl.org/dc/elements/1.1/" xmlns:cc="http://creativecommons.org/ns#" xmlns:rdf="http://www.w3.org/1999/02/22-rdf-syntax-ns#" xmlns:svg="http://www.w3.org/2000/svg" xmlns="http://www.w3.org/2000/svg" xmlns:sodipodi="http://sodipodi.sourceforge.net/DTD/sodipodi-0.dtd" xmlns:inkscape="http://www.inkscape.org/namespaces/inkscape" version="1.1" id="svg2" width="657.12677" height="649.0141" viewBox="0 0 657.12677 649.0141" sodipodi:docname="warrior-arms.svg" inkscape:version="1.0.2 (e86c870879, 2021-01-15)">
  <metadata id="metadata8">
    <rdf:RDF>
      <cc:Work rdf:about="">
        <dc:format>image/svg+xml</dc:format>
        <dc:type rdf:resource="http://purl.org/dc/dcmitype/StillImage" />
        <dc:title></dc:title>
      </cc:Work>
    </rdf:RDF>
  </metadata>
  <defs id="defs6" />
  <sodipodi:namedview pagecolor="#ffffff" bordercolor="#666666" borderopacity="1" objecttolerance="10" gridtolerance="10" guidetolerance="10" inkscape:pageopacity="0" inkscape:pageshadow="2" inkscape:window-width="1920" inkscape:window-height="1025" id="namedview4" showgrid="false" inkscape:zoom="1.2079861" inkscape:cx="328.56339" inkscape:cy="324.50705" inkscape:window-x="0" inkscape:window-y="25" inkscape:window-maximized="1" inkscape:current-layer="g10" />
  <g inkscape:groupmode="layer" inkscape:label="Image" id="g10">
    <path style="fill:#000000;stroke-width:1.35211" d="m 233.9155,648.30329 c 0,-0.39095 9.12676,-11.3075 20.28169,-24.25901 11.15493,-12.95149 20.28169,-24.06578 20.28169,-24.69839 0,-1.16666 -11.88722,-8.38517 -22.98592,-13.9582 -10.4503,-5.24744 -21.82577,-8.13762 -35.2736,-8.96202 -24.27819,-1.48832 -39.84444,4.39074 -78.97992,29.82911 -25.63276,16.6615 -46.235408,26.86574 -63.549298,31.47518 -11.782322,3.1368 -16.253572,3.61312 -34.768902,3.70401 -12.323793,0.0604 -21.793329,-0.45535 -22.546725,-1.22821 -0.834573,-0.85613 -0.170978,-3.99111 1.856206,-8.76913 10.356723,-24.41054 11.372759,-65.64847 2.590502,-105.14096 -1.862194,-8.37399 -3.106679,-15.6754 -2.765524,-16.22535 0.341157,-0.54993 14.66621,-7.05947 31.833452,-14.46563 17.167242,-7.40616 30.76233,-13.84841 30.211304,-14.31609 -0.551023,-0.46769 -14.692003,-3.11783 -31.424398,-5.88918 C 31.943662,472.62806 16.966491,470.05027 15.393454,469.67099 11.866316,468.82057 6.6495001,452.86596 2.654045,430.71001 -0.80509044,411.52812 -1.0999715,360.94059 2.1120914,337.73663 9.1153908,287.14478 20.828398,247.55296 40.627252,207.5493 46.516175,195.65071 52.81192,184.09015 54.617796,181.85916 l 3.283412,-4.05634 3.162073,2.91063 c 3.720799,3.42493 53.935069,36.03318 54.495699,35.38855 0.21048,-0.24202 -7.80266,-9.56678 -17.806968,-20.72171 C 87.747702,184.22536 76.81836,171.92785 73.464587,168.05248 l -6.097773,-7.0461 6.525469,-8.5032 C 103.50917,113.91012 172.58246,47.363489 224.25241,7.6431534 L 234.19496,0 h 36.19275 36.19274 l -1.41986,6.4225354 c -0.78093,3.5323944 -1.46294,21.0253526 -1.51557,38.8732406 -0.0849,28.790855 0.25751,34.204383 3.03623,48.000001 6.20262,30.794253 12.48411,49.122943 26.18141,76.394363 24.53191,48.84325 65.30536,94.5258 115.82438,129.76954 l 11.27858,7.8683 -0.86429,6.22335 c -1.42499,10.26061 -8.00088,22.04936 -16.8901,30.27921 -4.39694,4.07078 -15.79461,12.14399 -25.32818,17.94045 -32.63578,19.84276 -38.3144,25.42955 -38.2618,37.64316 0.0287,6.66962 4.07274,18.38868 6.34557,18.38868 0.60446,0 2.61167,-2.51758 4.46047,-5.59464 2.59698,-4.32229 5.28333,-6.47785 11.81215,-9.47824 l 8.45071,-3.88362 v -8.60971 c 0,-5.26881 0.65584,-9.1318 1.69014,-9.95515 0.92958,-0.73998 22.37746,-4.17075 47.66197,-7.62392 25.28451,-3.45317 49.18464,-6.7892 53.11142,-7.41341 3.92678,-0.62421 7.4268,-0.67019 7.77785,-0.10222 0.86279,1.39601 16.85721,101.91536 16.85721,105.94167 0,2.71824 -1.34507,3.66002 -9.12676,6.39027 l -9.12676,3.20218 -0.70636,7.02193 c -0.4954,4.92469 -1.69632,8.07567 -4.02091,10.55009 -2.79053,2.97037 -2.9995,3.72739 -1.32181,4.78836 3.3902,2.14393 13.33713,1.43236 18.77794,-1.34334 9.75377,-4.97601 16.44215,-16.2054 22.31207,-37.46069 1.8152,-6.57289 4.88025,-17.731 6.81123,-24.79579 6.3706,-23.30786 13.28422,-33.94558 23.37315,-35.96337 3.17085,-0.63417 5.61339,0.38264 12.62083,5.25395 10.76405,7.48275 19.5298,11.97594 37.75949,19.35498 l 14.19719,5.74675 0.36251,31.87859 0.3625,31.8786 -17.2614,-12.84939 c -9.49378,-7.06717 -17.56677,-12.83706 -17.93998,-12.82197 -0.37321,0.0152 -3.56404,5.5037 -7.09073,12.1969 -19.11253,36.27308 -40.01024,57.21051 -60.11052,60.22473 -8.52794,1.27885 -19.47329,-2.66162 -27.54086,-9.91507 -3.66786,-3.29769 -6.66885,-5.44129 -6.66885,-4.76352 0,0.67778 2.34653,5.14543 5.21451,9.92812 13.86452,23.12074 38.67396,24.47734 68.65149,3.75389 13.28383,-9.18311 22.87099,-19.88177 28.58866,-31.90316 2.56437,-5.39155 4.9157,-9.80282 5.22519,-9.80282 0.3095,0 6.9349,5.31439 14.72313,11.80976 l 14.1604,11.80976 v 61.88039 61.88038 l -125.40845,-0.0469 -125.40845,-0.0469 -47.33586,-37.47421 c -27.07958,-21.43799 -53.13182,-43.26026 -60.88016,-50.99533 -21.94657,-21.909 -46.12655,-33.85889 -75.48639,-37.30582 -29.89658,-3.50995 -66.52346,5.53329 -99.98618,24.68678 -6.55266,3.75064 -12.11634,6.60314 -12.36373,6.33891 -0.83756,-0.89463 -3.432796,-58.41496 -4.292042,-95.12833 -1.754367,-74.95943 3.934942,-115.39363 21.117692,-150.08451 12.45004,-25.13583 20.454,-35.42511 81.14216,-104.31007 13.01408,-14.77183 26.21874,-29.87563 29.34367,-33.56403 3.12494,-3.68839 5.91506,-6.42349 6.20026,-6.07801 0.28522,0.34549 26.32564,29.48209 57.8676,64.748 31.54198,35.26591 60.54339,67.77269 64.4476,72.23729 l 7.09855,8.11744 -6.42249,4.54539 c -28.54858,20.20465 -43.93097,49.43876 -39.60978,75.27805 4.004,23.9426 22.18737,42.69419 41.43621,42.73105 6.81897,0.0135 15.41303,-2.12789 15.41303,-3.83969 0,-0.48628 -2.89014,-2.40403 -6.42254,-4.26169 -10.2451,-5.38779 -23.78535,-19.77056 -27.19717,-28.88951 -7.34246,-19.62447 -0.32522,-39.89197 21.41065,-61.83917 5.59949,-5.65394 15.35272,-14.08396 21.67385,-18.73339 6.32113,-4.64942 11.6969,-9.00148 11.94614,-9.67124 0.24927,-0.66975 -3.698,-6.23409 -8.77169,-12.3652 -5.0737,-6.13111 -36.79506,-44.61226 -70.49192,-85.51367 -33.69687,-40.90141 -62.07642,-74.92537 -63.06566,-75.60881 -5.11743,-3.53542 -85.2163,65.76482 -106.91265,92.49909 -3.71831,4.5817 -10.20295,12.50103 -14.41031,17.59851 -24.67479,29.89502 -46.658576,72.88778 -55.754352,109.03643 -8.981388,35.69406 -8.731099,77.8003 0.669919,112.70014 5.443343,20.20758 6.329636,29.64665 7.092956,75.54051 0.412728,24.81489 1.007964,45.37553 1.322745,45.69031 0.314781,0.31478 4.417747,-1.68141 9.117703,-4.43597 43.555209,-25.52703 94.882509,-39.12467 130.014909,-34.44363 24.85926,3.31226 43.42562,12.04015 61.57259,28.94473 5.75209,5.3583 27.95131,23.9113 49.33159,41.22892 21.38028,17.3176 38.87324,31.76286 38.87324,32.10056 0,0.33771 -31.94366,0.61401 -70.98592,0.61401 -39.04225,0 -70.98591,-0.31987 -70.98591,-0.71081 z" id="path14" />
  </g>
</svg>
