<svg xmlns="http://www.w3.org/2000/svg" width="128" height="128" viewBox="0 0 250 250">
  <defs>
    <style>
      .cls-1 {
        fill: #fff;
        fill-rule: evenodd;
      }
</style>
  </defs>
  <path id="Color_Fill_1" data-name="Color Fill 1" class="cls-1" d="M21,67a28.207,28.207,0,0,1,4-9l4-3V53l8-7c6.871-6.871,13.231-14,23-18v2c-2.524,2.275-.684,2.575-2,5l-2,1-1,4-2,1v2l-3,2C43.95,53.524,32.926,64.678,21,67ZM62,32h2l1,3,2,1v2h1v2h1v2h1v2l2,1,9,22h2c0.677-1.24,1.57-1.365,2-2V63h1c1.433-1.752,2.294-2.406,3-5-4.827.564-2.94,1.879-7,3a9.746,9.746,0,0,0-1-4,7.869,7.869,0,0,0,4-2V54h2l1-2h3l1-2,9-2a15.683,15.683,0,0,1,1,6c-0.674.68-2,9-2,9h1l34,35c3.5,3.5,10.6,7.868,12,13,3.087,0.7,4.254,1.949,5,5,3.087,0.7,4.254,1.949,5,5h2v2c3.087,0.7,4.254,1.949,5,5,3.087,0.705,4.254,1.949,5,5h2v2c3.087,0.705,4.254,1.949,5,5,3.087,0.705,4.254,1.949,5,5h2v2c2.762,0.723,2.237.279,3,3h2v2c3.087,0.705,4.254,1.949,5,5h2v2c2.762,0.723,2.237.279,3,3h2v2h2c0.723,2.762.279,2.237,3,3v2h2c0.723,2.762.279,2.237,3,3v2h2v2h2c0.723,2.762.279,2.237,3,3,0.732,2.591,1.561,3.238,3,5h1v2l2,1,4,11c1.462,4.866-.983,10.325-2,13q-0.5,3-1,6l-2,1v2l-2,1v2l-2,1-4,5-6,2v1h-3v1h-2v1l-2-1v1H189v-1h-4v-1h-2v-1h-3q-0.5-1-1-2h-2q-0.5-1-1-2c-2.091-1.966-3.857-4.1-7-5v-2c-2.128-1.212-2.177-2.252-5-3v-2c-4.524-2.66-6.507-8.511-12-10v-2L55,107c-1.512.627-2.035,0.364-4,1v1l-2-1v1c-2.974.751-4.715-.042-7,1v-1c-1.719-1.127-1.355-.633-2-3h1l1-5h1V99h1l2-6h1a8.23,8.23,0,0,0,2-4,9.746,9.746,0,0,1,4,1c-0.77,3.215-1.508,2.155-2,6h2l2-3h2l3-4,7-6H66V82c-4.044,1.894-5.338,4.63-11,5V86l-5-1V84H47V83H45V82H42l-1-2H39V79H37l-1-2H34V76H32c-2.1-1.138-6.754-4.056-8-6l5-1V68h2c0.939-.5.57-2.793,3-2v1a7.765,7.765,0,0,1,4,2v1h2l2,3,4,1,1,2,3,1v1l3,1V78c1.139-1.139.4,0,1-2-1.3-.673-1.343-1.556-2-2H50l-2-3c-4.122-2.88-8.338-3.39-11-8C44.271,59.092,60.994,41.6,62,32ZM92,61c-4.386,8.123-11.726,13.726-18,20-6.568,6.568-12.667,14.263-21,19v1h1v1c8.9-4.6,14.314-11.314,21-18L87,73l7-11Zm4,8c-1.149,4.394-4.3,4.828-5,10,1.808,1.569.862,1.977,2,4h1v2l2,1,2,6H96c-1.746,3.139-10.855,12.5-15,13-2.3-2.513-2.538-.682-5-2l-1-2H72v-1c2.1-1.674,2.394-3.739,4-6l4-3V88H79L67,101c-2.749,2-3.945,1.135-5,5,3.392,1.97,5.323,5.322,8,8l4,3,16,17,62,61,28,29c4.58,3.208,16.552,6.026,22,4v-1h2v-1c0.813-.319,1.691,1.451,4,0l2-3h2q0.5-1,1-2l4-3v-2l2-1v-4h1c1.588-2.368,1.038-13.353,0-16h-1v-3h-1v-2h-1v-2l-5-4-11-12L126,98l-2-3L106,78C102.942,74.942,100.766,70.279,96,69Zm10,33c5.931,2.245,8.152,4.617,8,13a7.49,7.49,0,0,0-3,2c-7.311-2.455-11.662-3.277-10-12C102.749,104.263,104.837,103.378,106,102Zm56,38h2v2l15,14v2l19,18,2,3h1v2l3,2,6,7c0.433,7.385,1.781,13.37-2,19l-4,3-3,4h-2v1c-2.734,1.291-2.943-.261-5,2h-2v-1h-1v1c-2.349.483-2.611-.671-4-1-1.345.436,0.4,0.781-1,1v-1h-2v-1l-5-1-44-45c-6.32-6.319-15.556-10.926-16-23h1q0.5-2.5,1-5l2-1c3.381-3.6,7.369-7.77,13-9a34.651,34.651,0,0,0,1-7c-1.135-.844-0.145.127-1-1a67.835,67.835,0,0,1-13-1,10.6,10.6,0,0,1-1-4c4.651-2.436,10.665-2.081,18-2v1h3l5,6C151.573,128.57,160.676,135.051,162,140Zm-18,3c-2.01-.574-0.865.12-2-1-2.01.574-.865-0.12-2,1-1.909,1.256-1.659,1.014-2,4a3.982,3.982,0,0,1,2,2l3-1A12.71,12.71,0,0,0,144,143Zm8,4c-1.339,2.523-1.99,3.5-2,8,2.523,1.339,3.5,1.99,8,2,1.643-3.1,1.9-1.8,2-7-1.139-1.139-.4,0-1-2A19.168,19.168,0,0,0,152,147Zm4,23q-1,2-2,4h1c1.256,1.909,1.014,1.659,4,2,0.945-1.8,1.385-1.574,2-4a3.982,3.982,0,0,1-2-2h-3Zm22,4-5-1c-1.382,2.612-1.769,1.693-2,6,2.078,1.094,1.771,1.611,5,2a3.982,3.982,0,0,1,2-2v-5Z" />
</svg>
