<svg xmlns="http://www.w3.org/2000/svg" width="128.016" height="128.016" viewBox="0 0 560 560">
  <defs>
    <style>
      .cls-1 {
        fill: #fff;
        fill-rule: evenodd;
      }
</style>
  </defs>
  <path id="Color_Fill_1" data-name="Color Fill 1" class="cls-1" d="M374,63q-1,10-2,20h1V94h1q0.5,5,1,10h1v4h1v3h1v3h1v3h1v3h1l1,4h1v2h1q0.5,2.5,1,5l2,1,2,6,2,1,1,4,3,2,1,3h1v2l2,1v2l3,2v2h1l1,3,2,1v2l3,2v2l2,1,1,3h1v2l2,1,1,4,2,1v2l2,1v2l2,1,2,6,2,1,2,6,2,1v2h1v2h1v2h1v2h1v2h1v2h1v2h1l2,6h1v3h1l1,4h1v3h1v3h1v2h1q0.5,3,1,6h1v4h1v3h1v3h1v4c4.312,12.814,5.993,27.961,6,45,0,6.84.492,15.769-1,21q-0.5,11-1,22h-1q-0.5,7-1,14h-1q-0.5,6-1,12h-1v5h-1v5h-1v4h-1v4h-1q-0.5,4.5-1,9h-1q-0.5,3.5-1,7h-1q-0.5,3.5-1,7h-1v3h-1v3h-1v3h-1v3h-1v3h-1q-1,4.5-2,9h-1v2h-1q-2.5,8-5,16h-1l-1,4h-1v3h-1l-1,4h-1l-1,5h-1l-2,6h-1v2h-1v2h-1v2h-1v2h-1v2h-1v2h-1v2h-1v2h-1v2h-1v2l-2,1-2,6-2,1-2,6-2,1-1,4-2,1-1,4h-1l-1,3-2,1v2l-2,1v2l-2,1v2h-1l-1,3-2,1-1,3H181l-5-9-2-1v-2l-2-1v-2l-2-1-1-3h-1l-1-4-2-1q-0.5-2-1-4l-2-1-2-6-2-1-2-6-2-1v-2h-1v-2h-1v-2h-1v-2h-1v-2h-1v-2h-1v-2h-1v-2h-1v-2h-1v-2h-1l-2-6h-1q-0.5-2.5-1-5h-1q-0.5-2-1-4h-1v-3h-1q-0.5-2-1-4h-1v-3h-1v-2h-1q-0.5-3-1-6h-1v-2h-1v-3h-1v-2h-1q-0.5-3-1-6h-1v-3h-1v-3h-1v-3h-1v-3h-1v-3h-1v-3h-1v-4h-1v-3h-1q-0.5-3.5-1-7h-1v-4h-1q-1-6.5-2-13h-1v-5c-2.083-6.706-2.981-16.139-5-23v-8h-1V332h-1V320c-2.889-10.4-1.7-35.763,1-45v-7h1v-5h1v-5h1q0.5-4,1-8h1q0.5-3.5,1-7h1v-3h1v-3h1v-3h1v-2h1v-3h1v-2h1v-3h1q0.5-2,1-4h1v-3h1v-2h1v-2h1v-2h1v-2h1v-2l2-1v-2c1.089-1.924,2.9-4,4-6h1l25,59,15,3v1h4v1h4v1h4v1h4v1h3v1l8,1,24,7c-1.139,1.139,0,.4-2,1-2.309,2.477-2.223.731-5,2v1h-2v1h-2v1h-2v1h-3v1h-2v1l-4,1v1h-3v1h-2v1h-2v1h-2v1h-3v1h-2v1h-2v1l-4,1v1h-3v1l-11,4v2l7,6v2l7,6v2l6,5v2l7,6v2l7,6v2l7,6v2l3,2,2,3h1v2l6,5v3h1v5h1v4h1v5c5.325,16.586,7.683,36.351,13,53v5h1v4h1v4h1v5h1c1.055,3.195-.04,5.836,2,8q3.5-51,7-102c-4.45-2.583-6.493-7.482-10-11l-14-13-1-3c-3.133-3.463-7.571-5.824-10-10,3.071-.7,4.674-2.679,7-4h2l1-2,6-2,1-2h2v-1h2v-1h2l1-2h2v-1h2v-1h2v-1h2l1-2,6-2,1-2,6-2,1-2,6-2,1-2,6-2,1-2,6-2,1-2h2v-1h2v-1h2v-1h2l1-2h2c1.908-1.081,5.644-3.33,7-5L191,227q-2.5-10.5-5-21h-1v-4h-1v-3h-1q-1-5.5-2-11h-1q-0.5-3.5-1-7h-1q-0.5-3.5-1-7h-1q-0.5-4-1-8h-1l-6-25h1v-2l2-1v-2h1v-2l2-1v-2h1q0.5-2,1-4h1v-3h1q0.5-2,1-4h1v-3h1v-2h1q0.5-3,1-6h1v-4h1v-5h1V95h1V84h1q-1-10.5-2-21c-10.114.334-19.155-2.574-21-10-1.737-1.44-4.437-8.633-3-13h1q0.5-3,1-6l2-1V31h1l2-3h2V27h2l1-2h5c2.175-1.914,9.119-1,13-1H353c16.121,0,38.664-2.446,42,10,2.009,1.9-.059.731,1,3h1v2h1c2.232,6.4-2.054,11.976-3,16l-5,4v1h-2v1C384.271,63,379.717,63,374,63Z" />
</svg>
