<svg xmlns="http://www.w3.org/2000/svg" width="127.98" height="127.98" viewBox="0 0 2700 2700">
  <defs>
    <style>
      .cls-1 {
        fill: #fff;
        fill-rule: evenodd;
      }
</style>
  </defs>
  <path id="Color_Fill_1" data-name="Color Fill 1" class="cls-1" d="M1190,204v2l6,5v2c1.67,1.333,3.33,2.667,5,4v2c1.67,1.333,3.33,2.667,5,4v2l6,5v2c0.67,0.333,1.33.667,2,1v1l3,2v2l3,2v1c0.67,0.333,1.33.667,2,1v2l6,5v2c1.67,1.333,3.33,2.667,5,4v2c1.67,1.333,3.33,2.667,5,4v2l6,5v2c1.67,1.333,3.33,2.667,5,4v2l6,5v2c1.67,1.333,3.33,2.667,5,4v2c1.67,1.333,3.33,2.667,5,4v2l6,5v2c1.67,1.333,3.33,2.667,5,4v2c1.67,1.333,3.33,2.667,5,4v2l6,5v2c1.67,1.333,3.33,2.667,5,4v2c1.67,1.333,3.33,2.667,5,4v2l6,5v2l3,2v1c0.67,0.333,1.33.667,2,1v2l6,5v2c0.67,0.333,1.33.667,2,1,0.67,1,1.33,2,2,3h1v2c1.67,1.333,3.33,2.667,5,4v2l6,5v2c1.67,1.333,3.33,2.667,5,4v2c1.67,1.333,3.33,2.667,5,4v2l6,5v2c1.67,1.333,3.33,2.667,5,4v2l6,5v2c1.67,1.333,3.33,2.667,5,4v2c1.67,1.333,3.33,2.667,5,4v2l6,5v2c0.67,0.333,1.33.667,2,1,0.67,1,1.33,2,2,3h1v2c1.67,1.333,3.33,2.667,5,4,11.92,16.5,26.09,30.486,38,47,1.67,1.333,3.33,2.667,5,4v2c1.67,1.333,3.33,2.667,5,4,0.33,1,.67,2,1,3,1.33,1,2.67,2,4,3v2c0.67,0.333,1.33.667,2,1,0.33,1.667.67,3.333,1,5h1c2.68,8.362-3.52,21.057-6,25-0.67.333-1.33,0.667-2,1v2h-1c-0.33,1.333-.67,2.667-1,4-0.67.333-1.33,0.667-2,1v2h-1v2h-1v2c-0.67.333-1.33,0.667-2,1-0.33,1.333-.67,2.667-1,4-0.67.333-1.33,0.667-2,1-0.67,2-1.33,4-2,6-0.67.333-1.33,0.667-2,1-0.67,2-1.33,4-2,6-0.67.333-1.33,0.667-2,1-0.33,1.333-.67,2.667-1,4-0.67.333-1.33,0.667-2,1v2h-1v2h-1v2c-0.67.333-1.33,0.667-2,1-0.67,2-1.33,4-2,6-0.67.333-1.33,0.667-2,1-0.33,1.333-.67,2.667-1,4h-1v2c-0.67.333-1.33,0.667-2,1-0.33,1.333-.67,2.667-1,4-0.67.333-1.33,0.667-2,1-0.67,2-1.33,4-2,6-0.67.333-1.33,0.667-2,1-0.67,2-1.33,4-2,6-0.67.333-1.33,0.667-2,1-0.33,1.333-.67,2.667-1,4-0.67.333-1.33,0.667-2,1-0.67,2-1.33,4-2,6-0.67.333-1.33,0.667-2,1-0.67,2-1.33,4-2,6-0.67.333-1.33,0.667-2,1-0.33,1.333-.67,2.667-1,4h-1v2c-0.67.333-1.33,0.667-2,1-0.33,1.333-.67,2.667-1,4-0.67.333-1.33,0.667-2,1-0.67,2-1.33,4-2,6-0.67.333-1.33,0.667-2,1-0.67,2-1.33,4-2,6-0.67.333-1.33,0.667-2,1v2h-1v2c-0.67.333-1.33,0.667-2,1-0.67,2-1.33,4-2,6-0.67.333-1.33,0.667-2,1-0.67,2-1.33,4-2,6-0.67.333-1.33,0.667-2,1-0.67,2-1.33,4-2,6-0.67.333-1.33,0.667-2,1-0.33,1.333-.67,2.667-1,4-0.67.333-1.33,0.667-2,1-0.67,2-1.33,4-2,6-0.67.333-1.33,0.667-2,1-0.67,2-1.33,4-2,6-0.67.333-1.33,0.667-2,1-0.33,1.333-.67,2.667-1,4-0.67.333-1.33,0.667-2,1-0.67,2-1.33,4-2,6-0.67.333-1.33,0.667-2,1-0.67,2-1.33,4-2,6-0.67.333-1.33,0.667-2,1v2h-1v2h-1v2c-0.67.333-1.33,0.667-2,1v2c-1.33,1-2.67,2-4,3v1h-2c-0.33.667-.67,1.333-1,2-1.93,1.019-13.23,3.1-17,2-13.95-4.077-31.11-4.724-45-9l-11-1c-10-3.057-23.02-3.975-33-7h-6c-10-3.054-23.02-3.978-33-7h-6c-15.44-4.708-34.55-5.329-50-10l-11-1v-1l-6-2c-0.7,3.554-2.61,4.51-4,7-0.33,1.333-.67,2.667-1,4-0.67.333-1.33,0.667-2,1-0.67,2-1.33,4-2,6-0.67.333-1.33,0.667-2,1v2h-1v2h-1v2h-1v2c-0.67.333-1.33,0.667-2,1v2h-1v2h-1v2c-0.67.333-1.33,0.667-2,1-0.67,2-1.33,4-2,6-0.67.333-1.33,0.667-2,1-0.67,2-1.33,4-2,6-0.67.333-1.33,0.667-2,1v2h-1v2c-0.67.333-1.33,0.667-2,1-0.67,2-1.33,4-2,6-0.67.333-1.33,0.667-2,1-0.33,1.333-.67,2.667-1,4-0.67.333-1.33,0.667-2,1-0.67,2-1.33,4-2,6-0.67.333-1.33,0.667-2,1-0.67,2-1.33,4-2,6-0.67.333-1.33,0.667-2,1v2h-1v2h-1c-0.33.667-.67,1.333-1,2h-2c-0.33.667-.67,1.333-1,2h-10c-1.86-2.05-4.47-2.567-7-4v-1h-2v-1h-2c-0.33-.667-0.67-1.333-1-2l-6-2c-0.33-.667-0.67-1.333-1-2l-4-1c-0.33-.667-0.67-1.333-1-2l-6-2c-0.33-.667-0.67-1.333-1-2h-2c-1.917-1.086-5.63-3.326-7-5-2.01.574-.865-0.12-2,1-1.947,1.8-.841,1.94-2,4h-1v2l-2,1q-1,3-2,6l-2,1q-0.5,2-1,4l-2,1v2h-1v2h-1v2h-1v2l-2,1q-1,3-2,6l-2,1v2h-1v2l-2,1q-1,3-2,6l-2,1q-1,3-2,6l-2,1q-0.5,2-1,4l-2,1q-1,3-2,6l-2,1v2h-1v2h-1v2l-2,1q-1,3-2,6l-2,1v2h-1v2l-2,1q-1,3-2,6l-2,1q-1,3-2,6l-2,1q-0.5,2-1,4l-2,1q-1,3-2,6l-2,1q-1,3-2,6l-2,1q-1,3-2,6l-2,1v2h-1v2l-2,1q-1,3-2,6l-2,1q-1,3-2,6l-2,1q-0.5,2-1,4l-2,1q-1,3-2,6l-2,1q-1,3-2,6l-2,1q-1,3-2,6l-2,1q-0.5,2-1,4l-2,1q-1,3-2,6l-2,1q-1,3-2,6l-2,1q-0.5,2-1,4l-2,1q-1,3-2,6l-2,1q-1,3-2,6l-2,1q-0.5,2-1,4l-2,1q-0.5,2-1,4l-2,1q-0.5,2-1,4l-2,1q-1,3-2,6l-2,1q-1,3-2,6l-2,1q-1,3-2,6c-0.667.33-1.333,0.67-2,1v2h-1v2c-0.667.33-1.333,0.67-2,1q-1,3-2,6c-0.667.33-1.333,0.67-2,1q-1,3-2,6c-0.667.33-1.333,0.67-2,1-0.333,1.33-.667,2.67-1,4-0.667.33-1.333,0.67-2,1q-1,3-2,6c-0.667.33-1.333,0.67-2,1q-1,3-2,6c-0.667.33-1.333,0.67-2,1q-1,3-2,6c-0.667.33-1.333,0.67-2,1v2h-1v2c-0.667.33-1.333,0.67-2,1q-1,3-2,6c-0.667.33-1.333,0.67-2,1q-1,3-2,6c-0.667.33-1.333,0.67-2,1-0.333,1.33-.667,2.67-1,4-0.667.33-1.333,0.67-2,1q-1,3-2,6c-0.667.33-1.333,0.67-2,1q-1,3-2,6c-0.667.33-1.333,0.67-2,1q-1,3-2,6c-23.545,37.36-44.4,77.67-68,115v2h-1v2h-1v2c-0.667.33-1.333,0.67-2,1q-1,3-2,6c-0.667.33-1.333,0.67-2,1v2h-1v2c-0.667.33-1.333,0.67-2,1q-1,3-2,6c-0.667.33-1.333,0.67-2,1v2h-1v2h-1v2c-0.667.33-1.333,0.67-2,1q-1,3-2,6c-0.667.33-1.333,0.67-2,1v2h-1v2c-0.667.33-1.333,0.67-2,1q-1,3-2,6c-0.667.33-1.333,0.67-2,1q-1,3-2,6c-0.667.33-1.333,0.67-2,1-0.333,1.33-.667,2.67-1,4-0.667.33-1.333,0.67-2,1-0.333,1.33-.667,2.67-1,4h-1v2c-0.667.33-1.333,0.67-2,1q-1,3-2,6c-0.667.33-1.333,0.67-2,1q-1,3-2,6c-0.667.33-1.333,0.67-2,1-0.333,1.33-.667,2.67-1,4-0.667.33-1.333,0.67-2,1q-1,3-2,6c-0.667.33-1.333,0.67-2,1q-1,3-2,6c-0.667.33-1.333,0.67-2,1v2h-1v2c-0.667.33-1.333,0.67-2,1q-1,3-2,6c-0.667.33-1.333,0.67-2,1v2h-1v2h-1v2c-0.667.33-1.333,0.67-2,1q-1,3-2,6c-0.667.33-1.333,0.67-2,1v2h-1v2c-0.667.33-1.333,0.67-2,1q-1,3-2,6c-0.667.33-1.333,0.67-2,1q-1,3-2,6c-0.667.33-1.333,0.67-2,1-0.333,1.33-.667,2.67-1,4-0.667.33-1.333,0.67-2,1-0.333,1.33-.667,2.67-1,4h-1v2c-0.667.33-1.333,0.67-2,1q-1,3-2,6c-0.667.33-1.333,0.67-2,1q-1,3-2,6c-0.667.33-1.333,0.67-2,1-0.333,1.33-.667,2.67-1,4-0.667.33-1.333,0.67-2,1q-1,3-2,6c-0.667.33-1.333,0.67-2,1q-1,3-2,6c-0.667.33-1.333,0.67-2,1v2h-1v2c-0.667.33-1.333,0.67-2,1q-1,3-2,6c-0.667.33-1.333,0.67-2,1v2h-1v2h-1v2c-0.667.33-1.333,0.67-2,1q-1,3-2,6c-0.667.33-1.333,0.67-2,1v2h-1v2c-0.667.33-1.333,0.67-2,1q-1,3-2,6c-0.667.33-1.333,0.67-2,1q-1,3-2,6c-0.667.33-1.333,0.67-2,1-0.333,1.33-.667,2.67-1,4-0.667.33-1.333,0.67-2,1-0.333,1.33-.667,2.67-1,4h-1v2c-0.667.33-1.333,0.67-2,1q-1,3-2,6c-0.667.33-1.333,0.67-2,1q-1,3-2,6c-19.647,31.18-37.3,64.85-57,96q-1,3-2,6c-0.667.33-1.333,0.67-2,1q-1,3-2,6c-0.667.33-1.333,0.67-2,1-0.333,1.33-.667,2.67-1,4-0.667.33-1.333,0.67-2,1l-2,6c-0.667.33-1.333,0.67-2,1l-2,6c-0.667.33-1.333,0.67-2,1l-2,6c-21.074,33.44-39.883,69.56-61,103l-2,6c-0.667.33-1.333,0.67-2,1-0.333,1.33-.667,2.67-1,4-0.667.33-1.333,0.67-2,1l-2,6c-0.667.33-1.333,0.67-2,1l-2,6c-0.667.33-1.333,0.67-2,1l-2,6c-23.537,37.36-44.439,77.66-68,115v2h-1v2h-1v2c-0.667.33-1.333,0.67-2,1l-2,6c-0.667.33-1.333,0.67-2,1l-2,6c-0.667.33-1.333,0.67-2,1v2h-1v2c-0.667.33-1.333,0.67-2,1l-2,6c-0.667.33-1.333,0.67-2,1l-2,6c-0.667.33-1.333,0.67-2,1-0.333,1.33-.667,2.67-1,4-0.667.33-1.333,0.67-2,1-0.333,1.33-.667,2.67-1,4-0.667.33-1.333,0.67-2,1v2c-1,.67-2,1.33-3,2v2c-1,.67-2,1.33-3,2v2q-4,3.495-8,7-3,3.495-6,7h-2c-1,1.33-2,2.67-3,4h-2c-0.333.67-.667,1.33-1,2h-2c-0.333.67-.667,1.33-1,2-1,.33-2,0.67-3,1v1c-2,.67-4,1.33-6,2v1h-2v1h-2v1c-2,.67-4,1.33-6,2v1l-21,6q-8.5.495-17,1v1c-3.03.84-7.488-.58-9-1H219v-1h-6v-1h-5v-1h-4v-1h-3v-1h-3v-1h-3v-1h-2v-1h-3v-1c-2-.67-4-1.33-6-2v-1c-1.333-.33-2.667-0.67-4-1-0.333-.67-0.667-1.33-1-2-1.333-.33-2.667-0.67-4-1v-1c-1-.33-2-0.67-3-1-0.333-.67-0.667-1.33-1-2h-2l-2-3h-2c-1-1.33-2-2.67-3-4h-2q-3.5-4.005-7-8c-1-.67-2-1.33-3-2v-2l-4-3-1-3c-0.667-.33-1.333-0.67-2-1v-2c-0.667-.33-1.333-0.67-2-1-0.333-1.33-.667-2.67-1-4-0.667-.33-1.333-0.67-2-1l-2-6h-1v-2h-1l-2-6h-1v-3h-1v-2h-1l-1-7h-1v-3h-1v-4h-1v-6c-3.927-13.78-2.013-34.19,2-46v-4l10-24c0.667-.33,1.333-0.67,2-1,0.333-1.33.667-2.67,1-4,0.667-.33,1.333-0.67,2-1l2-6c0.667-.33,1.333-0.67,2-1l2-6c0.667-.33,1.333-0.67,2-1v-2h1v-2c0.667-.33,1.333-0.67,2-1v-2h1v-2h1v-2c0.667-.33,1.333-0.67,2-1l2-6c0.667-.33,1.333-0.67,2-1v-2h1v-2c0.667-.33,1.333-0.67,2-1l2-6c0.667-.33,1.333-0.67,2-1l2-6c0.667-.33,1.333-0.67,2-1l2-6c0.667-.33,1.333-0.67,2-1,0.333-1.33.667-2.67,1-4,0.667-.33,1.333-0.67,2-1l2-6c0.667-.33,1.333-0.67,2-1l2-6c0.667-.33,1.333-0.67,2-1,0.333-1.33.667-2.67,1-4,0.667-.33,1.333-0.67,2-1l2-6c0.667-.33,1.333-0.67,2-1v-2h1v-2h1v-2c0.667-.33,1.333-0.67,2-1l2-6c0.667-.33,1.333-0.67,2-1,0.333-1.33.667-2.67,1-4,0.667-.33,1.333-0.67,2-1l2-6c0.667-.33,1.333-0.67,2-1l2-6c0.667-.33,1.333-0.67,2-1v-2h1v-2c0.667-.33,1.333-0.67,2-1l2-6c0.667-.33,1.333-0.67,2-1v-2h1v-2h1v-2c0.667-.33,1.333-0.67,2-1l2-6c0.667-.33,1.333-0.67,2-1v-2h1v-2c0.667-.33,1.333-0.67,2-1l2-6c0.667-.33,1.333-0.67,2-1l2-6c0.667-.33,1.333-0.67,2-1,0.333-1.33.667-2.67,1-4,0.667-.33,1.333-0.67,2-1,0.333-1.33.667-2.67,1-4h1v-2c0.667-.33,1.333-0.67,2-1l2-6c0.667-.33,1.333-0.67,2-1l2-6c0.667-.33,1.333-0.67,2-1v-2h1v-2c0.667-.33,1.333-0.67,2-1l2-6c0.667-.33,1.333-0.67,2-1l2-6c0.667-.33,1.333-0.67,2-1v-2h1v-2c0.667-.33,1.333-0.67,2-1l2-6c0.667-.33,1.333-0.67,2-1l2-6c0.667-.33,1.333-0.67,2-1l2-6c0.667-.33,1.333-0.67,2-1,0.333-1.33.667-2.67,1-4,0.667-.33,1.333-0.67,2-1v-2h1v-2h1v-2c0.667-.33,1.333-0.67,2-1l2-6c0.667-.33,1.333-0.67,2-1v-2h1v-2c0.667-.33,1.333-0.67,2-1l2-6c0.667-.33,1.333-0.67,2-1l2-6c0.667-.33,1.333-0.67,2-1l2-6c0.667-.33,1.333-0.67,2-1,0.333-1.33.667-2.67,1-4,0.667-.33,1.333-0.67,2-1l2-6c0.667-.33,1.333-0.67,2-1l2-6c0.667-.33,1.333-0.67,2-1,0.333-1.33.667-2.67,1-4,0.667-.33,1.333-0.67,2-1l2-6c0.667-.33,1.333-0.67,2-1l2-6c0.667-.33,1.333-0.67,2-1l2-6c0.667-.33,1.333-0.67,2-1v-2h1v-2c0.667-.33,1.333-0.67,2-1l2-6c0.667-.33,1.333-0.67,2-1l2-6c0.667-.33,1.333-0.67,2-1,0.333-1.33.667-2.67,1-4,0.667-.33,1.333-0.67,2-1l2-6c0.667-.33,1.333-0.67,2-1l2-6c0.667-.33,1.333-0.67,2-1v-2h1v-2h1v-2h1v-2h1v-2c0.667-.33,1.333-0.67,2-1l2-6c0.667-.33,1.333-0.67,2-1,0.333-1.33.667-2.67,1-4,0.667-.33,1.333-0.67,2-1v-3c0.667-.33,1.333-0.67,2-1l2-6c0.667-.33,1.333-0.67,2-1,0.333-1.33.667-2.67,1-4,0.667-.33,1.333-0.67,2-1l2-6c0.667-.33,1.333-0.67,2-1l2-6h1l1-3c0.667-.33,1.333-0.67,2-1v-2h1v-2h1v-2c0.667-.33,1.333-0.67,2-1l2-6h1l1-3c0.667-.33,1.333-0.67,2-1v-2h1v-2c0.667-.33,1.333-0.67,2-1,0.333-1.33.667-2.67,1-4,0.667-.33,1.333-0.67,2-1v-2h1v-2h1v-2c0.667-.33,1.333-0.67,2-1l2-6c0.667-.33,1.333-0.67,2-1v-2h1v-2c0.667-.33,1.333-0.67,2-1l2-6c0.667-.33,1.333-0.67,2-1l2-6c0.667-.33,1.333-0.67,2-1l2-6c0.667-.33,1.333-0.67,2-1,0.333-1.33.667-2.67,1-4,0.667-.33,1.333-0.67,2-1v-2h1v-2h1v-2c0.667-.33,1.333-0.67,2-1l2-6c0.667-.33,1.333-0.67,2-1,0.333-1.33.667-2.67,1-4,0.667-.33,1.333-0.67,2-1l2-6c0.667-.33,1.333-0.67,2-1l2-6c0.667-.33,1.333-0.67,2-1l2-6c0.667-.33,1.333-0.67,2-1v-2h1v-2c0.667-.33,1.333-0.67,2-1l2-6c0.667-.33,1.333-0.67,2-1l2-6c0.667-.33,1.333-0.67,2-1v-2h1v-2c0.667-.33,1.333-0.67,2-1l2-6c0.667-.33,1.333-0.67,2-1l2-6c0.667-.33,1.333-0.67,2-1l2-6c0.667-.33,1.333-0.67,2-1,0.333-1.33.667-2.67,1-4,0.667-.33,1.333-0.67,2-1l2-6c0.667-.33,1.333-0.67,2-1l2-6c0.667-.33,1.333-0.67,2-1,0.333-1.33.667-2.67,1-4,0.667-.33,1.333-0.67,2-1l2-6c0.667-.33,1.333-0.67,2-1v-2h1v-2h1v-2c0.667-.33,1.333-0.67,2-1l2-6c0.667-.33,1.333-0.67,2-1,0.333-1.33.667-2.67,1-4,0.667-.33,1.333-0.67,2-1l2-6c0.667-.33,1.333-0.67,2-1l2-6c0.667-.33,1.333-0.67,2-1v-2h1v-2c0.667-.33,1.333-0.67,2-1q1-3,2-6c0.667-.33,1.333-0.67,2-1v-2h1v-2h1v-2c0.667-.33,1.333-0.67,2-1q1-3,2-6c0.667-.33,1.333-0.67,2-1v-2h1v-2c0.667-.33,1.333-0.67,2-1q1-3,2-6c0.667-.33,1.333-0.67,2-1q1-3,2-6c0.667-.33,1.333-0.67,2-1,0.333-1.33.667-2.67,1-4,0.667-.33,1.333-0.67,2-1,0.333-1.33.667-2.67,1-4h1v-2c0.667-.33,1.333-0.67,2-1q1-3,2-6c0.667-.33,1.333-0.67,2-1q1-3,2-6c23.54-37.35,44.4-77.682,68-115q0.5-2,1-4h1v-2l2-1q1-3,2-6l2-1q1-3,2-6l2-1v-2h1v-2l2-1q1-3,2-6l2-1q1-3,2-6l2-1q0.5-2,1-4l2-1q1-3,2-6l2-1q1-3,2-6l2-1q1-3,2-6c23.539-37.354,44.414-77.675,68-115q1-3,2-6l2-1q1-3,2-6l2-1q1-3,2-6l2-1q0.5-2,1-4l2-1q1-3,2-6l2-1q1-3,2-6l2-1q0.5-2,1-4l2-1q1-3,2-6l2-1v-2h1v-2h1v-2h1v-2h1v-2l2-1q1-3,2-6l2-1q1-3,2-6l2-1q0.5-2,1-4l2-1v-2h1v-2h1v-2l2-1q1-3,2-6l2-1v-2h1v-2l2-1q1-3,2-6l2-1q0.5-2,1-4l2-1q1-3,2-6l2-1v-2h1q1-3,2-6c-7.31-3.119-13.642-7.987-20-12l-6-2q-0.5-1-1-2l-4-1q-0.5-1-1-2l-6-2q-0.5-1-1-2h-2v-1l-3-2v-1c-0.779-1.18.084-.092-1-1q-0.5-3-1-6h1c0.918-3.372.407-5.45,2-8l2-1q1-3,2-6l2-1q0.5-2,1-4l2-1q1-3,2-6l2-1q1-3,2-6l2-1v-2h1v-2h1v-2h1v-2l2-1v-2h1v-2h1v-2h1v-2l2-1q0.5-2,1-4l2-1q0.5-2,1-4l2-1q1-3,2-6l2-1v-2h1v-2l2-1q0.5-2,1-4h1c1.691-2.98,3.175-5.416,4-9-5.72-3.166-8.276-7.839-12-13l-5-4v-2l-6-5v-2l-5-4v-2l-5-4v-2l-6-5v-2l-5-4v-2l-6-5v-2l-5-4v-2l-5-4v-2l-6-5v-2l-5-4v-2l-5-4v-2l-6-5v-2l-5-4v-2l-6-5v-2l-5-4v-2l-5-4v-2l-6-5q-0.5-1.5-1-3l-4-3v-2l-2-1v-1l-3-2v-2l-6-5v-2l-5-4v-2l-4-3v-2l-2-1v-2h-1c-0.815-1.834-2-11.961-1-15h1v-3h1v-2h1v-2l2-1q0.5-2,1-4l2-1q1-3,2-6l2-1q1-3,2-6l2-1q1-3,2-6l2-1q0.5-2,1-4l2-1v-2h1v-2h1v-2l2-1q1-3,2-6l2-1q0.5-2,1-4l2-1q1-3,2-6l2-1q1-3,2-6l2-1q1-3,2-6l2-1v-2h1v-2l2-1q1-3,2-6l2-1v-2h1v-2h1v-2l2-1q1-3,2-6l2-1v-2h1v-2l2-1q1-3,2-6l2-1q1-3,2-6l2-1q0.5-2,1-4l2-1v-2h1v-2h1v-2l2-1q1-3,2-6l2-1q1-3,2-6l2-1v-2h1v-2l2-1q1-3,2-6l2-1q1-3,2-6l2-1q0.5-2,1-4l2-1q1-3,2-6l2-1q1-3,2-6l2-1q1-3,2-6l2-1q0.5-2,1-4l2-1q1-3,2-6l2-1v-2l2-1,3-4,6-2v-1l11-1v1h6v1h5v1l11,1v1l12,1c18.9,5.788,42.044,6.161,61,12l78,13c13.857,4.24,31.07,4.715,45,9l11,1c6.5,1.986,15.41,3.03,22,5h6c16.99,5.188,37.97,5.845,55,11l11,1v1h6v1h6v1h5v1h6c6.5,1.979,15.41,3.032,22,5h6v1c2.7,0.983,5.8.6,8,2v1A8.486,8.486,0,0,0,1190,204ZM395,1287c-0.7,3.55-2.615,4.51-4,7-0.333,1.33-.667,2.67-1,4-0.667.33-1.333,0.67-2,1l-2,6c-0.667.33-1.333,0.67-2,1-0.333,1.33-.667,2.67-1,4-0.667.33-1.333,0.67-2,1-0.333,1.33-.667,2.67-1,4-0.667.33-1.333,0.67-2,1l-1,3h-1v2h-1v2h-1v2h-1v2c-0.667.33-1.333,0.67-2,1v2h-1v2h-1v2c-0.667.33-1.333,0.67-2,1l-2,6c-0.667.33-1.333,0.67-2,1-0.333,1.33-.667,2.67-1,4-0.667.33-1.333,0.67-2,1l-2,6c-0.667.33-1.333,0.67-2,1l-2,6c-0.667.33-1.333,0.67-2,1l-2,6c-0.667.33-1.333,0.67-2,1-0.333,1.33-.667,2.67-1,4-0.667.33-1.333,0.67-2,1v3c-0.667.33-1.333,0.67-2,1l-2,6c-0.667.33-1.333,0.67-2,1v2h-1v2c-0.667.33-1.333,0.67-2,1l-2,6c-0.667.33-1.333,0.67-2,1l-2,6c-0.667.33-1.333,0.67-2,1-0.333,1.33-.667,2.67-1,4-0.667.33-1.333,0.67-2,1l-2,6c-0.667.33-1.333,0.67-2,1l-2,6c-0.667.33-1.333,0.67-2,1v2h-1v2c-0.667.33-1.333,0.67-2,1l-2,6c-0.667.33-1.333,0.67-2,1l-2,6c-0.667.33-1.333,0.67-2,1-0.333,1.33-.667,2.67-1,4-0.667.33-1.333,0.67-2,1v2h-1v2h-1v2c-0.667.33-1.333,0.67-2,1l-1,3h-7c-2.117-1.8-5.687-.06-9-1v-1h-9v-1H263v-1H253v-1H243v-1H232v-1H221v-1H209v-1q-8.5-.495-17-1v-1h-5v-1h-3v-1h-3v-1h-3v-1h-2v-1l-9-3c-0.333-.67-0.667-1.33-1-2-1.333-.33-2.667-0.67-4-1l-2-3c-1-.33-2-0.67-3-1v-1h-2q-3.5-4.005-7-8c-2-1.67-4-3.33-6-5v-2c-1-.67-2-1.33-3-2v-2c-0.667-.33-1.333-0.67-2-1v-2c-0.667-.33-1.333-0.67-2-1-0.333-1.33-.667-2.67-1-4-0.667-.33-1.333-0.67-2-1-0.333-1.67-.667-3.33-1-5h-1c-0.333-1.33-.667-2.67-1-4h-1v-3h-1v-3h-1v-3h-1v-4h-1v-3c-0.667-.33-1.333-0.67-2-1v-3h-1c-0.333-1.33-.667-2.67-1-4h-1c-0.333-1.33-.667-2.67-1-4-0.667-.33-1.333-0.67-2-1q-0.5-3-1-6h-1v-3h-1v-2h-1c-0.333-1.33-.667-2.67-1-4h-1q-0.5-3-1-6h-1v-3h-1v-3h-1v-3h-1v-2h-1v-3h-1v-2h-1v-3c-0.667-.33-1.333-0.67-2-1-0.667-3.33-1.333-6.67-2-10H97c-1.121-2.43-4.227-9.04-3-13h1v-3c4.259-9.81,14.129-9,28-9H395Zm324,0h786c2.22,0.71,4.21,2.4,7,3,1.47,2.68,4.07,5.9,5,9q-0.495,8.505-1,17h223q8.505,1.995,17,4v1c2,0.67,4,1.33,6,2v1h2v1c1.33,0.33,2.67.67,4,1,0.33,0.67.67,1.33,1,2,1,0.33,2,.67,3,1v1c1.75,1.44,2.41,2.29,5,3,1.14,4.32,3.19,3.44,5,6v2c0.67,0.33,1.33.67,2,1v2h1v2h1c3.42,7.63,2.92,17.95,3,29h362c10.08,0,23.67,1.36,32-1h12v-1h12v-1q16.005-1.005,32-2v-1h9v-1h10v-1h9v-1h9v-1h9v-1h8v-1h8v-1h8v-1h8v-1h8v-1h7c12.86-3.77,29.33-3.28,42-7l26-3q54.495-10.005,109-20,48-10.995,96-22c-0.67,2-1.33,4-2,6-0.67.33-1.33,0.67-2,1-0.67,2-1.33,4-2,6-0.67.33-1.33,0.67-2,1-0.33,1.33-.67,2.67-1,4-0.67.33-1.33,0.67-2,1v2c-0.67.33-1.33,0.67-2,1v2c-0.67.33-1.33,0.67-2,1v2h-1c-0.33,1-.67,2-1,3-0.67.33-1.33,0.67-2,1v2c-0.67.33-1.33,0.67-2,1v2h-1c-0.33,1-.67,2-1,3-0.67.33-1.33,0.67-2,1v2c-0.67.33-1.33,0.67-2,1-0.33,1-.67,2-1,3-1,.67-2,1.33-3,2v2c-1,.67-2,1.33-3,2v2c-1,.67-2,1.33-3,2v2c-1.33,1-2.67,2-4,3v2c-1.33,1-2.67,2-4,3v2c-1,.67-2,1.33-3,2-0.67,1-1.33,2-2,3h-1v2q-3.495,3-7,6v2q-4.995,4.5-10,9v2q-4.005,3.495-8,7-7.995,8.505-16,17h-2q-4.995,5.505-10,11h-2q-3.495,4.005-7,8h-2c-1.67,2-3.33,4-5,6h-2c-1.33,1.67-2.67,3.33-4,5h-2c-1,1.33-2,2.67-3,4h-2c-1,1.33-2,2.67-3,4h-2c-1,1.33-2,2.67-3,4h-2c-1,1.33-2,2.67-3,4h-2c-0.67,1-1.33,2-2,3h-2c-0.67,1-1.33,2-2,3h-2c-0.67,1-1.33,2-2,3h-2c-0.67,1-1.33,2-2,3h-2c-0.33.67-.67,1.33-1,2h-2c-0.67,1-1.33,2-2,3h-2c-0.33.67-.67,1.33-1,2h-2c-0.67,1-1.33,2-2,3h-2c-0.33.67-.67,1.33-1,2-1,.33-2,0.67-3,1v1h-2c-0.33.67-.67,1.33-1,2h-2c-0.33.67-.67,1.33-1,2h-2c-0.33.67-.67,1.33-1,2h-2c-0.33.67-.67,1.33-1,2h-2c-0.33.67-.67,1.33-1,2h-2c-0.33.67-.67,1.33-1,2h-2c-0.33.67-.67,1.33-1,2h-2c-0.33.67-.67,1.33-1,2h-2c-0.33.67-.67,1.33-1,2-1.33.33-2.67,0.67-4,1-0.33.67-.67,1.33-1,2h-2c-0.33.67-.67,1.33-1,2-1.33.33-2.67,0.67-4,1v1c-1,.33-2,0.67-3,1-0.33.67-.67,1.33-1,2-1.33.33-2.67,0.67-4,1-0.33.67-.67,1.33-1,2-1.33.33-2.67,0.67-4,1-0.33.67-.67,1.33-1,2-2,.67-4,1.33-6,2-0.33.67-.67,1.33-1,2h-2v1h-2c-0.33.67-.67,1.33-1,2-2,.67-4,1.33-6,2-0.33.67-.67,1.33-1,2h-2v1h-2v1h-2v1h-2c-0.33.67-.67,1.33-1,2h-2v1h-2v1h-2v1h-2v1h-2c-0.33.67-.67,1.33-1,2-1.33.33-2.67,0.67-4,1v1h-2v1h-2v1h-2v1h-2v1c-1.33.33-2.67,0.67-4,1v1c-1.33.33-2.67,0.67-4,1v1h-2v1h-2c-0.33.67-.67,1.33-1,2-2,.67-4,1.33-6,2v1h-3v1c-2,.67-4,1.33-6,2v1h-2v1h-2v1h-2v1h-2v1h-2v1h-2v1h-2v1h-2v1h-3v1h-2v1h-2v1c-2,.67-4,1.33-6,2v1h-3v1h-2v1c-1.33.33-2.67,0.67-4,1v1h-3v1c-1.33.33-2.67,0.67-4,1v1h-3v1c-1.33.33-2.67,0.67-4,1v1h-3v1c-1.33.33-2.67,0.67-4,1v1h-3v1c-1.33.33-2.67,0.67-4,1v1h-3v1h-2v1h-3v1h-2v1c-1.67.33-3.33,0.67-5,1v1h-3v1h-2v1h-3v1h-2v1h-3v1h-2v1h-3v1h-2v1c-2,.33-4,0.67-6,1v1h-2v1c-2,.33-4,0.67-6,1v1h-2v1c-3,.67-6,1.33-9,2v1h-2v1c-3,.67-6,1.33-9,2v1h-2v1q-9,2.505-18,5c-18.61,7.43-39.91,13.1-59,20q-9,1.995-18,4c-23.53,8.51-50.78,12.76-75,21-2.67.33-5.33,0.67-8,1v1h-4v1h-5v1h-4v1h-4v1h-4v1h-5c-8.21,2.66-18.68,4.4-27,7-3.33.33-6.67,0.67-10,1-8.69,2.81-20.14,4.24-29,7-3.67.33-7.33,0.67-11,1v1h-5v1h-5v1h-5v1h-6v1h-5v1h-6v1h-6v1h-6c-11.31,3.44-25.77,4.64-38,7,0.05,14.02.39,25.41-5,34-0.67.33-1.33,0.67-2,1-0.33,1.33-.67,2.67-1,4-0.67.33-1.33,0.67-2,1q-3,3.495-6,7h-2c-0.33.67-.67,1.33-1,2h-2c-0.33.67-.67,1.33-1,2q-7.995,3.495-16,7h-4c-12.55,4.09-31.37,3-48,3H1597v20h-1c-0.33,1.33-.67,2.67-1,4-2.33,1.67-4.67,3.33-7,5h-4v1h-3v1c-2.33.33-4.67,0.67-7,1v1h-2v1h-3v1h-2v1l-9,3c-0.33.67-.67,1.33-1,2-2,.67-4,1.33-6,2-0.33.67-.67,1.33-1,2h-2c-0.67,1-1.33,2-2,3h-2c-0.67,1-1.33,2-2,3h-2q-3,3.495-6,7h-2c-0.67,1.33-1.33,2.67-2,4q-4.005,3.495-8,7v2c-1,.67-2,1.33-3,2v2c-0.67.33-1.33,0.67-2,1-0.33,1-.67,2-1,3h-1c-0.33,1.33-.67,2.67-1,4-0.67.33-1.33,0.67-2,1-0.33,1.33-.67,2.67-1,4h-1c-0.67,2-1.33,4-2,6h-1v3h-1v2h-1v3h-1v3h-1v3h-1v4h-1v4h-1v5h-1q-0.495,12.495-1,25v49c0,19.6-1.22,41.25,4,56h1c0.67,3,1.33,6,2,9h1v2h1v3h1c0.67,2,1.33,4,2,6h1v2h1c0.33,1.33.67,2.67,1,4,0.67,0.33,1.33.67,2,1v2h1c0.33,1,.67,2,1,3,0.67,0.33,1.33.67,2,1v2c0.67,0.33,1.33.67,2,1,0.33,1,.67,2,1,3,1.67,1.33,3.33,2.67,5,4v2c0.67,0.33,1.33.67,2,1q3,3.495,6,7h2c1.67,2,3.33,4,5,6h2c0.33,0.67.67,1.33,1,2h2c0.67,1,1.33,2,2,3,1.33,0.33,2.67.67,4,1,0.33,0.67.67,1.33,1,2,2,0.67,4,1.33,6,2v1h2v1c2,0.67,4,1.33,6,2v1q12,3.495,24,7,16.5,0.495,33,1v1h15v1h9v1h7v1h7v1c3.33,0.33,6.67.67,10,1v1h5v1h4v1h4v1h4v1h3v1h4v1h3v1h3v1h3v1h3v1c2,0.33,4,.67,6,1v1h2v1h3v1h2v1h3v1h2v1h3v1c2,0.67,4,1.33,6,2v1h2v1h3v1c1.33,0.33,2.67.67,4,1v1h2c0.33,0.67.67,1.33,1,2h2v1h2v1h2v1h2v1h2c0.33,0.67.67,1.33,1,2,1.33,0.33,2.67.67,4,1,0.33,0.67.67,1.33,1,2h2v1h2c0.33,0.67.67,1.33,1,2h2c0.33,0.67.67,1.33,1,2h2c0.33,0.67.67,1.33,1,2h2v1c1,0.33,2,.67,3,1,0.33,0.67.67,1.33,1,2h2c0.33,0.67.67,1.33,1,2,1,0.33,2,.67,3,1,0.67,1,1.33,2,2,3h2c0.67,1,1.33,2,2,3h2c1,1.33,2,2.67,3,4h2c1.67,2,3.33,4,5,6h2q5.505,6,11,12h2c1.67,2.33,3.33,4.67,5,7q4.5,4.005,9,8c0.33,1,.67,2,1,3,1.67,1.33,3.33,2.67,5,4v2c1.33,1,2.67,2,4,3v2c1,0.67,2,1.33,3,2v2c1,0.67,2,1.33,3,2,0.33,1,.67,2,1,3,0.67,0.33,1.33.67,2,1v2c0.67,0.33,1.33.67,2,1v2c0.67,0.33,1.33.67,2,1v2c0.67,0.33,1.33.67,2,1v2c0.67,0.33,1.33.67,2,1v2c0.67,0.33,1.33.67,2,1,0.33,1.33.67,2.67,1,4,0.67,0.33,1.33.67,2,1,0.33,1.33.67,2.67,1,4,0.67,0.33,1.33.67,2,1v2h1v2h1v2h1v2c0.67,0.33,1.33.67,2,1,0.33,1.33.67,2.67,1,4h1c0.67,2,1.33,4,2,6h1v3h1v2h1c0.33,1.33.67,2.67,1,4h1v3h1c0.33,1.33.67,2.67,1,4h1v3h1v2h1c0.33,2,.67,4,1,6h1v3h1v3h1v3h1v3h1v3h1v3h1q4.5,22.005,9,44,0.495,11.505,1,23c2.18,7.78,1,20.5,1,30v101q-0.495,10.5-1,21h-1v2h-1v3h-1v2q-4.995,5.505-10,11c-14.36,9.73-52.17,6-76,6H683q-9.5-.495-19-1v-1c-2-.33-4-0.67-6-1v-1h-2c-0.333-.67-0.667-1.33-1-2h-2q-5-5.505-10-11c-0.333-1.33-.667-2.67-1-4h-1c-3.679-8.48-2-26.29-2-38v-82c0-11.26-1.678-26.54,1-36v-13h1v-9h1v-7h1v-6h1v-6h1v-4h1v-5q5.5-18.495,11-37h1v-2h1v-3h1v-2h1v-3h1c0.333-1.33.667-2.67,1-4h1v-3h1q1-3,2-6h1v-2h1v-2h1v-2h1v-2h1v-2h1v-2h1v-2h1v-2h1v-2c0.667-.33,1.333-0.67,2-1q1-3,2-6h1q0.5-1.5,1-3c0.667-.33,1.333-0.67,2-1,0.333-1.33.667-2.67,1-4,0.667-.33,1.333-0.67,2-1v-2h1q0.5-1.5,1-3c0.667-.33,1.333-0.67,2-1v-2c1-.67,2-1.33,3-2v-2c0.667-.33,1.333-0.67,2-1v-2c1-.67,2-1.33,3-2v-2l4-3v-2l4-3v-2c2-1.67,4-3.33,6-5v-2l10-9q7.5-7.995,15-16h2l5-6h2c1-1.33,2-2.67,3-4h2c1-1.33,2-2.67,3-4,1-.33,2-0.67,3-1,0.333-.67.667-1.33,1-2h2v-1c1-.33,2-0.67,3-1,0.333-.67.667-1.33,1-2h2l2-3h2c0.333-.67.667-1.33,1-2,1.333-.33,2.667-0.67,4-1v-1c1-.33,2-0.67,3-1,0.333-.67.667-1.33,1-2h2v-1h2c0.333-.67.667-1.33,1-2,2-.67,4-1.33,6-2,0.333-.67.667-1.33,1-2h2v-1h2v-1h2v-1h2v-1h2v-1h2v-1h2v-1h2v-1c2-.67,4-1.33,6-2v-1h3v-1c1.333-.33,2.667-0.67,4-1v-1h3v-1h2v-1c2-.33,4-0.67,6-1v-1h2v-1h3v-1h3v-1h3v-1h3v-1h4v-1h3v-1c2.333-.33,4.667-0.67,7-1v-1h4v-1h5v-1h4v-1h5v-1h6v-1h6v-1h7v-1h9v-1h15v-1h15c12.716,0,32.411,2.04,43-1h7v-1h5v-1h4v-1h3v-1c2.33-.33,4.67-0.67,7-1v-1h2v-1h3v-1c2-.67,4-1.33,6-2v-1h2v-1c2-.67,4-1.33,6-2,0.33-.67.67-1.33,1-2,1.33-.33,2.67-0.67,4-1,0.33-.67.67-1.33,1-2h2c0.67-1,1.33-2,2-3h2c1.33-1.67,2.67-3.33,4-5h2q3.495-4.005,7-8c1-.67,2-1.33,3-2v-2c1.33-1,2.67-2,4-3,0.33-1,.67-2,1-3,0.67-.33,1.33-0.67,2-1v-2c0.67-.33,1.33-0.67,2-1,0.33-1,.67-2,1-3h1v-2c0.67-.33,1.33-0.67,2-1,0.67-2,1.33-4,2-6h1c0.67-2,1.33-4,2-6h1v-3h1v-2h1v-3h1v-3h1v-3h1v-4h1v-4h1v-5h1q0.495-12.495,1-25v-46c0-24.05.72-44.9-6-62-0.33-2-.67-4-1-6h-1c-0.33-1.33-.67-2.67-1-4h-1l-3-9c-15.6-24.92-36.19-44.32-66-55h-4v-1h-4v-1h-4v-1h-5v-1h-9v-1H943v-1h-7v-1h-4v-1h-4v-1c-2-.33-4-0.67-6-1v-1c-1.333-.33-2.667-0.67-4-1v-1c-1.667-.33-3.333-0.67-5-1-0.333-.67-0.667-1.33-1-2-1.333-.33-2.667-0.67-4-1v-1c-1-.33-2-0.67-3-1-0.333-.67-0.667-1.33-1-2h-2c-0.333-.67-0.667-1.33-1-2h-2l-5-6-10-9v-2c-2-1.67-4-3.33-6-5v-2c-2-1.67-4-3.33-6-5v-2c-2-1.67-4-3.33-6-5v-2h-1l-2-3c-1-.67-2-1.33-3-2v-2c-2-1.67-4-3.33-6-5v-2c-2-1.67-4-3.33-6-5v-2c-2-1.67-4-3.33-6-5v-2l-7-6v-2l-7-6v-2q-4-3.495-8-7v-2q-4-3.495-8-7v-2c-0.667-.33-1.333-0.67-2-1v-1q-4.5-4.005-9-8v-2h-1l-2-3q-6-5.505-12-11c-5.892-8.15-13.024-14.03-20-21q-4.5-4.995-9-10h-2q-3.5-4.005-7-8l-4-3c-0.333-.67-0.667-1.33-1-2h-2q-3.5-4.005-7-8h-2q-3-3.495-6-7h-2c-1.333-1.67-2.667-3.33-4-5h-2c-1-1.33-2-2.67-3-4h-2c-1-1.33-2-2.67-3-4h-2c-1-1.33-2-2.67-3-4h-2l-2-3h-2l-2-3h-2l-2-3h-2c-0.333-.67-0.667-1.33-1-2h-2l-2-3h-2c-0.333-.67-0.667-1.33-1-2-1-.33-2-0.67-3-1v-1h-2c-0.333-.67-0.667-1.33-1-2h-2c-0.333-.67-0.667-1.33-1-2h-2c-0.333-.67-0.667-1.33-1-2h-2c-0.333-.67-0.667-1.33-1-2h-2c-0.333-.67-0.667-1.33-1-2-1.333-.33-2.667-0.67-4-1-0.333-.67-0.667-1.33-1-2h-2c-0.333-.67-0.667-1.33-1-2h-2v-1h-2v-1h-2c-0.333-.67-0.667-1.33-1-2-2-.67-4-1.33-6-2-0.333-.67-0.667-1.33-1-2h-2v-1h-2v-1h-2v-1h-2v-1h-2c-0.333-.67-0.667-1.33-1-2-2-.67-4-1.33-6-2v-1h-2v-1h-2v-1c-2-.67-4-1.33-6-2v-1h-3v-1h-2v-1h-2v-1c-2-.67-4-1.33-6-2v-1h-3v-1c-1.333-.33-2.667-0.67-4-1v-1h-3c-2.648-1.18-2.8-2.49-7-3,0.683-3.56,2.614-4.52,4-7,0.333-1.33.667-2.67,1-4,0.667-.33,1.333-0.67,2-1,0.333-1.33.667-2.67,1-4,0.667-.33,1.333-0.67,2-1q1-3,2-6c0.667-.33,1.333-0.67,2-1q1-3,2-6c0.667-.33,1.333-0.67,2-1q1-3,2-6c0.667-.33,1.333-0.67,2-1,0.333-1.33.667-2.67,1-4,0.667-.33,1.333-0.67,2-1q1-3,2-6c0.667-.33,1.333-0.67,2-1q1-3,2-6c0.667-.33,1.333-0.67,2-1,0.333-1.33.667-2.67,1-4,0.667-.33,1.333-0.67,2-1q1-3,2-6c0.667-.33,1.333-0.67,2-1q1-3,2-6c0.667-.33,1.333-0.67,2-1,0.333-1.33.667-2.67,1-4h1v-2c0.667-.33,1.333-0.67,2-1,0.333-1.33.667-2.67,1-4,0.667-.33,1.333-0.67,2-1q1-3,2-6c0.667-.33,1.333-0.67,2-1q1-3,2-6c0.667-.33,1.333-0.67,2-1,0.333-1.33.667-2.67,1-4,0.667-.33,1.333-0.67,2-1q1-3,2-6c0.667-.33,1.333-0.67,2-1q1-3,2-6c0.667-.33,1.333-0.67,2-1q1-3,2-6c0.667-.33,1.333-0.67,2-1v-2h1v-2c0.667-.33,1.333-0.67,2-1q1-3,2-6c0.667-.33,1.333-0.67,2-1,0.333-1.33.667-2.67,1-4,0.667-.33,1.333-0.67,2-1,0.333-1.33.667-2.67,1-4,0.667-.33,1.333-0.67,2-1v-2h1v-2c0.667-.33,1.333-0.67,2-1q1-3,2-6h1q0.5-1.5,1-3c0.667-.33,1.333-0.67,2-1q1-3,2-6c0.667-.33,1.333-0.67,2-1v-2h1v-2c0.667-.33,1.333-0.67,2-1q1-3,2-6c0.667-.33,1.333-0.67,2-1v-3c0.667-.33,1.333-0.67,2-1,0.333-1.33.667-2.67,1-4,0.667-.33,1.333-0.67,2-1,0.333-1.33.667-2.67,1-4,0.667-.33,1.333-0.67,2-1v-2h1v-2h1v-2h1v-2h1c0.333-1.33.667-2.67,1-4,0.667-.33,1.333-0.67,2-1q1-3,2-6c0.667-.33,1.333-0.67,2-1,0.333-1.33.667-2.67,1-4,0.667-.33,1.333-0.67,2-1v-2C716.342,1291.63,718.177,1290.11,719,1287Z" />
</svg>
