<svg xmlns="http://www.w3.org/2000/svg" width="128" height="128" viewBox="0 0 512 512">
  <defs>
    <style>
      .cls-1 {
        fill: #fff;
        fill-rule: evenodd;
      }
</style>
  </defs>
  <path id="Color_Fill_1" data-name="Color Fill 1" class="cls-1" d="M258,48h2c-2.174,4.734-4.481,9.361-6,15q1,7,2,14h1v3h1v2h1v3h1q0.5,2,1,4h1v2l2,1q1,3,2,6l2,1v2h1v2h1v2h1v2l2,1v2h1v2h1v3h1v2h1v3h1v4h1c1.29,4.31-.792,12.667-2,15h-1l-1,4-5,4-1,2h-2l-2,3-4,1-1,2h-2c-5.686,3.157-12.743,6.537-20,8v-1l4-3v-2l4-3q0.5-2,1-4l2-1c1.21-1.991,5.09-16.149,4-20h-1v-6h-1q-1-4.5-2-9h-1q-1-3-2-6h-1v-2h-1q-0.5-2-1-4l-2-1q-1-3-2-6l-2-1c-2.661-4.24-8.255-20.273-4-25,0.639-2.858,4.11-8.627,6-10h2l2-3h2l1-2,4-1V52C252.955,50.417,255.932,50.359,258,48ZM164,163c1.191-4.336,3.185-3.425,5-6v-2l2-1,3-9h1v-7h1v-1h-1v-7h-1q-0.5-3-1-6h-1q-1-3-2-6h-1v-2h-1v-2h-1q-0.5-2-1-4l-2-1q-0.5-2-1-4h-1q-0.5-2-1-4h-1c-2.126-4.83-2.945-14.506,0-19l6-5,1-2h2l1-2h2c2.916-1.645,4.588-3.531,9-4v1c-6.823,5.876-3.632,22.156,0,29h1v2h1v2h1v2h1v2l2,1v2h1v2h1v2h1v2l2,1v2h1v2h1v3h1v2h1v4h1c1.221,4.052-.771,13-2,15l-2,1v2l-3,2v1h-2l-2,3-4,1v1h-2C175.016,158.665,170.619,161.653,164,163ZM336,69l-1,3h-1q-0.5,3-1,6h-1c-1.742,5.576,3.366,19.938,5,23h1l1,4,2,1,2,6,2,1,7,16v12c-1.812,1.569-.856,1.993-2,4h-1v2l-4,3-1,2h-2l-1,2-4,1-1,2-17,6v-1c3.21-1.919,3.928-4.9,6-8l2-1v-2h1v-2h1v-3h1v-5c3.72-12.6-8.151-28.06-13-36l-1-5h-1V98h-1V94c-2.727-8.514,1.6-11.676,6-16l2-3,4-1,1-2ZM115,179H395c0.844,1.135-.127.145,1,1,0.408,5.96,2.946,19.852-1,24-1.7,1.583-6.727,1.1-10,1,0.154,15.312-.236,29.86-4,41v4c-7.963,22.31-20.33,41.309-38,54l-3,4h-2l-1,2h-2l-2,3-4,1-1,2-4,1-1,2h-2v1l-4,1v1h-3v1l-4,1v1l-6,1v1h-2v1h-4v1h-3v1h-4c-13.71,4.574-40.494,7.805-57,3h-6l-25-7v-1h-2v-1h-3v-1l-6-2v-1h-2v-1l-6-2-1-2-4-1-1-2h-2l-1-2h-2l-1-2h-1l-1-2h-2l-3-4h-2l-2-3-8-7v-2l-5-4v-2l-3-2v-2l-2-1-1-3h-1l-2-6-2-1v-2h-1v-2h-1v-3h-1v-2h-1v-3h-1v-2h-1q-0.5-3-1-6h-1v-4h-1v-5h-1v-6h-1V205H115c-0.906-4.713-3.932-12.4-2-19h1v-5S114.618,181.011,115,179ZM73,418c6.37-.458,13.652-3.184,19-5l8-1c6.979-2.391,15.89-4.585,23-7h4c4.711-1.61,11.286-3.4,16-5h4c3.613-1.234,7.132-2.654,12-3v-2c-6.265-.446-12.018-3.22-17-5l-8-1v-1h-3v-1l-7-1v-1l-7-1v-1l-7-1v-1l-8-1v-1l-7-1v-1l-21-5c-0.387-5.48-3.862-16.979-2-23h1v-4h1v-2h1l1-5,2-1v-2l2-1v-2l5-4,1-3h5v1l7,1v1h4v1h3v1h4c15.464,5.61,33.573,9.448,49,15l8,1c15.415,5.532,33.571,9.449,49,15h4v1h3v1h4v1h4v1l7,1v1l7,1v1h3v1h4v1h3v1l170-43,7,8,2,1v2l2,1c2.127,3.377,6.178,18.763,4,26l-3,9-36,10-8,1c-6.029,2.077-13.971,3.923-20,6h-4v1h-3v1h-4v1h-4v1h-4v1l-8,1v1l-8,1c-24.742,8.506-53.307,12.552-78,21h-5c-9.427,3.248-21.393,5.718-31,9l-8,1c-17.327,5.935-37.555,9.051-55,15h-4v1h-4v1h-4v1h-4v1h-3v1h-4v1h-4v1h-4v1h-4v1l-8,1v1l-8,1c-6.893,2.345-15.73,5.479-24,6l-3-4H81v-2l-3-2v-2l-2-1v-2H75l-1-4H73v-3H72v-4H71C68.811,433.657,72.7,424.232,73,418Zm310-10,10,2v1h4v1h3v1l7,1v1l7,1v1l7,1v1h4v1l10,2v1c1.941,1.977,4.837,18.4,3,24-2.391,7.286-10.387,21.61-19,22l-18-6h-4v-1h-3v-1h-4c-21.257-7.7-45.7-12.342-67-20h-4v-1h-3v-1l-7-1v-1l-11-2v-1l-7-1v-1h2v-1l7-1v-1h4v-1h4v-1h4c16.084-5.5,35.062-8.572,51-14h4v-1h4v-1h4v-1C378.167,408.92,380.848,410.061,383,408Z" />
</svg>
