<svg xmlns="http://www.w3.org/2000/svg" width="128.04" height="128.04" viewBox="0 0 1200 1200">
  <defs>
    <style>
      .cls-1 {
        fill: #fff;
        fill-rule: evenodd;
      }
</style>
  </defs>
  <path id="Color_Fill_1" data-name="Color Fill 1" class="cls-1" d="M592,233c0.642-2.512.537-1.632,2-3v-1h2l4-5h1v-2l4-3v-2l2-1v-2h1v-3l2-1q0.5-2,1-4h1q0.5-2,1-4h1q0.5-3,1-6h1v-2h1q0.5-3,1-6h1v-3h1v-3h1v-3h1v-3h1q1-5,2-10h1v-5h1v-4h1v-4h1v-4h1v-4h1v-4h1q0.5-6,1-12c1.882-6.236,3.093-14.621,5-21,1.178-3.941-.342-9.429,2-12a35.61,35.61,0,0,0,2,12v6h1v6h1v5h1v5h1q0.5,5.5,1,11h1v4h1v4h1v4h1q2,10,4,20h1v3h1v3h1v3h1q-0.5,1-1,2h1q0.5,2,1,4h1q0.5,3,1,6h1q0.5,2.5,1,5h1v2h1v3h1q0.5,2,1,4h1q0.5,2,1,4l2,1q1,3,2,6l4,3v2l5,4q0.5,1,1,2h2l2,3h2q0.5,1,1,2l6,2q0.5,1,1,2h2v1h2v1h3v1h2v1h3v1h2v1h3v1h2v1l6,1v1h4v1h3v1h3v1h3v1h3v1l7,1v1h6c4.71,1.516,11.294,3.472,16,5h6v1h6v1h4v1h6v1h6v1h5v1c4.022,1.275,7.252-.555,10,2-8.577-.1-17.33,1.921-24,4h-5v1h-6v1h-5v1l-10,1c-4.54,1.459-10.537,3.563-15,5h-5v1l-7,1v1h-3v1h-3v1h-3v1h-3v1h-4v1l-5,1v1h-2v1h-3v1h-3v1l-6,2v1h-2q-0.5,1-1,2l-6,2q-0.5,1-1,2h-2l-3,4h-2v1l-2,1v2l-5,4-12,24v3h-1v2h-1q-0.5,2.5-1,5h-1v4h-1v3h-1v4h-1v3h-1v3h-1v5h-1v3h-1v4h-1v4h-1v4h-1q-0.5,4.5-1,9h-1v6h-1v5h-1v5h-1v5h-1v5h-1v6h-1v6h-1v6h-1c-0.043-7.539-2.125-16.992-4-23v-5h-1v-5h-1v-6h-1v-5h-1v-4h-1v-5h-1v-4h-1v-3h-1v-5h-1v-5c-7.161-21.092-14.088-42.667-26-59h-1l-2-3h-2l-3-4h-2q-0.5-1-1-2h-2v-1h-2v-1h-2v-1h-2q-0.5-1-1-2h-2v-1l-4-1v-1h-3v-1h-3v-1h-2v-1l-5-1v-1l-7-1v-1h-3v-1h-3v-1h-3v-1l-7-1v-1l-17-3v-1l-8-1v-1h-5v-1h-6v-1h-5v-1h-5c-4.779-1.489-12.082-2.546-17-4h-7v-1a38.3,38.3,0,0,0,10-2h6v-1h5v-1l11-1v-1h4v-1h7v-1h4v-1h4v-1h4v-1h4v-1h6v-1l7-1v-1h3v-1h3v-1h3v-1h3v-1l10-2v-1h2v-1l5-1v-1h3v-1h3v-1l4-1v-1h2q0.5-1,1-2h2v-1h2v-1h2v-1C589.385,233.083,589.757,233.335,592,233ZM885,367v2l3,1v1h2v1h2q0.5,1,1,2l6,1v1l4,1v1h3v1h3v1h3v1h5v1h3v1h4v1h4v1h5v1h5v1l16,2v1a57.957,57.957,0,0,0-17,3h-5v1h-4v1h-5v1l-8,1v1h-3v1h-3v1h-3v1l-7,1v1l-6,2v1h-2v1l-4,1-5,6-2,1v2l-2,1v3l-2,1v3h-1q-0.5,2-1,4h-1v3h-1v2h-1v4h-1v3h-1q-0.5,3.5-1,7h-1v4h-1v6h-1v5h-1v5h-1q-1,7.5-2,15h-1c0.1-9.614-2.613-19.591-5-27q-0.5-4-1-8h-1q-0.5-4-1-8h-1v-3h-1v-3h-1v-3h-1v-3h-1q-0.5-2-1-4h-1v-3l-2-1q-0.5-2-1-4h-1c-1.434-1.793-2.248-2.395-3-5a7.7,7.7,0,0,1-4-2v-1l-4-1v-1h-2v-1l-6-2v-1h-4v-1h-2v-1h-3v-1h-3v-1l-7-1v-1h-4v-1l-10-1v-1h-5v-1c-4.242-1.328-14.439-.647-17-3,11.537-.5,24.822-3.758,34-7l15-3v-1l5-1v-1l4-1v-1h3v-1l4-1,2-3h2q0.5-1,1-2l4-3v-2l2-1,9-22v-5h1v-3h1v-3h1v-5h1v-4h1v-5h1v-5h1c1.278-4.367-.494-11.117,2-14-0.033,5.817,1.615,11.589,3,16q1,7.5,2,15h1v4h1v5h1v2h1v3h1q0.5,3.5,1,7h1v2h1v3h1v2h1v2h1v2h1C880.131,361.926,880.113,365.731,885,367ZM322,418v-2h2l3-4h1v-2l2-1v-2l2-1v-2h1l1-4h1v-3h1l1-4h1l1-5h1q0.5-3.5,1-7h1v-3h1v-3h1q0.5-3.5,1-7h1q0.5-4,1-8h1v-5c2.352-7.445,3.7-17.447,6-25,1.249-4.1-.747-6.279,2-9a77.752,77.752,0,0,0,4,23q0.5,4.5,1,9h1q0.5,5,1,10h1v4h1q1,5.5,2,11h1v3h1v3h1v3h1l1,5h1v2h1v3h1v2h1v3l2,1,1,4,2,1v2l2,1v2l3,1,4,5h2l1,2,4,1v1l6,2v1h3l1,2h3v1l10,2v1h2v1l12,2v1h5v1h3v1l9,1v1l11,1v1h6v1c4.228,1.24,9.187-.459,12,2a41.694,41.694,0,0,0-10,2h-7v1h-5v1h-5v1h-5v1h-5v1h-3v1h-4v1l-9,1v1l-10,2v1h-2v1h-3v1l-6,1v1l-6,2v1h-2v1l-6,2-1,2h-2l-2,3-6,5v2h-1v2l-2,1-2,6h-1v2h-1q-0.5,3-1,6h-1l-1,4h-1v4h-1v2h-1q-0.5,4-1,8h-1v3h-1v3h-1q-0.5,4-1,8h-1q-0.5,5.5-1,11c-2.379,7.8-4.983,17.238-5,27h-1v-2h-1v-6c-1.409-4.7-2.6-11.441-4-16v-5h-1v-5h-1v-5h-1v-4h-1v-4h-1v-3h-1v-4h-1v-3h-1v-3h-1q-0.5-3.5-1-7h-1l-1-4h-1v-3h-1l-1-4h-1v-3l-2-1-1-4-2-1v-2l-2-1v-2h-1l-2-3h-2l-1-2-3-1v-1l-4-1-1-2-5-1v-1l-6-2v-1h-4v-1h-3v-1h-2v-1h-4v-1h-2v-1h-4v-1h-3v-1h-5v-1h-5v-1h-3v-1h-5v-1h-5v-1h-5v-1h-4v-1h-8v-1c-4.127-1.2-7.411.379-10-2a60.738,60.738,0,0,0,18-3l11-1v-1h5v-1h4v-1h4v-1l9-1v-1h3v-1l10-2v-1h2v-1h3v-1h4v-1h2v-1h2v-1h2v-1h2v-1h2C315.869,421.466,318.468,418.965,322,418Zm262,599c-6-1.37-10.68-5.56-17-7v-2c-0.667.33-1.333,0.67-2,1v-1c-1.333-.33-2.667-0.67-4-1v-1c-1.667-.33-3.333-0.67-5-1v-1c-1.333-.33-2.667-0.67-4-1v-1h-3v-1c-1.333-.33-2.667-0.67-4-1v-1l-6-1v-1l-4-1v-1l-6-1v-1l-4-1v-1l-7-1v-1h-2v-1l-9-2v-1h-2v-1h-4v-1l-7-1v-1l-14-3v-1h-3v-1h-4v-1h-3v-1h-4v-1h-4v-1l-10-1v-1l-10-1c-4.559-1.414-11.3-2.594-16-4h-9v-1h-9v-1h-9v-1H385v-1H370c-12.676,0-27.96-1.011-38,2h-8v1h-7v1h-9v1l-19,3v1h-4v1h-3v1h-6v1l-10,2v1h-3v1h-3v1l-7,1v1h-3v1h-3v1l-2-1v2c-7.579.532-13.377,4.543-19,7l-6,1v1l-4,1v1h-2v1h-3v1l-4,1v1h-3v1h-2v1h-2v1h-2v1c-2,.67-4,1.33-6,2v1h-3v1c-2,.67-4,1.33-6,2v1h-2c-0.333.67-.667,1.33-1,2l-9,3v-1c2.166-2.57.838-6.32,2-10h1v-5h1v-5h1v-6c5.256-17.083,6.862-37.873,12-55q0.5-6,1-12h1v-4h1v-5h1v-5h1q0.5-4.5,1-9h1v-7c6.058-19.99,7.871-44.1,14-64v-7c2.676-8.843,4.279-20.056,7-29v-6c1.756-5.731,3.273-13.325,5-19v-6c5.756-18.806,7.175-41.338,13-60q1-8,2-16h1v-4h1v-6h1v-5h1v-4h1v-5h1v-7h1q2.5-14.5,5-29l3-2v-1l4-1,2-3h2l1-2,4-1,1-2h2l1-2h2v-1h2v-1h2v-1h2v-1l4-1,1-2h2v-1h2v-1h3l1-2,5-1,1-2h3v-1h2v-1h3v-1h2v-1l4-1v-1l6-1v-1h2v-1l6-1v-1h2v-1h4v-1h2v-1h4v-1h3v-1h4v-1h3v-1h3v-1l7-1v-1h6v-1h4v-1h5v-1h5v-1l12-1v-1h8v-1h16v-1c5.083-1.46,20.328-.054,24,1h15v1h7v1h5v1h6v1h4v1h4v1h4v1h5v1h3v1h3v1h3v1l6,1v1h2v1l9,2v1l4,1v1h3v1l6,2v1h2v1h2v1h2v1h3q0.5,1,1,2l6,2q0.5,1,1,2l4,1q0.5,1,1,2h2v1h2v1l3,1q0.5,1,1,2l4,1,2,3h2q0.5,1,1,2h2q0.5,1,1,2l3,1,2,3h2l6,7h2l2,3h1V953c-1.01,1.693,0,13.831,0,19C584,988.574,583.888,999.792,584,1017ZM950,623l3,1c0.373,5.815,2.432,13.055,4,18q0.5,6,1,12h1q0.5,5,1,10h1v4h1q0.5,5,1,10c4.036,12.705,5.164,28.334,9,41v7h1v4h1v5h1v5h1v5c1.943,6.134,3.049,14.815,5,21v5h1q0.5,4.5,1,9h1q0.5,6,1,12c5.879,18.6,7.374,41.366,13,60v7h1v5h1v5h1v4h1v5h1v5h1v5h1v7c5.72,18.832,6.48,36.688,12,55v7c2.16,7.157,3.73,16.949,6,24q0.5,6,1,12h1v5c1.43,4.56,2.25,11.43,4,16h-2c-3.25-3.45-9.53-4.64-14-7v-1h-2v-1h-3v-1h-2c-0.33-.67-0.67-1.33-1-2h-3c-0.67-1-1.33-2-2-3l-2,1v-1h-2v-1h-3v-1l-4-1v-1h-3v-1h-2v-1l-4-1v-1l-6-1v-1h-2v-1h-3v-1l-4-1v-1l-7-1q-0.5-1-1-2h-4v-1h-3v-1h-3v-1h-4v-1h-3v-1h-2v-1l-8-1v-1h-3v-1h-3v-1h-6v-1h-3v-1h-4v-1l-9-1v-1h-5v-1h-6c-7.025-2.084-16.9-1.9-24-4H856v-1H844c-9.158,0-21.567-1.185-29,1H801v1h-9v1h-8v1h-9c-4.958,1.486-12.158,2.49-17,4h-6v1h-4v1h-4v1h-6v1h-4v1l-11,2v1h-3v1l-12,2v1l-13,3v1h-2v1h-3v1l-6,1v1h-2v1l-7,1v1l-4,1v1l-6,1v1l-4,1v1l-6,1v1c-1.333.33-2.667,0.67-4,1v1h-3v1h-2v1c-1.667.33-3.333,0.67-5,1v1c-2,.67-4,1.33-6,2v1h-2v1h-2v1h-3v1c-1.333.33-2.667,0.67-4,1v1h-3v1h-2v1c-1,.33-2,0.67-3,1-0.326-123.218,0-258.678,0-388,3.28-1.9,4.751-4.9,9-6,0.732-2.469.5-1.62,2-3v-1h2l2-3h2q0.5-1,1-2h2l2-3,3-1q0.5-1,1-2l4-1q0.5-1,1-2h2q0.5-1,1-2h2q0.5-1,1-2h2v-1h2v-1h2q0.5-1,1-2l6-2q0.5-1,1-2h3v-1h2v-1h2q0.5-1,1-2h3v-1l4-1v-1h3v-1l4-1v-1l9-2v-1h2v-1l6-1v-1h3v-1h3v-1h3v-1h5v-1h4v-1h4v-1h4v-1l11-1v-1l22-1v-1c5.146-1.456,20.27-.055,24,1h10l21,2c8.7,2.622,19.6,4.137,28,7h4l39,13v1h2v1l4,1v1h3v1h2v1h3q0.5,1,1,2h3v1h2q0.5,1,1,2l9,3q0.5,1,1,2h2v1h2v1h2v1h2v1h2v1l3,1q0.5,1,1,2l4,1q0.5,1,1,2h2q0.5,1,1,2C947.084,620.073,948.74,618.6,950,623Zm-193-8c0.014,6.864-2.208,14.686-4,20q-0.5,5-1,10h-1v4h-1v4h-1v3h-1v3h-1v2h-1v4h-1q-0.5,2-1,4h-1q-0.5,2.5-1,5l-2,1q-0.5,2-1,4l-5,4-3,4-16,7h-3v1h-2v1h-4v1h-3v1c-1.528.532-2.708,0.14-3-1h-1v2c-6.611-.038-12.907,2.4-18,4h-6v1c-4.087,1.237-6.307-.75-9,2,9.395,0.051,17.825,2.712,25,5h5v1h3v1h6v1h3v1h3v1h3v1h2v1h3v1h2v1h3l14,10v2l2,1q0.5,2,1,4h1q1,3,2,6h1q1,4.5,2,9h1v3h1v3h1q0.5,3.5,1,7h1v4h1v6c1.6,5.255,3.731,12.48,4,19h2c4.144-23.583,8.381-48.99,20-65h1l2-3h2l2-3,6-2v-1h3v-1l4-1v-1l35-9,15-2v-1c-23.79-4.116-48.329-8.711-65-20h-2l-2-3h-1v-2l-2-1q-0.5-1.5-1-3h-1q-1-3-2-6h-1v-3h-1v-2h-1v-3h-1v-3h-1v-3h-1v-3h-1v-4h-1v-5c-2.713-8.215-5.571-18.5-6-29h-2Zm233,37c6.619,1.119,10.26,3.315,15,6h2c0.33,0.667.67,1.333,1,2h2v1c2.32,1.921,3.71,4.058,7,5,0.63,2.605,1.59,3.265,3,5h1v2c0.67,0.333,1.33.667,2,1q3.495,8,7,16l3,23c4.17,13.13,5.76,29.9,10,43q1.005,8,2,16h1v4h1v4h1c0.33,3.333.67,6.667,1,10h1v4h1v5h1v6h1v5h1v4h1v5h1q1.005,7.5,2,15h1c0.33,3,.67,6,1,9h1v4h1c0.33,3,.67,6,1,9h1v6h1v4h1v5c0.41,1.355.87-.408,1,1h-1v1h1v2h1v5h1c0.33,3,.67,6,1,9h1v6h1v5c7.96,24.621,10.24,54.18,18,79v6h1v5h1v5h1v4h1v5c1.91,6.14,3.07,14.81,5,21v5h1v4h1v5h1v5h1v5h1v7h1c0.91,3.18.88,15.04,0,18h-1v5h-1c-0.33,1.33-.67,2.67-1,4h-1v2c-0.67.33-1.33,0.67-2,1v2c-0.67.33-1.33,0.67-2,1v2c-0.67.33-1.33,0.67-2,1-1,1.33-2,2.67-3,4-17.3,12.27-41.83,10-71,10H491c-8.145,0-19.829-1.45-25,0q-8-.495-16-1v1H170c-13.973,0-31.016,1.38-42-2h-5v-1h-3v-1c-1.333-.33-2.667-0.67-4-1v-1h-2c-0.333-.67-0.667-1.33-1-2h-2c-0.333-.67-0.667-1.33-1-2h-2v-1l-4-3v-2c-1-.67-2-1.33-3-2v-2c-0.667-.33-1.333-0.67-2-1v-2H98c-0.333-1.33-.667-2.67-1-4H96l-1-12H94l2-18h1v-5c2.282-7.23,3.769-16.91,6-24v-6c2.765-8.98,4.257-20.052,7-29q0.5-5,1-10h1v-4h1q0.5-5,1-10h1q0.5-5,1-10h1v-6h1v-3h1v-5h1q0.5-4.5,1-9h1q0.5-5.5,1-11c5.418-16.7,7.574-37.38,13-54v-7h1q0.5-4.5,1-9h1q0.5-4.5,1-9h1v-4h1q0.5-5.5,1-11h1v-4h1q0.5-4.5,1-9h1q0.5-5.5,1-11h1v-5h1v-4h1v-4h1q0.5-5,1-10h1q0.5-5.5,1-11h1q0.5-4.5,1-9h1v-4h1q0.5-5,1-10c3.973-12.32,5.277-27.592,9-40q0.5-6,1-12l7-16,2-1,1-3h1a8.177,8.177,0,0,0,2-4h2c3.931-6.787,16.681-13.523,27-14v1c-2.257,2.6-.834,5.27-2,9h-1v6h-1v5h-1v5c-5.3,16.325-6.947,36.649-12,53v7h-1q-0.5,4.5-1,9h-1v5c-3.352,10.606-4.639,24.281-8,35q-0.5,5.5-1,11c-6.19,19.6-7.993,43.291-14,63v6h-1v5h-1v5h-1v5h-1v4h-1v6h-1q-0.5,5-1,10h-1v5h-1v5h-1v5h-1v4h-1q-2.5,15.5-5,31c-3.824,12.2-5.281,27.891-9,40v7c-2.65,8.88-4.336,20.29-7,29v7c-0.688,2.32-3.246,8.03-2,12,0.7,2.22,2.42,4.2,3,7,1.177,0.63,1.466,1.66,2,2h2v1h2c0.333,0.67.667,1.33,1,2h6c10.234,3.01,29.633,1,42,1H318c1.383-.3-0.4-1.21,1-1,17.445,2.62,55.356,1,81,1h69c13.391,0,29.256.59,41-1,1.4-.19-0.215.28,1,1,1-.33,2-0.67,3-1a1.933,1.933,0,0,0,2,1v-1h1v1H658c12.452,0,32.281-.83,36,0H835c19.625,0,42.71-1.53,50,0h137c15.32,0,38.76,3.17,42-9,3.85-3.7,1.25-11.88,0-16v-7c-5.33-17.42-6.72-38.514-12-56v-7h-1v-5h-1v-5h-1v-4h-1v-5h-1v-5h-1v-5h-1v-6c-5.26-17.085-6.68-38.052-12-55v-6h-1v-4h-1v-7c-5.18-17.11-6.64-37.89-12-55q-1-8-2-16c-3.27-10.675-4.67-24.372-8-35v-6h-1v-4h-1v-5h-1v-5h-1c-0.33-3.666-.67-7.334-1-11h-1c-0.33-3.333-.67-6.667-1-10-2.342-7.459-3.678-17.351-6-25v-6C993.364,671.587,991.823,661.547,990,652ZM354,992c6.5-.146,15.111-0.392,20,1h19v1h10v1h8v1l21,2v1l10,1v1h5v1h4v1h4v1h4v1c3,0.33,6,.67,9,1v1c2.333,0.33,4.667.67,7,1v1h3v1h3v1c2.333,0.33,4.667.67,7,1v1h4v1h2v1l13,3v1c1.667,0.33,3.333.67,5,1v1h2v1h3v1h2v1h4v1c2.34,1.1,5.354,1.3,7,3H237c-4.736,0-18.608,1.08-21-1q6-1.995,12-4v-1h3v-1c1.333-.33,2.667-0.67,4-1v-1h3v-1h2v-1c3-.67,6-1.33,9-2v-1h2v-1c2.333-.33,4.667-0.67,7-1v-1h2v-1h3v-1h3v-1h3v-1h3v-1l38-9h6c6.268-1.895,15.447-2.109,22-4C342.811,991.611,350.792,994.858,354,992Zm472,0h20v1l2-1v1h14v1h9v1h7v1h6v1l13,1v1h4v1h4v1h4v1q9.5,2,19,4v1h2v1h4v1h3v1h3v1h3v1c2,0.33,4,.67,6,1v1h2v1h3v1h3v1h3v1h3v1c1.333,0.33,2.667.67,4,1v1h2v1c1.667,0.33,3.333.67,5,1v1h3v1c1.333,0.33,2.667.67,4,1v1h3v1c-77.674.08-153.541-.01-233,0H691c-4.735,0-18.609,1.08-21-1,4.193-.33,4.428-1.94,7-3h4v-1h2v-1h3v-1h2v-1c1.667-.33,3.333-0.67,5-1v-1h3v-1q5-1,10-2v-1h2v-1h4v-1h3v-1h4v-1h3v-1h3v-1c2.333-.33,4.667-0.67,7-1v-1h4v-1l17-3v-1h6v-1h4v-1h5v-1h7v-1h7v-1h7v-1h7v-1h12v-1C813.249,991.489,822.464,995.138,826,992Z" />
</svg>
