<svg xmlns="http://www.w3.org/2000/svg" width="128" height="128" viewBox="0 0 500 500">
  <defs>
    <style>
      .cls-1 {
        fill: #fff;
        fill-rule: evenodd;
      }
</style>
  </defs>
  <path id="Color_Fill_1" data-name="Color Fill 1" class="cls-1" d="M448,408c-4.848-1.293-10.565-9.565-14-13h-1l-24-25c-3.869-3.869-9.193-7.156-12-12-1.135.844-.145-0.127-1,1l-38,37c0.844,1.135-.127.145,1,1l36,37c3.466,3.466,11.666,9.11,13,14l-14,4H370v-1h-5v-1h-4v-1h-3v-1h-3v-1l-6-2v-1l-4-1-1-2h-2l-1-2h-2l-4-5h-2l-3-4h-1v-2l-4-3v-2l-2-1v-2l-2-1-1-4h-1l-2-6h-1v-3h-1v-2h-1v-4h-1v-4c-1.176-3.738-3.6-15.4-2-21h1v-7l4-12c-2.668-1.552-3.917-3.918-6-6q-6-6-12-12l-6-5-32-33-23-22-56-57-5-4-20-21c-3.575-3.575-8.389-6.521-11-11l-12,4h-7v1c-5.628,1.574-17.247-.8-21-2h-4v-1H97v-1H95v-1H92v-1l-6-2v-1l-4-1-1-2H79l-1-2H76l-3-4H71l-3-4H67v-2l-5-4v-2l-2-1v-2l-2-1-1-4H56l-2-6H53v-3H52v-3H51v-4H50v-5H49V107l4-14c4.848,1.293,10.565,9.565,14,13h1l24,25c3.869,3.869,9.193,7.156,12,12h1v-1c5.586-3.222,10.444-10.444,15-15q8-8,16-16c2.379-2.38,5.241-3.97,7-7-4.846-2.791-8.136-8.136-12-12L106,68V67c-3.449-3.449-11.689-9.133-13-14l14-4c4.025-1.252,26.03.043,29,1v1l10,2v1l4,1v1l6,2,1,2h2l1,2h2l4,5c12.061,8.722,17.956,22.29,23,38v8h1c1.9,6.229-1.691,20.271-3,24-1.175,3.347-.372,5.291-2,8h1L356,316l12-4h7v-1c5.628-1.574,17.247.8,21,2h4v1h4v1h2v1h3v1l6,2v1l4,1,1,2h2l1,2h2l3,4h2l3,4h1v2l5,4v2l2,1v2l2,1,1,4h1l2,6h1v3h1v3h1v4h1v5h1v24ZM393,290a8.418,8.418,0,0,1-2,4h-1c-0.582,1.059-1.723,6.663-2,8l-20,1a35.4,35.4,0,0,1-11,2c-2.058-3.5-5.821-4.64-7-9,3.2-2.765,3.33-7.6,5-12h1v-4c7.214-20.583,6.058-47.225-2-66q-0.5-3-1-6h-1l-2-6h-1v-2h-1l-2-6-2-1v-2l-2-1v-2l-2-1v-2l-3-2v-2l-10-9-6-7h-2l-2-3h-2l-2-3h-2l-1-2-6-2-1-2-9-3v-1h-2v-1l-6-1c-9.984-4.249-20.361-6-35-6H238v1h-6v1h-5v1h-4v1h-4c-5.163,1.854-9.5,5.306-16,6-2.969-4.945-6.936-4.575-7-13,2.521-2.769,3.057-17.782,3-24,4.963-.884,12.661-4.6,15-8,1.153-1.678.038-2.257,2-4V74h1V70h1V68h1l1-3c3.094-.8,5.193-3.1,8-4h47v1l5,1,4,5h1q0.5,3,1,6h1v28h1l1,4,4,3v1h2v1l4,1v1h3v1h3v1h2v1l9,3v1h2v1h10v-1h3l1-2h2l13-14c2.275-2.267,5.92-3.579,8-6l13,1,11,12,23,22c1.74,2.674,2.023,7.54,2,12h-1q-0.5,2.5-1,5h-1l-3,4c-7.831,7.862-17.925,12.263-18,28h1q0.5,2.5,1,5h1v2h1l1,4h1v3h1v2h1v3c1.915,4.684,4.718,10.641,10,12,5.368,5.237,22.8-.572,31,2v1l5,1,2,3h1v2h1v3h1v50h-1l-1,5c-2.907,1.667-4.562,4.861-8,6H401C398.193,286.908,396.1,289.2,393,290Zm-91,97c-6.736,1.345-12.879,5.169-15,11v10c-0.007,13,1.131,27.23-9,30-2.758,2.77-9.52,2-15,2H228v-1l-5-1-3-4h-1v-2h-1v-2h-1v-4h-1V398h-1q-0.5-2-1-4l-4-3v-1h-2v-1h-2v-1h-3v-1h-2v-1h-3v-1h-3v-1h-2v-1c-5.616-2.951-9.432-3.895-18-4v1h-3l-1,2h-2l-13,14c-2.275,2.267-5.92,3.579-8,6-3.435.117-9.185,0.669-11-1-5.384-1.326-7.65-5.651-11-9q-9-9-18-18l-6-5v-2l-2-1-1-11h1q0.5-2.5,1-5l3-2v-1c7.191-7.28,18.656-13.187,19-27h-1v-4h-1l-2-6h-1v-2h-1v-3h-1v-2h-1v-3c-1.915-4.681-4.718-10.646-10-12-5.368-5.237-22.8.572-31-2v-1l-5-1-4-5H64l-1-4H62V225h1l1-4c2.976-1.693,5.522-4.86,9-6H84c7.326,0,15.066-.454,21-1v-1l3-1v-1c1.7-1.46,4.026-2.909,5-5v-3h1q0.5-2,1-4c11.55,0.12,18.611-2.755,29-3,2.259,3.838,6.717,5.262,8,10-4.169,3.614-4,11.01-6,17-6.7,20.044-4.047,46.636,3,64v3h1q0.5,2,1,4h1v3h1v2h1v2l2,1,2,6h1l1,3,2,1v2l3,2v2l5,4v2l6,5,1,2h2l4,5h2l2,3h2l1,2h2l1,2h2l1,2,4,1v1h2v1l6,2v1h3v1h2v1l6,1v1h3c8.155,3.043,15.819,3.452,27,4l3,1v-1h14v-1h6v-1h5v-1h4v-1l6-1c3.547-1.416,6.187-3.481,11-4,2.969,4.945,6.936,4.575,7,13C302.479,365.769,301.943,380.782,302,387Z" />
</svg>
