<svg xmlns="http://www.w3.org/2000/svg" width="128.1" height="128.1" viewBox="0 0 2100 2100">
  <defs>
    <style>
      .cls-1 {
        fill: #fff;
        fill-rule: evenodd;
      }
</style>
  </defs>
  <path id="Color_Fill_1" data-name="Color Fill 1" class="cls-1" d="M1049,125h2c0.37,6.177,3.32,10.444,5,15,0.33,2.333.67,4.667,1,7h1v2h1c0.33,3,.67,6,1,9h1v2h1c0.33,2,.67,4,1,6h1v3h1v3h1v3h1v3h1v3h1v4h1v3h1v3h1v3h1v3h1v3h1c0.33,2,.67,4,1,6h1v5h1q3,10.5,6,21h1v3h1v3h1v3h1v3h1v3h1c0.33,2,.67,4,1,6h1c0.33,2,.67,4,1,6h1v4h1c0.33,2,.67,4,1,6h1v3h1v3h1v3h1v3h1v3h1v3h1c0.33,2,.67,4,1,6h1v3h1v3h1v3h1v3h1c0.33,3,.67,6,1,9h1v3h1v3h1v3h1v3h1v3h1c0.33,2,.67,4,1,6h1v2h1v3h1c0.67,3,1.33,6,2,9h1q1.995,9,4,18h1c0.67,3,1.33,6,2,9h1v2h1v3h1v3h1v3h1v3h1v3h1v3h1v3h1v3h1c0.33,3,.67,6,1,9h1v3h1v3h1v3h1v3h1v3h1v2h1c0.33,2,.67,4,1,6h1v3h1v3h1v3h1v4h1v3h1v3h1v3h1v3h1v3h1c0.33,2,.67,4,1,6h1v4c8.02,21.987,14.41,46.476,23,68v3h1v3h1v3h1v3h1v3h1c0.33,3,.67,6,1,9h1v3h1v3h1v3h1v3h1v3h1c0.33,2,.67,4,1,6h1v2h1v3h1c0.67,3,1.33,6,2,9h1v4h1v3h1v4h1v3h1v3h1v3h1v3h1v3h1c0.33,2,.67,4,1,6h1v4h1v3h1v3h1v3h1v3h1v3h1c0.33,2,.67,4,1,6h1v4h1v3h1v3h1v3h1v3h1v3h1c0.33,2,.67,4,1,6h1v4h1v3h1v3h1v3h1v3h1v3h1c0.33,2,.67,4,1,6h1v4h1v3h1v3h1v3h1v3h1v3h1c0.33,2,.67,4,1,6h1c0.33,2.333.67,4.667,1,7h1v4h1c0.67,3,1.33,6,2,9h1v3h1v2h1c0.67,3,1.33,6,2,9h1v3h1v3h1v3h1v3h1v3h1v5h1v3h1v3h1v3h1v3h1v3h1c0.33,2,.67,4,1,6h1v5h1q2.505,8,5,16h756v1h-2c-0.67,1-1.33,2-2,3h-2l-3,4h-2c-0.33.667-.67,1.333-1,2h-2c-0.67,1-1.33,2-2,3h-2c-0.67,1-1.33,2-2,3h-2c-0.67,1-1.33,2-2,3h-2c-0.33.667-.67,1.333-1,2h-2c-0.67,1-1.33,2-2,3h-2c-0.67,1-1.33,2-2,3h-2c-0.33.667-.67,1.333-1,2h-2c-0.33.667-.67,1.333-1,2l-3,1c-0.67,1-1.33,2-2,3h-2c-0.33.667-.67,1.333-1,2h-2c-0.67,1-1.33,2-2,3h-2c-0.67,1-1.33,2-2,3h-2c-0.33.667-.67,1.333-1,2h-2c-0.67,1-1.33,2-2,3h-2l-3,4h-2c-0.33.667-.67,1.333-1,2l-3,1v1h-2c-0.33.667-.67,1.333-1,2l-3,1c-0.67,1-1.33,2-2,3h-2c-0.33.667-.67,1.333-1,2h-2c-0.33.667-.67,1.333-1,2l-3,1c-0.67,1-1.33,2-2,3h-2c-0.33.667-.67,1.333-1,2h-2c-0.67,1-1.33,2-2,3h-2c-0.67,1-1.33,2-2,3h-2c-0.67,1-1.33,2-2,3h-2c-0.33.667-.67,1.333-1,2h-2c-0.33.667-.67,1.333-1,2l-3,1c-0.67,1-1.33,2-2,3h-2c-0.33.667-.67,1.333-1,2h-2c-0.67,1-1.33,2-2,3h-2c-0.67,1-1.33,2-2,3h-2c-0.33.667-.67,1.333-1,2h-2c-0.67,1-1.33,2-2,3h-2c-0.67,1-1.33,2-2,3h-2c-0.33.667-.67,1.333-1,2h-2c-0.67,1-1.33,2-2,3h-2c-0.67,1-1.33,2-2,3l-3,1c-0.33.667-.67,1.333-1,2h-2c-0.33.667-.67,1.333-1,2h-2c-0.33.667-.67,1.333-1,2l-3,1c-0.67,1-1.33,2-2,3h-2c-0.33.667-.67,1.333-1,2h-2c-0.33.667-.67,1.333-1,2l-3,1c-0.67,1-1.33,2-2,3h-2c-0.33.667-.67,1.333-1,2h-2c-0.67,1-1.33,2-2,3h-2c-0.67,1-1.33,2-2,3h-2c-0.33.667-.67,1.333-1,2h-2c-0.67,1-1.33,2-2,3h-2c-0.33.667-.67,1.333-1,2l-3,1c-1.33,1.667-2.67,3.333-4,5h-2c-0.67,1-1.33,2-2,3h-2c-0.33.667-.67,1.333-1,2h-2c-0.67,1-1.33,2-2,3h-2v1l-3,1c-0.33.667-.67,1.333-1,2h-2c-0.67,1-1.33,2-2,3h-2c-0.33.667-.67,1.333-1,2h-2c-0.67,1-1.33,2-2,3h-2c-0.33.67-.67,1.33-1,2h-2c-0.33.67-.67,1.33-1,2-1,.33-2,0.67-3,1-0.67,1-1.33,2-2,3h-2c-0.33.67-.67,1.33-1,2h-2c-0.67,1-1.33,2-2,3h-2c-0.33.67-.67,1.33-1,2h-2c-0.67,1-1.33,2-2,3h-2c-0.67,1-1.33,2-2,3-1,.33-2,0.67-3,1-0.33.67-.67,1.33-1,2h-2c-0.33.67-.67,1.33-1,2h-2c-0.67,1-1.33,2-2,3h-2c-0.67,1-1.33,2-2,3h-2c-0.33.67-.67,1.33-1,2h-2c-0.67,1-1.33,2-2,3h-2c-0.67,1-1.33,2-2,3h-2c-0.33.67-.67,1.33-1,2h-2c-0.67,1-1.33,2-2,3h-2c-0.67,1-1.33,2-2,3h-2c-0.67,1-1.33,2-2,3h-2c-0.33.67-.67,1.33-1,2h-2c-0.67,1-1.33,2-2,3h-2c-0.67,1-1.33,2-2,3h-2c-0.33.67-.67,1.33-1,2h-2c-0.33.67-.67,1.33-1,2-1,.33-2,0.67-3,1-0.67,1-1.33,2-2,3h-2c-0.33.67-.67,1.33-1,2h-2c-0.33.67-.67,1.33-1,2-1,.33-2,0.67-3,1-0.67,1-1.33,2-2,3h-2c-0.33.67-.67,1.33-1,2h-2c-0.67,1-1.33,2-2,3h-2c-0.67,1-1.33,2-2,3h-2c-0.67,1-1.33,2-2,3h-2c-0.33.67-.67,1.33-1,2h-2c-0.67,1-1.33,2-2,3h-2c-0.33.67-.67,1.33-1,2h-2c-0.67,1-1.33,2-2,3h-2c-0.33.67-.67,1.33-1,2h-2c-0.67,1-1.33,2-2,3h-2c-0.33.67-.67,1.33-1,2h-2c-0.67,1-1.33,2-2,3h-2v1c-1,.33-2,0.67-3,1-0.33.67-.67,1.33-1,2h-2c-0.67,1-1.33,2-2,3h-2c-0.33.67-.67,1.33-1,2h-2c-0.33.67-.67,1.33-1,2-1,.33-2,0.67-3,1-1.33,1.67-2.67,3.33-4,5h-2c-0.67,1-1.33,2-2,3-1,.33-2,0.67-3,1-0.33.67-.67,1.33-1,2h-2c-0.33.67-.67,1.33-1,2h-2c-0.67,1-1.33,2-2,3h-2c-0.67,1-1.33,2-2,3h-2c-0.33.67-.67,1.33-1,2h-2c-0.33.67-.67,1.33-1,2-1,.33-2,0.67-3,1-0.67,1-1.33,2-2,3h-2c-0.33.67-.67,1.33-1,2h-2c-0.33.67-.67,1.33-1,2-1,.33-2,0.67-3,1-0.67,1-1.33,2-2,3h-2c-0.33.67-.67,1.33-1,2h-2c-0.67,1-1.33,2-2,3h-2c-0.67,1-1.33,2-2,3h-2c-0.67,1-1.33,2-2,3h-2c-0.33.67-.67,1.33-1,2h-2c-0.67,1-1.33,2-2,3h-2c-0.67,1-1.33,2-2,3h-2c-0.33.67-.67,1.33-1,2h-2c-0.33.67-.67,1.33-1,2-1,.33-2,0.67-3,1-0.67,1-1.33,2-2,3h-2c-0.33.67-.67,1.33-1,2h-2c-0.67,1-1.33,2-2,3h-2c-0.67,1-1.33,2-2,3h-2c-0.67,1-1.33,2-2,3h-2c-0.33.67-.67,1.33-1,2h-2c-0.33.67-.67,1.33-1,2-1,.33-2,0.67-3,1-0.67,1-1.33,2-2,3h-2c-0.33.67-.67,1.33-1,2h-2c-0.33.67-.67,1.33-1,2-1,.33-2,0.67-3,1-0.67,1-1.33,2-2,3h-2c-0.33.67-.67,1.33-1,2h-2c-0.33.67-.67,1.33-1,2-1,.33-2,0.67-3,1-0.67,1-1.33,2-2,3h-2c-0.33.67-.67,1.33-1,2h-2c-0.67,1-1.33,2-2,3h-2c-0.67,1-1.33,2-2,3h-2c-0.67,1-1.33,2-2,3h-2c-0.33.67-.67,1.33-1,2h-2c-0.67,1-1.33,2-2,3h-2c-0.67,1-1.33,2-2,3h-2c-0.33.67-.67,1.33-1,2h-2c-0.67,1-1.33,2-2,3h-2c-0.67,1-1.33,2-2,3h-2c-0.33.67-.67,1.33-1,2h-2c-0.67,1-1.33,2-2,3h-2c-1,1.33-2,2.67-3,4h-2c-0.33.67-.67,1.33-1,2-1,.33-2,0.67-3,1v1h-2c-0.33.67-.67,1.33-1,2-1,.33-2,0.67-3,1-0.67,1-1.33,2-2,3h-2c-0.33.67-.67,1.33-1,2h-2c-0.67,1-1.33,2-2,3h-2c-0.67,1-1.33,2-2,3h-2c-0.67,1-1.33,2-2,3-3.39,2.47-3.63-.06-4,6h1c1.35,1.79.16,4.61,1,7h1v3h1v3h1v4h1v3h1v3h1v3h1v3h1v2h1v3h1v3h1v3h1v3h1v3h1v4h1v3h1v4h1v3h1v3h1v3h1v3h1v3h1c0.33,2,.67,4,1,6h1v4h1v3h1v3h1v3h1v3h1v3h1c0.33,2,.67,4,1,6h1v4h1v3h1v3h1v3h1v3h1v3h1c0.33,2,.67,4,1,6h1v4h1v3h1v3h1v3h1v3h1v3h1c0.33,2,.67,4,1,6h1v4h1v3h1v3h1v3h1v3h1v3h1c0.33,2,.67,4,1,6h1v4h1v3h1v3h1v3h1v3h1v3h1c0.33,2,.67,4,1,6h1v4h1v3h1v3h1v3h1v3h1v3h1c0.33,2,.67,4,1,6h1v4h1v3h1v3h1v3h1v3h1v3h1c0.33,2,.67,4,1,6h1v5h1v3h1v3h1v3h1v3h1v3h1v2h1c0.33,2,.67,4,1,6h1v3h1v3h1v3h1v3h1v3h1v3h1v4h1v3h1v3h1v3h1v3h1c0.33,2,.67,4,1,6h1v4h1v3h1v3h1v3h1v3h1v4c6.54,17.95,11.98,38.39,19,56,0.67,3.33,1.33,6.67,2,10h1v3h1v2h1c0.33,2,.67,4,1,6h1v3h1v3h1v3h1v3h1c0.33,3,.67,6,1,9h1c0.33,2,.67,4,1,6h1v2h1v3h1v3h1v3h1v3h1v4h1v3h1v3h1v3h1v3h1v3h1v4h1v3h1v3h1v3h1v3h1v2h1v3h1q1.005,5.505,2,11h1v3h1v3h1v3h1v3h1v3h1c0.33,2,.67,4,1,6h1v4h1v3h1v3h1v3h1v3h1v3h1c0.33,2,.67,4,1,6h1v4h1v3h1v3h1v3h1v3h1v3h1c0.33,2,.67,4,1,6h1v4h1v3h1v3h1v3h1v3h1v3h1c0.33,2,.67,4,1,6h1v4h1v3h1v3h1v3h1v3h1v3h1c0.33,2,.67,4,1,6h1v4h1v3h1v3h1v3h1v3h1v3h1c0.33,2,.67,4,1,6h1v4h1v3h1v3h1v3h1v3h1v3h1v3h1v3h1c0.33,2.67.67,5.33,1,8,0.98,2.7,2.53,4.24,3,8h-1c-2.4-3.81-2.93-1.91-6-4-1-1.33-2-2.67-3-4h-2c-0.67-1-1.33-2-2-3-1-.33-2-0.67-3-1-0.33-.67-0.67-1.33-1-2h-2c-0.33-.67-0.67-1.33-1-2h-2c-0.67-1-1.33-2-2-3h-2c-0.67-1-1.33-2-2-3h-2c-0.33-.67-0.67-1.33-1-2h-2c-0.67-1-1.33-2-2-3h-2c-0.67-1-1.33-2-2-3h-2v-1c-1-.33-2-0.67-3-1-0.33-.67-0.67-1.33-1-2h-2c-1-1.33-2-2.67-3-4h-2c-0.67-1-1.33-2-2-3h-2c-0.33-.67-0.67-1.33-1-2h-2c-0.33-.67-0.67-1.33-1-2-1-.33-2-0.67-3-1-0.67-1-1.33-2-2-3h-2v-1c-1-.33-2-0.67-3-1-0.33-.67-0.67-1.33-1-2h-2c-1-1.33-2-2.67-3-4h-2v-1c-1-.33-2-0.67-3-1-0.33-.67-0.67-1.33-1-2h-2c-1-1.33-2-2.67-3-4h-2c-0.33-.67-0.67-1.33-1-2h-2c-0.67-1-1.33-2-2-3h-2c-0.67-1-1.33-2-2-3h-2c-0.67-1-1.33-2-2-3h-2v-1c-1-.33-2-0.67-3-1-0.33-.67-0.67-1.33-1-2h-2c-1-1.33-2-2.67-3-4h-2c-0.33-.67-0.67-1.33-1-2h-2c-0.67-1-1.33-2-2-3h-2c-0.67-1-1.33-2-2-3h-2c-0.33-.67-0.67-1.33-1-2h-2c-0.67-1-1.33-2-2-3h-2c-0.67-1-1.33-2-2-3h-2c-0.67-1-1.33-2-2-3h-2v-1c-1-.33-2-0.67-3-1-0.33-.67-0.67-1.33-1-2h-2c-1-1.33-2-2.67-3-4h-2v-1c-1-.33-2-0.67-3-1-0.33-.67-0.67-1.33-1-2h-2c-1-1.33-2-2.67-3-4h-2c-0.33-.67-0.67-1.33-1-2h-2c-0.67-1-1.33-2-2-3h-2c-0.67-1-1.33-2-2-3h-2c-0.33-.67-0.67-1.33-1-2h-2c-0.67-1-1.33-2-2-3h-2c-0.67-1-1.33-2-2-3h-2c-0.67-1-1.33-2-2-3h-2v-1c-1-.33-2-0.67-3-1-0.33-.67-0.67-1.33-1-2h-2c-1-1.33-2-2.67-3-4h-2v-1c-1-.33-2-0.67-3-1-0.33-.67-0.67-1.33-1-2h-2c-1-1.33-2-2.67-3-4h-2c-0.33-.67-0.67-1.33-1-2h-2c-0.67-1-1.33-2-2-3h-2c-0.67-1-1.33-2-2-3h-2c-0.67-1-1.33-2-2-3h-2v-1c-1-.33-2-0.67-3-1-0.33-.67-0.67-1.33-1-2h-2c-1-1.33-2-2.67-3-4h-2v-1c-1-.33-2-0.67-3-1-0.33-.67-0.67-1.33-1-2h-2c-1-1.33-2-2.67-3-4h-2v-1c-1-.33-2-0.67-3-1-0.33-.67-0.67-1.33-1-2h-2c-1-1.33-2-2.67-3-4h-2c-0.33-.67-0.67-1.33-1-2h-2c-0.67-1-1.33-2-2-3h-2c-0.67-1-1.33-2-2-3h-2c-0.67-1-1.33-2-2-3h-2v-1c-1-.33-2-0.67-3-1-0.33-.67-0.67-1.33-1-2h-2c-1-1.33-2-2.67-3-4h-2c-0.33-.67-0.67-1.33-1-2h-2c-0.67-1-1.33-2-2-3h-2c-0.67-1-1.33-2-2-3h-2c-0.33-.67-0.67-1.33-1-2h-2c-0.67-1-1.33-2-2-3h-2c-0.67-1-1.33-2-2-3h-2c-0.67-1-1.33-2-2-3h-2v-1c-1-.33-2-0.67-3-1-0.33-.67-0.67-1.33-1-2h-2c-1-1.33-2-2.67-3-4h-2c-0.33-.67-0.67-1.33-1-2h-2c-0.33-.67-0.67-1.33-1-2-1-.33-2-0.67-3-1-0.67-1-1.33-2-2-3h-2c-0.33-.67-0.67-1.33-1-2h-2c-0.67-1-1.33-2-2-3h-2c-0.67-1-1.33-2-2-3h-2c-0.33-.67-0.67-1.33-1-2h-2c-0.67-1-1.33-2-2-3h-2c-0.67-1-1.33-2-2-3-1-.33-2-0.67-3-1-0.33-.67-0.67-1.33-1-2h-2c-0.33-.67-0.67-1.33-1-2h-2c-0.33-.67-0.67-1.33-1-2-1-.33-2-0.67-3-1-0.67-1-1.33-2-2-3h-2v-1c-1-.33-2-0.67-3-1-0.33-.67-0.67-1.33-1-2h-2c-1-1.33-2-2.67-3-4h-2c-0.33-.67-0.67-1.33-1-2h-2c-0.67-1-1.33-2-2-3h-2c-0.67-1-1.33-2-2-3h-2c-0.67-1-1.33-2-2-3h-2v-1c-1-.33-2-0.67-3-1-0.33-.67-0.67-1.33-1-2h-2c-1-1.33-2-2.67-3-4h-2v-1c-1-.33-2-0.67-3-1-0.33-.67-0.67-1.33-1-2h-2c-1-1.33-2-2.67-3-4h-2v-1c-1-.33-2-0.67-3-1-0.33-.67-0.67-1.33-1-2h-2c-1-1.33-2-2.67-3-4h-2c-0.33-.67-0.67-1.33-1-2h-2c-0.67-1-1.33-2-2-3h-2c-0.67-1-1.33-2-2-3h-2c-0.67-1-1.33-2-2-3h-2c-0.33-.67-0.67-1.33-1-2h-2c-0.33-.67-0.67-1.33-1-2-1-.33-2-0.67-3-1-0.67-1-1.33-2-2-3h-2v-1c-1-.33-2-0.67-3-1-0.33-.67-0.67-1.33-1-2h-2c-1-1.33-2-2.67-3-4h-2c-0.33-.67-0.67-1.33-1-2h-2c-0.67-1-1.33-2-2-3h-2c-0.67-1-1.33-2-2-3h-2c-0.33-.67-0.67-1.33-1-2h-2c-0.67-1-1.33-2-2-3h-2c-0.67-1-1.33-2-2-3-1-.33-2-0.67-3-1-0.33-.67-0.67-1.33-1-2h-2v-1c-1-.33-2-0.67-3-1-0.33-.67-0.67-1.33-1-2h-2c-1-1.33-2-2.67-3-4h-2v-1c-1-.33-2-0.67-3-1-0.33-.67-0.67-1.33-1-2h-2c-1-1.33-2-2.67-3-4h-2c-0.33-.67-0.67-1.33-1-2h-2c-0.67-1-1.33-2-2-3h-2c-0.67-1-1.33-2-2-3h-2c-0.67-1-1.33-2-2-3h-2v-1c-1-.33-2-0.67-3-1-0.33-.67-0.67-1.33-1-2h-2c-1-1.33-2-2.67-3-4h-2c-0.33-.67-0.67-1.33-1-2h-2c-0.67-1-1.33-2-2-3h-2c-0.67-1-1.33-2-2-3h-2c-0.33-.67-0.67-1.33-1-2h-2c-0.33-.67-0.67-1.33-1-2h-2c-1-1.33-2-2.67-3-4h-2c-0.33-.67-0.67-1.33-1-2h-2c-0.67-1-1.33-2-2-3h-2c-0.67-1-1.33-2-2-3h-2c-0.67-1-1.33-2-2-3h-2c-0.33-.67-0.67-1.33-1-2h-2c-0.67-1-1.33-2-2-3h-2c-0.33-.67-0.67-1.33-1-2-2.06-1.85-4.42-2.6-8-3-1.67,2.46-3.56,2.28-6,4-1,1.33-2,2.67-3,4h-2c-0.33.67-.67,1.33-1,2h-2c-0.67,1-1.33,2-2,3h-2c-0.67,1-1.33,2-2,3h-2c-0.67,1-1.33,2-2,3h-2c-0.33.67-.67,1.33-1,2h-2c-0.33.67-.67,1.33-1,2-1,.33-2,0.67-3,1-0.67,1-1.33,2-2,3h-2c-0.33.67-.67,1.33-1,2h-2c-0.67,1-1.33,2-2,3h-2c-0.67,1-1.33,2-2,3h-2c-0.333.67-.667,1.33-1,2h-2c-0.333.67-.667,1.33-1,2-1,.33-2,0.67-3,1l-2,3h-2c-0.333.67-.667,1.33-1,2h-2l-2,3h-2c-1,1.33-2,2.67-3,4h-2c-0.333.67-.667,1.33-1,2-1,.33-2,0.67-3,1v1h-2l-2,3h-2l-2,3h-2c-0.333.67-.667,1.33-1,2h-2l-2,3h-2l-2,3h-2c-0.333.67-.667,1.33-1,2h-2l-2,3h-2l-2,3h-2l-2,3h-2c-0.333.67-.667,1.33-1,2h-2l-2,3h-2l-2,3h-2c-0.333.67-.667,1.33-1,2h-2c-0.333.67-.667,1.33-1,2-1,.33-2,0.67-3,1l-2,3h-2c-0.333.67-.667,1.33-1,2h-2c-0.333.67-.667,1.33-1,2-1,.33-2,0.67-3,1l-2,3h-2c-0.333.67-.667,1.33-1,2h-2l-2,3h-2l-2,3h-2l-2,3h-2c-0.333.67-.667,1.33-1,2h-2c-0.333.67-.667,1.33-1,2-1,.33-2,0.67-3,1l-2,3h-2c-0.333.67-.667,1.33-1,2h-2l-2,3h-2l-2,3h-2c-0.333.67-.667,1.33-1,2h-2l-2,3h-2l-2,3h-2c-0.333.67-.667,1.33-1,2h-2l-2,3h-2l-2,3c-1,.33-2,0.67-3,1-0.333.67-.667,1.33-1,2h-2c-0.333.67-.667,1.33-1,2h-2l-2,3h-2l-2,3h-2c-0.333.67-.667,1.33-1,2h-2c-0.333.67-.667,1.33-1,2-1,.33-2,0.67-3,1l-2,3h-2c-0.333.67-.667,1.33-1,2h-2l-2,3h-2l-2,3h-2l-2,3h-2c-0.333.67-.667,1.33-1,2h-2c-0.333.67-.667,1.33-1,2-1,.33-2,0.67-3,1l-2,3h-2c-0.333.67-.667,1.33-1,2h-2c-0.333.67-.667,1.33-1,2-1,.33-2,0.67-3,1l-2,3h-2c-0.333.67-.667,1.33-1,2h-2l-2,3h-2l-2,3h-2c-0.333.67-.667,1.33-1,2h-2l-2,3h-2l-2,3h-2c-1.333,1.67-2.667,3.33-4,5-1,.33-2,0.67-3,1-0.333.67-.667,1.33-1,2h-2c-0.333.67-.667,1.33-1,2h-2l-2,3h-2v1c-1,.33-2,0.67-3,1-0.333.67-.667,1.33-1,2h-2l-2,3h-2c-0.333.67-.667,1.33-1,2h-2c-0.333.67-.667,1.33-1,2-1,.33-2,0.67-3,1l-2,3h-2c-0.333.67-.667,1.33-1,2h-2l-2,3h-2c-0.333.67-.667,1.33-1,2h-2l-2,3h-2l-2,3h-2c-0.333.67-.667,1.33-1,2h-2c-0.333.67-.667,1.33-1,2-1,.33-2,0.67-3,1l-2,3h-2c-0.333.67-.667,1.33-1,2h-2l-2,3h-2l-2,3h-2c-0.333.67-.667,1.33-1,2h-2c-0.333.67-.667,1.33-1,2-1,.33-2,0.67-3,1l-2,3h-2c-0.333.67-.667,1.33-1,2h-2l-2,3h-2l-2,3h-2l-2,3h-2c-0.333.67-.667,1.33-1,2h-2c-0.333.67-.667,1.33-1,2-1,.33-2,0.67-3,1l-2,3h-2c-0.333.67-.667,1.33-1,2h-2c-0.333.67-.667,1.33-1,2-1,.33-2,0.67-3,1l-2,3h-2c-0.333.67-.667,1.33-1,2h-2l-2,3h-2l-2,3h-2c-0.333.67-.667,1.33-1,2h-2l-2,3h-2l-2,3h-2c-0.333.67-.667,1.33-1,2h-2l-2,3h-2c-0.333.67-.667,1.33-1,2h-2l-2,3h-2c-0.333.67-.667,1.33-1,2h-2l-2,3h-2v1c-1,.33-2,0.67-3,1-0.333.67-.667,1.33-1,2h-2l-2,3h-2c-0.333.67-.667,1.33-1,2h-2c-0.333.67-.667,1.33-1,2-1,.33-2,0.67-3,1-1.333,1.67-2.667,3.33-4,5h-2l-2,3h-2c-0.333.67-.667,1.33-1,2h-2l-2,3h-2c-1,1.33-2,2.67-3,4h-2c-0.333.67-.667,1.33-1,2-1,.33-2,0.67-3,1v1h-2c-0.333.67-.667,1.33-1,2-1,.33-2,0.67-3,1l-2,3h-2c-0.333.67-.667,1.33-1,2h-2c-0.333.67-.667,1.33-1,2-1,.33-2,0.67-3,1l-2,3h-2c-0.333.67-.667,1.33-1,2h-2c-0.333.67-.667,1.33-1,2-1,.33-2,0.67-3,1l-2,3h-2c-0.333.67-.667,1.33-1,2h-2l-2,3h-2l-2,3h-2l-2,3h-2c-0.333.67-.667,1.33-1,2h-2l-2,3h-2l-2,3h-2c-0.333.67-.667,1.33-1,2h-2l-2,3h-2l-2,3h-2c-0.333.67-.667,1.33-1,2h-2l-2,3h-2l-2,3h-2l-2,3h-2c-0.333.67-.667,1.33-1,2h-2v1c-1,.67-2,1.33-3,2v-3h1q0.5-3,1-6h1v-3h1v-4h1v-3h1v-3h1v-3h1v-3h1v-3h1q0.5-3,1-6h1v-4h1v-3h1v-3h1v-3h1v-3h1v-3h1v-3h1v-3h1v-2h1v-5h1v-3h1v-3h1v-3h1v-3h1q0.5-3,1-6h1v-4h1v-3h1v-3h1v-3h1v-3h1v-3h1q0.5-3,1-6h1v-4h1v-3h1v-3h1v-3h1v-3h1v-3h1q0.5-3,1-6h1v-4h1v-3h1v-3h1v-3h1v-3h1v-3h1q0.5-3,1-6h1v-4h1v-3h1v-3h1v-3h1v-3h1v-3h1q0.5-3,1-6h1v-4h1v-3h1v-3h1v-3h1v-3h1v-3h1q0.5-3,1-6h1v-4h1v-3h1v-3h1v-3h1v-3h1v-3h1q0.5-3,1-6h1v-4h1v-3h1v-3h1v-3h1v-3h1v-3h1q0.5-3,1-6h1v-4h1v-3h1v-4h1q1-4.5,2-9h1v-2h1v-3h1v-3h1v-3h1v-3h1v-3h1v-3h1v-3h1v-3h1q0.5-4.5,1-9h1v-3h1v-3h1v-3h1v-3h1v-3h1v-2h1q0.5-3,1-6h1v-3h1v-3h1v-3h1v-3h1v-4h1v-3h1v-3h1v-3h1v-3h1q0.5-3,1-6h1v-4h1v-3h1v-3h1v-3h1v-3h1v-4c6.484-17.79,12.044-37.56,19-55v-3h1v-3h1v-3h1v-3h1v-3h1q0.5-4.5,1-9h1q0.5-3,1-6h1v-2h1v-3h1v-3h1v-3h1v-3h1v-4h1v-3h1v-3h1v-3h1v-3h1v-3h1v-4h1v-3h1v-3h1v-3h1v-3h1v-2h1v-3h1q1-5.505,2-11h1v-3h1v-3h1v-3h1v-3h1v-3h1q0.5-3,1-6h1v-4h1v-3h1v-3h1v-3h1v-3h1v-3h1q0.5-3,1-6h1v-4h1v-3h1v-3h1v-3h1v-3h1v-3h1q0.5-3,1-6h1v-4h1v-3h1v-3h1v-3h1v-3h1v-3h1q0.5-3,1-6h1v-4h1v-3h1v-3h1v-3h1v-3h1v-3h1q0.5-3,1-6h1v-2h1q1-6,2-12c2.645-6.68,6.412-13.08,7-22-1-.67-2-1.33-3-2v-1h-2c-0.333-.67-0.667-1.33-1-2h-2l-2-3h-2l-2-3h-2c-0.333-.67-0.667-1.33-1-2h-2l-2-3h-2l-2-3h-2c-0.333-.67-0.667-1.33-1-2h-2l-2-3h-2l-2-3h-2l-2-3h-2v-1c-1-.33-2-0.67-3-1-0.333-.67-0.667-1.33-1-2h-2c-1-1.33-2-2.67-3-4h-2v-1c-1-.33-2-0.67-3-1-0.333-.67-0.667-1.33-1-2h-2c-1-1.33-2-2.67-3-4h-2c-0.333-.67-0.667-1.33-1-2h-2l-2-3h-2l-2-3h-2l-2-3h-2v-1c-1-.33-2-0.67-3-1-0.333-.67-0.667-1.33-1-2h-2c-1-1.33-2-2.67-3-4h-2c-0.333-.67-0.667-1.33-1-2h-2l-2-3h-2l-2-3h-2c-0.333-.67-0.667-1.33-1-2h-2l-2-3h-2l-2-3h-2c-0.333-.67-0.667-1.33-1-2h-2l-2-3h-2l-2-3c-1-.33-2-0.67-3-1-0.333-.67-0.667-1.33-1-2h-2v-1c-1-.33-2-0.67-3-1-0.333-.67-0.667-1.33-1-2h-2c-1-1.33-2-2.67-3-4h-2v-1c-1-.33-2-0.67-3-1-0.333-.67-0.667-1.33-1-2h-2c-1-1.33-2-2.67-3-4h-2c-0.333-.67-0.667-1.33-1-2h-2l-2-3h-2l-2-3h-2l-2-3h-2v-1c-1-.33-2-0.67-3-1-0.333-.67-0.667-1.33-1-2h-2c-1-1.33-2-2.67-3-4h-2c-0.333-.67-0.667-1.33-1-2h-2c-0.333-.67-0.667-1.33-1-2-1-.33-2-0.67-3-1l-2-3h-2c-0.333-.67-0.667-1.33-1-2h-2c-0.333-.67-0.667-1.33-1-2-1-.33-2-0.67-3-1l-2-3h-2c-0.333-.67-0.667-1.33-1-2h-2l-2-3h-2l-2-3h-2l-2-3h-2c-0.333-.67-0.667-1.33-1-2h-2c-0.333-.67-0.667-1.33-1-2-1-.33-2-0.67-3-1l-2-3h-2c-0.333-.67-0.667-1.33-1-2h-2l-2-3h-2l-2-3h-2c-0.333-.67-0.667-1.33-1-2h-2l-2-3h-2l-2-3c-1-.33-2-0.67-3-1-0.333-.67-0.667-1.33-1-2h-2c-0.333-.67-0.667-1.33-1-2h-2c-0.333-.67-0.667-1.33-1-2-1-.33-2-0.67-3-1l-2-3h-2c-0.333-.67-0.667-1.33-1-2h-2c-0.333-.67-0.667-1.33-1-2-1-.33-2-0.67-3-1l-2-3h-2v-1c-1-.33-2-0.67-3-1-0.333-.67-0.667-1.33-1-2h-2c-1-1.33-2-2.67-3-4h-2c-0.333-.67-0.667-1.33-1-2h-2l-2-3h-2l-2-3h-2l-2-3h-2v-1c-1-.33-2-0.67-3-1-0.333-.67-0.667-1.33-1-2h-2c-1-1.33-2-2.67-3-4h-2c-0.333-.67-0.667-1.33-1-2h-2l-2-3h-2l-2-3h-2c-0.333-.67-0.667-1.33-1-2h-2l-2-3h-2l-2-3h-2l-2-3h-2v-1c-1-.33-2-0.67-3-1-0.333-.67-0.667-1.33-1-2h-2c-1-1.33-2-2.67-3-4h-2v-1c-1-.33-2-0.67-3-1-0.333-.67-0.667-1.33-1-2h-2c-1-1.33-2-2.67-3-4h-2c-0.333-.67-0.667-1.33-1-2h-2l-2-3h-2l-2-3h-2c-0.333-.67-0.667-1.33-1-2h-2l-2-3h-2l-2-3h-2l-2-3h-2v-1l-3-1-1-2h-2l-3-4h-2v-1l-3-1-1-2h-2l-3-4h-2l-1-2h-2l-2-3h-2l-2-3h-2l-2-3h-2v-1l-3-1-1-2h-2l-3-4h-2q-0.5-1-1-2h-2q-0.5-1-1-2l-3-1-2-3h-2q-0.5-1-1-2h-2l-2-3h-2l-2-3h-2q-0.5-1-1-2h-2l-2-3h-2l-2-3-3-1q-0.5-1-1-2h-2q-0.5-1-1-2h-2q-0.5-1-1-2l-3-1-2-3h-2v-1l-3-1q-0.5-1-1-2h-2l-3-4h-2v-1l-3-1q-0.5-1-1-2h-2l-3-4h-2q-0.5-1-1-2h-2l-2-3h-2l-2-3h-2l-2-3h-2v-1l-3-1q-0.5-1-1-2h-2l-3-4h-2q-0.5-1-1-2h-2l-2-3h-2l-2-3h-2q-0.5-1-1-2h-2l-2-3h-2l-2-3h-2l-2-3h-2v-1l-3-1q-0.5-1-1-2h-2l-3-4h-2v-1l-3-1q-0.5-1-1-2h-2l-3-4h-2q-0.5-1-1-2h-2l-2-3h-2l-2-3H96l-1-2H93l-2-3H89l-2-3H85l-2-3H81l-1-2H78l-3-4c-2.424-1.718-4.38-1.5-6-4H825c0.956-6.319,4.147-10.922,6-16q0.5-4.5,1-9h1v-3h1v-3h1v-3h1v-3h1v-3h1q0.5-3,1-6h1v-2h1v-3h1q1-4.5,2-9h1v-4h1v-3h1v-4h1v-3h1v-3h1v-3h1v-3h1v-3h1q0.5-3,1-6h1v-5h1l6-21h1v-3h1v-3h1v-3h1v-3h1v-3h1q0.5-3,1-6h1q0.5-3,1-6h1v-4h1q0.5-3,1-6h1v-3h1v-3h1v-3h1v-3h1v-3h1v-3h1q0.5-3,1-6h1v-3h1v-3h1v-3h1v-3h1q0.5-4.5,1-9h1v-3h1v-3h1v-3h1v-3h1v-3h1q0.5-3,1-6h1v-2h1v-3h1q1-4.5,2-9h1l4-18h1q1-4.5,2-9h1v-2h1v-3h1v-3h1v-3h1v-3h1v-3h1v-3h1v-3h1v-3h1q0.5-4.5,1-9h1v-3h1v-3h1v-3h1v-3h1v-3h1v-2h1q0.5-3,1-6h1v-3h1v-3h1v-3h1v-3h1v-3h1v-3h1v-4h1v-3h1v-3h1v-3h1v-3h1q0.5-3,1-6h1l3-13h1v-4c6.544-17.951,11.979-38.389,19-56q1-5,2-10h1v-3h1v-2h1q0.5-3,1-6h1v-3h1v-3h1v-3h1v-3h1q0.5-4.5,1-9h1q0.5-3,1-6h1v-2h1v-3h1v-3h1v-3h1v-3h1v-4h1v-3h1v-3h1v-3h1v-3h1v-3h1v-4h1v-3h1v-3h1v-3h1v-3h1v-2h1v-3h1q1-5.5,2-11h1v-3h1v-3h1v-3h1v-3h1v-3h1c0.33-2,.67-4,1-6h1v-4h1v-3h1v-3h1v-3h1v-3h1v-3h1c0.33-2,.67-4,1-6h1v-4h1v-3h1v-3h1v-3h1v-3h1v-3h1c0.33-2,.67-4,1-6h1v-4h1v-3h1v-3h1v-3h1v-3h1v-3h1c0.33-2,.67-4,1-6h1v-4h1v-3h1v-3h1v-3h1v-3h1v-3h1c0.33-2,.67-4,1-6h1v-2h1c0.33-3,.67-6,1-9h1v-2h1c0.33-2.333.67-4.667,1-7h1v-3h1v-2h1Q1048.005,130,1049,125Zm0,693c-0.33,1-.67,2-1,3h-1v2h-1v2c-0.67.333-1.33,0.667-2,1v2c-0.67.333-1.33,0.667-2,1v2c-0.67.333-1.33,0.667-2,1v2c-0.67.333-1.33,0.667-2,1-0.33,1.333-.67,2.667-1,4-0.67.333-1.33,0.667-2,1v2c-0.67.333-1.33,0.667-2,1v2c-0.67.333-1.33,0.667-2,1-0.33,1-.67,2-1,3h-1c-0.33,1.333-.67,2.667-1,4-0.67.333-1.33,0.667-2,1v2c-0.67.333-1.33,0.667-2,1v2c-0.67.333-1.33,0.667-2,1v2c-0.67.333-1.33,0.667-2,1-0.33,1.333-.67,2.667-1,4-0.67.333-1.33,0.667-2,1v2c-0.67.333-1.33,0.667-2,1v2c-0.67.333-1.33,0.667-2,1v2c-0.67.333-1.33,0.667-2,1-0.33,1.333-.67,2.667-1,4-0.67.333-1.33,0.667-2,1v2c-0.67.333-1.33,0.667-2,1v2c-0.67.333-1.33,0.667-2,1v2c-0.67.333-1.33,0.667-2,1-0.67,2-1.33,4-2,6l-3,2v2l-2,1q-0.5,1.5-1,3h-1q-0.5,2-1,4l-2,1v2l-2,1v2l-2,1v2l-2,1q-0.5,2-1,4l-2,1v2l-2,1v2l-2,1v2l-2,1q-0.5,2-1,4l-2,1v2l-2,1v2l-2,1v2l-2,1q-0.5,2-1,4l-2,1v2l-2,1v2l-2,1v2l-2,1q-0.5,2-1,4l-2,1v2l-2,1v2l-2,1v2l-2,1q-0.5,2-1,4l-2,1v2l-2,1v2l-2,1v2l-2,1q-0.5,2-1,4h-1q-0.5,1.5-1,3l-2,1v2l-2,1q-0.5,1.5-1,3h-1c-0.333,1.33-.667,2.67-1,4-0.667.33-1.333,0.67-2,1v2c-0.667.33-1.333,0.67-2,1v2c-0.667.33-1.333,0.67-2,1v2c-0.667.33-1.333,0.67-2,1-0.333,1.33-.667,2.67-1,4-0.667.33-1.333,0.67-2,1v2c-0.667.33-1.333,0.67-2,1v2c-0.667.33-1.333,0.67-2,1v2c-0.667.33-1.333,0.67-2,1-0.333,1.33-.667,2.67-1,4-0.667.33-1.333,0.67-2,1v2c-0.667.33-1.333,0.67-2,1v2c-0.667.33-1.333,0.67-2,1v2c-0.667.33-1.333,0.67-2,1-0.333,1.33-.667,2.67-1,4-0.667.33-1.333,0.67-2,1v2c-0.667.33-1.333,0.67-2,1v2c-0.667.33-1.333,0.67-2,1-0.333,1.33-.667,2.67-1,4-0.667.33-1.333,0.67-2,1v2h-1v2c-1,.67-2,1.33-3,2v2c-0.667.33-1.333,0.67-2,1q-0.5,1.5-1,3h-1c-0.333,1.33-.667,2.67-1,4-0.667.33-1.333,0.67-2,1v2c-0.667.33-1.333,0.67-2,1v2c-0.667.33-1.333,0.67-2,1-0.333,1.33-.667,2.67-1,4-0.667.33-1.333,0.67-2,1v2c-0.667.33-1.333,0.67-2,1v2c-0.667.33-1.333,0.67-2,1v2c-0.667.33-1.333,0.67-2,1q-0.5,1.5-1,3h-1c-0.333,1.33-.667,2.67-1,4-0.667.33-1.333,0.67-2,1v2c-0.667.33-1.333,0.67-2,1v2c-0.667.33-1.333,0.67-2,1q-1,3-2,6c-1,.67-2,1.33-3,2v2c-0.667.33-1.333,0.67-2,1v2c-0.667.33-1.333,0.67-2,1q-0.5,1.5-1,3h-1q-1,3-2,6c-1,.67-2,1.33-3,2v2c-0.667.33-1.333,0.67-2,1-0.333,1.33-.667,2.67-1,4-0.667.33-1.333,0.67-2,1v2h-1c-0.924,1.37-.688,1.76-1,4h74c16.036,0,29.522,1.44,43-1v287h192V1150c11.98,2.13,28.35,1,42,1h75c-0.23-2.24-.09-2.66-1-4h-1v-2c-0.67-.33-1.33-0.67-2-1v-2c-0.67-.33-1.33-0.67-2-1-0.33-1.33-.67-2.67-1-4-0.67-.33-1.33-0.67-2-1v-2c-0.67-.33-1.33-0.67-2-1v-2c-0.67-.33-1.33-0.67-2-1v-2c-0.67-.33-1.33-0.67-2-1-0.33-1.33-.67-2.67-1-4-0.67-.33-1.33-0.67-2-1v-2c-0.67-.33-1.33-0.67-2-1v-2c-0.67-.33-1.33-0.67-2-1v-2c-0.67-.33-1.33-0.67-2-1-0.33-1.33-.67-2.67-1-4-0.67-.33-1.33-0.67-2-1v-2c-0.67-.33-1.33-0.67-2-1v-2c-0.67-.33-1.33-0.67-2-1v-2c-0.67-.33-1.33-0.67-2-1-0.33-1.33-.67-2.67-1-4-0.67-.33-1.33-0.67-2-1v-2c-0.67-.33-1.33-0.67-2-1v-2c-0.67-.33-1.33-0.67-2-1v-2c-0.67-.33-1.33-0.67-2-1-0.33-1.33-.67-2.67-1-4-0.67-.33-1.33-0.67-2-1v-2c-0.67-.33-1.33-0.67-2-1v-2c-0.67-.33-1.33-0.67-2-1v-2c-0.67-.33-1.33-0.67-2-1-0.67-2-1.33-4-2-6-1-.67-2-1.33-3-2v-2c-0.67-.33-1.33-0.67-2-1-0.33-1-.67-2-1-3h-1c-0.33-1.33-.67-2.67-1-4h-1c-0.33-1-.67-2-1-3-0.67-.33-1.33-0.67-2-1v-2c-0.67-.33-1.33-0.67-2-1-0.33-1-.67-2-1-3h-1c-0.33-1.33-.67-2.67-1-4-0.67-.33-1.33-0.67-2-1v-2c-0.67-.33-1.33-0.67-2-1v-2c-0.67-.33-1.33-0.67-2-1v-2c-0.67-.33-1.33-0.67-2-1-0.33-1.33-.67-2.67-1-4-0.67-.33-1.33-0.67-2-1v-2c-0.67-.33-1.33-0.67-2-1v-2c-0.67-.33-1.33-0.67-2-1-0.33-1.33-.67-2.67-1-4-0.67-.33-1.33-0.67-2-1v-2h-1v-2c-1-.67-2-1.33-3-2v-2c-0.67-.33-1.33-0.67-2-1-0.33-1-.67-2-1-3h-1c-0.33-1.333-.67-2.667-1-4-0.67-.333-1.33-0.667-2-1v-2c-0.67-.333-1.33-0.667-2-1v-2c-0.67-.333-1.33-0.667-2-1-0.33-1.333-.67-2.667-1-4-0.67-.333-1.33-0.667-2-1v-2c-0.67-.333-1.33-0.667-2-1v-2c-0.67-.333-1.33-0.667-2-1v-2c-0.67-.333-1.33-0.667-2-1-0.33-1.333-.67-2.667-1-4-0.67-.333-1.33-0.667-2-1v-2h-1v-2l-3-2v-2c-0.67-.333-1.33-0.667-2-1-0.33-1-.67-2-1-3h-1c-0.33-1.333-.67-2.667-1-4-0.67-.333-1.33-0.667-2-1v-2c-0.67-.333-1.33-0.667-2-1v-2c-0.67-.333-1.33-0.667-2-1-0.33-1.333-.67-2.667-1-4-0.67-.333-1.33-0.667-2-1v-2c-0.67-.333-1.33-0.667-2-1v-2c-0.67-.333-1.33-0.667-2-1v-2c-0.67-.333-1.33-0.667-2-1-0.33-1.333-.67-2.667-1-4-0.67-.333-1.33-0.667-2-1v-2c-0.67-.333-1.33-0.667-2-1v-2c-0.67-.333-1.33-0.667-2-1v-2c-0.67-.333-1.33-0.667-2-1-0.33-1.333-.67-2.667-1-4-0.67-.333-1.33-0.667-2-1v-2c-0.67-.333-1.33-0.667-2-1v-2c-0.67-.333-1.33-0.667-2-1v-2c-0.67-.333-1.33-0.667-2-1-0.33-1.333-.67-2.667-1-4-0.67-.333-1.33-0.667-2-1v-2c-0.67-.333-1.33-0.667-2-1v-2c-0.67-.333-1.33-0.667-2-1v-2c-0.67-.333-1.33-0.667-2-1-0.67-2-1.33-4-2-6l-3-2v-2c-0.67-.333-1.33-0.667-2-1v-2c-0.67-.333-1.33-0.667-2-1-0.33-1-.67-2-1-3h-1c-0.33-1.333-.67-2.667-1-4-0.67-.333-1.33-0.667-2-1v-2c-0.67-.333-1.33-0.667-2-1-0.33-1-.67-2-1-3h-1c-0.33-1.333-.67-2.667-1-4-0.67-.333-1.33-0.667-2-1v-2c-0.67-.333-1.33-0.667-2-1v-2c-0.67-.333-1.33-0.667-2-1v-2c-0.67-.333-1.33-0.667-2-1-0.33-1.333-.67-2.667-1-4h-1c-0.33-1-.67-2-1-3-0.67-.333-1.33-0.667-2-1v-2c-0.67-.333-1.33-0.667-2-1v-2c-0.67-.333-1.33-0.667-2-1-0.33-1.333-.67-2.667-1-4-2.96-4.633-7.56-7.677-9-14h-2Z" />
</svg>
