<svg xmlns="http://www.w3.org/2000/svg" width="127.985" height="127.985" viewBox="0 0 650 650">
  <defs>
    <style>
      .cls-1 {
        fill: #fff;
        fill-rule: evenodd;
      }
</style>
  </defs>
  <path id="Color_Fill_1" data-name="Color Fill 1" class="cls-1" d="M387,109h2l1-3,3-2v-2l3-2V98l3-2V94l3-2V90l3-2V86l2-1V83h1c1.431-1.749,2.3-2.406,3-5a12.53,12.53,0,0,1,6,3v1h2l2,3h2l1,2,4,3v2l4,3v2h1c1.9,3.448,6.292,15.955,4,23h-1v3h-1v2l-6,8-3,2-1,3-5,4v2l-7,6v2l-7,6v2l-6,5v2l-7,6v2l-7,6v2l-6,5v2l-3,2-8,10c-3.894-1.674-8.849-3.535-13-5l-8-1v-1h-3v-1l-25-1v-1H305v1l-13,1v1l-6,1v1l-4,1v1h-2v1l-3,1v-1l-4-3v-2l-5-4v-2l-5-4v-2l-7-6v-2l-5-4v-2l-5-4v-2l-6-5v-2l-6-5v-2l-5-4v-2l-5-4v-2l-4-3v-1l-2-1v-2l-5-4v-2h-1c-1.59-2.959-1.926-6.553-2-11h1q0.5-3.5,1-7h1v-2l2-1v-2l2-1V98l4-3,6-7h2l1-2c5.453-3.642,15.216-9.237,23-10,0.8,4.142,3.322,6.873,5,10v2h1v2h1q0.5,2,1,4h1q0.5,2,1,4h1v2h1v2h1v2h1v2h1l2,6c2.649,4.956,6.569,9.915,8,16h2q-0.5-2.5-1-5h-1q-0.5-3.5-1-7h-1v-4h-1v-3h-1v-3h-1v-3h-1q-1-5-2-10h-1V89h-1q-1-5-2-10l-9-27,5-4V47h2l1-2,4-1V43l6-2V40l6-1c24.063-9.371,74.641-9.52,100-1l8,1v1h3v1h2v1h3v1c4.861,2.377,8.923,2.769,12,7h1v3h-1q-0.5,2.5-1,5h-1v3h-1v2h-1v3h-1q-0.5,2-1,4h-1l-3,10h-1v2h-1v3h-1v2h-1v3h-1v2h-1q-0.5,2.5-1,5h-1ZM312,210h33v1h4v1h3v1h3v1h3v1h3v1l4,1v1h2l1,2,6,2v1l3,1,1,2h2v1l3,1,1,2h2l2,3h2l2,3h2l1,2,3,1,4,5h2l6,7h2l13,14,20,19v2l8,7v2l5,4v2l2,1v1l2,1v2l5,4v2l4,3v2l3,2v2l3,2v2l3,2,1,3,2,1v2l2,1v2l3,2v2l2,1v2l2,1v2l2,1v2l2,1v2l2,1v2l2,1v2h1v2l2,1,1,4,2,1,1,3h1l2,6,2,1v2h1v2h1v2h1v2l2,1v2h1v2h1v2h1v2h1v2h1v2h1v2h1v2h1q1,3,2,6h1q0.5,2.5,1,5h1q0.5,2,1,4h1v3h1v2h1v3h1v2h1q0.5,3,1,6h1v2h1l3,13h1v3h1v4h1v4h1v4h1v4h1v5h1q0.5,7,1,14h1q0.5,10.5,1,21h-1v9q-1,8.5-2,17h-1v4h-1v3h-1q-0.5,3.5-1,7h-1v2h-1v3h-1q-1,3-2,6h-1v2h-1q-1,3-2,6l-2,1v2l-2,1v2l-3,2v2l-3,2v2l-8,7-6,7h-2l-2,3-6,2v1h-2v1l-6,1v1h-3v1h-3v1h-3v1l-8,1v1h-5c-4.557,1.412-11.29,2.621-16,4h-7v1h-7v1h-8v1h-9v1H414v1H401v1l-39,1v1H313c-8.017,0-18.645.809-25-1H264v-1H249v-1H238c-1.942-.169-2-1-2-1H225v-1l-25-2c-6.655-1.944-15.564-2.99-22-5h-5v-1l-8-1v-1h-3v-1h-3v-1h-3v-1h-3v-1h-3v-1l-6-2v-1h-2l-2-3c-17.665-12.523-30.137-31.783-38-54v-4h-1v-4h-1v-4H99l-1-16H97c-1.436-5.149-.039-15.381,1-19l1-17h1v-6h1v-5h1v-4h1v-4h1v-4h1q0.5-3.5,1-7h1v-3h1v-3h1v-3h1v-3h1v-2h1q0.5-3,1-6h1v-2h1v-3h1q0.5-2,1-4h1v-3h1l2-6h1v-2h1v-2h1q0.5-2,1-4h1v-2h1v-2h1v-2h1v-2h1v-2h1q0.5-2,1-4l2-1,2-6,2-1q0.5-2,1-4l2-1,2-6h1l1-3,2-1q0.5-2,1-4l3-2q0.5-2,1-4l2-1v-2l3-2v-2l2-1v-2h1l1-3,2-1v-2l3-2v-2l3-2v-2l3-2v-2l4-3v-2l2-1v-1l2-1v-2l4-3v-2l5-4v-2l6-5c7.547-10.429,16.085-18.089,25-27l17-18h2l6-7h2l4-5h2l4-5h2l2-3,3-1,1-2h2l1-2h2l2-3h2l1-2,4-1,1-2,4-1,1-2h2v-1h3v-1l9-2v-1c1.358-.394-0.4.784,1,1h1v-1h4v-1h7v-1Z" />
</svg>
