<svg xmlns="http://www.w3.org/2000/svg" width="128.03" height="128.03" viewBox="0 0 700 700">
  <defs>
    <style>
      .cls-1 {
        fill: #fff;
        fill-rule: evenodd;
      }
</style>
  </defs>
  <path id="Color_Fill_1" data-name="Color Fill 1" class="cls-1" d="M490,370c1.191-4.326,3.143-3.421,5-6,5.878-8.161,13.027-14.027,20-21,15.912-15.912,31.676-34.75,50-48l10-11c1.811-1.64,4.277-2.3,6-4l3-4h2l6-7h2l5-6h2l5-6h2l5-6h2q0.5-1,1-2h1v-4c-2.631-2.217-1.759-4.075-3-8h-1c-2.8-9.482,5.016-23.186,9-26,2.313-1.634,5.111-1.882,7-4l15-1v1h3v1l5,1,2,3h2q0.5,1,1,2h1v2l3,2v2h1v3h1v3h1c1.23,3.958-.561,13.5-2,15-1.391,6.474-8.49,12.631-14,15h-3v1c-4.648,1.479-11.345-.3-15,1l-3,13h-1q-1,5-2,10h-1v4h-1v3h-1v3h-1q-0.5,3.5-1,7h-1l-3,13h-1q-0.5,3.5-1,7h-1v4h-1v3h-1q-0.5,3.5-1,7h-1q-0.5,3.5-1,7h-1v4c-8.918,24.512-14.128,52.342-23,77q-0.5,4-1,8h-1q-0.5,3.5-1,7h-1v3h-1q-0.5,3.5-1,7h-1v5h-1v3h-1v4c-3.669,10.16-6.354,22.83-10,33q-1,6-2,12h-1v3h-1v4h-1v4h-1v4h-1q-0.5,4-1,8h-1l-3,14-9-2v-1h-2v-1l-6-1v-1h-3v-1h-3v-1h-3v-1h-3v-1h-4v-1h-3v-1l-7-1v-1l-8-1v-1l-17-3v-1l-10-1v-1h-6c-7.649-2.328-18.119-2.693-26-5h-7v-1h-9v-1h-9v-1H403v-1H389v-1H334l-35,1v1H285v1h-8v1H266c-7.681,2.248-18.418,2.724-26,5h-6v1h-6v1l-10,1v1h-4v1h-5v1h-3v1h-5v1l-8,1v1l-7,1v1h-3v1l-7,1v1h-3v1h-3v1h-3v1h-3v1l-6,1v1a23.509,23.509,0,0,1-8,2q-2.5-11-5-22h-1q-1-6-2-12c-3.689-10.155-6.336-22.835-10-33q-0.5-4-1-8h-1v-4h-1v-3h-1q-0.5-3.5-1-7h-1v-5h-1q-0.5-3.5-1-7h-1v-3h-1q-0.5-3.5-1-7h-1q-1-6-2-12c-10.062-27.825-15.978-59.2-26-87l-4-18H87l-2-10H84l-2-10H81l-2-10H78v-3H77v-3H76v-4H75v-2H74v-4H73c-1.442-4.163.517-5.605-3-8v-1H69v1H58v-1c-2.674-.97-5.847-0.6-8-2v-1c-1.8-1.418-2.377-2.285-5-3-0.76-2.614-1.571-3.19-3-5H41c-1.392-2.162-1.053-5.3-2-8H38c-1.031-3.3.353-9.2,1-11l1-6c2.359-5.291,9.706-12.628,17-13,2.575-2.507,15.263-.732,17,1,7.305,1.7,18.88,16.462,15,29H88v4H87v2H86v2H85l-1,3,8,6,2,3h2l1,2,4,3v1h2v1a8.022,8.022,0,0,0,4,2v2c3.444,0.917,5.7,3.829,8,6l1,2,3,1c2.4,2.166,2.092,3.913,6,5v2c4.016,1.872,6.948,5.114,10,8l1,2h2l11,12,3,2v1h2l36,37,16,15v2h1c1.908,2.272,4.117,3.729,5,7h-2c-2.226,3.776-6.742,7.428-9,11-4.435,7.017-9.461,23.5-6,35v5h1v3h1v2h1v3h1l2,6h1v2h1c1.425,1.788,2.277,2.387,3,5h2v2l3,2v1h2l2,3h2l1,2h2v1l4,1v1l9,2v1h6v1c7.593,2.146,16.494-1.3,21-3l6-1,1-2,6-2,1-2h2l2-3,7-6v-2l2-1v-2l2-1,1-4h1v-2h1q1-5,2-10c0.918-2.908,2.37-16.709,1-21h-1q-1-4.5-2-9h-1l-2-6h-1v-2l-3-2v-2l-6-5-2-3h-2l-1-2h-2l-1-2h-2v-1h-2v-1c-2.793-1.719-1.784.9-3-3h1l1-4h1v-2h1v-2h1v-2h1v-3l2-1v-3h1v-2h1v-2h1l2-6h1v-3h1l1-4h1l1-4h1v-2h1v-3h1v-2h1v-2h1l2-6h1v-3h1l1-4h1l1-4h1v-2h1v-3h1l2-6h1v-2h1v-2h1v-3l2-1,1-5h1l1-4h1l1-4h1v-2h1v-2h1v-2h1v-2h1l2-6h1v-2h1v-3l2-1v-3l2-1,1-4h1l1-4h1v-2h1v-2h1v-2h1v-2h1l1-4,2-1v-2c1.444-2.566,3.2-4.5,4-8-4.772-2.655-9.029-8.634-11-14v-5h-1v-5h1v-6h1l1-4h1v-2l2-1v-2h1l2-3h2l1-2h2v-1h2v-1c2.056-.884,13.689-2.087,17-1v1h3l9,6,1,3,3,2v3h1v2h1v6h1v5h-1q-0.5,4-1,8h-1c-1.637,3.179-2.684,5.619-5,8l-4,3c-0.57,1.9.649,1.4,1,2,0.869,4.758,4.048,7.4,6,11l2,6h1l2,6h1l1,4h1l1,4h1v2h1v2h1v2h1v2h1v2h1v2h1v2h1v2h1v2h1v2h1v2h1v2h1v3l2,1,3,9h1v2h1v2h1v2h1l2,6h1l3,9h1l1,4h1v3h1l2,6h1v2h1v2h1v3h1v2h1v2h1l2,6h1v3l2,1,3,9h1l1,4h1v3l2,1v3h1c0.478,0.967,3.183,7.483,3,8h-1c-1.775,1.976-1.948.843-4,2v1h-2v1l-3,1-1,2h-2l-2,3-6,5v2l-2,1v2l-2,1-1,4h-1v2h-1v3h-1v2h-1v4h-1v9c-0.192,2.244-1.86,3.883-1,7h1v5h1v5h1v2h1v3h1v2h1v2h1v2l2,1v2l3,2v2l6,5,1,2h2l2,3,4,1v1h2v1l6,2v1h5v1h5v1c5.9,1.683,13.4-.878,17-2l8-1v-1h2v-1l6-2,1-2h2l4-5h2v-1l3-2v-2l3-2v-2l2-1v-2h1l2-6h1q0.5-3,1-6h1v-5h1c1.759-6.159-1.416-23.393-3-27h-1l-2-6h-1v-2l-2-1C496.377,376.1,495.173,371.355,490,370Z" />
</svg>
