<svg xmlns="http://www.w3.org/2000/svg" width="128" height="128" viewBox="0 0 128 128">
  <defs>
    <style>
      .cls-1 {
        fill: #fff;
        fill-rule: evenodd;
      }
</style>
  </defs>
  <path id="Color_Fill_1" data-name="Color Fill 1" class="cls-1" d="M70.816,6.071c11,1.886,21.164-1.624,29.729,5.368,9.211,7.519,11.926,25.147,9.7,38.607C107.765,65.089,98.283,78.172,89.19,89.065c-4.8,5.747-9.26,13.2-14.864,18.788a2.1,2.1,0,0,0-1.239-.207c-1.858,3.569-7.208,5.589-10.323,8.052-5.188,4.1-9.533,5.844-15.9,7.432-15.269,3.811-28.689-18.766-29.729-32-0.608-7.733,1.017-21.958,3.716-30.555l2.477-12.181c4.04-13.7,9.07-27.059,19.613-36.129C48.017,7.9,57.374,7.977,61.939,6.9ZM55.332,31.052L45.01,36.419c-3.878,3.2-1.712,6.433-8.877,7.639l-1.652,5.781c0.6,7.249,9.848,22.393,15.071,24.361,7.048,2.656,14.2-2.522,18.374-4.955,0.575-6.875.412-14.85-7.845-14.865-2.058,0-4.159-.116-5.368.619,0.195,2.822,1.971,3.269,2.271,5.987H56.571A7.8,7.8,0,0,1,51,61.4l-2.684-5.368c-0.314-1.628.934-7.545,1.858-8.465,4.42-5.121,11.126-5.134,19.613-6.4,0.918,3.884,4.228,4.8,5.368,7.845,1.838,4.906,1.223,11.839,1.239,18.168-3.408,2.059-4.479,7.429-8.052,9.5L55.332,81.219,51,84.316l-11.148,3.3v0.206l15.277,4.955,5.781-1.652h5.987l10.942-4.955,1.445-3.1,4.748-3.3c1.889-2.678,2.429-6.1,3.3-9.7l2.064-9.5C88.251,50.563,82.619,41.219,76.39,36.213L62.765,31.052l-3.1.826Z" />
</svg>
