<svg xmlns="http://www.w3.org/2000/svg" width="128.002" height="128.002" viewBox="0 0 820 820">
  <defs>
    <style>
      .cls-1 {
        fill: #fff;
        fill-rule: evenodd;
      }
</style>
  </defs>
  <path id="Color_Fill_1" data-name="Color Fill 1" class="cls-1" d="M789,88.656v3c-6.359,3.85-11.623,11.944-16,18l-6,5v2l-6,5v2l-5,4v2l-3,2v2l-4,3v2l-4,3v2l-3,2v2l-3,2v2l-3,2v2l-3,2q-0.5,1.5-1,3l-2,1v2l-2,1q-0.5,1.5-1,3h-1v2l-2,1v2l-2,1v2l-2,1v2l-2,1v2l-2,1q-0.5,2-1,4l-2,1q-0.5,1.5-1,3h-1v2h-1v2h-1v2h-1v2h-1q-0.5,2-1,4l-2,1v2h-1v2h-1v3l-2,1v3h-1q-0.5,2-1,4h-1q-0.5,3-1,6h-1v3h-1v3h-1v4h-1v2h-1q-0.5,4-1,8h-1v5h-1v3h-1q-1,7.5-2,15c-4.259,13.591-4.9,31.115-9,45v8c-2.829,9.506-4.1,21.7-7,31q-1,6.5-2,13h-1q-0.5,3.5-1,7h-1q-0.5,3.5-1,7h-1v3h-1v3h-1q-0.5,3-1,6h-1v2h-1v3h-1v2h-1q-0.5,2.5-1,5h-1q-1,3-2,6h-1q-1,3-2,6l-2,1q-1,3-2,6h-1q-0.5,1.5-1,3l-2,1q-0.5,2-1,4l-2,1q-0.5,1.5-1,3l-3,2v2l-2,1v2l-5,4v2l-9,8-8,9h-2l-2,3h-2l-2,3h-2q-0.5,1-1,2h-2q-0.5,1-1,2l-3,1v1l-6,2v1h-2v1h-2v1l-6,2v1h-3v1h-3v1h-3v1l-7,1v1h-5v1h-5v1h-9v1c-4.576,1.27-21.759-.082-25-1H506v-1l-10-1v-1h-4v-1h-4v-1h-4v-1h-3v-1h-4v-1h-2v-1l-6-1v-1h-3v-1l-5-1v-1h-2v-1c-4.38-2.316-7.17-.677-8-7,2.915-3.186,3.183-10.467,5-15h1v-3h1v-3h1v-2h1q1-4.5,2-9h1v-2h1v-3h1l1-4h1q0.5-2.5,1-5h1v-3h1v-2h1v-3h1l1-4h1v-2h1v-3h1l1-4h1v-2h1v-3l2-1q0.5-2.5,1-5h1l2-6h1l1-4h1l1-4h1v-2h1v-2h1v-2h1v-2h1v-2h1v-2h1v-2h1v-2h1v-2h1v-2l2-1v-2h1v-2h1v-2h1v-2h1v-2c14.782-23.508,29.24-47.395,45-70l2-1q0.5-1.5,1-3l3-2v-2l3-2v-2l3-2v-2l4-3v-2l4-3v-2l4-3v-2l5-4v-2l7-6v-2l9-8v-2l3-2,13-14c2.613-2.614,5.859-3.838,7-8a28.77,28.77,0,0,0-9,4q-0.5,1-1,2h-2l-2,3h-2q-0.5,1-1,2h-2v1l-3,1q-0.5,1-1,2h-2l-3,4h-2q-0.5,1-1,2h-2l-2,3h-2l-3,4h-2l-3,4h-2l-5,6h-2l-9,10h-2l-5,6-16,15v2l-9,8v2l-2,1v1l-4,3v2l-5,4v2l-2,1v1l-2,1v2l-3,2v2l-3,2v2l-3,2v2l-3,2v2h-1l-1,3-2,1v2l-3,2v2l-2,1-1,3h-1v2l-2,1v2l-2,1-1,3h-1l-2,6h-1l-1,3-2,1-1,4-2,1-2,6-2,1-1,3h-1v3l-2,1v2h-1v2h-1v2h-1v2h-1v2l-2,1q-0.5,2.5-1,5l-2,1-1,4h-1v2h-1v2h-1v2h-1v2h-1v3l-2,1v3h-1v2h-1l-1,4h-1v3h-1l-1,4h-1v3l-2,1v3h-1v2h-1v3h-1v2h-1q-0.5,2.5-1,5h-1v3h-1v2h-1q-0.5,3-1,6h-1v2h-1v3h-1v2h-1v4h-1v2h-1q-0.5,3-1,6h-1v3h-1v3h-1v3h-1v3h-1q-0.5,3.5-1,7h-1v2h-1v4h-1v3h-1v4h-1v2h-1v5h-1v3h-1v4c-5.022,13.967-7.443,31.377-12,46l-3,23c-3.05,10.184-5.268,24.088-6,36h1v1l24,3v1l11,1v1l12,2v1h4v1h3v1h3v1h3v1l10,2v1h2v1l6,1v1h2v1h3v1l4,1v1h2v1h3l1,2h3l1,2h3l1,2,6,2,1,2,4,1v1l3,1,1,2h2l1,2h2l2,3h2l2,3h2v1c2.568,2.153,4.382,4.978,8,6v2h2v2h2v2c4.945,2.848,6.879,7.377,10,12l2,1v2l2,1q0.5,2,1,4l2,1v3l2,1v3h1q0.5,2,1,4h1q0.5,6.5,1,13c-0.823,2.268-3.181,3.838-4,7a8.2,8.2,0,0,0-4,2v1l-4,1v1H242c-26.484,0-60.032,2.508-83-2l-5-6h-1v-3h-1v-2h-1v-8c2.628-2.342.664-2.7,2-6h1v-2h1v-2h1v-2h1v-2h1v-2h1q0.5-2,1-4l2-1v-2l2-1v-2l4-3v-2l9-8,8-9h2l3-4h2l2-3h2q0.5-1,1-2l3-1v-1h2q0.5-1,1-2l6-2q0.5-1,1-2h2v-1h2v-1h2v-1h2v-1h2v-1h2v-1l6-2v-1l5-1v-1h2v-1h3v-1h2v-1h3v-1h2v-1h3v-1h3v-1h3v-1h3v-1l12-2c15.017-5.33,34.132-8.8,54-9,0.584-1.057,1.764-1.606,2-2v-2h1v-7h1v-5h1v-7h1q0.5-5.5,1-11h1v-4h1v-5c0.528-1.7,3.071-5.812,2-9h-1v-2h-1v-4h-1v-2h-1q-0.5-2.5-1-5h-1v-4h-1v-2h-1v-3h-1q-0.5-2.5-1-5h-1v-2h-1v-3h-1v-2h-1q-0.5-2.5-1-5h-1l-2-6h-1v-2h-1v-2h-1v-2h-1v-2h-1v-2h-1v-2l-2-1-1-4-2-1-1-4-2-1-1-3-3-2v-2l-2-1v-2l-3-2v-2l-2-1v-2l-5-4v-2l-4-3v-2l-4-3v-2l-6-5-2-3h-1v-2l-10-9c-3.275-3.274-5.939-8.662-11-10v-2c-3.6-.918-5.477-3.887-8-6v-1h-2l-3-4h-2l-3-4h-2l-3-4h-2l-1-2-3-1v-1h-2l-2-3-4-1-1-2-3-1v-1l-4-1-1-2h-2v-1h-2v-1h-2v-1h-2v-1h-2v-1h-2v-1l-6-2v-1h-3v-1h-2v-1h-3v-1h-2v-1l-10-2c-5.108-1.833-9.761-3.786-17-4v1c1.135,0.844.145-.127,1,1l23,13,1,2h2l1,2h2v1l3,1,1,2h2l3,4h2l1,2h2l3,4h2l4,5h2l5,6h2l10,11h2l7,8,3,2v2l11,10v2l6,5v2l4,3v2l5,4v2l3,2,1,3,2,1v2l2,1v2l3,2v2l3,2,1,4h1l1,3,2,1v2l2,1v2l2,1v2c1.886,3.283,2.648,1.5,3,7-2.445,1.406-3.259,3.744-5,5l-3,1-2,3h-2l-2,3h-2l-1,2-3,1v1h-2l-1,2-22,9-11,1v1c-7.446,2.107-26.334-2.156-31-4v-1h-3v-1h-2v-1h-2q-0.5-1-1-2h-3q-0.5-1-1-2h-2q-0.5-1-1-2h-2q-0.5-1-1-2h-2l-4-5h-2l-6-7-3-2v-2l-3-2v-2l-2-1v-2l-2-1q-0.5-2-1-4l-2-1q-0.5-2-1-4l-2-1q-1-3-2-6h-1v-2h-1v-2h-1v-2h-1v-2h-1v-2h-1q-0.5-2-1-4h-1v-2h-1v-2h-1v-2h-1v-2h-1v-2h-1v-2l-2-1v-3l-2-1v-2h-1v-2h-1v-2h-1v-2h-1v-2l-2-1q-0.5-2-1-4l-2-1q-1-3-2-6h-1q-0.5-1.5-1-3l-2-1q-0.5-2-1-4h-1q-0.5-1.5-1-3l-2-1v-2l-2-1v-2l-3-2v-2l-2-1v-2l-2-1-1-3-5-4v-2c-5.39-7.5-13.5-13.5-20-20l-6-7H66l-4-5H60l-3-4H55l-2-3H51l-2-3H47l-1-2-4-1-1-2a26.449,26.449,0,0,0-9-4l-1-3h1v-1l7-1v-1h4v-1h3v-1h4v-1h3v-1h4v-1h4v-1h4v-1l9-1v-1l9-1v-1l10-1v-1h7v-1h5v-1h7v-1h8c10.322-2.913,22.988-2.916,36-3l16-1v1h16v1h10v1h7v1h6v1h4v1h4v1h5v1h2v1h4v1l6,1v1h2v1h3v1h2v1h3v1h2l1,2h2v1h2v1h2v1h2v1h2l1,2h2l1,2h2l1,2h2v1l3,1,1,2h2l2,3h2l1,2h2l6,7h2l6,7,3,2v2l4,3v2l2,1v1l2,1v2l2,1,1,4,2,1,1,4h1l1,4h1v3h1v2h1v3h1v2h1v4h1c1.384,4.139,3.689,26.052,2,32h-1v7c-1.54,4.8-3.8,9.537-4,16,3.013,1.98.432,0.881,2,3l4,3v2l3,2v2l4,3v2l2,1v2l3,2v2l3,2v2l3,2v2l2,1v2h1l1,3h3v-1h1q0.5-3.5,1-7h1q0.5-3,1-6h1v-2h1v-4h1v-2h1q0.5-3,1-6h1v-3h1v-2h1q0.5-3,1-6h1v-2h1v-3h1v-2h1v-3h1v-2h1v-3h1v-2h1v-3h1l1-4h1v-2h1v-3c2.42-5.359,7.108-10.045,8-17-2.079-1.707-2.428-3.676-4-6l-2-1v-2l-2-1v-2l-2-1-2-6-2-1-1-4h-1l-2-6h-1v-3c-6.084-13.894-10-27.582-10-48q0.5-12,1-24,4.5-16,9-32h1v-2h1q0.5-2.5,1-5h1l1-4h1v-2h1v-3l2-1v-2h1v-2h1v-2h1v-2l2-1,1-4,2-1v-2h1v-2l2-1v-2l2-1v-2h1l1-3,2-1v-2l3-2v-2l3-2v-2l3-2v-2l5-4v-2l2-1v-1l2-1v-2l9-8v-2l9-8,8-9h2l6-7h2l3-4h2l2-3h2l2-3h2l2-3h2l1-2,3-1v-1h2l1-2,4-1,1-2,3-1v-1l6-2,1-2,4-1,1-2,4-1v-1h2v-1h2v-1h2v-1h2v-1h3l1-2h3v-1h2v-1l6-2v-1h3v-1h2v-1h3v-1h2v-1l5-1v-1h3v-1h2v-1h3v-1h2v-1h3v-1h2v-1l50-15,18-3v-1l9-1v-1h3v-1l11-1v-1l10-1v-1h6v-1l12-1v-1l23-2v-1h6v-1h10v-1h7v-1h13c4.935-1.4,11.746-1.986,18-2h10v-1Z" />
</svg>
