<svg xmlns="http://www.w3.org/2000/svg" width="127.98" height="127.98" viewBox="0 0 600 600">
  <defs>
    <style>
      .cls-1 {
        fill: #fff;
        fill-rule: evenodd;
      }
</style>
  </defs>
  <path id="Color_Fill_1" data-name="Color Fill 1" class="cls-1" d="M311,31c28.033,3.6,79.84,70.2,103,88,13.3-4.22,23.289-12.8,39-15v9c-15.459,53.4,23.214,64.807,32,103-17.256,5.141-74.929,56.733-35,75,17.206,3.656,42.941-19.368,58-26-4.825,38.075-36.772,65.673-50,97l-3-3c-12.524-5.818-25.847-20.96-48-16-19.772,4.427-52.006,48.222-47,74l7,6c11.385,3.981,22.281-1.74,32-5-14.512,33.58-37.636,88.239-64,109L322,408c13.267-56.785,59.716-91.6,72-153,10.894-54.456-37.516-127.276-92-117-56.195,10.6-108.287,61.582-86,134,10.676,34.69,30.74,58.969,47,87,18.388,31.7,28.65,101.227,20,152-3.4,19.985.834,41.609-7,57l-1-2c-26.4-31.672-42.793-77.173-61-116l1-1a37.578,37.578,0,0,0,33-3c21.139-55.916-31.859-134.361-90-91l-3-2-25-33c-14.565-20.685-26.382-43.711-38-67,25.7,10.585,42.879,32.67,77,37v-2c20.52-40.014-35.842-65.331-52-81l2-2q27.5-34,55-68l13-60h1c12.877,1.829,33.644,19.793,43,15l47-39Zm-6,137c19.168,9.246,37.571,39.818,46,60-10.136,21.651-23.7,43.452-42,57-13.747-5.122-47.171-42.4-49-59C275.6,207.582,290.687,186.708,305,168Z" />
</svg>
