<svg xmlns="http://www.w3.org/2000/svg" width="127.98" height="127.98" viewBox="0 0 540 540">
  <defs>
    <style>
      .cls-1 {
        fill: #fff;
        fill-rule: evenodd;
      }
</style>
  </defs>
  <path id="Color_Fill_1" data-name="Color Fill 1" class="cls-1" d="M476,106c-5.109.165-9.221,1.861-13,3H453c-7.975,2.425-16.738,4.77-27,5,1.259,4.052.476,1.195,3,3l1,2h2v1h2l1,2h2v1h2v1h2l1,2,4,1,1,2,4,1,1,2,6,2,1,2,4,1,1,2,3,1v1l-36,6v2c3.546,0.68,4.54,2.565,7,4h2l1,2h2l1,2,4,1,1,2,4,1,1,2,4,1,1,2,4,1,2,3c1.087,0.74,4.386.868,5,2v4c-2.5,2.712-.605,4.371-2,8h-1q-0.5,2.5-1,5h-1v2h-1q-1,4.5-2,9h-1l-2,6h-1v2h-1v3h-1v2h-1v3l-2,1-2,6-2,1q-0.5,2.5-1,5l-3,2-1,4-2,1-1,4-2,1v2l-2,1v2l-3,2v2l-3,2v2l-3,2v2l-5,4v2l-7,6v2l-5,4v2l-6,5v2l-2,1-1,3h-1v2l-2,1-1,4c-16.154,25.463-27.641,55.663-28,97H228c-17.359,0-37.885-1.427-51,3h-4v1h-3v1h-2v1h-2l-2,3h-2l-1,2h-2l-9,10-3,2-3,9h-1v2h-1v6c-6.165,20.264,4.551,36.844,17,45l1,2,6,1v1h2v1h4c4.279,1.372,10.144,2.534,15,1v-1h35v1l-3,2v1h-2l-2,3-4,1v1h-2v1l-6,2v1h-3v1h-3v1h-3v1h-3v1l-20,2v1h-9c-2.872.853-7.929,3.418-13,2v-1l-23-1-16-5-1-2h-2l-1-2h-2l-1-2h-2l-5-6-4-3v-2l-3-2v-2l-2-1-1-4H85v-2H84l-2-6H81v-3H80v-3H79l-1-7H77l-1-10H75v-8H74V399h1v-9h1v-7h1v-6h1v-6h1v-3h1v-5h1l1-11,11-30c5.107-.162,9.223-1.861,13-3h10v-1l9-1v-1h5v-1h8v-1l10-1v-2c-3.038-1.735-4.627-4.627-7-7l-12-11v-2l-2-1-4-5c-4.024-4.025-8.356-5.2-8-11,1.527-1.044,4.075-4.417,5-6v-2l2-1v-2l2-1q0.5-2,1-4h1q0.5-1.5,1-3l2-1v-2h1v-2l2-1q0.5-2,1-4l2-1q0.5-2,1-4l3-2q0.5-2.5,1-5l2-1q1-3,2-6l2-1v-2h1v-2h1v-2h1v-2h1v-2l3-2,3-9,2-1v-3h1v-2h1v-3h1v-2l2-1v-3h1v-2h1q0.5-2.5,1-5h1v-3h1v-2l2-1,3-11c-35.768.366-77.553,3.313-99-11l-2-3H70l-3-4-8-7v-2l-2-1-1-3H55v-2l-2-1v-2H52v-2H51v-3H50v-2H49l-1-6H47v-6H46L45,91h1V86h1l2-11,2-1V71h1V69h1V67l2-1V64L71,47h2l2-3h2l1-2,4-1c12.3-6.606,33.066-12.291,51-7h7v1h4v1h3v1h4v1h2v1l6,1v1h2v1h3v1h14v1h22s0.089,0.834,2,1h11v1h56c12.647,0,23.581,1.916,34-1h26V44h18V43l24-1V41h9V40h10V39h5V38h9V37h5v1h5v1h5v1h4v1h5v1l4,1v1l5,1,1,2,5,1,1,2h2l1,2h2l4,5,8,7v2l2,1,1,3h1q0.5,2,1,4h1q1,3,2,6h1v3h1v2h1q0.5,4.5,1,9h1Q475,100,476,106ZM170,76V74c-1.255-1.069-1.047-1.77-2-3h-1V69l-7-6-1-3h-3V59h-3V58h-3V57h-3V56h-2V55h-3V54h-3V53h-3V52h-9V51h-8V50h-4v1h-8v1h-5v1l-9,2v1l-4,1v1l-4,1-3,4-9,8v2l-3,2v2H69v2H68v3l-2,1v3H65v9c-0.985,5.883-1.213,13.391,1,19h1v3h1l2,6,2,1v2l2,1v2l5,4,2,3h2l1,2h2l1,2,4,1v1h2v1l9,1c1.169,0.338,7.3,2.373,9,2v-1h8v-1h5s-0.011-.615,2-1c0.945-1.8,1.385-1.574,2-4,3.377-3.7-1.814-14.178-3-17v-3l-2-1v-2h-1v-2h-1v-2h-1v-2h-1v-2h-1v-2l-2-1q-0.5-2-1-4h-1q-0.5-1.5-1-3l-2-1q-0.5-2-1-4l-3-2V89l-3-2V85l-2-1V82l-3-2V78c-0.425-.623-1.322-0.8-2-2h73ZM133,95l1,3h1v2h1v2l2,1q0.5,2,1,4l2,1v4h1q0.5,2,1,4h1v5h1v3h1v6h1q-0.5,8-1,16h32c0.844-1.135-.127-0.145,1-1,0.119-4.494,1.131-6.067,2-9V123h1v-4h1q-2-12-4-24H133Zm98,369H189l-8,1v1l-4-1h-4v-1l-4-1-5-6-2-1v-2h-1c-1.157-2.034,0-2.245-2-4V435h1v-2h1v-3l2-1v-2l2-1v-2l2-1,3-4h2l1-2,4-1v-1h2v-1h4v-1h6v-1h5v1h6v1h4v1l4,1v1h4l1,2C226.722,427.936,231.335,441.141,231,464Zm270-18c1.669,8.944,4.722,21.294,1,30h-1v2h-1v3h-1v2h-1v2l-2,1v2l-3,2v2l-3,2v1h-2l-5,6c-14.266,8.2-54.279,5-77,5H225v-1h1l2-3h2l6-7,2-1v-2l4-3v-2l2-1v-3h1v-2h1v-3h1c1.486-3.8,4.745-23.019,3-29h-1v-5h-1v-7h-1v-4h-1v-3h-1l-2-6h-1q-0.5-2-1-4l-2-1v-2l-2-1-2-4H453c2.143,1.822,5.723-.053,9,1v1c3.722,1.331,6.727,1.665,10,3-1.139,1.139,0,.4-2,1-1.712,2.5-5.3,3.58-8,5h-2l-2,3h-3v1h-2v1h-3v1l-4,1v1h-2v1l-5,1-1,2-6,2v1Z" />
</svg>
