<svg xmlns="http://www.w3.org/2000/svg" width="128.016" height="128.016" viewBox="0 0 560 560">
  <defs>
    <style>
      .cls-1 {
        fill: #fff;
        fill-rule: evenodd;
      }
</style>
  </defs>
  <path id="Color_Fill_1" data-name="Color Fill 1" class="cls-1" d="M57,72H88V41c7.788-2.876,22.333-1.053,32-1,2.876,7.788,1.053,22.333,1,32h31V41c7.788-2.876,22.333-1.053,32-1,2.682,7.343,1,20.827,1,30v66h-1c-1.223,4.467-5.158,6.158-8,9l-16,17-7,6V296h31V265c5.076-1.86,14.279-1,21-1h43c2.876,7.788,1.053,22.333,1,32h63V265c5.076-1.86,14.279-1,21-1h43c2.876,7.788,1.053,22.333,1,32h31V168c-3.392-1.971-5.322-5.322-8-8l-17-16-7-8V41c7.788-2.876,22.333-1.053,32-1,2.876,7.788,1.053,22.333,1,32h31V41c7.788-2.876,22.333-1.053,32-1,2.876,7.788,1.053,22.333,1,32h31V41c7.788-2.876,22.333-1.053,32-1v98l-31,30V520c-3.851,1.4-10.619,1-16,1H345c-2.133-5.828-1-16.465-1-24V446q-2.5-8-5-16h-1v-2h-1v-2h-1v-2l-2-1v-2l-2-1v-2l-3-2v-2l-5-4-1-2h-2l-2-3h-2l-1-2h-2l-1-2h-2v-1l-6-2v-1l-9-2v-1h-5v-1c-3.945-1.134-23.186.051-26,1v1h-3v1l-6,1v1l-4,1v1l-4,1-1,2h-2l-1,2h-2l-2,3h-2l-4,5-2,1v2l-3,2v2l-2,1-1,3h-1v2h-1l-2,6h-1q-1,4.5-2,9h-1c-2,5.989-1,18.277-1,26v53c-3.851,1.4-10.619,1-16,1H57c-2.678-7.357-1-23.544-1-33V168c-3.392-1.971-5.322-5.322-8-8L31,144l-7-8V41c7.788-2.876,22.333-1.053,32-1C58.876,47.788,57.053,62.333,57,72ZM89,296h31V257c0-4.053,1.021-11.707-1-14-0.478-1.967-2.68-6.03-4-7h-2v-1c-1.227-.956-1.931-0.742-3-2-3.435-.117-9.185-0.669-11,1-1.967.478-6.03,2.68-7,4v2H91c-0.956,1.227-.742,1.931-2,3v53Zm352,0h31V257c0-4.053,1.021-11.707-1-14-0.478-1.967-2.68-6.03-4-7h-2v-1c-1.227-.956-1.931-0.742-3-2-3.435-.117-9.185-0.669-11,1-1.967.478-6.03,2.68-7,4v2h-1c-0.956,1.227-.742,1.931-2,3v53Z" />
</svg>
