<svg xmlns="http://www.w3.org/2000/svg" width="128.006" height="128.006" viewBox="0 0 580 580">
  <defs>
    <style>
      .cls-1 {
        fill: #fff;
        fill-rule: evenodd;
      }
</style>
  </defs>
  <path id="Color_Fill_1" data-name="Color Fill 1" class="cls-1" d="M280,34c17.741-.494,33.612,1.093,46,6h3v1h3c4.934,2,8.925,3.832,9,11,1.946,2.222.926,5.819,2,9h1q0.5,3.5,1,7h1v2h1q0.5,3,1,6h1q1,3,2,6h1q0.5,2,1,4l2,1q0.5,2,1,4l2,1v2l3,2v2l3,2,6,7h2l1,2h2l1,2,6,2v1h2v1h3v1h3v1h3v1h6c11.282,3.234,27.41-.1,36-3h4c3.164-1.126,12.662-6.671,17-3,4.32,1.17,3.429,3.147,6,5h2l6,7,7,6v2l4,3v2l3,2v2l2,1v2l2,1,2,6,2,1v2h1v2h1v3h1l1,4h1v3h1v3h1v2h1v3c1.122,2.961,5.012,13.506,2,17-0.891,3.273-3.09,4.723-5,7h-1v2l-2,1v1l-3,2v2l-3,2v2l-2,1-1,3h-1v2l-2,1-2,6h-1v2h-1v2h-1l-2,6h-1q-0.5,2.5-1,5h-1v2h-1q-1,5-2,10h-1v3h-1v3h-1v5h-1v5h-1v5h-1v8h-1v13h-1v13h1q0.5,10.5,1,21h1v5h1v5h1v4h1v4h1v3h1v3h1v4h1v2h1v3h1v2h1v3h1l2,6h1v2h1l2,6,2,1,1,4,2,1v2l3,2v2l2,1v2l7,6v2l2,1c1.16,1.256,1.663,2.912,3,4,0.163,9.432-2.444,15.573-5,22q-0.5,3-1,6h-1l-1,4h-1v2h-1v2h-1v2h-1v2h-1v2h-1v2l-2,1v2l-2,1v2h-1l-1,3-2,1v2l-4,3-1,3-6,5-5,6-3,1-3,4h-2l-1,2h-7v-1l-7-1v-1h-5v-1h-4v-1h-5v-1h-6v-1h-8v-1c-5.156-1.442-28.149-.09-32,1h-8v1l-9,1v1h-4v1h-3v1h-2v1h-3v1h-3v1l-6,2v1h-2v1l-4,1-1,2h-2v1l-3,1-1,2h-2l-5,6-5,3v2l-6,5v2l-3,2v2l-2,1v2l-2,1-1,4-2,1v2h-1v2h-1v2h-1v2h-1c-2.171,4.065-.785,6.509-6,8v1h-6v-1h-2c-2.729-1.811-5.149-10.621-7-14h-1v-2l-2-1v-2h-1v-2l-2-1v-2l-2-1v-2l-3-2v-2l-6-5v-2h-1l-1-2h-2l-5-6h-2l-2-3h-2l-1-2h-2l-1-2-4-1v-1h-2v-1l-6-2v-1l-6-1v-1h-2v-1l-12-2c-9-2.845-19.642-3-32-3H166v1h-8v1h-6v1h-5v1h-4v1h-5v1c-4.23,1.528-8.53,1.956-14,2-1.573-2.431-1.128-.608-3-2l-4-5h-2l-3-4-8-7v-2l-5-4v-2l-2-1v-2l-3-2-1-4-2-1-2-6-2-1v-3H86v-2H85l-1-4H83v-3c-1.405-3.5-8.745-20.613-5-25,0.934-3.448,6.6-9.456,9-12l2-1v-2l2-1v-2l3-2v-2l2-1,1-4,2-1,2-6h1v-2h1l2-6h1v-3h1v-2h1v-3h1v-2h1v-4h1v-3h1v-3h1v-4h1v-4h1v-5h1v-5h1v-8h1V305h1V292h-1V279h-1v-8h-1v-5h-1v-5h-1v-5h-1v-3h-1q-0.5-3.5-1-7h-1v-3h-1v-3h-1v-2h-1q-0.5-2.5-1-5h-1q-1-3-2-6h-1v-2h-1v-2h-1l-2-6H97l-1-3-2-1v-2l-2-1v-2l-3-2v-2l-5-4v-2l-2-1-5-6c-0.128-9.591,2.4-15.44,5-22l1-6h1l1-4h1v-2h1v-3l2-1v-2h1v-2h1v-2h1v-2h1l1-3,2-1v-2l2-1,1-3,4-3v-2l4-3,9-10h2q0.5-1,1-2c1.55-1.455,3.633-2.369,5-4,9.6,0.027,14.065,2.68,21,5l15,2c3.237,0.936,16.342,2.343,21,1v-1h5v-1h4v-1l6-1v-1l6-2v-1h2v-1l3-1q0.5-1,1-2h2l5-6,4-3V96l3-2V92l2-1q0.5-2,1-4l2-1q0.5-2,1-4h1q1-3,2-6h1V73h1V70h1V68h1q0.5-3.5,1-7c1.4-4.161,2.851-8.248,3-14l6-5h3V41h3V40h3V39h3V38l9-1V36C269.949,34.771,277.443,36.3,280,34Zm-18,70c3.973,0.976,3.851,1.963,10,2,1.139-1.139,0-.4,2-1,0.628-1.193,1.667-1.471,2-2v-2h1V99h1V96h1l3-10,13-1v1h3q2.5,7.5,5,15h1v2h1c1.34,1.5.5,1.368,3,2v1c3.553,2.081,8.14-1.485,10-2,0.683-3.305,1.753-3.839,2-8h-1q-0.5-3-1-6h-1q-0.5-2-1-4h-1V83h-1c-2.168-5.394-1.021-9.042-6-12-3.056-3.124-6.258-.705-11-2-7.693-2.1-19.764-.587-26,2-1.035,1.93-3.153,4.081-4,6q-1,4.5-2,9h-1q-0.5,2-1,4h-1v3h-1q-0.5,3.5-1,7h1Zm-24,24c-2.035,2.247-5.466,3.19-8,5l-3,4h-2q-0.5,1-1,2l-4,1q-0.5,1-1,2l-4,1v1l-4,1v1c-5.53,2.484-11.342,1.678-13,8h-1c-2.091,3.487,1.9,8.123,3,9v1h2c3.8,3.476,12.366-1.7,15-3h2v-1h2v-1h2v-1h2v-1h2v-1h2v-1l3-1q0.5-1,1-2h2q0.5-1,1-2h2l2-3h2l5-6h1v-3h1c-0.52-3.33-1.6-6.463-4-8v-1Zm100,0c-2.247,2.5-3.836.96-5,5h-1q-0.5,2.5-1,5h1v3h1l5,6h2l2,3h2l1,2,3,1v1h2l1,2,4,1v1h2v1l6,2v1h3v1h2v1h3v1c4.049,1.259,9.87-1.3,11-3,2.576-3.883.3-9.893-2-12-2.659-2.438-7.373-2.4-11-4v-1h-2v-1h-2v-1h-2v-1h-2l-1-2-4-1-1-2h-2l-2-3-3-1-2-3C343.724,128.514,341.429,128.163,338,128ZM139,167l16,2v1l7-1,2-3c1.993-1.88.052-.478,1-3,1.5-4-.033-3.969-1-8-3-.7-2.242-1.65-3-2l-11-1a58.408,58.408,0,0,0-17-3c-1.981,3.013-1.382.666-3,2q-0.5,1.5-1,3l-4,3v2l-2,1q-0.5,1.5-1,3h-1v2h-1v2h-1v2h-1v2h-1v2h-1c-1.119,2.238-1.774,7.963,0,10,0.5,2.108,2.706,5.472,4,7l2,1v2h1v2l2,1c2.352,3.524,2.259,6.79,7,8v1c2.945,1.739,9.443-2.144,10-3v-2h1v-7c-2.438-2.029-9.108-12.5-10-16C134.789,175.475,138.347,169.6,139,167Zm277-12c-0.683,3.305-1.753,3.839-2,8h1v3h1c1.876,2.327,1.72,2.8,6,3,2.078,1.728,14.509-1.653,19-2,0.55,2.468,4.31,8.591,6,10l-1,3h-1v2h-1v2l-2,1v2l-2,1v2l-2,1v2h-1v7c1.672,1.391,2.816,4.2,5,5,4.249,1.56,9.814-2.344,11-4v-2l2-1,1-3h1l1-4,3-2c1.607-2.289,1.937-4.272,4-6,0.139-7.512-1.412-11.182-4-16h-1l-1-4-2-1v-2l-2-1v-2l-4-3v-2l-2-1v-1h-2v-1c-6.894-.1-11.949,1.492-17,3l-11,1-1,2h-2ZM150,230c-1.328,1.614-2.849,2.069-4,4h-1c-1.046,1.539-.806,8.51,0,11h1v4h1v4h1v4h1v5h1v7h1v7h1q0.5,2.5,1,5a15.02,15.02,0,0,1,2,2h2v1c3.916,1.38,10.292-2.5,11-4v-4c1.413-1.887-.682-8.451-1-12-1.022-11.423-4.811-20.972-7-31C156.6,231.455,155.231,230.131,150,230Zm275,0c-2.247,2.5-3.836.96-5,5h-1q-0.5,3.5-1,7h-1v4h-1v4h-1v4h-1v7h-1v6h-1v7h-1q0.5,3,1,6c2.128,1.212,2.177,2.252,5,3v1c3.039,1.694,9.369-2.071,10-3v-2h1v-3h1q0.5-7,1-14h1v-5h1v-4h1v-4h1v-4h1v-6c0.047-.227,1.341-0.331,1-2h-1c-0.621-2.03-.376-2.464-1-4a13.3,13.3,0,0,1-4-3h-5ZM159,365l1-3h1v-3h1q1-6.5,2-13h1v-4h1v-6h1v-6h1v-7h1q-0.5-3-1-6c-4.448-2.655-3-4.037-11-4-1.434,1.771-4,2.8-5,5l-3,22h-1v4h-1v4c-2.244,6.723-3.666,9.269-1,16,1.871,0.886,5.836,4,9,3v-1Zm262,0c3.55,0.877,6.055,3.1,10,1v-1c2.259-1.315,1.442.434,3-2h1c1.046-1.539.806-8.51,0-11h-1v-4h-1v-4h-1v-4h-1v-5h-1v-7h-1v-7h-1l-1-5c-4.313-2.371-3.743-3.022-11-3-1.873,3.146-3.7,2.838-4,8-1.413,1.885.681,8.452,1,12q2.5,13,5,26h1v3h1ZM130,446h2l1,2c3.048,1.274,9.412-.535,11-1h6c3.651-1.1,9.006-2.218,13-3,0.945-1.8,1.385-1.574,2-4h1v-7h-1v-2h-1v-1h-1v-1h-2v-1h-7v1h-7v1h-6v1c-1.373.341-.035-0.237-1-1h-1v-2l-2-1v-2l-2-1q-0.5-2-1-4h-1c-0.236-1.167,2.347-6.013,3-7l2-1v-2l2-1v-2l2-1v-2h1v-8c-5.185-3.093-2.668-4.085-12-4l-4,5h-1q-0.5,2-1,4h-1l-1,3-2,1v2l-3,2v2l-2,1v2h-1c-1.974,5.35,1.747,9.647,3,12l2,6h1l1,3,2,1v2l2,1v2h1C128.438,442.758,129.276,443.408,130,446Zm320,0c0.713-2.592,1.565-3.246,3-5h1v-2l2-1v-2l2-1,1-3h1v-2h1v-2h1v-2h1v-2h1c1.125-2.247,1.767-7.953,0-10l-1-3h-1l-1-3-2-1v-2l-2-1v-2l-2-1-1-4h-1l-4-5h-8c-3.093,5.185-4.085,2.668-4,12,1.313,1.046,10.371,14.279,10,16h-1l-1,4-2,1v2l-2,1-1,3a49.48,49.48,0,0,0-23-2c-0.945,1.8-1.385,1.574-2,4h-1c-1.882,3.279,1.991,10.331,3,11h2v1l20,3h8l1-2h2ZM195,429v2l-2,1v3h-1q1,3.5,2,7c3.121,0.715,1.977,1.489,3,2h3v1l14,1v1l9,1v1l14,3v-1h3l1-2c3.165-3.027,3.093-2.6,3-9h-1v-2l-2-1v-1c-2.094-1.411-5.413-.981-8-2C221.977,429.661,206.744,426.863,195,429Zm191,13,1-5h1q-1-3.5-2-7c-1.7-.8-5.151-2.679-7-3h-1v1h-8v1h-6v1h-5v1h-5v1h-4v1h-3v1h-4a49.35,49.35,0,0,0-6,4c-1.332,2.016-1.07,5.718-1,9,3.548,2.078,4.433,4.453,10,5,2.283-2.044,4.8-.858,8-2v-1h3v-1h4v-1h5v-1l14-1v-1h3v-1ZM272,454v1h-3c-1.278.605,0.3,0.454-1,1l-1,3h-1v2h-1a2.432,2.432,0,0,0,1,3v3l3,2,2,3h2l1,2h1l2,3h2l2,3,6,5h6l6-5,2-3h2l4-5h2l4-5h1v-3h1c-0.52-3.33-1.6-6.463-4-8v-1l-7-1c-1.714,2.027-2.278.835-4,2l-1,2-3,1v1c-2.64,2.2-3.2,3.707-8,4C285.705,459.922,278.281,454.268,272,454Z" />
</svg>
