<svg xmlns="http://www.w3.org/2000/svg" width="127.96" height="127.96" viewBox="0 0 1400 1400">
  <defs>
    <style>
      .cls-1 {
        fill: #fff;
        fill-rule: evenodd;
      }
</style>
  </defs>
  <path id="Color_Fill_1" data-name="Color Fill 1" class="cls-1" d="M1259,343h-2c-2.62,4.451-6.73,6.139-11,9-0.33.667-.67,1.333-1,2l-4,1c-0.33.667-.67,1.333-1,2h-2v1h-2v1h-3v1l-4,1v1h-4v1h-3v1h-4v1h-5v1H187v-1h-5v-1h-4v-1h-4v-1h-3v-1l-4-1v-1h-3v-1h-2v-1h-2l-1-2-4-1-1-2h-2l-2-3h-2v-1c-2.292-1.917-3.722-4.085-7-5v-2c-4.887-2.845-6.9-7.363-10-12l-2-1-2-6h-1v-2h-1l-2-6h-1v-3h-1v-3h-1v-4h-1v-4h-1v-6h-1V226c0-16.243-1.049-34.969,3-47q0.5-3.5,1-7c7.872-18.381,19.928-33.85,36-44l6-2v-1l4-1v-1l5-1v-1h4v-1h3v-1h4v-1h7v-1H1194l23,1v1h4v1h3v1h4v1h2v1h3v1l6,2v1l4,1c0.33,0.667.67,1.333,1,2h2c0.33,0.667.67,1.333,1,2h2c0.67,1,1.33,2,2,3h2c1.67,2,3.33,4,5,6q3.495,3,7,6c7.57,10.552,12.8,22.044,17,36q0.495,11.5,1,23v43c0,12.613,1.97,34.8-1,45v6h-1v4h-1v4h-1v3h-1v3h-1c-0.67,2-1.33,4-2,6h-1v2h-1c-0.33,1.333-.67,2.667-1,4-0.67.333-1.33,0.667-2,1-0.33,1.333-.67,2.667-1,4l-3,2v2h-1C1262.85,337.566,1260.01,339.382,1259,343ZM200,533H1200v1h13v1h5v1l8,1v1h3v1c1.67,0.333,3.33.667,5,1v1l4,1v1l4,1c0.33,0.667.67,1.333,1,2h2v1l3,1c0.33,0.667.67,1.333,1,2h2c1.67,2,3.33,4,5,6h2v1l3,2v2c1.67,1.333,3.33,2.667,5,4v2l3,2v2c0.67,0.333,1.33.667,2,1,0.33,1.333.67,2.667,1,4h1v2h1v2h1c0.67,2,1.33,4,2,6h1v3h1v3h1v4h1v4h1v6h1v60c0,12.464,1.89,33.884-1,44v7c-4.16,13.653-9.55,25.633-17,36q-3.495,3-7,6c-1.67,2-3.33,4-5,6h-2c-0.67,1-1.33,2-2,3h-2c-0.33.667-.67,1.333-1,2h-2c-0.33.667-.67,1.333-1,2l-4,1v1l-6,2v1h-3v1h-2v1c-17.56,6.885-53.91,4-78,4H248c-28.017,0-61.281,2.79-81-6v-1l-6-2v-1l-4-1q-0.5-1-1-2h-2q-0.5-1-1-2h-2l-2-3h-2l-7-8-5-4v-2l-3-2v-2l-2-1v-2l-2-1-1-4h-1l-2-6h-1v-3h-1v-2h-1v-3h-1c-4.4-12.358-3-33.492-3-50V606h1v-6h1v-4h1v-4h1v-3h1v-3h1l2-6h1v-2h1v-2h1l1-4,2-1v-2l3-2v-2l5-4v-2h1l2-3h2l5-6h2q0.5-1,1-2h2q0.5-1,1-2l3-1v-1l4-1v-1l4-1v-1h3v-1h2v-1h3v-1h4v-1h4v-1h5v-1C191.188,532.79,197.224,535.394,200,533Zm-7,417h993c6.84,0,15.76-.483,21,1l13,1v1l7,1v1h2v1h3v1l6,2v1l6,2c0.33,0.667.67,1.333,1,2h2c0.33,0.667.67,1.333,1,2h2l3,4h2l6,7c0.67,0.333,1.33.667,2,1v2c1.33,1,2.67,2,4,3v2c0.67,0.333,1.33.667,2,1,0.33,1,.67,2,1,3h1v2c0.67,0.333,1.33.667,2,1l3,9h1v2h1v3h1v3h1v3h1v5c4.42,14.62,2,43.52,2,62v48h-1v6h-1v5h-1v3h-1v3h-1v3h-1v2h-1v3h-1v2h-1v2c-0.67.33-1.33,0.67-2,1-0.33,1.33-.67,2.67-1,4h-1c-0.33,1-.67,2-1,3-0.67.33-1.33,0.67-2,1v2c-1.33,1-2.67,2-4,3v2c-0.67.33-1.33,0.67-2,1-1.67,2-3.33,4-5,6h-2c-1.33,1.67-2.67,3.33-4,5h-2c-0.33.67-.67,1.33-1,2h-2c-0.33.67-.67,1.33-1,2-1.33.33-2.67,0.67-4,1v1h-2v1c-2,.67-4,1.33-6,2v1c-19.92,8.72-52.92,6-81,6H250c-28.031,0-62.277,2.67-82-6v-1c-1.333-.33-2.667-0.67-4-1v-1h-2v-1h-2v-1h-2v-1h-2c-0.333-.67-0.667-1.33-1-2h-2c-0.333-.67-0.667-1.33-1-2h-2c-1.333-1.67-2.667-3.33-4-5h-2l-5-6c-0.667-.33-1.333-0.67-2-1v-2l-4-3v-2c-0.667-.33-1.333-0.67-2-1l-1-3h-1c-0.333-1.33-.667-2.67-1-4-0.667-.33-1.333-0.67-2-1v-2h-1v-2h-1v-3h-1v-2h-1v-3h-1v-3h-1v-3h-1q-0.5-5.505-1-11c-1.583-5.51-1-14.87-1-22v-42c0-15.02-1.612-34.15,2-46v-5h1v-3h1v-3h1v-3h1v-2h1l3-9,2-1v-2h1l1-3,2-1v-2l4-3v-2l7-6q0.5-1,1-2h2l3-4h2q0.5-1,1-2h2q0.5-1,1-2l4-1v-1h2v-1l6-2v-1l17-5h8v-1Z" />
</svg>
