<svg xmlns="http://www.w3.org/2000/svg" width="128.016" height="128.016" viewBox="0 0 560 560">
  <defs>
    <style>
      .cls-1 {
        fill: #fff;
        fill-rule: evenodd;
      }
</style>
  </defs>
  <path id="Color_Fill_1" data-name="Color Fill 1" class="cls-1" d="M179,44c44.448-.4,69.891,34.694,81,68q1,7.5,2,15c2.9,10.128,2.092,25.428-1,35l-3,14h-1l-1,4h-1v2h-1v2h-1v2h-1v2l-2,1v2l-2,1v2l-4,3v2l-4,3v1h-2l-3,4h-2q-0.5,1-1,2l-15,7h-5c-16.249,4.859-32.349-1.257-43-8l-4-1q-0.5-1-1-2h-2l-2-3h-2l-5-6-9-8v-2l-3-2v-2l-2-1v-2l-2-1q-1-3-2-6l-2-1v-2h-1v-2h-1v-3h-1q-0.5-2-1-4h-1v-3h-1v-3h-1v-3h-1v-4h-1v-4h-1v-6c-2.687-9.312-2.707-23.769,0-33V98h1q0.5-3.5,1-7h1q0.5-3,1-6h1q1-3,2-6h1q0.5-2,1-4l2-1V72h1l1-3,2-1V66l6-5,3-4h2l2-3h2l1-2h2V51l6-2V48l6-1V46h4V45h7V44Zm192,0c13.766-.156,22.282,2.3,31,7l4,1,1,2h2l2,3h2l6,7,3,2v2l2,1,1,3h1v2l2,1q0.5,2,1,4h1q0.5,2,1,4h1v3h1v2h1v3h1v4c3.829,10.98,5.739,29.247,2,42v6c-7.7,24.753-17.121,44.444-36,58l-3,4h-2l-1,2-4,1-1,2h-2v1h-2v1h-3v1h-2v1l-6,1v1h-4c-2.586.822-11.913,3.16-16,2v-1h-7v-1h-5v-1h-3v-1h-2v-1h-3v-1h-2v-1h-2l-1-2h-2l-1-2h-2l-3-4h-2l-3-4h-1v-2l-4-3v-2l-3-2v-2h-1v-2h-1v-2h-1v-2h-1l-2-6h-1v-3h-1v-3h-1v-4h-1v-4h-1v-5h-1V147h-1V136h1q0.5-8,1-16l7-22h1q1-3,2-6h1V90h1q0.5-2,1-4h1l1-3,2-1V80l2-1V77l3-2V73l4-3,8-9h2l3-4h2V56h2l1-2,4-1,1-2h2V50h3V49h2V48h3V47h3V46h4V45h7V44ZM82,194c44.383,0.625,71.132,35.434,83,69v4h1v3h1v6h1v6h1q-0.5,15-1,30h-1l-3,14c-7.79,17.689-20.87,31.626-40,38h-5v1h-7v1h-7v-1l-13-1v-1l-9-2v-1l-6-2v-1l-4-1-1-2H70v-1H68l-2-3H64l-4-5H58l-5-6-2-1v-2l-4-3-1-3-2-1v-2l-2-1v-2l-2-1-1-4-2-1-3-9H33l-1-4H31l-4-17c-3.962-12.238-3.969-30.9,0-43v-4h1l1-6h1v-2h1v-3h1v-2h1v-2l2-1,1-4,2-1v-2l3-2v-2l5-4,1-2h2l2-3h2l1-2h2l1-2h2v-1h2v-1l13-4h8v-1Zm391,0c31.216,0.357,48.506,18.835,58,41v3h1v3h1v4h1v5c2.7,9.036,2.779,23.814,0,33v5h-1v4h-1v4h-1v3h-1v3h-1v3h-1q-0.5,2-1,4h-1l-3,9-2,1q-0.5,2-1,4l-2,1v2l-2,1v2l-3,2v2l-4,3v2l-6,5-1,2h-2l-4,5h-2l-1,2-3,1v1h-2l-1,2-4,1v1l-6,2v1h-3c-9.355,3.713-21.979,6.335-33,3h-5c-21.261-7.189-34.6-22.977-42-44v-4c-6.739-20.225-1.889-45.337,5-61v-3h1l2-6h1v-2h1l2-6,2-1v-2l2-1v-2l3-2v-2l3-2v-2l8-7,3-4h2l2-3,3-1,1-2h2l1-2,4-1v-1h2v-1l6-2v-1l6-1v-1C459.348,195.7,471.079,195.654,473,194ZM444,497h-2c-2.322,4-5.026,4.7-9,7v1h-2l-1,2h-3v1l-4,1v1h-3v1h-3v1h-3v1h-4v1h-5v1h-9v1H383v-1h-7c-7.892-2.324-17.856-3.661-26-6h-8v-1H332v-1l-23-1v-1H291c-3.494-.981-17.076-2.369-22-1v1l-31,1v1H228v1H218v1h-8v1h-6v1h-6v1h-4v1l-9,1v1h-8v1H164v-1l-14-1v-1h-4v-1h-3v-1h-3v-1h-3v-1l-4-1v-1h-3l-1-2-4-1-1-2h-2c-2.577-1.817-1.663-3.805-6-5-0.838-2.94-2.314-3.967-4-6h-1v-2l-2-1v-2l-2-1v-3h-1v-2h-1v-3c-4.036-10.246-3.514-23.56,0-34v-4h1v-4h1v-2h1l3-10,2-1,2-6,2-1v-2l3-2v-2l3-2v-2l10-9,20-21,13-12v-2l4-3v-2l2-1,1-3h1v-2l2-1q0.5-2,1-4l2-1q0.5-2,1-4h1v-2h1l2-6h1v-3h1v-2h1v-3h1v-3h1v-3h1v-3h1q0.5-4,1-8h1q0.5-4.5,1-9h1v-4h1v-4h1q0.5-3.5,1-7h1v-2h1q0.5-3,1-6h1l2-6h1v-2h1v-2h1l2-6,2-1v-2l3-2v-2l5-4v-2l4-3v-1h2l4-5h2q0.5-1,1-2l3-1v-1h2q0.5-1,1-2l9-3v-1h2v-1h3c11.341-4.5,29.9-7.229,44-3h6v1h3v1h3v1h3v1h3v1l6,2v1l4,1v1l3,1,1,2h2l3,4h2l1,2,7,6v2l4,3v2l2,1v2l2,1v2l2,1,1,4h1l2,6h1v3h1v2h1q0.5,3,1,6h1v3h1v4h1v4h1v4h1v4h1v4h1v4h1q0.5,4,1,8h1v3h1v2h1q0.5,3,1,6h1v2h1v3h1l2,6h1l1,4,2,1,1,4h1l1,3,2,1v2l3,2v2l35,36,10,9v2l4,3v2l3,2v2l2,1,2,6,2,1v2h1v3h1v2h1v3h1v3h1v3h1v4h1v4h1v7h1v14q-2.5,8.5-5,17l-2,1v2l-2,1v2C447.182,493.574,445.188,492.665,444,497Z" />
</svg>
