<svg xmlns="http://www.w3.org/2000/svg" width="127.98" height="127.98" viewBox="0 0 900 900">
  <defs>
    <style>
      .cls-1 {
        fill: #fff;
        fill-rule: evenodd;
      }
</style>
  </defs>
  <path id="Color_Fill_1" data-name="Color Fill 1" class="cls-1" d="M127,597H54c-1.651-29.549-4.6-48.128-2-65l1-26c6.148-26.99,7.179-53.846,16-78,40.229-110.159,104.137-185.65,203-237,20.672-10.737,44.277-19.934,68-28,7.5-2.55,13.286-1.671,21-4,8.807-2.659,21.4-7.329,31-6,0.848,0.118,6.255-1.822,7-2,8.177-1.954,31.876-3.042,34-2,2.52,4.023,1,15.066,1,21v53a2.834,2.834,0,0,0-1,1c-52.491-.926-111.123,22.835-144,43-14.459,8.868-27.762,16.277-41,26-13.747,10.1-25.72,23.3-37,36C155.333,391.665,112.745,473.964,127,597ZM481,149c113.641,9.06,220.3,69.994,274,142,3.628,4.864,9.438,9.051,13,14,10.016,13.916,17.847,27.985,27,43,1.88,3.085,12.89,18.767,11,21-5.1,4.665-12.388,5.712-19,9-11.081,5.511-33.311,19.634-46,21-1.751-6.638-5.874-10.974-9-16-7.148-11.492-13.192-22.358-21-33-4.189-5.709-10.769-10.389-15-16-31.972-42.4-78.984-68.28-132-90-23.176-9.5-52.131-18.266-83-19V149ZM846,597H776c0.6-23.567,6.221-51.308,1-75V512l-7-39c-2.874-9.527-7.5-19.766-9-30,14.65-6.554,28.782-13.3,44-20,6.843-3.011,12.922-7.781,21-10,2.741,12.049,9.393,25.07,12,37,1.838,8.412,3.9,19.459,6,28C852.114,511.023,848.632,558.212,846,597ZM625,416c2.467,1.3.681-.429,2,2-5.282,4.314-7.124,11.177-11,17-9.2,13.823-18.875,27.557-28,42-25.991,41.14-55.022,81.485-82,122-7.5,11.269-14.163,25.205-25,33-17.075,12.282-42.675,11.95-60,0-25.186-17.372-23.527-60.258-1-79,13.553-11.276,29.6-19.789,45-29,10.148-6.069,20.122-15.425,30-22,26.872-17.888,53.624-35.379,80-53,11.374-7.6,22.619-13.839,33-22C613.5,422.677,620.959,421.731,625,416Z" />
</svg>
