<svg xmlns="http://www.w3.org/2000/svg" width="128" height="128" viewBox="0 0 128 128">
  <defs>
    <style>
      .cls-1 {
        fill: #fff;
        fill-rule: evenodd;
      }
</style>
  </defs>
  <path id="Color_Fill_1" data-name="Color Fill 1" class="cls-1" d="M1,1L12,5V6h2V7h3V8h2V9h2c2.6,1.381,4.5,3.18,8,4v2L45,30v2l3,2,6,7c3.327,3.327,6.84,5.4,9,10,2.01-.574.865,0.12,2-1L76,38l7-6V30l2-1,3-4c3.315-3.318,9.661-7.055,11-12,3.523-.684,5.426-2.659,8-4l5-1V7h2V6h2V5l11-4-4,11h-1v2h-1v3h-1v2h-1v2c-1.381,2.6-3.18,4.5-4,8h-2L98,45H96l-2,3-7,6c-3.327,3.327-5.4,6.84-10,9,0.574,2.01-.12.865,1,2,1.1,4.159,4.4,5.4,7,8l6,7,3,2v2h1l3,4,14-8v1c1.975,1.129,2.338,1.417,3,4L104,95c-0.5,1.938.563,1.336,1,2,0.941,3.449,3.818,5.693,6,8l2,1v2l6,5v1h4v1h2v1c1.531,1.35,1.3.529,2,3h1v5c-3.652,2.181-3.491,3.971-10,4l-2-3h-1v-2h-1v-4L97,104c-6.447,1.725-7.568,9.216-14,11a6.719,6.719,0,0,0-3-3l1-3c2.178-1.785,6.224-7.916,7-11l-3-2V95H83l-3-4-8-7c-2.384-2.381-3.145-4.946-7-6V76H63v2H61L46,94H44v1l-4,3,8,14H47c-1.129,1.975-1.417,2.338-4,3L33,104c-1.938-.5-1.336.563-2,1-3.449.941-5.693,3.818-8,6l-1,2H20l-5,6H14v4H13v2H12c-1.35,1.531-.529,1.3-3,2v1H4c-2.181-3.652-3.971-3.491-4-10l3-2v-1H5v-1H9v-1l6-5v-2l2-1c2.616-2.767,5.951-5.791,7-10-2.971-1.656-10.084-8.475-11-12a6.718,6.718,0,0,0,3-3l14,8V87L51,65V63c-6.068-2.851-9.528-8.533-14-13L24,39c-3.3-3.3-5.925-8.606-11-10-0.684-3.523-2.659-5.426-4-8L8,16H7V14H6V12H5Z" />
</svg>
