<svg xmlns="http://www.w3.org/2000/svg" width="128.016" height="128.016" viewBox="0 0 560 560">
  <defs>
    <style>
      .cls-1 {
        fill: #fff;
        fill-rule: evenodd;
      }
</style>
  </defs>
  <path id="Color_Fill_1" data-name="Color Fill 1" class="cls-1" d="M457,210V479h40l20,1v1l6,2,3,4,2,1v2h1c0.955,1.233.736,1.933,2,3,0.307,5.923,1.725,10.872-1,16h-1v2l-4,3-2,3c-6.6,4.414-20.217,3-31,3H46v-1H43v-1H41l-1-2H38v-1l-4-3v-2H33c-1.157-2.032,0-2.246-2-4l-1-9h1v-4h1l2-6,3-2,1-2c9.889-6.652,48.559-4.2,66-4V210c-19.662.124-43.54,1.281-60-2-0.9-1.776-2.482-4.721-4-6a74.994,74.994,0,0,1,1-14l3-1,1-2h2l1-2,4-1,1-2h2l1-2,4-1,1-2h2l1-2h2l1-2h2v-1h2l1-2h2l1-2,4-1,1-2h2l1-2,4-1,1-2h2l1-2,3-1v-1l4-1v-1l3-1q0.5-1,1-2h2v-1h2q0.5-1,1-2h2q0.5-1,1-2l4-1q0.5-1,1-2h2q0.5-1,1-2h2q0.5-1,1-2l4-1q0.5-1,1-2h2q0.5-1,1-2l4-1v-1l3-1q0.5-1,1-2l4-1q0.5-1,1-2h2q0.5-1,1-2h2q0.5-1,1-2l4-1q0.5-1,1-2h2q0.5-1,1-2l4-1v-1l3-1q0.5-1,1-2l4-1v-1l3-1q0.5-1,1-2h2q0.5-1,1-2l4-1v-1l3-1,1-2,4-1,1-2h2l1-2,4-1,1-2h2l1-2h2l1-2,4-1,1-2h2l1-2,4-1V79l3-1,1-2,4-1,1-2h2l1-2h2l1-2,4-1,1-2h2l1-2,4-1V62l3-1,1-2,4-1,1-2h2l1-2h2l1-2,4-1,1-2h2l1-2,4-1,1-2c1.359-.9,10.257-5.337,12-5v1l5,1v1h2l1,2h2l1,2,4,1v1l3,1,1,2,4,1,1,2h2l1,2,4,1,1,2h2l1,2,4,1v1l3,1,1,2h2v1h2l1,2h2l1,2,4,1,1,2h2l1,2h2l1,2,4,1,1,2h2l1,2,4,1v1l3,1,1,2,4,1v1l3,1,1,2,4,1,1,2h2l1,2,4,1v1l3,1,1,2,4,1v1l3,1,1,2h2v1h2l1,2h2l1,2,4,1,1,2h2l1,2,4,1,1,2h2l1,2,3,1v1l4,1v1l3,1,1,2,4,1,1,2h2l1,2,4,1v1l3,1,1,2,4,1v1l3,1,1,2h2v1h2l1,2h2l1,2,4,1v1l3,1,1,2h2v1h2l1,2h2l1,2,4,1,1,2h2l1,2,3,1v1l4,1v1l3,1,1,2,4,1,1,2h2l1,2,4,1v1l3,1,1,2h2v1h2q0.5,1,1,2h2q0.5,1,1,2l3,1v2c1.159,1.178,2.055,9.275,1,12h-1v2h-1v2h-1c-1.332,1.493-.491,1.393-3,2-2.9,2.87-10.3,2-16,2H457Zm-272,0V479H376V210H185Zm91,45h13c1.869,5.03,1.05,14.317,1,21,5.416,0.435,8.41,2.929,12,5h2v1c1.8,1.431,2.391,2.252,5,3,0.659,2.619,1.591,3.232,3,5h1l1,4,2,1v3h1v2h1l3,18H294c0.051-6.848-1.871-11.637-3-17l-6-5c-8.6-3.161-11.032,5.351-14,8q-0.5,5.5-1,11h1v5h1v2h1v2l3,2v1h2l2,3h2l1,2,16,7,1,2h2l1,2h2l2,3,6,5v2l2,1v2h1v3h1v2h1v4h1v9c0,8.786-.9,15.336-4,21h-1v2l-2,1v2h-1l-3,4h-2l-2,3h-2v1l-4,1v1l-6,1v1c-1.773.675-4.056-.566-5,1v17H274V413c-1.135-.844-0.145.127-1-1a27.321,27.321,0,0,1-12-3v-1c-15.666-8.428-20.24-16.968-22-39,1.135-.844.145,0.127,1-1,4.763,1.765,13.313,1.016,18,0l8,1c-0.1,7.234,1.835,11.472,3,17,3.467,2.06,8.533,8.627,16,6v-1l4-1c1.473-6.267,5.479-10.088,3-18v-5h-1c-1.533-6.555-6.088-7.832-11-11l-1-2h-3v-1h-2v-1h-2v-1h-2v-1h-2l-1-2-4-1-1-2h-2l-1-2h-2l-5-6-2-1v-2l-2-1q-0.5-2-1-4h-1q-0.5-3.5-1-7c-0.878-2.774-2.264-14.8-1-19h1v-4h1v-3h1q0.5-2,1-4h1v-2l2-1v-2h1l3-4h2l2-3h2v-1l6-2v-1c3.107-1.236,5.7.089,8-2C277.5,271.24,276.1,259.8,276,255Z" />
</svg>
