<svg xmlns="http://www.w3.org/2000/svg" width="128.01" height="128.01" viewBox="0 0 300 300">
  <defs>
    <style>
      .cls-1 {
        fill: #fff;
        fill-rule: evenodd;
      }
</style>
  </defs>
  <path id="Color_Fill_1" data-name="Color Fill 1" class="cls-1" d="M216,74a8.258,8.258,0,0,0,2,4h1v2l2,1q1,3,2,6h1v4a31.7,31.7,0,0,1-11,35l-2,3a18.722,18.722,0,0,1-7,3v1c41.831,1.811,54.172,40.955,54,85l-3,1c-2.323,2.037-15.4,1-20,1H178v15c-8.12,2.961-31.179,1-42,1H44c-2.329-4.426-2.087-7.073-2-14,2.068-2.474-.083-7.238,1-11h1l1-12h1v-4h1v-4h1v-3h1v-3h1v-2h1v-3h1v-2h1v-2l2-1,1-4,2-1v-2c1.827-2.589,3.771-1.656,5-6,2.6-.638,3.263-1.588,5-3v-1h2l1-2h2v-1l4-1v-1h3v-1h4v-1h5v-1h7v-1c-9.67-4.132-13.257-8.949-18-18H77v-2H76v-4c-1.816-5.667-2.661-14.816,0-21h1v-2h1l1-5,4-3V92h1l2-3h2l2-3h2l1-2h2V83h3V82h3V81h6V80h7c6.2,1.807,13.278,3.656,18,7l4,5,3,2v2l3,2v3h1q0.5,2,1,4h1v5c4.934,16.772-8.855,36.451-21,39v1h8v1c1.059,0.65,4.747.335,6,1v-1a6.749,6.749,0,0,0,4-5c4.323-1.145,3.442-3.194,6-5h2q0.5-1,1-2h2v-1l5-1v-1h3v-1l13-2v1h2v-2l-6-2q-0.5-1-1-2h-2q-0.5-1-1-2l-5-4v-2l-2-1q-0.5-2-1-4h-1v-2h-1v-3h-1v-4h-1c-1.464-4.974.657-16.948,2-20h1q0.5-2,1-4h1V80l2-1V77l4-3,1-2h2l2-3h2V68c5.345-2.938,10.629-4.022,19-4h7v1h3v1h3v1h2v1h2l1,2h2v1C212.765,72.441,213.409,73.26,216,74Z" />
</svg>
