<svg xmlns="http://www.w3.org/2000/svg" width="127.98" height="127.98" viewBox="0 0 900 900">
  <defs>
    <style>
      .cls-1 {
        fill: #fff;
        fill-rule: evenodd;
      }
</style>
  </defs>
  <path id="Color_Fill_1" data-name="Color Fill 1" class="cls-1" d="M556,130H344V90h-1V89h1V85h1q0.5-2,1-4l3-1,1-2h2V77H548v1h2l1,2c2.373,1.684,1.79-1.066,3,3,2.364,2.126,1.156,2.4,2,6h1c0.137,1.407-.75-0.392-1,1v40ZM296,157H578c9.358,0,22.37-1.748,30,1v1h3v1h2v1h3l12,10v2l2,1v2l2,1v2h1v3h1v2h1v4h1v54h1v1h-1v1h1v1h-5c-2.327-2.007-4.749-.881-8-2v-1h-4v-1h-4v-1h-3v-1h-4v-1h-4c-16.092-5.521-34.922-8.521-51-14h-4v-1h-4v-1h-3v-1h-5v-1l-7-1v-1h-4v-1h-4v-1h-4v-1h-5v-1h-3v-1h-4v-1h-3v-1h-4v-1h-4c-13.526-4.632-29.692-7.255-43-12l-8-1v-1l-8-1v-1h-4v-1h-4v-1h-4v-1h-4v-1h-3v-1l-8-1c-6.03-2.06-13.969-3.943-20-6h-4v-1h-3v-1h-5v-1h-3v-1l-8-1c-8.385-2.859-18.673-5.172-27-8l-12-2c-4.711-1.6-11.286-3.4-16-5h-4c-3.829-1.307-6.623-2.756-12-3v-2Zm-29,22,369,94v34c0,5.909-.594,13.67,1,18h-5c-2.349-2-4.744-.872-8-2v-1h-4v-1h-4v-1h-3v-1l-7-1v-1h-5v-1h-3v-1h-2v-1h-4v-1h-1c-0.228.049-.31,1.475-2,1v-1h-3v-1h-5c-14.44-4.968-31.677-7.86-46-13h-4v-1h-4v-1h-4v-1h-4v-1h-5c-21.623-7.448-47.173-11.524-69-19l-8-1v-1l-8-1v-1h-3v-1l-12-2v-1l-28-6c-14.323-5.151-31.584-8.07-46-13h-4v-1h-4v-1h-4v-1h-4c-9.728-3.324-21.362-5.714-31-9l-8-1a184.365,184.365,0,0,0-21-6c-1.059-6.78,0-20.138,0-30V188C264.9,185.027,266.566,182.763,267,179Zm-3,79c5.986,0.911,12.724,3.184,18,5l8,1c7.056,2.433,15.978,4.583,23,7h4v1h4v1h4v1h4c14.185,5.133,31.8,7.893,46,13l20,4c15.773,5.416,34.318,8.642,50,14h5v1h4v1h4v1h3v1h5c13.108,4.519,28.7,7.453,42,12h4v1h4v1h4v1h4v1h3v1h4v1h4v1h4v1h4q0.5,1,1,2h5v1h1v-1h1v1h4q0.5,1,1,2h4v1l11,2v1h5v1l2-1v1h4v1h4v1h4v1h4v1h4v1h4v1h4v1h4v1h3v1h5c5.244,1.781,11.5,4.322,18,5v49h1v1h-1v1h1v1h-5c-2.351-2.022-4.782-.832-8-2v-1h-3v-1l-8-1v-1h-4v-1l-8-1c-18.325-6.321-39.811-9.739-58-16h-5v-1h-3v-1h-4v-1h-4v-1h-2v-1h-4v-1h-4v-1h-1l-2,1v-1l-6-1v-1h-5c-19.642-6.458-42.4-10.263-62-17h-4c-4.821-1.657-11.062-3.334-16-5h-4c-16.814-6.06-37.015-9.15-54-15h-4v-1h-4v-1h-3v-1h-5v-1h-3v-1h-4c-6.029-2.074-13.97-3.93-20-6l-8-1v-1h-3v-1h-5v-1h-3v-1h-4v-1h-4v-1h-4v-1h-4v-1l-8-1v-1l-13-3C262.586,297.032,264,274.4,264,258Zm0,80c4.685,0.7,9.977,2.6,14,4l8,1v1h4v1h4v1h4v1h3v1h5v1h3v1l8,1v1h4v1h4v1h4v1h3v1l20,4c20.894,7.226,45.329,10.5,66,18l8,1v1h4v1h4v1h4v1h4v1h3v1h5v1l8,1v1h3v1l8,1v1h4v1h4v1l11,2,1,2,2-1v1h5v1h4v1h4l1,2,11,1c8.372,2.87,18.565,5.083,27,8l8,1c14.538,5,31.62,8.041,46,13h5v1h4v1h3v1l9,1c5.172,1.851,11.555,4.336,18,5v49h1v1h-1v1h1v1h-5c-2.35-2.021-4.779-.835-8-2v-1h-3v-1l-8-1v-1h-4v-1l-8-1c-18.332-6.3-39.8-9.778-58-16h-5v-1h-3v-1h-5c-15.746-5.429-34.1-8.572-50-14h-4v-1h-4v-1h-4v-1h-4v-1l-6-1v-1h-2v-1h-7v-1l-7-1v-1h-2v-1h-7v-1h-4v-1h-3v-1l-9-1c-16.818-6.044-37-9.193-54-15h-4v-1h-4v-1h-3v-1h-5c-9.43-3.234-21.389-5.732-31-9l-12-2v-1h-3v-1h-4v-1h-4v-1h-4v-1h-4v-1l-8-1v-1l-13-3C262.586,377.032,264,354.4,264,338Zm0,80,37,9v1h5v1h3v1l8,1v1h4v1h4v1h4v1h3v1l8,1v1l28,6v2c-4.835.12-8.46,1.8-12,3h-4v1h-4v1h-4v1h-4v1h-3v1l-74,18C265.8,456.336,264.013,435.413,264,418Zm260,66v2c-4.817.074-8.487,1.787-12,3l-8,1v1l-14,3v1l-10,1v1h-3v1h-4v1h-4v1h-3v1l-8,1v1l-24,5c-20.946,7.209-45.018,10.814-66,18l-20,4v1h-4v1h-3v1h-4v1h-4v1l-8,1v1l-8,1v1h-3v1h-5v1h-3v1h-4c-4.712,1.613-11.286,3.394-16,5l-8,1v1l-14,3c-0.844-1.135.127-.145-1-1,1.5-4.088,1-11.356,1-17V500l158-41,23,5v1h5v1l8,1v1l8,1v1h3v1h4v1h4v1l8,1v1h3v1h4v1h4v1h4v1l8,1C512.771,481.623,517.91,483.645,524,484Zm112,29v17s1.318-.02,1,2h-1v5l-10,2v1h-5v1h-3v1h-4v1h-4v1h-4v1h-4v1h-4v1h-4v1h-4c-12.882,4.672-29.023,7.548-42,12h-5v1h-3v1h-4v1h-4v1h-4v1h-4v1l-8,1c-24.463,8.409-52.626,12.663-77,21h-5v1h-3v1h-5v1h-3v1h-5v1h-3v1h-4v1h-4v1h-4v1h-4v1l-8,1c-16.738,6.027-37.251,9-54,15l-12,2v1h-3v1h-5v1h-3v1h-5v1h-3v1h-4c-4.711,1.611-11.285,3.4-16,5l-8,1v1l-15,3c2.686-15.046,1.013-35.217,1-52l314-81c3.136-.843,13.6,3.185,16,4Zm0,104L264,712V660l21-5v-1l8-1v-1l8-1v-1h4v-1h4v-1h4v-1h4v-1h3v-1l20-4c18.431-6.346,39.632-9.7,58-16l28-6c21.974-7.914,47.823-11.423,70-19l23-5v-1l24-5c9.421-3.386,21.412-5.733,31-9l12-2v-1h3v-1h5v-1h3v-1h4v-1h4v-1h4v-1h4v-1l8-1c4.958-1.685,9.528-3.738,16-4v1c-2.022,2.29-1,9.949-1,14v37ZM281,737v-2c4.825-.087,8.476-1.8,12-3l8-1v-1h4v-1h4v-1h4v-1h4v-1h3v-1l12-2c9.616-3.307,21.6-5.628,31-9l8-1v-1l15-3v-1h5c22.121-7.631,47.713-11.412,70-19h4v-1h4v-1h4v-1h4v-1h3v-1h4v-1l8-1c6.03-2.062,13.969-3.94,20-6h4c19.373-6.962,42.294-10.316,62-17h4v-1h4v-1h3v-1h5v-1h3v-1h4v-1h4v-1h4v-1h4v-1l8-1c4.969-1.692,9.521-3.706,16-4v1c-2.356,2.75-1,23.307-1,29v37h-1v4h-1v2h-1q-0.5,2.5-1,5l-2,1v2l-2,1v2l-4,3q-0.5,1-1,2h-2l-2,3h-2q-0.5,1-1,2h-3v1h-2v1h-3v1h-4v1H296v-1l-7-1v-1A38.647,38.647,0,0,0,281,737Zm63,33H556v40h1v1h-1v4h-1q-0.5,2-1,4l-3,1q-0.5,1-1,2h-2v1H352v-1h-2l-1-2c-2.373-1.684-1.79,1.066-3-3-2.364-2.126-1.156-2.4-2-6h-1v-1h1V770Z" />
</svg>
