<?xml version="1.0"?>
<svg xmlns="http://www.w3.org/2000/svg" viewBox="0 0 16 16">
  <path style="line-height:normal;text-indent:0;text-align:start;text-decoration-line:none;text-decoration-style:solid;text-decoration-color:#000;text-transform:none;block-progression:tb;isolation:auto;mix-blend-mode:normal" d="M 2.5 2 C 1.6774686 2 1 2.6774686 1 3.5 L 1 11.5 C 1 12.322531 1.6774686 13 2.5 13 L 13.5 13 C 14.322531 13 15 12.322531 15 11.5 L 15 3.5 C 15 2.6774686 14.322531 2 13.5 2 L 2.5 2 z M 2.5 3 L 13.5 3 C 13.781469 3 14 3.2185314 14 3.5 L 14 11.5 C 14 11.781469 13.781469 12 13.5 12 L 13 12 L 13 9 L 3 9 L 3 12 L 2.5 12 C 2.2185314 12 2 11.781469 2 11.5 L 2 3.5 C 2 3.2185314 2.2185314 3 2.5 3 z M 5 10 C 5.552 10 6 10.448 6 11 C 6 11.552 5.552 12 5 12 C 4.448 12 4 11.552 4 11 C 4 10.448 4.448 10 5 10 z M 7 10 L 9 10 L 8 12 L 7 10 z M 10 10 L 12 10 L 12 12 L 10 12 L 10 10 z" font-weight="400" font-family="sans-serif" white-space="normal" overflow="visible" />
</svg>
