<svg xmlns="http://www.w3.org/2000/svg" width="128" height="128" viewBox="0 0 512 512">
  <defs>
    <style>
      .cls-1 {
        fill: #fff;
        fill-rule: evenodd;
      }
</style>
  </defs>
  <path id="Color_Fill_1" data-name="Color Fill 1" class="cls-1" d="M283,68c22.31,0.026,41.731-8.336,65-4-1.021.8-.274,0.355-2,1-3.88,2.843-10.193,1.837-15,4l-6,5c0.631,1.754.193,0.971,1,2,4.2,7.91,22.105.912,29,6h-2c-4.8,4.1-17.282,4.389-23,7,1.021,0.8.274,0.355,2,1,12.324,7.176,34.3-5.95,40,10h-1c-5.845,3.415-14.455-3.073-20,1-0.752,1.073-.6.946-1,3,3.3,2.188,5.728,5.805,10,7,13.5,3.777,29.921-2.737,40-5,8.284-1.86,14.808,1.7,20,3,1.943,3.078,3.871,4.811,5,9h-2c-3.323-4.035-13.144-7.043-22-5-18.958,4.374-63,24.4-63-11h-2c-3.726,3.811-16.413,6.231-22,2-4.224-1.2-7.633-3.872-9-8-4.937-5.989.555-13.456,3-18H294c-5.627,3.91-25.148,10.3-33,11a100.641,100.641,0,0,0-2-23,14.145,14.145,0,0,0-4-1c-1.021.8-.274,0.355-2,1-2.753,5.815-3.1,13.486-3,23-16.526-1.98-26.5-11.473-46-12a14.124,14.124,0,0,0-1,4c3.559,3.339,5.031,6.881,5,14-3.068,3.58-5.844,6.65-9,10-10.551.914-16.875-.785-25-3,0.686,26.278-34.689,22.412-52,15v5c5.639,3.142,11.576,6.731,17,10v1c-13.741,3.116-23.157,11.741-30,22-2.247,3.368-7.9,9.825-6,14,1.513,1.13,4.256.88,6,2,4.45,2.856,3.789,7.146,11,8,6.626-4.885,19.156-3.795,27-2v2h-1c-5.261,7.56-15.528,9.587-23,15-14.166,10.264-16,33.417-16,58,0,6.248-.555,14.331,1,19,8.076-5.356,40.9-17.749,47-1,0.8,1.18.773,1.681,1,4h-2c-2.942-3.789-8.026-4.181-15-4-6.566,6.626-12.916,11.7-17,21-4.564,10.392-8.155,27.2-19,31-4.11,3.376-9.367,1.208-14,0-3.272-4.911-5.094-6.872-5-16,6.119-3.465,12.234-4.568,12-15-7.846-12.29-2.2-57.189-1-72a21.507,21.507,0,0,0-7-1c0.117-3.28.236-7.184-1-9-3.808-9.835-8.219-1.267-8-20,3.995-6.565,3.08-17.274,6-24,4.388-10.107,17.907-20.453,20-30-2.772-4.178-.519-13.652,2-16,2.692-2.509,7.781-.895,10-4a18.068,18.068,0,0,1-4-3c-11.371-.629-17.263,4.849-28,6v-1c2.217-2.249,3.37-6.23,6-8,10.972-7.385,32.756-.515,44,2,11.518,2.576,24.856-.039,26-9-1.546-1.133-.843-1.085-3-2-4.524-2.986-12.488.57-18,1V99c13.3-9.061,20.943-10.567,40-6V89c-5.99-3.188-15.179-4.38-23-6V82h1c4.774-3.616,19.393-1.791,26-3,0.961-1.766,1.257-1.68,2-4h-1c-3.486-9.675-14.175-4.912-22-10h2c12.435-8.64,49.635,3.347,61,5,1.232-2.768,2.268-3.706,3-7-2.618-3.164-3.593-7.683-7-10-5.519-3.753-14.25-3.549-19-8,18.155-.362,25.161,6.821,39,9,4.593-7.2,9.4-16.333,14-24h2c0.1,10.221,6.087,21.528,14,24,7.873-6.2,23.1-9.627,36-10v1h-1v1c-7.409,3.2-17.747,5.463-22,12C283.091,60.376,282.944,63.487,283,68ZM423,206c0.065,11.226-4.858,10.754-6,19,2.322,3.657-.081,10.846,1,16,4.025,19.183-2.039,39.808-3,57,7.116,2.034,12.542,7.069,13,16a11.725,11.725,0,0,0-2,5c-7.5,2.024-12.9,2.92-21,1-1.853-2.992-5.177-5.1-7-8-8.409-13.382-9.959-36.581-27-41-6.9-1.789-12.251,2.68-17,4v-1c2.351-3.086,3.611-8.08,7-10,13.913-7.88,33.857,2.068,42,7v-2c3.091-4.84,2-15.712,2-23-0.009-20.829-4.475-39.481-15-50-6.929-6.925-21.292-9.126-25-19h2c7.01-5.559,20.052,1.491,29,2l7-9c3.993-2.039,2.975,2.566,6-2-1.4-1.966-.9-4.375-2-7-2.8-6.687-9.412-14.967-15-19-4.937-3.563-14.9-4.743-18-10,6.037-3,14.194-9.257,19-14,5.988-.1,8.976.93,13,2a70.166,70.166,0,0,1,0,17c13.213,9.337,30.539,42.116,26,66a9.6,9.6,0,0,0-5,3h-4ZM244,120c9.121,1.895,5.182,18.41,8,26a10.925,10.925,0,0,1,3,2c2.542-1.287,2.872-1.1,4-4,3.129-4.168,2.866-18.853,4-24h4c1.794,3.368-.05,9.283,2,14,1.7,3.906,10.814,8.248,6,16-3,10.14-22.815,17.667-34,10l-5-7c-0.454-10.324,2.429-12.791,6-20C244.068,128.825,243.38,122.766,244,120Zm-4,55c-16.868-1.847-22.443-14.323-39-18v2c-9.142,9.672,4.858,31.768,15,32,6.907-4.5,16.965-5.077,25-8v6c-2.19,3.382-1.571,7.667-3,12-3.84,11.644-9.145,23.018-11,37,10.585,6.9,19.292,25.575,23,39,1.612,5.837,1.672,15.035-1,19-4.027,15.42-27.471,15.326-39,7-9.115-6.583-27.805-39.008-21-57,3.324-8.79,13.726-11.292,19-18,2.03-2.582,2.735-5.724,5-8,0.176-6.542-.285-11.835-2-16-8.569-4.621-26.325-10.546-31-19-9.124-16.5,10.582-38.406,18-46,16.956,0,33.1,19.6,42,29v7Zm32,0c1.723-15.438,20.31-32.573,34-36,14.962-3.745,34.791,30.6,25,44-4.825,14.057-26.9,12.282-31,23-11.95,17.871,20.53,30.365,24,43,5.747,20.93-15.236,48.524-25,55-5.964,3.956-18.281,7.176-25,2-10.271-3.363-19.958-21.325-13-35,5.88-11.556,19.172-16.8,23-31,5.432-20.154-12.723-36.2-14-55a25.086,25.086,0,0,1,8-1c4.77,4.4,13.11,6.98,22,7,11.033-9.478,10.7-15.023,14-32-2.448-.85-6.184-1.039-10-1-2.878,2.3-6.93,2.864-10,5C287.079,167.816,283.221,174.045,272,175Zm-7,39c0.035-11-3.665-15.459-4-26h1v1h1c5.163,10.262,10.823,17.6,12,33-11.38,7.534-22.218,6.287-36,3-1.838-2.919-2.739-2.905-3-8,1.963-3.051,1.468-7.376,3-11l11-20h1v7c-3.217,4.476-4.845,13.076-5,20l3,1C253.194,216.882,259.29,214.826,265,214ZM87,230c0.077,9.183-4.034,8.664-6,14-1.065,2.89.332,6.027-1,8v-1c-3.25-3.33-4.208-12.847-1-17,1.037-3.081.966-2.918,4-4C84.216,229.255,83.992,229.863,87,230Zm158-1c11.845,0.328,20.175.507,32,3v7c-5.886,8.676-10.6,27.766-22,30-9.312-9.453-19.74-17.449-20-36l3-1C239.721,230.511,243.04,230.353,245,229Zm180,1h6a18.068,18.068,0,0,0,3,4c0.592,6.022,1.484,12.677-2,17-1.113-8.556-6.64-10.484-8-19C424.8,230.979,424.355,231.726,425,230Zm-36,90,10,2-1,2-6,2c0.631,1.754.193,0.971,1,2,8.976,8.3,23.64,13.128,20,31-3.365,1.983-5.458,3.893-10,5v-1c3.888-3.886,4.4-10.525,3-17-3.236-1.9-4.357-2.9-10-3-2.629,4.572-4.767,9.692-12,10a15.7,15.7,0,0,1-1-5c4.638-2.31,7.008-2.617,7-10-2.784-2.654-2.938-4.23-8-5-1.734,5.489-5.479,10.934-7,17-2.31,9.214-.059,16.813,0,26h-1c-2.143-3.842-3.163-7.44-9-8-3.3,4.779-9.575,7.371-13,12-4.566,6.172-8.526,15.183-11,23-2,6.322.648,16.29-3,18v-2c-13.7-16.077,10.043-50.233-24-50-2.037,3.017-4.487,4.395-9,5-4.281-4.123-6.235-3.71-6-13l3-1c15.8-11.426,32.9,17.677,43,20,3.179-6.583,8.332-12,12-18,11-17.988,15.72-40.414,19-66h-1v-1c-7.339-.409-15.328-0.164-16-8,4.71-3.052,6.5-5.026,15-5C386.936,294.28,389.626,296.393,389,320Zm-267,2c-1.057-14.4.614-29.417,10-36,6.381-4.475,19.1-4.856,20,5-5.029,4.334-11.724,2.976-15,5-3.305,4.919-.566,20.5,1,26,4.708,16.538,11.7,30.656,19,44,2.8,5.116,3.836,13.366,10,15,5.953-8.8,26.236-21.891,41-22,2.14,3.393,3.054,4.685,3,11-1.5,1.552-.777,1.838-3,3-1.82.9-15.448-2.177-22-1a71.212,71.212,0,0,0-10,24c-1.8,7.778,1.115,18.636-3,24-0.722-16.189-16.015-50.631-30-52-1.854,3.38-3.812,6.878-7,9v-6c4.726-7.067-2.564-27.419-4-33-2.556-1.479-3.147-2.4-7-3l-5,6c0.631,1.754.193,0.971,1,2,1.405,3.509,5.274,4.94,8,7v2c-3.2.937-3.5,1.739-8,2-2.116-6.141-2.3-10.038-11-10a19.54,19.54,0,0,1-4,2,10.925,10.925,0,0,1-2,3c-0.171,8.648,2.132,11.439,4,17h-1c-4.316-3.83-9.228-3.274-10-11-6.01-10.825,20.305-21.107,23-27-2.853-1.355-6.614-1.794-8-5C114.448,322.15,118.184,321.961,122,322Zm131-19c6.21,2.206,9.892,11.431,14,16,7.412-.1,16.1-0.183,22,1v10c-2.012,2.9-2.1,6.927-4,10-3.432,5.559-9.542,10.517-12,17-1.245,3.285-.3,6.541-2,9v-1h-1c-1.66-4.917-1.547-9.376-8-10-1.643,3.147-3.874,14.105-7,16l-1-2c-2.246-2.913-3.157-8.931-4-13a15.7,15.7,0,0,0-5-1c-1.68,3.019-3.437,6.638-5,10h-1c-2.452-18.612-20.2-23.1-16-46a80.45,80.45,0,0,0,24-3C249.758,311.732,252.462,309.886,253,303Zm33,162q0.5-6,1-12l-3-1c-6.049-4-14.051,3.856-18,6,0.631,1.754.193,0.971,1,2,2.809,8.553,8.82,9.531,9,22h-2c-3.638-4.848-13.12-13.893-20-15-4.071,5.286-10.426,9.131-15,14h-4c0.2-12.054,7.664-12.386,9-22-3.467-3.383-4.478-6.38-11-7-2.453-1.659-5.25-.616-8,0a18.324,18.324,0,0,0-1,6c1.521,1.895,1.789,3.59,2,7h-3c-0.984-1.68-3.4-3.275-4-5V440c-2.749-8.349-11.542-13.9-15-22-3.321-7.781-1.955-15.911-12-17a18.324,18.324,0,0,0-1,6c2.1,2.033,5.055,8.1,4,10v1c-4.086-1.555-7.5-2.725-9-7-3.17-3.377-3.166-9.2-3-16,6.821-3.691,6.924-13.315,15-15,3.042,21.773,25.015,49.085,40,60,6.045,4.4,9.509,9.64,20,10,3.105-2.519,7.522-2.729,11-5,12.039-7.86,24.014-23,32-35,2.378-3.572,5.464-8.246,7-12,2.655-6.488.047-14.851,6-18v-1h1v1c5.867,3.861,13.755,13.793,14,23-3.225,4.912-1.9,10.781-8,13-1.681,1.344-3.143,1.637-6,2v-2c3.143-3.759,4.895-8.224,5-15h-2c-2.893,3.823-7.389,6.787-10,11l-9,21c-1.378,2.21-6.132,4.838-7,7-1.677,4.175,2.566,12.155,1,18-0.324,1.21-1.571,3.118-2,5C288.909,464.121,289.168,464.434,286,465Z" />
</svg>
