<svg xmlns="http://www.w3.org/2000/svg" width="128" height="128" viewBox="0 0 512 512">
  <defs>
    <style>
      .cls-1 {
        fill: #fff;
        fill-rule: evenodd;
      }
</style>
  </defs>
  <path id="Color_Fill_1" data-name="Color Fill 1" class="cls-1" d="M264,28c11.184,1.759,18.242,13.223,26,19,15.613,11.627,29.41,24.41,43,38,5.528,5.528,11.884,10.041,16,17,4.261-1.972,30.591-15.319,33-13,8.988,8.115-5.264,30.246-2,41,4.5,14.809,32.336,41.9,30,58-12.749,3.17-34.308,21.839-38,34-2.013,6.632.149,11.043,1,17,3.8,2.943,4.312,4.156,12,4,5.216-3.874,13.121-3.98,19-7,5.284-2.714,10.942-7.956,16-11,2.3-1.384,9.494-4.526,12-2,3.077,3.1-5.41,19.714-7,23-7.864,16.251-17.7,32.126-27,47-3.309,5.294-5.268,13.294-11,16-1.073.752-.946,0.6-3,1-8.449-8.7-35.867-23.5-52-11-1.646,1.275-1.783,4.19-3,6-4.758,7.076-10.537,14.667-15,22-2.859,4.7-3.69,9.882-7,14,0.919,6.193,1.563,12.1,7,14,7.69,5.1,18.057-4.116,25-5a21.509,21.509,0,0,1,1,7c-6.218,8.238-7.659,20.135-13,29-8.1,13.444-16.547,27.221-25,40-4.609,6.968-9.312,19.472-19,21l-1-3c-6.662-9.95-2.874-37.938-6-52q-3-23-6-46c7.1-26.981,25.735-48.6,39-70,9.927-16.017,14.008-36.19,19-57,10.209-42.553-14.155-75.378-38-88-7.367-3.9-20.858-11.99-35-8-40.239,11.353-86.583,49.334-68,106,11.132,33.946,31.966,55.652,45,87,17.692,42.551,15.942,118,5,166h-4c-11.144-20.14-21.69-40.2-33-61-6.67-12.266-18.356-25.777-19-43,1.766-.961,1.68-1.257,4-2,10.358,10.3,23.874,1.928,27-9,1.79-6.256-.894-20.878-3-27-7.12-20.693-15.107-41.63-36-48-19.574-5.968-29.133,11.8-38,14-6-9.425-14.606-17.914-21-27-7.8-11.078-13.688-22.386-21-34-6.037-9.588-14.388-18.057-15-33a15.705,15.705,0,0,1,5-1c8.547,12.768,38.937,32.75,60,33,1.322-3.856,1.073-10.614,1-16-1.872-2.594-1.587-5.735-3-9-2.877-6.645-9.653-16.457-15-21-5.449-4.63-25.29-14.95-27-21,8.855-7.191,20.6-27.12,28-37,5.116-6.828,15.475-13.2,19-21,5.019-11.1,4.314-44.629,13-50,10.593-6.55,29.407,12.371,36,10,9.878-3.35,17.941-14.19,26-20C234.511,49.259,252.387,39.489,264,28Zm-6,114c8.009,1.325,10.049,7.677,14,13,7.384,9.949,26.242,26.338,27,41-6.914,7.428-11.116,17.624-17,26-5.9,8.4-14.294,15.475-20,24-1.754-.631-0.971-0.193-2-1-7.16-2.45-10.827-9.458-15-15-7.391-9.816-26.48-23.95-28-38,4.283-4.26,6.4-9.989,10-15C235.943,164.558,247.523,153.063,258,142Z" />
</svg>
